<svg id="content" xmlns="http://www.w3.org/2000/svg" xmlns:xlink="http://www.w3.org/1999/xlink" viewBox="0 0 612 330"><defs><style>.cls-1{fill:none;}.cls-2{clip-path:url(#clip-path);}.cls-3{fill:#d5d5d5;}.cls-4{fill:#a3a3a3;}.cls-5{fill:#dfdfdf;}.cls-6{fill:#fff;}.cls-7{fill:#414242;}.cls-8{fill:#219dc8;}.cls-9{fill:#82d0f2;}.cls-10{fill:#178dc0;}.cls-11{fill:#f3ba26;}.cls-12{fill:#f8e7cc;}.cls-13{fill:#f2f2f2;}.cls-14{fill:#82d1f3;}.cls-15{fill:#f2b92c;}</style><clipPath id="clip-path"><rect class="cls-1" x="104.44" width="507.56" height="329.85"/></clipPath></defs><title>admin</title><g id="illustration"><g class="cls-2"><path class="cls-3" d="M542.33,131.23,354.41,239.13c-13.56,7.79-60.44,20.12-76.06,11.07h0c-15.62-9.06,5.94-36.08,19.49-43.87L477,103.69a17.5,17.5,0,0,1,17.43,0Z"/><g id="_4" data-name="4"><g id="_5" data-name="5"><path class="cls-4" d="M468.06,115l-4.9,1.77-16.11-9.34-130,74.78-50.59,18.31s-20.4,17.43-17.24,20.06,30.86,12.75,30.86,12.75h0c9.27,3.51,26.83,3.51,41.41-.39a124,124,0,0,0,29.88-12.38L486.18,143a5.2,5.2,0,0,0,2.55-3.74l6.19-27.54Z"/><path class="cls-5" d="M463.16,116.5l-9.93-5.76L450,111.89l-5.58-3.24L317.08,181.94l-50.59,18.31s-20.74,17.49-17.57,20.12c1.89,1.57,12.49,5.87,20.76,9,9.74,2.06,25.63-.66,38.74-4.17a124.35,124.35,0,0,0,29.88-12.37L492.13,124.1l2.79-12.43-26.86,3.06Z"/><path class="cls-6" d="M302.56,235.14s-16.16-1-24.29-7.38a31,31,0,0,1-3.32-3l-1.86.26c-4.88.67-11.82.16-16-.26,9.06,3.72,21.68,8.15,21.68,8.15h0c5.71,2.16,15.1,3.17,24.46,2.58Z"/><path class="cls-7" d="M467.94,114.39l-4.74,1.72-9.94-5.76-.28.1L447.06,107l-2.37,1.36-.23-.13L317,181.61l-50.59,18.3-.11.07c-.74.62-18,15.27-18,19.63a1.3,1.3,0,0,0,.46,1,6.8,6.8,0,0,0,1.05.69c5.24,3.17,29.18,11.93,30.25,12.32l.14,0c4.57,1.71,11,2.55,18.1,2.55a93.59,93.59,0,0,0,23.4-3,124.52,124.52,0,0,0,30-12.41l134.75-77.59a5.5,5.5,0,0,0,2.73-4l3.36-15h0l2.89-12.84Zm-20.89-6.56,5.06,2.93-2,.74-4.68-2.71ZM266.41,227.76c-6.91-2.7-13.8-5.58-16.42-7.11-.2-.13-.38-.25-.51-.35a.64.64,0,0,1-.21-.51c0-3.33,12.51-14.78,17.4-19l50.59-18.31,127.42-73.32,5.33,3.09,2.9-1,10.22,5.92,5-1.81,14.5-1.79L280.22,205.74l14.47,14.48a35.71,35.71,0,0,0,8.08,6.06c-9.24,2.16-23.61,4.76-32.95,2.79Zm55,4.81c-14.11,3.78-31.82,4-41.19.4l-.16,0h0c-.64-.23-3.49-1.28-7.22-2.69,1.5.15,3.07.23,4.7.23,8.84,0,19.15-2,26.14-3.69a43.71,43.71,0,0,0,22.88,4.28C324.89,231.6,323.18,232.11,321.45,232.57Z"/><path class="cls-8" d="M494.92,111.67,325.31,209.5c-13.55,7.8-60.44,20.13-76.06,11.07h0c-15.62-9.06,5.94-36.07,19.5-43.87L438.36,79.14Z"/><polygon class="cls-9" points="486.11 113.04 492.84 113.04 493.71 112.37 460.31 93.16 471.89 104.85 486.11 113.04"/><path class="cls-7" d="M265.8,224.12c-6.86,0-12.77-1-16.73-3.24a10.62,10.62,0,0,1-5.62-9.78c0-12.19,15.13-29,25.12-34.7L438.36,78.73l57,32.76-.09.41L325.49,209.81C315.35,215.64,286.35,224.12,265.8,224.12ZM438.36,79.55,268.93,177c-9.85,5.66-24.75,22.14-24.77,34.09a9.93,9.93,0,0,0,5.27,9.16c15.64,9.07,62.29-3.35,75.71-11.07l169.07-97.52Z"/><path class="cls-9" d="M438.48,95.69,269.05,193.15c-6.47,3.72-13.77,14.11-17.35,22l-.08.18a9.33,9.33,0,0,0,2.65,2.27h0c12.6,7.3,55.3-2.64,66.23-8.92l157.3-90.36Z"/><path class="cls-7" d="M486.92,111.7h0L438,83.54,268.83,180.71l-.34.21-.73.45c-.35.22-.7.46-1.05.71l-.34.23a47,47,0,0,0-4.09,3.34l-.14.13,1,10.07a25.63,25.63,0,0,1,5-3.93L437.51,94.45l39,22.44L319.34,207.15c-10.8,6.21-53.26,16.23-65.86,8.92a8.69,8.69,0,0,1-2.67-2.33,66.77,66.77,0,0,1,11.68-17.25l-1-10.09v0l-.09.09-.54.52c-6.13,6-11.89,14.29-12.29,21.05a.66.66,0,0,1,0,.14c0,.19,0,.38,0,.57s0,.18,0,.27a5.07,5.07,0,0,0,0,.55c0,.21,0,.43.05.64s0,.26.07.39a8.92,8.92,0,0,0,.86,2.55h0a8.23,8.23,0,0,0,.46.74l.06.1.12.17a2.14,2.14,0,0,1,.13.19l.11.15v0a9.47,9.47,0,0,0,2.64,2.21c3.2,1.86,8.28,2.62,14.28,2.62,18,0,44.13-6.83,52.3-11.53L486.4,112l.53-.31Z"/><polygon class="cls-10" points="437.51 94.04 437.99 83.95 486.21 111.7 477.18 116.89 437.51 94.04"/><path class="cls-7" d="M477.18,117.24l-40-23,.52-10.79,49.12,28.27ZM437.82,93.87l39.36,22.66,8.42-4.83L438.27,84.46Z"/><path class="cls-11" d="M447.31,143.2v4l-.74.43v-4l-1.15.66v-.76l3-1.77v.77Z"/><path class="cls-11" d="M451.3,144.84l-.83-1.31-.87.5v1.8l-.74.43,0-4.73,1.77-1c.42-.25.75-.32,1-.21s.35.39.35.85a2.43,2.43,0,0,1-.21,1,2.37,2.37,0,0,1-.57.81l1,1.43Zm-.1-3.23c0-.45-.22-.55-.65-.3l-.95.56v1.39l1-.56a1.21,1.21,0,0,0,.63-1.09Z"/><path class="cls-11" d="M455.09,142.64l-.32-1-1.35.79-.31,1.39-.74.43,1.28-5.48.87-.51,1.3,4Zm-1-3.43,0,.08c0,.09,0,.2-.06.31s-.16.77-.42,2l1-.6-.35-1.15-.11-.4Z"/><path class="cls-11" d="M458.46,140.67l-1.56-2.74a7,7,0,0,1,.05.83v2.79l-.66.38V137.2l.84-.49,1.58,2.76c0-.32,0-.62,0-.9v-2.75l.66-.38,0,4.73Z"/><path class="cls-11" d="M462.9,136.72a2.24,2.24,0,0,1-.38,1.29,3.14,3.14,0,0,1-1.13,1,1.5,1.5,0,0,1-1.07.3c-.26-.06-.42-.29-.5-.68l.72-.58c0,.22.14.35.28.38a.88.88,0,0,0,.59-.17,1.25,1.25,0,0,0,.77-1.08.35.35,0,0,0-.09-.28.33.33,0,0,0-.25-.08,3.45,3.45,0,0,0-.62.16,4.14,4.14,0,0,1-.56.12.86.86,0,0,1-.28,0,.45.45,0,0,1-.21-.12.59.59,0,0,1-.14-.26,1.61,1.61,0,0,1,0-.42,2.16,2.16,0,0,1,.36-1.19,2.92,2.92,0,0,1,1-1,1.45,1.45,0,0,1,1-.3c.22,0,.37.27.43.66l-.72.55a.38.38,0,0,0-.22-.33.65.65,0,0,0-.49.13,1.12,1.12,0,0,0-.67,1,.37.37,0,0,0,.07.26.29.29,0,0,0,.22.07,2.83,2.83,0,0,0,.57-.12,3.14,3.14,0,0,1,.73-.16.48.48,0,0,1,.54.36A1.28,1.28,0,0,1,462.9,136.72Z"/><path class="cls-11" d="M466.36,132.83a2.61,2.61,0,0,1-.16.91,2.82,2.82,0,0,1-.44.82,2.49,2.49,0,0,1-.69.6l-.88.51v1.66l-.74.44,0-4.74,1.59-.92c.42-.25.75-.31,1-.18S466.35,132.36,466.36,132.83Zm-.75.46c0-.5-.22-.62-.66-.37l-.77.45v1.53l.78-.45a1.23,1.23,0,0,0,.48-.48A1.39,1.39,0,0,0,465.61,133.29Z"/><path class="cls-11" d="M470.32,131.37a4.59,4.59,0,0,1-.21,1.43,4,4,0,0,1-.62,1.22,3.18,3.18,0,0,1-.95.85c-.56.33-1,.36-1.31.11a1.89,1.89,0,0,1-.48-1.52,4.37,4.37,0,0,1,.46-2.06,3.41,3.41,0,0,1,1.31-1.4c.57-.33,1-.37,1.32-.12A1.8,1.8,0,0,1,470.32,131.37Zm-.75.44a1.54,1.54,0,0,0-.28-1c-.18-.18-.44-.18-.76,0a1.91,1.91,0,0,0-.77.88,3.24,3.24,0,0,0-.27,1.36,1.6,1.6,0,0,0,.28,1.07c.19.19.44.19.76,0a1.81,1.81,0,0,0,.77-.88A3.36,3.36,0,0,0,469.57,131.81Z"/><path class="cls-11" d="M473.33,132l-.83-1.32-.87.51V133l-.74.43,0-4.73,1.77-1c.43-.25.75-.31,1-.2s.35.39.35.84a2.43,2.43,0,0,1-.21,1,2.37,2.37,0,0,1-.57.81l1,1.43Zm-.11-3.23c0-.46-.22-.56-.65-.31l-.95.56v1.4l1-.57a1.33,1.33,0,0,0,.48-.46A1.21,1.21,0,0,0,473.22,128.79Z"/><path class="cls-11" d="M476.19,126.37l0,4-.74.43,0-4-1.14.67v-.77l3-1.76v.76Z"/><path class="cls-4" d="M338.12,212.55a123.78,123.78,0,0,1-29.79,12.34c-1.48.39-3.38.88-5.56,1.39l1,.5c1.86-.44,3.49-.86,4.79-1.2a125.09,125.09,0,0,0,30-12.41l154-88.84.21-1Z"/></g><g id="_4-2" data-name="4"><path class="cls-11" d="M412.23,109.6V66.28l62.11,7.62v43.58c.08.47-1,1.6-1.58,1.94l-20.5,11.77a4.9,4.9,0,0,1-4.39-.16l-34.57-19.91C412.55,110.69,412.18,110.12,412.23,109.6Z"/><path class="cls-12" d="M452.27,87.62l21.35-12.44c1.12-.65,1-1.78-.33-2.52L438.72,52.75a4.87,4.87,0,0,0-4.39-.16L413,65c-1.12.65-1,1.78.33,2.53l34.57,19.9A4.88,4.88,0,0,0,452.27,87.62Z"/><path class="cls-11" d="M412.24,62a1.91,1.91,0,0,0,1.07,1.26l34.57,19.91a4.9,4.9,0,0,0,4.39.16l21.35-12.43a1.4,1.4,0,0,0,.73-.91v5.11a1.24,1.24,0,0,1-.73,1.28L452.27,88.76a4.9,4.9,0,0,1-4.39-.16L413.31,68.69c-.76-.43-1.13-1-1.08-1.52V62Z"/><path class="cls-11" d="M417.38,60.86l17.41-10.13a4,4,0,0,1,3.58.13L469.2,68.61c1.06.61,1.18,1.53.27,2.06L465.54,73l-26.9-15.48a4,4,0,0,0-3.58-.13l-13.47,7.84-3.94-2.27C416.59,62.32,416.47,61.4,417.38,60.86Z"/><path class="cls-12" d="M413,61.91l21.35-12.43a4.87,4.87,0,0,1,4.39.16l34.57,19.91c1.3.74,1.45,1.87.33,2.52L452.27,84.5a4.84,4.84,0,0,1-4.39-.16l-34.57-19.9C412,63.69,411.86,62.56,413,61.91Zm4.67,2.16,30.84,17.75a3.93,3.93,0,0,0,3.57.13l17.41-10.13c.91-.53.79-1.46-.27-2.06L438.37,52a4,4,0,0,0-3.58-.13L417.38,62C416.47,62.55,416.59,63.47,417.65,64.07Z"/><path class="cls-7" d="M445.4,98.15l-4.33-2.58v-6.7l4.33,2.5Zm-3.73-2.93,3.12,1.86V91.72l-3.12-1.8Z"/><path class="cls-7" d="M440.13,95.15l-4.33-2.58V85.86l4.33,2.5Zm-3.72-2.93,3.11,1.85V88.71l-3.11-1.79Z"/><path class="cls-7" d="M434.87,92.14l-4.33-2.58v-6.7l4.33,2.5Zm-3.72-2.92,3.11,1.85V85.71l-3.11-1.8Z"/><path class="cls-7" d="M429.61,89.14l-4.34-2.58v-6.7l4.34,2.5Zm-3.73-2.93L429,88.07V82.71l-3.12-1.8Z"/><path class="cls-7" d="M424.34,86.14,420,83.56V76.85l4.33,2.5Zm-3.72-2.93,3.11,1.85V79.71l-3.11-1.8Z"/><path class="cls-7" d="M419.08,83.13l-4.33-2.58v-6.7l4.33,2.5Zm-3.72-2.92,3.11,1.85V76.7l-3.11-1.79Z"/><path class="cls-7" d="M445.4,106.05l-4.33-2.58v-6.7l4.33,2.5Zm-3.73-2.92,3.12,1.85V99.62l-3.12-1.8Z"/><path class="cls-7" d="M440.13,103.05l-4.33-2.58v-6.7l4.33,2.5Zm-3.72-2.93,3.11,1.86V96.62l-3.11-1.8Z"/><path class="cls-7" d="M434.87,100.05l-4.33-2.58V90.76l4.33,2.5Zm-3.72-2.93L434.26,99V93.62l-3.11-1.8Z"/><path class="cls-7" d="M429.61,97l-4.34-2.58v-6.7l4.34,2.5Zm-3.73-2.92L429,96V90.61l-3.12-1.8Z"/><path class="cls-7" d="M424.34,94,420,91.46v-6.7l4.33,2.5Zm-3.72-2.93L423.73,93V87.61l-3.11-1.8Z"/><path class="cls-7" d="M419.08,91l-4.33-2.58V81.75l4.33,2.5Zm-3.72-2.93L418.47,90V84.6l-3.11-1.79Z"/><path class="cls-7" d="M469.38,68.31,438.54,50.56a3.85,3.85,0,0,0-1-.38,4.32,4.32,0,0,0-1.06-.16,3.64,3.64,0,0,0-1.91.41L417.2,60.57a1.41,1.41,0,0,0-.79,1.21,1.14,1.14,0,0,0,.08.4,2.06,2.06,0,0,0,1,1.06l4.12,2.37h0L448.31,81a4.49,4.49,0,0,0,2.18.55,3.49,3.49,0,0,0,1.75-.42l13.3-7.74h0L469.65,71a1.42,1.42,0,0,0,.79-1.21A1.81,1.81,0,0,0,469.38,68.31Zm-17.5,12.2a3.7,3.7,0,0,1-3.22-.13L422.3,65.2l12.94-7.54a3.63,3.63,0,0,1,3.22.14L464.83,73Zm17.41-10.14-3.75,2.19L438.82,57.18a4.49,4.49,0,0,0-2.18-.54A3.92,3.92,0,0,0,435,57l0-6a2.48,2.48,0,0,1,.58-.21l.07,0a2.93,2.93,0,0,1,.67-.07h.41l.19,0,.28,0,.17,0a1.49,1.49,0,0,1,.3.09l.14,0,.4.19L469,68.93c.43.25.7.57.7.85A.74.74,0,0,1,469.29,70.37Z"/><path class="cls-7" d="M474.71,75.06V70s0-.09,0-.13a2.16,2.16,0,0,0-1.26-1.73L438.89,48.19a5.2,5.2,0,0,0-4.74-.16L412.8,60.46a1.65,1.65,0,0,0-.93,1.41.29.29,0,0,0,0,.09v47.68a2.06,2.06,0,0,0,1.25,1.84l34.57,19.91a5.52,5.52,0,0,0,2.63.66,4.28,4.28,0,0,0,2.11-.5L473,119.78c.5-.3,1.88-1.54,1.75-2.25v-42C474.72,75.28,474.7,75.23,474.71,75.06Zm-26.82,55.62-34.41-19.82c-.6-.34-.93-.78-.9-1.18V68.63a4.66,4.66,0,0,0,.54.38L447.7,88.92l.19.09Zm0-42.47L413.48,68.39c-.59-.34-.93-.78-.89-1.21v-4a3.66,3.66,0,0,0,.54.37L447.7,83.51a1.63,1.63,0,0,0,.19.09Zm1,42.9V89.39a5.7,5.7,0,0,0,1.42.18v41.71l.33,0A5.19,5.19,0,0,1,448.91,131.11Zm0-42.47V84l.29.06a4.84,4.84,0,0,0,1.13.12v4.68A5.3,5.3,0,0,1,448.91,88.64ZM474,69.89h0a1,1,0,0,1-.56.67L452.09,83a4.56,4.56,0,0,1-4-.16L413.48,62.91a1.64,1.64,0,0,1-.89-1h0s0,0,0,0a1,1,0,0,1,.58-.79l21.35-12.44a3.58,3.58,0,0,1,1.74-.39,4.76,4.76,0,0,1,2.29.56l34.57,19.91c.58.32.9.73.91,1.11C474,69.85,474,69.87,474,69.89Z"/><path class="cls-4" d="M446.1,68.75h0L442.56,33l-5.37-2.8v4.23l0,36.32a.65.65,0,0,0,0,.34v0h0a1.55,1.55,0,0,0,.8.94,3.8,3.8,0,0,0,3.43.17l4.13-2.33A.93.93,0,0,0,446.1,68.75Z"/><path class="cls-5" d="M442.21,29.91l-2.47,1.4a2.29,2.29,0,0,1-2.06-.11h0c-.6-.35-.67-.89-.14-1.18L440,28.61a2.26,2.26,0,0,1,2.05.11h0C442.68,29.07,442.74,29.61,442.21,29.91Z"/><path class="cls-7" d="M446.49,68.68,443,33h0V28.22h0a1.3,1.3,0,0,0-.66-.83,2.67,2.67,0,0,0-2.44-.11l-2.48,1.4a1,1,0,0,0-.55.85s0,.07,0,.11h0v4.69h0l0,36.38a1,1,0,0,0,0,.45l.17.48a2.29,2.29,0,0,0,.83.8A4.42,4.42,0,0,0,440,73a3.35,3.35,0,0,0,1.65-.38l4.13-2.34A1.32,1.32,0,0,0,446.49,68.68Zm-8.76-39.33,2.48-1.4a1.4,1.4,0,0,1,.68-.14,2.07,2.07,0,0,1,1,.24c.21.13.31.26.31.34s-.07.13-.17.18L439.55,30a1.9,1.9,0,0,1-1.67-.09c-.22-.13-.31-.27-.31-.35S437.63,29.41,437.73,29.35Zm-.15,1.23a2.81,2.81,0,0,0,1.28.31,2.22,2.22,0,0,0,.45-.05v3.93a2,2,0,0,1-1.43-.18c-.22-.13-.3-.26-.31-.34V30.58Zm.63,41.18a1.17,1.17,0,0,1-.62-.69v0a.68.68,0,0,1,0-.24l0-35.5a2.82,2.82,0,0,0,1.29.31,3.42,3.42,0,0,0,.46,0l1.55,36.53A3.7,3.7,0,0,1,438.21,71.76Z"/><path class="cls-4" d="M442.76,32.89l-3.22,1.82-.23.08v.79a1.84,1.84,0,0,0,.6-.2L443,33.63l-.06-1C443,32.72,442.82,32.86,442.76,32.89Z"/><path class="cls-11" d="M468.07,90V83.17l4.4-2.49v6.7Zm.61-6.42v5.36L471.86,87V81.72Z"/><path class="cls-11" d="M462.81,92.92V86.14l4.4-2.5v6.71Zm.61-6.43v5.37L466.6,90v-5.3Z"/><path class="cls-11" d="M457.49,96.06V89.28l4.4-2.5v6.7Zm.61-6.43V95l3.18-1.86v-5.3Z"/><path class="cls-11" d="M452.17,98.91V92.13l4.4-2.49v6.7Zm.61-6.42v5.36L456,96V90.68Z"/><path class="cls-11" d="M468.07,97.79V91l4.4-2.49v6.7Zm.61-6.42v5.36l3.18-1.86V89.56Z"/><path class="cls-11" d="M462.81,100.76V94l4.4-2.49v6.7Zm.61-6.42V99.7l3.18-1.86V92.53Z"/><path class="cls-11" d="M457.49,103.9V97.12l4.4-2.49v6.7Zm.61-6.43v5.37l3.18-1.86V95.67Z"/><path class="cls-11" d="M452.17,106.75V100l4.4-2.49v6.7Zm.61-6.42v5.36l3.18-1.86V98.52Z"/><path class="cls-7" d="M423.66,117.44l-7.81-4.52V99.23l7.81,4.79Zm-7.31-4.82,6.8,3.94V104.3l-6.8-4.16Z"/><polygon class="cls-7" points="417.52 108.27 417.52 102.59 421.82 105.23 421.82 110.76 417.52 108.27"/><polygon class="cls-4" points="462.14 69.41 455.04 65.31 447.93 69.41 447.93 71.4 455.04 75.49 455.04 73.51 462.14 69.41"/><path class="cls-7" d="M462.14,69.12h0L455,65l-7.36,4.24v2.29l7.1,4.09h0l.26.14,7.36-4.23V69.26Zm-.51.29L455,73.22l-6.6-3.81L455,65.6Zm-13.44,1.85V69.85l2.73,1.58,3.86,2.23v1.39Z"/><polygon class="cls-5" points="458.81 69.85 455.04 71.96 451.26 69.85 455.04 67.67 458.81 69.85"/><path class="cls-7" d="M455,72.27l-5-2.86,5-2.86L460,69.41Zm-3.94-2.86L455,71.69,459,69.41,455,67.14Z"/><path class="cls-11" d="M474.72,75.27,452.09,88.46a3.66,3.66,0,0,1-1.76.39v.72a4.23,4.23,0,0,0,2.12-.5l22.27-13Z"/></g><g id="_3" data-name="3"><path class="cls-11" d="M263.76,213.37h0l-3.54-35.71-5.38-2.58v4l0,36.32a.78.78,0,0,0,0,.34v0h0a1.52,1.52,0,0,0,.8.94,3.8,3.8,0,0,0,3.43.17l4.12-2.33A.94.94,0,0,0,263.76,213.37Z"/><path class="cls-12" d="M259.86,174.53l-2.47,1.4a2.29,2.29,0,0,1-2.06-.11h0c-.6-.35-.66-.89-.13-1.18l2.47-1.41a2.29,2.29,0,0,1,2.06.11h0C260.33,173.69,260.39,174.23,259.86,174.53Z"/><path class="cls-7" d="M264.14,213.3l-3.54-35.66h0v-4.79h0a1.3,1.3,0,0,0-.66-.83,2.67,2.67,0,0,0-2.44-.11L255,173.3a1,1,0,0,0-.56.85.52.52,0,0,0,0,.11h0v4.69h0l0,36.38a1.37,1.37,0,0,0,0,.45l.17.48a2.29,2.29,0,0,0,.83.8,4.42,4.42,0,0,0,2.16.55,3.33,3.33,0,0,0,1.65-.38l4.13-2.34A1.31,1.31,0,0,0,264.14,213.3ZM255.39,174l2.47-1.4a1.42,1.42,0,0,1,.68-.14,2.07,2.07,0,0,1,1,.24c.21.13.31.26.31.34s-.06.13-.17.18l-2.47,1.4a1.9,1.9,0,0,1-1.67-.09c-.21-.13-.31-.27-.31-.35S255.28,174,255.39,174Zm-.16,1.23a2.81,2.81,0,0,0,1.28.31,2.14,2.14,0,0,0,.45,0v3.93a2,2,0,0,1-1.43-.18c-.22-.13-.3-.26-.3-.34V175.2Zm.63,41.18a1.17,1.17,0,0,1-.62-.69v0a.68.68,0,0,1,0-.24l0-35.5a2.88,2.88,0,0,0,1.29.31,3.57,3.57,0,0,0,.47,0l1.54,36.53A3.71,3.71,0,0,1,255.86,216.38Z"/><path class="cls-11" d="M260.41,177.51l-3.21,1.82-.24.08v.79a2,2,0,0,0,.61-.2l3.08-1.75-.06-1C260.62,177.34,260.47,177.48,260.41,177.51Z"/><polygon class="cls-5" points="269.72 197.44 283.12 189.56 296.29 197.44 283.39 205.07 269.72 197.44"/><polygon class="cls-6" points="269.72 198.59 283.12 190.71 296.29 198.59 283.39 206.22 269.72 198.59"/><polygon class="cls-4" points="269.72 203.47 269.72 197.44 283.39 205.06 283.18 211.25 269.72 203.47"/><path class="cls-5" d="M284,195.71c1.07.12,1.49.6,1.49,1.24,0,.08,0,0,0,.08l3.22,1.56a2.63,2.63,0,0,0,.5-1.51c0-2-2.47-3.61-5.59-3.76Z"/><path class="cls-7" d="M288.88,198.91l-3.86-1.7.08-.26c0-.21,0-.75-1.18-.88l-.27,0-.33-3.09.27,0c3.38.15,5.93,1.92,5.93,4.11a3,3,0,0,1-.56,1.71Zm-3.08-2.11,2.73,1.33a2.12,2.12,0,0,0,.28-1c0-1.68-2.08-3.11-4.81-3.37l.27,1.69C285.48,195.62,285.76,196.31,285.8,196.8Z"/><path class="cls-5" d="M284.51,198c-.42.26-.26-.56-.93-.56s-1.42.79-1.84.56l-3.35,1.43a7.8,7.8,0,0,0,4.73,1.43,7.58,7.58,0,0,0,4.95-1.61Z"/><path class="cls-7" d="M283.12,201.22a8.14,8.14,0,0,1-4.95-1.51l-.35-.28,3.94-1.82.15.08a1.62,1.62,0,0,0,.58-.24,2.53,2.53,0,0,1,1.09-.37.94.94,0,0,1,.86.55h0l.17,0,4,1.55-.32.3A8,8,0,0,1,283.12,201.22Zm-4-1.71a7.84,7.84,0,0,0,4,1,7.71,7.71,0,0,0,4.21-1.13l-2.8-1a.48.48,0,0,1-.29,0,.68.68,0,0,1-.4-.38c-.1-.18-.13-.21-.26-.21a2.09,2.09,0,0,0-.76.28,1.66,1.66,0,0,1-1.07.3Z"/><path class="cls-5" d="M280.79,197c0-.1,0,.1,0,0a1.55,1.55,0,0,1,1.51-1.52l.37-2.11c-3.13.15-5.59,1.77-5.59,3.76a2.68,2.68,0,0,0,.66,1.71Z"/><path class="cls-7" d="M277.57,199.15l-.11-.13a3.08,3.08,0,0,1-.74-1.94c0-2.19,2.55-4,5.93-4.11l.28,0-.33,2.8-.26,0a1.2,1.2,0,0,0-1.19,1.1l.09.21-.09.06v.12l-.3.06Zm4.67-5.44c-2.73.26-4.81,1.69-4.81,3.37a2.25,2.25,0,0,0,.4,1.24l2.55-1.54.08-.11h0a1.89,1.89,0,0,1,1.53-1.55Z"/><path class="cls-4" d="M285.47,197c0,.73-1,1.32-2.33,1.32s-2.33-.59-2.33-1.32c0-.53.61-1.91,1.42-2.12.29-.08.56.8.91.8s.59-.89.9-.81A2.82,2.82,0,0,1,285.47,197Z"/><path class="cls-7" d="M283.14,198.62c-1.51,0-2.69-.73-2.69-1.67,0-.6.65-2.2,1.69-2.47.39-.1.63.26.81.52a2.23,2.23,0,0,0,.19.24,2.15,2.15,0,0,0,.18-.24c.17-.27.42-.62.81-.52a3.1,3.1,0,0,1,1.69,2.47C285.82,197.89,284.64,198.62,283.14,198.62Zm-.92-3.42a2.62,2.62,0,0,0-1.06,1.75c0,.45.81,1,2,1s2-.51,2-1A2.69,2.69,0,0,0,284,195.2l-.13.19c-.18.27-.4.59-.77.59s-.58-.32-.77-.57A1.59,1.59,0,0,0,282.22,195.2Z"/><ellipse class="cls-5" cx="283.14" cy="195.58" rx="1.62" ry="0.92"/><ellipse class="cls-6" cx="283.14" cy="196.27" rx="1.62" ry="0.92"/><path class="cls-7" d="M283.14,196.86c-1.13,0-2-.55-2-1.28s.85-1.27,2-1.27,2,.56,2,1.27S284.25,196.86,283.14,196.86Zm0-1.84c-.77,0-1.27.34-1.27.56s.5.57,1.27.57,1.26-.34,1.26-.57S283.91,195,283.14,195Z"/><path class="cls-7" d="M296.3,197h0l-13.18-7.88L269.72,197l-.35.22v6.42l13.82,8,13.47-7.84v-6.58ZM283.12,190l12.48,7.47-10,5.91-2.21,1.3-12.95-7.22ZM270.05,198l2.42,1.35L283,205.27l0,5.49-12.93-7.49Z"/></g><g id="_2" data-name="2"><polygon class="cls-11" points="415.91 125.17 429.31 117.3 442.49 125.17 429.58 132.8 415.91 125.17"/><polygon class="cls-12" points="415.91 126.33 429.31 118.44 442.49 126.33 429.58 133.95 415.91 126.33"/><polygon class="cls-11" points="415.91 131.21 415.91 125.17 429.58 132.8 429.37 138.99 415.91 131.21"/><path class="cls-11" d="M430.15,123.45c1.07.12,1.5.59,1.5,1.23,0,.08,0,0,0,.08l3.21,1.56a2.62,2.62,0,0,0,.5-1.5c0-2-2.46-3.62-5.59-3.76Z"/><path class="cls-7" d="M435.07,126.64,431.21,125l.08-.27c0-.2,0-.75-1.18-.88l-.27,0-.33-3.08h.28c3.38.16,5.93,1.93,5.93,4.12a3,3,0,0,1-.57,1.71Zm-3.08-2.1,2.74,1.32a2.22,2.22,0,0,0,.28-1c0-1.69-2.09-3.12-4.82-3.38l.27,1.69C431.67,123.35,432,124.05,432,124.54Z"/><path class="cls-11" d="M430.71,125.73c-.43.26-.27-.56-.94-.56s-1.42.79-1.84.56l-3.35,1.44a7.87,7.87,0,0,0,4.73,1.42,7.53,7.53,0,0,0,4.95-1.61Z"/><path class="cls-7" d="M429.31,129a8.15,8.15,0,0,1-4.94-1.5l-.36-.28,3.94-1.83.15.08a1.62,1.62,0,0,0,.58-.24,2.56,2.56,0,0,1,1.09-.36.94.94,0,0,1,.86.54h0l.17.05,4,1.56-.33.29A8,8,0,0,1,429.31,129Zm-4-1.71a7.84,7.84,0,0,0,4,1,7.75,7.75,0,0,0,4.22-1.14l-2.81-1a.48.48,0,0,1-.29,0,.67.67,0,0,1-.4-.37c-.1-.18-.13-.22-.26-.22a2,2,0,0,0-.76.29,1.79,1.79,0,0,1-1.07.3Z"/><path class="cls-11" d="M427,124.68c0-.1,0,.11,0,0a1.55,1.55,0,0,1,1.51-1.52l.37-2.1c-3.13.14-5.59,1.77-5.59,3.76a2.72,2.72,0,0,0,.66,1.71Z"/><path class="cls-7" d="M423.76,126.88l-.11-.13a3.07,3.07,0,0,1-.74-1.93c0-2.19,2.55-4,5.93-4.12h.28l-.33,2.8-.26,0a1.21,1.21,0,0,0-1.19,1.11l.09.21-.09,0V125l-.3.06Zm4.67-5.44c-2.73.26-4.81,1.7-4.81,3.38a2.28,2.28,0,0,0,.4,1.24l2.55-1.55.08-.11h0a1.9,1.9,0,0,1,1.53-1.55Z"/><path class="cls-11" d="M431.66,124.68c0,.73-1,1.32-2.33,1.32s-2.33-.59-2.33-1.32c0-.53.62-1.91,1.42-2.12.29-.08.56.8.91.8s.6-.89.9-.8C431,122.77,431.66,124.16,431.66,124.68Z"/><path class="cls-7" d="M429.33,126.36c-1.51,0-2.69-.74-2.69-1.68a3,3,0,0,1,1.69-2.46c.39-.1.63.25.82.51a.19.19,0,1,0,.36,0c.18-.26.42-.62.81-.52a3.11,3.11,0,0,1,1.7,2.47C432,125.62,430.84,126.36,429.33,126.36Zm-.91-3.42a2.56,2.56,0,0,0-1.07,1.74c0,.46.82,1,2,1s2-.5,2-1a2.66,2.66,0,0,0-1.08-1.75l-.13.2c-.18.26-.4.59-.77.59s-.58-.32-.76-.58Z"/><path class="cls-11" d="M431,123.32c0,.5-.73.91-1.62.91s-1.62-.41-1.62-.91.73-.92,1.62-.92S431,122.81,431,123.32Z"/><ellipse class="cls-12" cx="429.33" cy="124.01" rx="1.62" ry="0.92"/><path class="cls-7" d="M429.33,124.59c-1.13,0-2-.55-2-1.27s.84-1.27,2-1.27,2,.55,2,1.27S430.44,124.59,429.33,124.59Zm0-1.83c-.77,0-1.26.33-1.26.56s.49.56,1.26.56,1.26-.33,1.26-.56S430.1,122.76,429.33,122.76Z"/><path class="cls-7" d="M442.49,124.76h0l-13.17-7.88-13.41,7.88-.35.23v6.42l13.82,8,13.47-7.85V125Zm-13.18-7.05,12.48,7.46-10,5.91-2.21,1.31-12.95-7.23Zm-13.06,8.06,2.41,1.34L429.22,133l0,5.49L416.27,131Z"/></g><g id="_1" data-name="1"><polygon class="cls-4" points="370.92 132.77 370.92 113.74 407.12 134.64 407.12 153.91 370.92 132.77"/><polygon class="cls-5" points="370.92 113.17 384.38 105.33 420.55 126.22 407.12 133.95 370.92 113.17"/><polygon class="cls-4" points="407.31 134.07 407.12 135.75 370.92 115.03 370.92 113.26 407.31 134.07"/><polygon class="cls-6" points="372.27 114 384.38 106.96 420.55 127.86 408.47 134.78 372.27 114"/><path class="cls-7" d="M384.38,104.92l-13.82,8v20l36.56,21.34,13.79-8V126Zm-13.15,10.64,2.62,1.5v17l-2.58-1.5Zm29.51,16.89,2.79,1.6V151.4l-2.81-1.64h0Zm-.51,17-2.8-1.63V130.56l2.8,1.6Zm-3.3-19.16v17.24l-2.8-1.64V128.67l2.87,1.64Zm-3.31,15.31L390.83,144V126.78l2.79,1.6Zm-3.3-1.93-2.79-1.63V124.89l2.79,1.6Zm-3.3-1.93-2.76-1.61V123L387,124.6Zm-3.26-1.9-2.8-1.64V121.13l2.8,1.6Zm-3.31-1.93-2.79-1.63V119.24l2.79,1.6Zm-3.3-1.93-2.79-1.63v-17l2.79,1.6Zm29.62,17.29L404,151.7V134.34l2.73,1.56Zm0-18.94v.85l-35.54-20.34v-1.18l35.55,20.47Zm.35-.81-35.49-20.37,12.75-7.43,35.46,20.49Z"/><polygon class="cls-5" points="420.91 127.73 420.91 127.08 406.81 135.22 406.82 135.87 413.93 131.76 413.93 150.36 414.44 150.06 414.44 131.47 420.91 127.73"/><path class="cls-5" d="M411.16,145.1a.88.88,0,0,1-.42-.11l-.21-.12a.22.22,0,0,1-.08-.3h0a.22.22,0,0,1,.3-.08l.2.12a.43.43,0,0,0,.44,0l1.37-.75-.22-.14a.23.23,0,0,1-.08-.3h0a.24.24,0,0,1,.31-.08l.21.13a.41.41,0,0,1,.22.39.43.43,0,0,1-.23.38l-1.37.76A.86.86,0,0,1,411.16,145.1Z"/><path class="cls-5" d="M416,142.42a.92.92,0,0,1-.43-.11l-.21-.13a.21.21,0,0,1-.08-.29h0a.21.21,0,0,1,.3-.08l.21.12a.44.44,0,0,0,.43,0l1.38-.75-.23-.14a.22.22,0,0,1-.07-.3h0a.21.21,0,0,1,.3-.08l.22.12a.44.44,0,0,1,.22.39.45.45,0,0,1-.23.39l-1.38.75A.81.81,0,0,1,416,142.42Z"/><polygon class="cls-9" points="356.27 141.34 356.27 122.31 392.47 143.21 392.47 162.48 356.27 141.34"/><polygon class="cls-3" points="356.27 121.74 369.73 113.9 405.9 134.8 392.47 142.52 356.27 121.74"/><polygon class="cls-10" points="392.67 142.65 392.47 144.32 356.27 123.61 356.27 121.83 392.67 142.65"/><polygon class="cls-13" points="357.62 122.58 369.73 115.53 405.9 136.43 393.82 143.35 357.62 122.58"/><path class="cls-7" d="M369.73,113.49l-13.81,8.05v20l36.55,21.34,13.79-8V134.59Zm-13.15,10.65,2.62,1.5v17l-2.57-1.5ZM386.09,141l2.79,1.6V160l-2.81-1.64h0Zm-.51,17-2.79-1.64V139.13l2.79,1.6Zm-3.3-19.17v17.24l-2.79-1.63V137.24l2.86,1.64ZM379,154.19l-2.8-1.63V135.35L379,137Zm-3.3-1.93-2.8-1.63V133.46l2.8,1.6Zm-3.31-1.93-2.75-1.61V131.6l2.75,1.57Zm-3.26-1.9-2.8-1.63V129.71l2.8,1.59Zm-3.3-1.93-2.8-1.63V127.82l2.8,1.6Zm-3.3-1.93-2.8-1.63v-17l2.8,1.6Zm29.61,17.29-2.73-1.59V142.91l2.73,1.56Zm0-18.94v.85l-35.54-20.34v-1.18l35.55,20.47Zm.35-.81L357,121.74l12.75-7.43,35.46,20.49Z"/><polygon class="cls-9" points="406.26 136.3 406.26 135.65 392.17 143.8 392.17 144.45 399.28 140.34 399.28 158.93 399.79 158.63 399.79 140.04 406.26 136.3"/><path class="cls-9" d="M396.51,153.68a.81.81,0,0,1-.42-.12l-.21-.12a.22.22,0,0,1-.08-.3h0a.22.22,0,0,1,.3-.08l.21.12a.44.44,0,0,0,.43,0l1.38-.76-.23-.14a.22.22,0,0,1-.07-.3h0a.22.22,0,0,1,.3-.08l.22.13a.44.44,0,0,1,.22.39.45.45,0,0,1-.23.39l-1.38.75A1,1,0,0,1,396.51,153.68Z"/><path class="cls-9" d="M401.31,151a.92.92,0,0,1-.43-.11l-.21-.12a.23.23,0,0,1-.08-.3h0a.23.23,0,0,1,.3-.08l.21.12a.42.42,0,0,0,.43,0l1.38-.75-.23-.14a.22.22,0,0,1-.07-.3h0a.23.23,0,0,1,.3-.08l.22.13a.43.43,0,0,1,.22.39.43.43,0,0,1-.23.38l-1.38.76A.8.8,0,0,1,401.31,151Z"/><polygon class="cls-4" points="341.62 149.91 341.62 130.87 377.83 151.78 377.83 171.04 341.62 149.91"/><polygon class="cls-3" points="341.62 130.31 355.08 122.46 391.26 143.36 377.83 151.08 341.62 130.31"/><polygon class="cls-4" points="378.02 151.21 377.83 152.88 341.62 132.17 341.62 130.4 378.02 151.21"/><polygon class="cls-13" points="342.97 131.14 355.08 124.09 391.26 144.99 379.18 151.91 342.97 131.14"/><path class="cls-7" d="M355.08,122.05l-13.81,8v20l36.56,21.35,13.78-8V143.15ZM341.93,132.7l2.63,1.5v17L342,149.7Zm29.51,16.88,2.8,1.6v17.36l-2.82-1.65h0Zm-.51,17L368.14,165V147.69l2.79,1.6Zm-3.3-19.17v17.24l-2.79-1.63V145.8l2.87,1.64Zm-3.3,15.31-2.79-1.63V143.91l2.79,1.6Zm-3.3-1.93-2.8-1.63V142l2.8,1.59Zm-3.3-1.92L355,157.29V140.16l2.76,1.57ZM354.46,157l-2.79-1.63V138.27l2.79,1.6Zm-3.3-1.93-2.79-1.63V136.38l2.79,1.6Zm-3.3-1.93-2.8-1.63v-17l2.8,1.6Zm29.61,17.3-2.73-1.6V151.47l2.73,1.56Zm0-18.94v.84L341.93,132v-1.19l35.54,20.48Zm.36-.82-35.5-20.37,12.75-7.43,35.46,20.49Z"/><polygon class="cls-5" points="391.61 144.86 391.61 144.21 377.52 152.36 377.52 153.01 384.63 148.9 384.63 167.49 385.14 167.19 385.14 148.6 391.61 144.86"/><path class="cls-5" d="M381.87,162.24a.82.82,0,0,1-.43-.12l-.21-.12a.22.22,0,0,1-.08-.3h0a.23.23,0,0,1,.3-.08l.21.12a.44.44,0,0,0,.43,0l1.38-.76-.23-.13a.22.22,0,0,1-.07-.3h0a.21.21,0,0,1,.3-.08l.22.12a.44.44,0,0,1,.22.39.45.45,0,0,1-.23.39l-1.38.75A.81.81,0,0,1,381.87,162.24Z"/><path class="cls-5" d="M386.66,159.56a.89.89,0,0,1-.42-.12l-.21-.12a.21.21,0,0,1-.08-.3h0a.22.22,0,0,1,.3-.08l.2.12a.46.46,0,0,0,.44,0l1.37-.76-.22-.14a.22.22,0,0,1-.08-.3h0a.24.24,0,0,1,.31-.08l.21.13a.44.44,0,0,1,0,.77l-1.37.76A1,1,0,0,1,386.66,159.56Z"/><polygon class="cls-9" points="326.98 158.48 326.98 139.44 363.18 160.35 363.18 179.62 326.98 158.48"/><polygon class="cls-3" points="326.98 138.88 340.44 131.03 376.61 151.93 363.18 159.66 326.98 138.88"/><polygon class="cls-10" points="363.37 159.78 363.18 161.46 326.98 140.74 326.98 138.97 363.37 159.78"/><polygon class="cls-13" points="328.32 139.71 340.44 132.66 376.61 153.56 364.53 160.49 328.32 139.71"/><path class="cls-7" d="M340.43,130.62l-13.81,8v20L363.18,180,377,172V151.73Zm-13.14,10.65,2.62,1.5v17l-2.58-1.5Zm29.5,16.89,2.8,1.59v17.36l-2.81-1.64h0Zm-.5,17-2.8-1.63V156.27l2.8,1.59ZM353,156v17.23l-2.79-1.63V154.38l2.87,1.64Zm-3.3,15.31-2.79-1.64v-17.2l2.79,1.6Zm-3.3-1.93-2.79-1.63V150.6l2.79,1.6Zm-3.3-1.93-2.76-1.61V148.73l2.76,1.58Zm-3.27-1.91L337,163.93V146.84l2.79,1.6Zm-3.3-1.92L333.72,162V145l2.79,1.6Zm-3.3-1.93-2.79-1.63v-17l2.79,1.6ZM362.82,179l-2.72-1.59V160l2.72,1.57Zm0-18.94v.84l-35.54-20.33v-1.18l35.54,20.47Zm.36-.82-35.49-20.36,12.75-7.43,35.46,20.48Z"/><polygon class="cls-9" points="376.97 153.43 376.96 152.78 362.87 160.93 362.88 161.58 369.99 157.47 369.99 176.06 370.49 175.77 370.49 157.18 376.97 153.43"/><path class="cls-9" d="M367.22,170.81a1,1,0,0,1-.43-.11l-.2-.12a.22.22,0,0,1-.08-.3h0a.21.21,0,0,1,.29-.08l.21.12a.46.46,0,0,0,.44,0l1.37-.75-.22-.14a.22.22,0,0,1-.08-.3h0a.22.22,0,0,1,.3-.08l.22.12a.44.44,0,0,1,.22.39.45.45,0,0,1-.23.39l-1.37.75A.87.87,0,0,1,367.22,170.81Z"/><path class="cls-9" d="M372,168.13a.81.81,0,0,1-.42-.12l-.21-.12a.21.21,0,0,1-.08-.3h0a.22.22,0,0,1,.3-.08l.21.12a.44.44,0,0,0,.43,0l1.38-.76-.23-.13a.22.22,0,0,1-.07-.3h0a.21.21,0,0,1,.3-.08l.21.12a.43.43,0,0,1,.23.39.48.48,0,0,1-.23.39l-1.38.75A.85.85,0,0,1,372,168.13Z"/><polygon class="cls-9" points="312.33 167.05 312.33 148.02 348.53 168.92 348.53 188.19 312.33 167.05"/><polygon class="cls-3" points="312.33 147.45 325.79 139.61 361.96 160.51 348.53 168.23 312.33 147.45"/><polygon class="cls-10" points="348.72 168.35 348.53 170.03 312.33 149.32 312.33 147.54 348.72 168.35"/><polygon class="cls-13" points="313.68 148.28 325.79 141.24 361.96 162.13 349.88 169.06 313.68 148.28"/><path class="cls-7" d="M325.78,139.2l-13.81,8v20l36.56,21.34,13.78-8V160.3Zm-13.14,10.64,2.62,1.5v17l-2.58-1.5Zm29.51,16.89,2.79,1.6v17.35L342.13,184h0Zm-.51,17-2.8-1.63V164.84l2.8,1.6Zm-3.3-19.16v17.24l-2.8-1.64V163l2.87,1.64ZM335,179.9l-2.79-1.63V161.06l2.79,1.6Zm-3.3-1.93-2.79-1.63V159.17l2.79,1.6Zm-3.3-1.93-2.76-1.61V157.3l2.76,1.58Zm-3.27-1.9-2.79-1.64V155.41l2.79,1.6Zm-3.3-1.93-2.79-1.63V153.52l2.79,1.6Zm-3.3-1.93-2.79-1.63v-17l2.79,1.59Zm29.62,17.29L345.45,186V168.62l2.73,1.56Zm0-18.94v.85l-35.55-20.34V148l35.55,20.47Zm.35-.81L313,147.45,325.79,140l35.46,20.49Z"/><polygon class="cls-9" points="362.32 162.01 362.31 161.36 348.22 169.5 348.23 170.16 355.34 166.04 355.34 184.64 355.84 184.34 355.84 165.75 362.32 162.01"/><path class="cls-9" d="M352.57,179.39a1,1,0,0,1-.42-.12l-.21-.12a.22.22,0,0,1-.08-.3h0a.21.21,0,0,1,.29-.08l.21.12a.43.43,0,0,0,.44,0l1.37-.75L354,178a.22.22,0,0,1-.08-.3h0a.24.24,0,0,1,.31-.08l.21.13a.41.41,0,0,1,.22.39.43.43,0,0,1-.23.38l-1.37.76A1,1,0,0,1,352.57,179.39Z"/><path class="cls-9" d="M357.36,176.7a.91.91,0,0,1-.42-.11l-.21-.12a.23.23,0,0,1-.08-.3h0a.21.21,0,0,1,.3-.08l.21.12a.44.44,0,0,0,.43,0l1.38-.75-.23-.14a.22.22,0,0,1-.07-.3h0a.21.21,0,0,1,.3-.08l.22.12a.46.46,0,0,1,.22.39.44.44,0,0,1-.23.39l-1.38.75A.85.85,0,0,1,357.36,176.7Z"/><polygon class="cls-4" points="356.32 121.64 356.32 102.6 392.52 123.51 392.52 142.78 356.32 121.64"/><polygon class="cls-5" points="356.32 102.04 369.78 94.19 405.95 115.09 392.52 122.81 356.32 102.04"/><polygon class="cls-4" points="392.71 122.94 392.52 124.62 356.32 103.9 356.32 102.13 392.71 122.94"/><polygon class="cls-6" points="357.67 102.87 369.78 95.82 405.95 116.72 393.87 123.64 357.67 102.87"/><path class="cls-7" d="M369.78,93.78l-13.82,8v20l36.56,21.35,13.79-8V114.89Zm-13.15,10.65,2.62,1.5v17l-2.58-1.51Zm29.51,16.88,2.79,1.6v17.36l-2.81-1.64h0Zm-.51,17-2.79-1.63V119.42l2.79,1.6Zm-3.3-19.16v17.23l-2.8-1.63V117.54l2.87,1.64Zm-3.3,15.3-2.8-1.63v-17.2l2.8,1.59Zm-3.31-1.92-2.79-1.64V113.76l2.79,1.6Zm-3.3-1.93L369.67,129V111.89l2.75,1.58Zm-3.26-1.91-2.8-1.63V110l2.8,1.6Zm-3.3-1.93-2.8-1.63v-17l2.8,1.6Zm-3.31-1.92-2.79-1.63v-17l2.79,1.6Zm29.62,17.29-2.73-1.6V123.2l2.73,1.56Zm0-18.94v.84l-35.54-20.33v-1.18L392.17,123Zm.35-.82L357,102l12.75-7.43,35.46,20.48Z"/><polygon class="cls-5" points="406.31 116.59 406.31 115.94 392.22 124.09 392.22 124.74 399.33 120.63 399.33 139.22 399.84 138.93 399.84 120.33 406.31 116.59"/><path class="cls-5" d="M396.56,134a.81.81,0,0,1-.42-.12l-.21-.12a.21.21,0,0,1-.08-.29h0a.21.21,0,0,1,.3-.08l.21.12a.44.44,0,0,0,.43,0l1.38-.75-.23-.14a.22.22,0,0,1-.07-.3h0a.21.21,0,0,1,.3-.08l.21.12a.43.43,0,0,1,.23.39.48.48,0,0,1-.23.39l-1.38.75A.85.85,0,0,1,396.56,134Z"/><path class="cls-5" d="M401.36,131.29a.82.82,0,0,1-.43-.12l-.21-.12a.22.22,0,0,1-.08-.3h0a.23.23,0,0,1,.3-.08l.21.12a.44.44,0,0,0,.43,0L403,130l-.23-.14a.22.22,0,0,1-.07-.3h0a.23.23,0,0,1,.3-.08l.22.13a.44.44,0,0,1,.22.39.45.45,0,0,1-.23.39l-1.38.75A.92.92,0,0,1,401.36,131.29Z"/><polygon class="cls-11" points="396.22 112.69 389.12 108.59 382.01 112.69 382.01 114.68 389.12 118.77 389.12 116.79 396.22 112.69"/><path class="cls-7" d="M396.22,112.4h0l-7.1-4.1-7.36,4.24v2.29l7.1,4.09h0l.26.14,7.35-4.23v-2.29Zm-.51.29-6.59,3.81-6.6-3.81,6.6-3.81Zm-13.45,1.84v-1.4l2.74,1.58,3.86,2.23v1.39Z"/><polygon class="cls-12" points="392.89 113.13 389.12 115.24 385.34 113.13 389.12 110.95 392.89 113.13"/><path class="cls-7" d="M389.12,115.55l-5-2.86,5-2.86,4.95,2.86Zm-3.94-2.86,3.94,2.27,3.93-2.27-3.93-2.27Z"/><polygon class="cls-4" points="297.65 175.63 297.65 156.59 333.86 177.49 333.86 196.76 297.65 175.63"/><polygon class="cls-5" points="297.65 156.03 311.12 148.18 347.29 169.08 333.86 176.8 297.65 156.03"/><polygon class="cls-4" points="334.05 176.93 333.86 178.6 297.65 157.89 297.65 156.12 334.05 176.93"/><polygon class="cls-6" points="299 156.86 311.12 149.81 347.29 170.71 335.21 177.63 299 156.86"/><path class="cls-7" d="M311.11,147.77l-13.81,8v20l36.56,21.35,13.78-8V168.87ZM298,158.42l2.63,1.5v17L298,175.42Zm29.51,16.88,2.8,1.6v17.35l-2.81-1.64h0Zm-.5,17-2.8-1.63V173.41L327,175Zm-3.31-19.17V190.4l-2.79-1.63V171.52l2.87,1.64Zm-3.3,15.31-2.79-1.63V169.63l2.79,1.6Zm-3.3-1.93-2.79-1.63V167.74l2.79,1.6Zm-3.3-1.92L311,183V165.88l2.76,1.57Zm-3.27-1.91-2.79-1.63V164l2.79,1.6Zm-3.3-1.93-2.79-1.63V162.1l2.79,1.6Zm-3.3-1.93-2.79-1.63v-17l2.79,1.6Zm29.61,17.29-2.72-1.59V177.19l2.72,1.56Zm0-18.93v.84L298,157.71v-1.18L333.5,177Zm.36-.82L298.37,156l12.75-7.43,35.46,20.49Z"/><polygon class="cls-5" points="347.64 170.58 347.64 169.93 333.55 178.08 333.55 178.73 340.67 174.62 340.67 193.21 341.17 192.91 341.17 174.32 347.64 170.58"/><path class="cls-5" d="M337.9,188a.82.82,0,0,1-.43-.12l-.21-.12a.22.22,0,0,1-.08-.3h0a.23.23,0,0,1,.3-.08l.21.12a.46.46,0,0,0,.44,0l1.37-.76-.22-.14a.21.21,0,0,1-.08-.3h0a.23.23,0,0,1,.3-.08l.22.13a.44.44,0,0,1,.22.39.45.45,0,0,1-.23.39l-1.37.75A1,1,0,0,1,337.9,188Z"/><path class="cls-5" d="M342.69,185.28a1,1,0,0,1-.42-.12l-.21-.12a.22.22,0,0,1-.08-.3h0a.22.22,0,0,1,.3-.08l.21.12a.42.42,0,0,0,.43,0l1.37-.75-.22-.14a.22.22,0,0,1-.08-.3h0a.24.24,0,0,1,.31-.08l.21.13a.44.44,0,0,1,.23.39.46.46,0,0,1-.24.38l-1.37.76A1,1,0,0,1,342.69,185.28Z"/><polygon class="cls-11" points="318.2 155.21 311.1 151.11 303.99 155.21 303.99 157.2 311.1 161.29 311.1 159.31 318.2 155.21"/><path class="cls-7" d="M318.2,154.92h0l-7.1-4.1-7.36,4.25v2.28l7.1,4.09h0l.26.15,7.35-4.24v-2.28Zm-.51.29L311.1,159l-6.6-3.81,6.6-3.81Zm-13.44,1.85v-1.41l2.73,1.58,3.86,2.23v1.39Z"/><polygon class="cls-12" points="314.87 155.65 311.1 157.76 307.32 155.65 311.1 153.47 314.87 155.65"/><path class="cls-7" d="M311.1,158.07l-5-2.86,5-2.86,4.95,2.86Zm-3.94-2.86,3.94,2.28,3.93-2.28-3.93-2.27Z"/><polygon class="cls-4" points="283 184.2 283 165.16 319.21 186.07 319.21 205.34 283 184.2"/><polygon class="cls-5" points="283 164.6 296.46 156.75 332.64 177.65 319.21 185.37 283 164.6"/><polygon class="cls-4" points="319.4 185.5 319.21 187.18 283 166.46 283 164.69 319.4 185.5"/><polygon class="cls-6" points="284.35 165.43 296.46 158.38 332.64 179.28 320.56 186.21 284.35 165.43"/><path class="cls-7" d="M296.46,156.34l-13.81,8v20l36.56,21.35,13.78-8V177.45ZM283.31,167l2.63,1.5v17L283.36,184Zm29.51,16.88,2.8,1.6v17.36l-2.81-1.64h0Zm-.5,17-2.8-1.63V182l2.8,1.6ZM309,181.74V199l-2.79-1.63V180.1l2.87,1.64Zm-3.3,15.3-2.79-1.63v-17.2l2.79,1.59Zm-3.3-1.92-2.79-1.64V176.32l2.79,1.6Zm-3.3-1.93-2.76-1.61V174.45l2.76,1.58Zm-3.27-1.91-2.79-1.63V172.56l2.79,1.6Zm-3.3-1.93-2.79-1.63V170.67l2.79,1.6Zm-3.3-1.92-2.79-1.63v-17l2.79,1.6Zm29.61,17.29-2.72-1.6V185.76l2.72,1.56Zm0-18.94v.84l-35.54-20.33v-1.18l35.54,20.47Zm.36-.82L283.72,164.6l12.75-7.44,35.46,20.49Z"/><polygon class="cls-5" points="333 179.15 332.99 178.5 318.9 186.65 318.9 187.3 326.01 183.19 326.01 201.78 326.52 201.49 326.52 182.9 333 179.15"/><path class="cls-5" d="M323.25,196.53a.82.82,0,0,1-.43-.12l-.2-.12a.21.21,0,0,1-.09-.29h0a.22.22,0,0,1,.3-.08l.21.12a.49.49,0,0,0,.44,0l1.37-.75-.22-.14a.22.22,0,0,1-.08-.3h0a.22.22,0,0,1,.3-.08l.22.12a.44.44,0,0,1,.22.39.45.45,0,0,1-.23.39l-1.37.75A.87.87,0,0,1,323.25,196.53Z"/><path class="cls-5" d="M328,193.85a.81.81,0,0,1-.42-.12l-.21-.12a.21.21,0,0,1-.08-.3h0a.22.22,0,0,1,.3-.08l.21.12a.44.44,0,0,0,.43,0l1.37-.76-.22-.14a.22.22,0,0,1-.08-.3h0a.24.24,0,0,1,.31-.08l.21.13a.45.45,0,0,1,.23.39.46.46,0,0,1-.24.39l-1.37.75A1,1,0,0,1,328,193.85Z"/><polygon class="cls-9" points="341.67 130.21 341.67 111.17 377.88 132.08 377.88 151.35 341.67 130.21"/><polygon class="cls-8" points="341.67 110.61 355.13 102.77 391.31 123.67 377.88 131.39 341.67 110.61"/><polygon class="cls-10" points="378.07 131.51 377.88 133.19 341.67 112.47 341.67 110.7 378.07 131.51"/><polygon class="cls-9" points="343.02 111.44 355.13 104.4 391.31 125.29 379.22 132.22 343.02 111.44"/><path class="cls-7" d="M355.13,102.36l-13.81,8v20l36.56,21.34,13.78-8V123.46ZM342,113l2.62,1.5v17L342,130Zm29.51,16.89,2.79,1.6v17.35l-2.81-1.64h0Zm-.51,17-2.79-1.63V128l2.79,1.6Zm-3.3-19.16V145l-2.79-1.63V126.11l2.86,1.64Zm-3.3,15.31-2.8-1.63V124.22l2.8,1.6Zm-3.3-1.93-2.8-1.63V122.33l2.8,1.6Zm-3.3-1.93L355,137.59V120.46l2.76,1.58Zm-3.27-1.91-2.79-1.63V118.57l2.79,1.6Zm-3.3-1.92-2.8-1.63V116.68l2.8,1.6Zm-3.3-1.93-2.8-1.63v-17l2.8,1.6Zm29.61,17.29-2.73-1.59V131.78l2.73,1.56Zm0-18.94v.85L342,112.3v-1.18l35.54,20.47Zm.36-.81-35.5-20.37,12.75-7.43,35.46,20.48Z"/><polygon class="cls-9" points="391.66 125.17 391.66 124.52 377.57 132.66 377.57 133.31 384.68 129.2 384.68 147.79 385.19 147.5 385.19 128.91 391.66 125.17"/><path class="cls-9" d="M381.92,142.54a.92.92,0,0,1-.43-.11l-.21-.12a.23.23,0,0,1-.08-.3h0a.22.22,0,0,1,.3-.08l.21.12a.42.42,0,0,0,.43,0l1.38-.75-.23-.14a.22.22,0,0,1-.07-.3h0a.21.21,0,0,1,.3-.08l.22.13a.43.43,0,0,1,.22.39.44.44,0,0,1-.23.38l-1.38.76A.8.8,0,0,1,381.92,142.54Z"/><path class="cls-9" d="M386.71,139.86a.85.85,0,0,1-.43-.12l-.2-.12a.2.2,0,0,1-.08-.29h0a.21.21,0,0,1,.29-.08l.21.12a.46.46,0,0,0,.44,0l1.37-.75-.22-.14a.22.22,0,0,1-.08-.3h0a.22.22,0,0,1,.3-.08l.22.12a.44.44,0,0,1,.22.39.45.45,0,0,1-.23.39l-1.37.75A.87.87,0,0,1,386.71,139.86Z"/><polygon class="cls-11" points="362.22 109.71 355.11 105.61 348.01 109.71 348.01 111.7 355.11 115.79 355.11 113.81 362.22 109.71"/><path class="cls-7" d="M362.22,109.42h0l-7.11-4.1-7.36,4.25v2.28l7.11,4.09h0l.25.14,7.36-4.23v-2.28Zm-.51.29-6.6,3.81-6.59-3.81,6.59-3.81Zm-13.45,1.85v-1.41l2.74,1.58,3.86,2.23v1.39Z"/><polygon class="cls-12" points="358.89 110.15 355.11 112.26 351.34 110.15 355.11 107.97 358.89 110.15"/><path class="cls-7" d="M355.11,112.57l-4.95-2.86,4.95-2.86,5,2.86Zm-3.93-2.86,3.93,2.28,3.94-2.28-3.94-2.27Z"/><polygon class="cls-4" points="327.02 138.78 327.02 119.75 363.23 140.65 363.23 159.92 327.02 138.78"/><polygon class="cls-5" points="327.02 119.18 340.48 111.34 376.66 132.24 363.23 139.96 327.02 119.18"/><polygon class="cls-4" points="363.42 140.08 363.23 141.76 327.02 121.05 327.02 119.27 363.42 140.08"/><polygon class="cls-6" points="328.37 120.02 340.48 112.97 376.66 133.87 364.57 140.79 328.37 120.02"/><path class="cls-7" d="M340.48,110.93l-13.81,8v20l36.56,21.34,13.78-8V132Zm-13.15,10.65,2.63,1.5v17l-2.58-1.5Zm29.51,16.88,2.79,1.6v17.35l-2.81-1.64h0Zm-.51,17-2.79-1.64V136.57l2.79,1.6ZM353,136.32v17.24l-2.79-1.63V134.68l2.86,1.64Zm-3.3,15.31L346.94,150V132.79l2.79,1.6Zm-3.3-1.93-2.8-1.63V130.9l2.8,1.6Zm-3.3-1.93-2.76-1.61V129l2.76,1.58Zm-3.27-1.9-2.79-1.63V127.15l2.79,1.59Zm-3.3-1.93-2.8-1.63v-17l2.8,1.59Zm-3.3-1.93-2.8-1.63v-17l2.8,1.6Zm29.61,17.29-2.73-1.59V140.35l2.73,1.56Zm0-18.94v.85l-35.54-20.34v-1.18l35.54,20.47Zm.36-.81-35.5-20.37,12.75-7.43,35.46,20.49Z"/><polygon class="cls-5" points="377.01 133.74 377.01 133.09 362.92 141.24 362.92 141.89 370.03 137.78 370.03 156.37 370.54 156.07 370.54 137.48 377.01 133.74"/><path class="cls-5" d="M367.27,151.12a.93.93,0,0,1-.43-.12l-.21-.12a.22.22,0,0,1-.08-.3h0a.23.23,0,0,1,.3-.08l.21.12a.44.44,0,0,0,.43,0l1.38-.76-.23-.14a.22.22,0,0,1-.07-.3h0a.22.22,0,0,1,.3-.08l.22.13a.44.44,0,0,1,.22.39.43.43,0,0,1-.23.38l-1.38.76A.92.92,0,0,1,367.27,151.12Z"/><path class="cls-5" d="M372.06,148.43a1,1,0,0,1-.43-.11l-.2-.12a.22.22,0,0,1-.08-.3h0a.21.21,0,0,1,.29-.08l.21.12a.43.43,0,0,0,.44,0l1.37-.75-.22-.14a.22.22,0,0,1-.08-.3h0a.22.22,0,0,1,.3-.08l.22.13a.43.43,0,0,1,.22.39.44.44,0,0,1-.23.38l-1.37.76A.86.86,0,0,1,372.06,148.43Z"/><polygon class="cls-11" points="312.35 147.36 312.35 128.32 348.55 149.22 348.55 168.5 312.35 147.36"/><polygon class="cls-11" points="312.35 127.76 325.81 119.91 361.98 140.81 348.55 148.53 312.35 127.76"/><polygon class="cls-12" points="348.75 148.66 348.55 150.34 312.35 129.62 312.35 127.85 348.75 148.66"/><polygon class="cls-12" points="313.61 128.53 325.81 121.54 361.98 142.44 349.9 149.36 313.61 128.53"/><path class="cls-7" d="M325.81,119.5l-13.81,8v20l36.55,21.35,13.79-8V140.6Zm-13.15,10.65,2.62,1.5v17l-2.57-1.51ZM342.17,147l2.79,1.6V166l-2.81-1.65h0Zm-.51,17-2.79-1.63V145.14l2.79,1.6Zm-3.3-19.17v17.24l-2.79-1.63V143.25l2.86,1.64Zm-3.3,15.31-2.8-1.63V141.36l2.8,1.6Zm-3.3-1.93-2.8-1.63V139.48l2.8,1.59Zm-3.31-1.92-2.75-1.61V137.61l2.75,1.58Zm-3.26-1.91-2.8-1.63V135.72l2.8,1.6Zm-3.3-1.93-2.8-1.63v-17l2.8,1.6Zm-3.3-1.93-2.8-1.63v-17l2.8,1.6Zm29.61,17.3-2.73-1.6V148.92l2.73,1.56Zm0-18.94v.84l-35.54-20.33v-1.19l35.54,20.48Zm.35-.82-35.49-20.37,12.75-7.43,35.46,20.49Z"/><polygon class="cls-11" points="362.34 142.31 362.34 141.66 348.25 149.81 348.25 150.46 355.36 146.35 355.36 164.94 355.87 164.65 355.87 146.05 362.34 142.31"/><path class="cls-11" d="M352.59,159.69a.81.81,0,0,1-.42-.12l-.21-.12a.22.22,0,0,1-.08-.3h0a.22.22,0,0,1,.3-.08l.21.13a.47.47,0,0,0,.43,0l1.38-.76-.23-.13a.22.22,0,0,1-.07-.3h0a.21.21,0,0,1,.3-.08l.22.12a.44.44,0,0,1,.22.39.45.45,0,0,1-.23.39l-1.38.75A.85.85,0,0,1,352.59,159.69Z"/><path class="cls-11" d="M357.39,157a.93.93,0,0,1-.43-.12l-.21-.12a.22.22,0,0,1-.08-.3h0a.23.23,0,0,1,.3-.08l.21.12a.44.44,0,0,0,.43,0l1.38-.76-.22-.14a.21.21,0,0,1-.08-.3h0a.23.23,0,0,1,.3-.08l.22.13a.44.44,0,0,1,.22.39.43.43,0,0,1-.23.38l-1.38.76A.92.92,0,0,1,357.39,157Z"/><polygon class="cls-11" points="352.67 138.55 345.57 134.44 338.46 138.55 338.46 140.54 345.57 144.63 345.57 142.65 352.67 138.55"/><path class="cls-7" d="M352.67,138.25h0l-7.1-4.1-7.36,4.25v2.28l7.1,4.09h0l.26.15,7.36-4.24V138.4Zm-.51.3-6.59,3.81-6.6-3.81,6.6-3.81Zm-13.44,1.84V139l2.73,1.58,3.86,2.23v1.39Z"/><polygon class="cls-12" points="349.35 138.99 345.57 141.1 341.79 138.99 345.57 136.81 349.35 138.99"/><path class="cls-7" d="M345.57,141.41l-4.95-2.86,4.95-2.86,4.95,2.86Zm-3.94-2.86,3.94,2.27,3.94-2.27-3.94-2.28Z"/></g></g><polygon class="cls-13" points="152.43 348.61 636.2 71.6 636.2 348.61 152.43 348.61"/><path class="cls-7" d="M636.72,349.14H150.45l1.72-1L636.72,70.7Zm-482.31-1.05H635.67V72.51Z"/><path class="cls-13" d="M461.83,386.36l237.71-137.9Z"/><rect class="cls-7" x="443.28" y="316.72" width="274.81" height="1.4" transform="translate(-80.89 333.69) rotate(-30.07)"/><path class="cls-3" d="M268.42,309.05l-10.33,6a7.83,7.83,0,0,1-7.86,0l-10.34-6a2.18,2.18,0,0,1,0-3.78l13.17-7.61a2.2,2.2,0,0,1,2.19,0l13.17,7.61A2.18,2.18,0,0,1,268.42,309.05Z"/><g id="_3-2" data-name="3"><polygon class="cls-14" points="265.93 288.37 252.24 280.46 238.54 288.37 238.54 288.37 238.54 304.18 252.24 312.09 252.24 296.31 265.93 288.37"/><polygon class="cls-10" points="238.54 304.13 252.24 312.04 252.24 296.26 238.54 288.31 238.54 288.31 238.54 304.13"/><path class="cls-7" d="M266.2,288.21l-14-8.07-13.92,8,0,0h0v.31h0v15.82l13.69,7.9h0l.27.16.28-.16h0l13.56-7.82.13-.08V288.52h0Zm-14-7.43,6.44,3.71-13.15,7.59-6.43-3.71ZM252,311.61,238.81,304V288.84L252,296.43Zm5.85-18.87L252.23,296l-6.43-3.72,13.14-7.59,6.44,3.72Z"/><path class="cls-7" d="M246.8,296.29l-2.55-1.46a.78.78,0,0,0-.8-.05,1,1,0,0,0-.41.89,2.21,2.21,0,0,0,.94,1.78l2.54,1.46a.94.94,0,0,0,.46.14.67.67,0,0,0,.34-.09,1,1,0,0,0,.42-.89A2.24,2.24,0,0,0,246.8,296.29Zm.25,2.19a.31.31,0,0,1-.25,0L244.25,297a1.65,1.65,0,0,1-.66-1.3c0-.24.07-.37.14-.41s.19,0,.25,0l.18.1a2,2,0,0,0,.86,1.48l2.16,1.25C247.17,298.33,247.11,298.45,247.05,298.48Z"/><path class="cls-14" d="M264,299.56a.44.44,0,0,0-.44,0l-2,1.17a1.26,1.26,0,0,0-.54,1v2.17a.55.55,0,0,0,.23.5.41.41,0,0,0,.19.05.49.49,0,0,0,.25-.08l2-1.17h0a1.23,1.23,0,0,0,.53-1v-2.16A.53.53,0,0,0,264,299.56Z"/></g><path class="cls-3" d="M293.91,315.28l-10.34,6a7.81,7.81,0,0,1-7.85,0l-10.34-6a2.18,2.18,0,0,1,0-3.78l13.17-7.61a2.2,2.2,0,0,1,2.19,0l13.17,7.61A2.18,2.18,0,0,1,293.91,315.28Z"/><g id="_3-3" data-name="3"><polygon class="cls-12" points="291.13 295.1 277.43 287.19 263.74 295.1 263.74 295.1 263.74 310.91 277.43 318.82 277.43 303.04 291.13 295.1"/><polygon class="cls-15" points="263.74 310.86 277.43 318.76 277.43 302.99 263.74 295.05 263.74 295.05 263.74 310.86"/><path class="cls-7" d="M291.4,294.94l-14-8.07-13.93,8,0,0h0v.31h0v15.82l13.7,7.9h0l.27.16.28-.16h0l13.55-7.82.14-.08V295.25h0Zm-14-7.43,6.44,3.71-13.15,7.59-6.43-3.71Zm-.27,30.83L264,310.75V295.57l13.15,7.59ZM283,299.47l-5.58,3.22L271,299l13.14-7.59,6.44,3.72Z"/><path class="cls-7" d="M272,303l-2.54-1.47a.8.8,0,0,0-.8,0,1,1,0,0,0-.41.89,2.21,2.21,0,0,0,.94,1.78l2.54,1.46a.91.91,0,0,0,.46.14.69.69,0,0,0,.34-.09,1,1,0,0,0,.42-.89A2.22,2.22,0,0,0,272,303Zm.26,2.19a.33.33,0,0,1-.26,0l-2.54-1.47a1.66,1.66,0,0,1-.67-1.3c0-.24.08-.38.15-.41s.19,0,.25,0l.17.1a2,2,0,0,0,.86,1.47l2.17,1.26A.44.44,0,0,1,272.25,305.21Z"/><path class="cls-12" d="M289.15,306.29a.41.41,0,0,0-.44,0l-2,1.17a1.25,1.25,0,0,0-.53,1v2.17a.55.55,0,0,0,.23.5.41.41,0,0,0,.19,0,.52.52,0,0,0,.25-.08l2-1.17h0a1.24,1.24,0,0,0,.54-1v-2.17A.54.54,0,0,0,289.15,306.29Z"/></g><path class="cls-3" d="M522.42,313.44l-12.84,7.41a9.78,9.78,0,0,1-9.76,0L487,313.44a2.72,2.72,0,0,1,0-4.71l16.37-9.45a2.73,2.73,0,0,1,2.71,0l16.36,9.45A2.72,2.72,0,0,1,522.42,313.44Z"/><g id="_1-2" data-name="1"><path class="cls-15" d="M516.47,308.88c.46-.27.4-.74-.14-1.06l-7.52-4.34a2.09,2.09,0,0,0-1.85-.08l-11.09,6.41a.53.53,0,0,0-.31.5v1a.8.8,0,0,0,.44.55l7.52,4.34a2.06,2.06,0,0,0,1.85.08l11.09-6.4C516.88,309.6,516.87,309.19,516.47,308.88Z"/><path class="cls-7" d="M517.05,308.42a1,1,0,0,0-.59-.84l-7.52-4.34a2.34,2.34,0,0,0-2.12-.07l-11.09,6.4a.85.85,0,0,0-.45.71h0v1a1.05,1.05,0,0,0,.59.76l7.51,4.34a2.41,2.41,0,0,0,1.18.3,1.87,1.87,0,0,0,.94-.22l11.1-6.4a.86.86,0,0,0,.45-.66.78.78,0,0,0-.18-.53A.74.74,0,0,0,517.05,308.42Zm-21.22,1.89h0a.28.28,0,0,1,.18-.26l11.09-6.41a1.78,1.78,0,0,1,1.57.08l7.52,4.34c.23.13.31.27.31.36s-.11.19-.17.22l-.35.21.11.09-10.79,6.23a2,2,0,0,1-1.71-.07l-7.52-4.35a.78.78,0,0,1-.24-.19Zm20.49-.7L505.23,316a1.78,1.78,0,0,1-1.57-.07l-7.52-4.34c-.18-.11-.3-.24-.31-.32v-.36l.1.07,7.52,4.34a2.23,2.23,0,0,0,1.11.28,1.7,1.7,0,0,0,.87-.2l10.9-6.29c.11.1.18.2.17.28S516.39,309.57,516.32,309.61Z"/><path class="cls-15" d="M507.7,303.22h0a.64.64,0,0,1-.64-.64V282.13a8,8,0,0,1,3.9-6.87l4.4-2.62a.64.64,0,0,1,.88.23h0a.64.64,0,0,1-.23.88l-4.39,2.62a6.71,6.71,0,0,0-3.27,5.76v20.45A.64.64,0,0,1,507.7,303.22Z"/><path class="cls-7" d="M507.7,303.5a.92.92,0,0,1-.92-.92V282.13a8.3,8.3,0,0,1,4-7.1l4.39-2.62a.91.91,0,0,1,1.26.32.84.84,0,0,1,.1.69.85.85,0,0,1-.42.56l-4.39,2.62a6.46,6.46,0,0,0-3.14,5.53v20.45A.92.92,0,0,1,507.7,303.5Zm8-30.67a.29.29,0,0,0-.18.05l-4.4,2.62a7.75,7.75,0,0,0-3.77,6.63v20.45a.38.38,0,0,0,.37.37.37.37,0,0,0,.37-.37V282.13a7,7,0,0,1,3.41-6l4.39-2.62a.36.36,0,0,0,.13-.5A.36.36,0,0,0,515.68,272.83Z"/><path class="cls-15" d="M516.39,307.81h0a.65.65,0,0,1-.65-.64V286.72a8,8,0,0,1,3.9-6.87l4.4-2.62a.65.65,0,0,1,.88.22h0a.66.66,0,0,1-.22.89L520.3,281a6.68,6.68,0,0,0-3.27,5.76v20.45A.64.64,0,0,1,516.39,307.81Z"/><path class="cls-7" d="M516.39,308.09a.92.92,0,0,1-.92-.92V286.72a8.34,8.34,0,0,1,4-7.11l4.4-2.62a.93.93,0,0,1,1.26.32,1,1,0,0,1,.1.7.89.89,0,0,1-.42.56l-4.39,2.62a6.46,6.46,0,0,0-3.14,5.53v20.45A.93.93,0,0,1,516.39,308.09Zm8-30.68a.33.33,0,0,0-.19.06l-4.39,2.61a7.76,7.76,0,0,0-3.77,6.64v20.45a.37.37,0,0,0,.37.37.38.38,0,0,0,.37-.37V286.72a7,7,0,0,1,3.4-6l4.4-2.62a.4.4,0,0,0,.17-.23.4.4,0,0,0,0-.28.4.4,0,0,0-.23-.17Z"/><path class="cls-15" d="M515.14,296.74a1.72,1.72,0,0,1-.85-.24l-5.41-3.13a3.81,3.81,0,0,1-1.64-3.08V290a1.76,1.76,0,0,1,.78-1.62,1.47,1.47,0,0,1,1.5.06l5.42,3.13a3.81,3.81,0,0,1,1.64,3.08v.31a1.81,1.81,0,0,1-.78,1.63A1.35,1.35,0,0,1,515.14,296.74Zm-.2-1.36c.14.08.21.08.22.07a.73.73,0,0,0,.13-.51v-.31a2.52,2.52,0,0,0-1-2l-5.41-3.13c-.13-.07-.21-.08-.22-.07s-.13.15-.13.51v.31a2.51,2.51,0,0,0,1,2Z"/><path class="cls-7" d="M515.14,297a1.87,1.87,0,0,1-1-.28l-5.42-3.12a4.11,4.11,0,0,1-1.78-3.32V290a2,2,0,0,1,.92-1.86,1.73,1.73,0,0,1,1.78.07l5.41,3.12a4.11,4.11,0,0,1,1.78,3.32v.31a2,2,0,0,1-.91,1.86A1.59,1.59,0,0,1,515.14,297Zm-6.47-8.55a1.06,1.06,0,0,0-.52.13,1.55,1.55,0,0,0-.64,1.39v.31a3.57,3.57,0,0,0,1.51,2.84l5.41,3.13a1.24,1.24,0,0,0,1.23.07,1.53,1.53,0,0,0,.64-1.39v-.31a3.56,3.56,0,0,0-1.5-2.84l-5.41-3.13A1.54,1.54,0,0,0,508.67,288.46Zm6.47,7.27a.76.76,0,0,1-.34-.11h0l-5.41-3.13a2.78,2.78,0,0,1-1.14-2.2V290a.86.86,0,0,1,.27-.75.53.53,0,0,1,.5.07l5.41,3.13a2.77,2.77,0,0,1,1.13,2.2v.31a.89.89,0,0,1-.24.73A.28.28,0,0,1,515.14,295.73Zm-6.33-5.91a.71.71,0,0,0,0,.16v.31a2.26,2.26,0,0,0,.86,1.73L515,295.1s0-.09,0-.16v-.31a2.28,2.28,0,0,0-.86-1.73Z"/><polygon class="cls-14" points="511.97 292.97 498.28 285.06 484.58 292.97 484.58 292.97 484.58 308.78 498.28 316.69 498.28 300.91 511.97 292.97"/><polygon class="cls-10" points="484.58 308.73 498.28 316.64 498.28 300.86 484.58 292.92 484.58 292.92 484.58 308.73"/><path class="cls-7" d="M512.25,292.81l-14-8.07-13.93,8.05,0,0h0v.31h0v15.81l13.69,7.9h0l.28.16.27-.16h0L512.11,309l.14-.08V293.13h0Zm-14-7.43,6.43,3.71-13.14,7.59L485.13,293ZM498,316.21l-13.14-7.59V293.44L498,301Zm5.85-18.87-5.57,3.22-6.44-3.72L505,289.25l6.43,3.72Z"/><path class="cls-7" d="M492.84,300.89l-2.54-1.46a.78.78,0,0,0-.8-.05,1,1,0,0,0-.42.89,2.24,2.24,0,0,0,.94,1.78l2.54,1.46a.94.94,0,0,0,.46.14.73.73,0,0,0,.35-.09,1,1,0,0,0,.41-.89A2.21,2.21,0,0,0,492.84,300.89Zm.25,2.19a.31.31,0,0,1-.25,0l-2.54-1.47a1.66,1.66,0,0,1-.67-1.3.5.5,0,0,1,.14-.41c.08-.05.19,0,.25,0l.18.1a2,2,0,0,0,.86,1.48l2.17,1.25C493.22,302.93,493.15,303.05,493.09,303.08Z"/><path class="cls-14" d="M510,304.16a.44.44,0,0,0-.44,0l-2,1.17a1.27,1.27,0,0,0-.54,1v2.17a.56.56,0,0,0,.24.5.37.37,0,0,0,.18.05.56.56,0,0,0,.26-.08l2-1.17h0a1.23,1.23,0,0,0,.53-1v-2.16A.53.53,0,0,0,510,304.16Z"/><path class="cls-15" d="M517.93,305.79,516,304.73h0a2.17,2.17,0,0,0-.75-.27c-1.87-.32-3.83,1.61-4.32,4.22-.4,2.07.27,3.89,1.5,4.58h0l1.79,1,.38-.89a5.33,5.33,0,0,0,2.85-3.77,6,6,0,0,0,0-2.79Z"/><path class="cls-7" d="M519.18,306.58a3,3,0,0,0-.91-.9h0l-2.39-1.34v0a2.21,2.21,0,0,0-.54-.16c-2-.35-4.11,1.65-4.64,4.44-.41,2.13.25,4.09,1.63,4.88l1.83,1a2.64,2.64,0,0,0,1.15.43h.29c1.79,0,3.57-1.77,4.14-4.19A5.49,5.49,0,0,0,519.18,306.58Zm-7.94,2.16c.43-2.28,2-4,3.64-4l.36,0a2.11,2.11,0,0,1,.66.24l.58.32c-1.74.23-3.35,2-3.8,4.45a5.52,5.52,0,0,0,.41,3.56l-.49-.27C511.44,312.38,510.88,310.61,511.24,308.74Z"/><path class="cls-15" d="M516,313.41h-.19a1.63,1.63,0,0,1-1.14-.7,3.44,3.44,0,0,1-.43-2.64c.36-1.76,1.65-3,2.87-2.84a1.65,1.65,0,0,1,1.11.75,3.5,3.5,0,0,1,.36,2.71h0C518.18,312.26,517.07,313.41,516,313.41Zm.86-5.93c-1,0-2.05,1.14-2.35,2.63a3.22,3.22,0,0,0,.38,2.43,1.4,1.4,0,0,0,.95.59c1,.12,2.13-1,2.48-2.51a3.3,3.3,0,0,0-.32-2.49,1.4,1.4,0,0,0-.94-.64Z"/><path class="cls-15" d="M517.15,310.5c-.2.87-.84,1.51-1.45,1.44s-1-.85-.79-1.76.85-1.6,1.49-1.5S517.36,309.6,517.15,310.5Z"/><path class="cls-12" d="M517.62,310.77c-.2.88-.85,1.52-1.45,1.45s-1-.85-.8-1.76.86-1.6,1.49-1.5S517.82,309.88,517.62,310.77Z"/></g><path class="cls-3" d="M621.14,213.58l-10.34,6a7.83,7.83,0,0,1-7.86,0l-10.34-6a2.19,2.19,0,0,1,0-3.78l13.18-7.61a2.18,2.18,0,0,1,2.18,0l13.18,7.61A2.19,2.19,0,0,1,621.14,213.58Z"/><path class="cls-3" d="M610.15,219.93l-10.33,6a7.88,7.88,0,0,1-7.86,0l-10.34-6a2.18,2.18,0,0,1,0-3.78l13.17-7.61a2.2,2.2,0,0,1,2.19,0l13.17,7.61A2.18,2.18,0,0,1,610.15,219.93Z"/><polygon class="cls-3" points="619.92 190.76 606.23 182.85 592.53 190.76 592.53 190.76 592.53 206.57 606.23 214.48 606.23 198.7 619.92 190.76"/><path class="cls-7" d="M620.2,190.6l-14-8.07-13.93,8,0,0h0v.31h0v15.82l13.69,7.9h0l.28.16.27-.16h0l13.56-7.82.14-.08V190.91h0Zm-14-7.43,6.43,3.71-13.14,7.59-6.44-3.71ZM606,214l-13.14-7.59V191.23L606,198.82Zm5.85-18.87-5.57,3.22-6.44-3.72L612.94,187l6.43,3.72Z"/><path class="cls-7" d="M600.79,198.68l-2.54-1.47a.8.8,0,0,0-.8,0,1,1,0,0,0-.42.89,2.24,2.24,0,0,0,.94,1.78l2.54,1.46a.94.94,0,0,0,.46.14.73.73,0,0,0,.35-.09,1,1,0,0,0,.41-.89A2.21,2.21,0,0,0,600.79,198.68Zm.25,2.19a.31.31,0,0,1-.25,0l-2.54-1.47a1.66,1.66,0,0,1-.67-1.3c0-.24.08-.38.14-.41a.25.25,0,0,1,.25,0l.18.1a2,2,0,0,0,.86,1.47l2.17,1.26A.44.44,0,0,1,601,200.87Zm.1-.69-2-1.15a1.74,1.74,0,0,1-.69-1.06l2,1.19A1.56,1.56,0,0,1,601.14,200.18Z"/><polygon class="cls-12" points="606.23 198.68 592.53 190.78 578.84 198.68 578.84 198.68 578.84 214.5 592.53 222.4 592.53 206.63 606.23 198.68"/><polygon class="cls-11" points="578.84 214.56 592.53 222.46 592.53 206.69 578.84 198.74 578.84 198.74 578.84 214.56"/><path class="cls-7" d="M606.5,198.52l-14-8.06-13.92,8-.05,0h0v.32h0v15.81l13.7,7.91h0l.27.16.28-.16h0l13.55-7.83.14-.08V198.84h0Zm-14-7.43,6.44,3.72-13.15,7.59-6.43-3.72Zm-.27,30.84-13.15-7.59V199.16l13.15,7.59Zm5.85-18.88-5.58,3.22-6.43-3.71L599.24,195l6.44,3.71Z"/><path class="cls-7" d="M587.09,206.61l-2.54-1.47a.77.77,0,0,0-.8,0,1,1,0,0,0-.41.89,2.18,2.18,0,0,0,.94,1.77l2.54,1.47a.89.89,0,0,0,.46.13.69.69,0,0,0,.34-.09,1,1,0,0,0,.42-.89A2.18,2.18,0,0,0,587.09,206.61Zm.26,2.19a.3.3,0,0,1-.26-.05l-2.54-1.46a1.66,1.66,0,0,1-.66-1.3c0-.25.07-.38.14-.42s.19,0,.25.05l.17.1a2.08,2.08,0,0,0,.86,1.47l2.17,1.25C587.47,208.65,587.41,208.76,587.35,208.8Z"/><path class="cls-12" d="M604.25,209.88a.41.41,0,0,0-.44,0l-2,1.17a1.23,1.23,0,0,0-.53,1v2.17a.52.52,0,0,0,.23.49.32.32,0,0,0,.19,0,.47.47,0,0,0,.25-.07l2-1.17h0a1.26,1.26,0,0,0,.54-1v-2.17A.54.54,0,0,0,604.25,209.88Z"/><polygon class="cls-14" points="619.92 174.75 606.23 166.84 592.53 174.75 592.53 174.75 592.53 190.56 606.23 198.47 606.23 182.69 619.92 174.75"/><polygon class="cls-10" points="592.53 190.56 606.23 198.47 606.23 182.69 592.53 174.75 592.53 174.75 592.53 190.56"/><path class="cls-7" d="M620.2,174.59l-14-8.07-13.93,8,0,0h0v.31h0v15.82l13.69,7.9h0l.28.16.27-.16h0l13.56-7.82.14-.08V174.9h0Zm-14-7.43,6.43,3.71-13.14,7.59-6.44-3.71ZM606,198l-13.14-7.59V175.22L606,182.81Zm5.85-18.87-5.57,3.22-6.44-3.72L612.94,171l6.43,3.72Z"/><path class="cls-7" d="M600.79,182.67l-2.54-1.47a.8.8,0,0,0-.8,0,1,1,0,0,0-.42.89,2.21,2.21,0,0,0,.94,1.78l2.54,1.46a.94.94,0,0,0,.46.14.67.67,0,0,0,.34-.09,1,1,0,0,0,.42-.89A2.21,2.21,0,0,0,600.79,182.67Zm.25,2.19a.31.31,0,0,1-.25,0l-2.54-1.47a1.66,1.66,0,0,1-.67-1.3.5.5,0,0,1,.14-.41c.08,0,.19,0,.25,0l.18.1a2,2,0,0,0,.86,1.48l2.17,1.25C601.17,184.71,601.1,184.83,601,184.86Z"/><polygon class="cls-14" points="606.64 214.56 606.37 214.73 606.37 198.44 606.43 198.41 620.2 190.46 620.2 190.78 606.64 198.6 606.64 214.56"/><path class="cls-10" d="M537.55,140h0l0-.06a1.42,1.42,0,0,1,0-.16l-1.58-6.67-.74,3.44a13.4,13.4,0,0,0-4.27-3.69c-7.69-4.44-20.16-4.44-27.84,0a13.44,13.44,0,0,0-4.28,3.69l-.63-3.33-.7,2.88s-.66,2.88-.68,2.93h0l0,.06c-1.1,3.54,1.57,7.88,6.31,10.62,7.68,4.44,20.15,4.44,27.84,0C535.63,147,538.65,143.53,537.55,140Z"/><polygon class="cls-14" points="508.5 144.49 507.59 151.56 499.18 146.94 500.84 140.67 508.5 144.49"/><path class="cls-7" d="M538.05,139.83l-1.87-7.36-1.3,2.88a14.72,14.72,0,0,0-3.73-3c-7.82-4.51-20.54-4.51-28.37,0a14.92,14.92,0,0,0-3.7,2.93l-1.44-2.45-.7,3c0,.05,0,.06-.38,1.63-.15.64-.29,1.27-.32,1.38-1.16,3.72,1.53,8.34,6.54,11.24a31.46,31.46,0,0,0,28.37,0C536.68,147,539.13,143.3,538.05,139.83Zm-2-3.89-.36.74.26-1.19Zm-38.77,3.24s.17-.7.33-1.41.34-1.46.36-1.56l.13-.51.4,2.15.72-1a12.88,12.88,0,0,1,4.11-3.55c7.53-4.35,19.78-4.35,27.32,0a12.88,12.88,0,0,1,4.11,3.55l.5.71-.71,1.46-5.42,4.09-8.57,2.33.47,6.81a31.87,31.87,0,0,1-4,.26v-6.75l-2-.16-.27,6.82a26.65,26.65,0,0,1-11.41-3.18C498.72,146.6,496.23,142.48,497.26,139.18Z"/><path class="cls-10" d="M530.42,126.88c7.43,4.29,7.43,11.25,0,15.54s-19.48,4.29-26.91,0-7.43-11.25,0-15.54S523,122.59,530.42,126.88Z"/><path class="cls-14" d="M528.6,128.8c6.42,3.71,6.42,9.72,0,13.43s-16.84,3.71-23.26,0-6.42-9.72,0-13.43S522.17,125.1,528.6,128.8Z"/><path class="cls-7" d="M530.69,126.42c-7.57-4.36-19.88-4.36-27.44,0-3.76,2.18-5.84,5.1-5.84,8.23s2.08,6,5.84,8.22a30.33,30.33,0,0,0,27.44,0c3.76-2.17,5.83-5.09,5.83-8.22S534.45,128.6,530.69,126.42Zm-2.36,1.21c2.94,1.7,4.56,3.92,4.56,6.26s-1.62,4.57-4.56,6.26c-6.26,3.62-16.46,3.62-22.73,0-2.94-1.69-4.55-3.92-4.55-6.26s1.61-4.56,4.55-6.26a25.19,25.19,0,0,1,22.73,0ZM530.16,142c-7.27,4.2-19.11,4.2-26.38,0-3.43-2-5.32-4.57-5.32-7.31s1.89-5.34,5.32-7.32a21.14,21.14,0,0,1,2.08-1l-.79.41c-3.27,1.89-5.08,4.44-5.08,7.17s1.81,5.28,5.08,7.17a26.33,26.33,0,0,0,23.79,0c3.28-1.89,5.08-4.44,5.08-7.17s-1.8-5.28-5.08-7.17c-.25-.14-.52-.27-.79-.41a21.32,21.32,0,0,1,2.09,1c3.42,2,5.31,4.58,5.31,7.32S533.58,140,530.16,142Z"/><path class="cls-11" d="M526.67,129.9h0a5.93,5.93,0,0,0-1.13-1.18L521.06,124h-7.88l-4.95,5-.41.44c-2.37,2.29-1.45,4.87,2,6.84a16.16,16.16,0,0,0,14.62,0C527.44,134.62,528.19,132.06,526.67,129.9Z"/><path class="cls-7" d="M517.1,138.63a15.41,15.41,0,0,1-7.57-1.81c-2.12-1.22-3.34-2.68-3.53-4.21a4.12,4.12,0,0,1,1.46-3.46l.39-.41,5.11-5.22h8.33l4.63,4.83a6.29,6.29,0,0,1,1.18,1.25l-.43.3.43-.3a4.21,4.21,0,0,1,.76,3.42,6.08,6.08,0,0,1-3.19,3.8A15.44,15.44,0,0,1,517.1,138.63Zm-3.7-14.06-5.19,5.32a3.07,3.07,0,0,0-1.16,2.59c.14,1.18,1.21,2.4,3,3.43a15.55,15.55,0,0,0,14.09,0,5.11,5.11,0,0,0,2.7-3.12,3.24,3.24,0,0,0-.6-2.59h0a5.7,5.7,0,0,0-1-1.08l-4.37-4.55Z"/><path class="cls-11" d="M519.9,122.75c1.55.89,1.55,2.34,0,3.24a6.23,6.23,0,0,1-5.61,0c-1.54-.9-1.54-2.35,0-3.24A6.23,6.23,0,0,1,519.9,122.75Z"/><path class="cls-12" d="M519.94,124.19c1.55.89,1.55,2.34,0,3.23a6.17,6.17,0,0,1-5.61,0c-1.55-.89-1.55-2.34,0-3.23A6.17,6.17,0,0,1,519.94,124.19Z"/><path class="cls-7" d="M517.1,127.19a6.21,6.21,0,0,1-3.07-.75,2.45,2.45,0,0,1-1.42-2.07,2.47,2.47,0,0,1,1.42-2.08,6.72,6.72,0,0,1,6.14,0h0a2.49,2.49,0,0,1,1.42,2.08,2.47,2.47,0,0,1-1.42,2.07A6.23,6.23,0,0,1,517.1,127.19Zm0-4.58a5.18,5.18,0,0,0-2.54.6,1.2,1.2,0,0,0,0,2.32,5.68,5.68,0,0,0,5.08,0,1.2,1.2,0,0,0,0-2.32h0A5.21,5.21,0,0,0,517.1,122.61Z"/><path class="cls-7" d="M517.13,123.92h0a1.06,1.06,0,0,1-1-1.06l.22-61.11,2,7.35c0,.16,4.57,16.15,12.78,21.08,8,4.78,17.17-2.3,17.26-2.37l1.2-.94.46,1.45c0,.14,4.58,14.29,14.61,21.21,9.73,6.71,18,.7,18,.64l1.26,1.68c-.09.07-9.53,7-20.49-.59-8.88-6.11-13.55-17.12-15-21-3,1.93-11,6.17-18.45,1.69-5.61-3.37-9.51-11-11.68-16.44l-.17,47.32A1.06,1.06,0,0,1,517.13,123.92Z"/><polygon class="cls-3" points="577.56 106.18 614.4 180.26 617.82 131.27 577.56 106.18"/><path class="cls-7" d="M614.79,182.23l-38.53-77.48L618.37,131l0,.32Zm-35.93-74.62L614,178.3l3.26-46.75Z"/><polygon class="cls-3" points="644.6 140.24 485.9 45.45 496.99 39.05 661.16 130.67 644.6 140.24"/><polygon class="cls-3" points="485.9 45.37 491.31 55.25 632.76 145.76 644.6 140.24 485.9 45.37"/><polygon class="cls-13" points="646.05 141.24 487.35 46.45 496.99 40.89 661.16 132.52 646.05 141.24"/><path class="cls-7" d="M645.64,140.24l16.59-9.57-165-92.08-.26-.15L486,44.8h0l-.6.35h0l.2.72,5.34,9.75,48,30.72h0l5.35,3.42h0l88.21,56.44.24.16,11.85-5.53h0l.24-.14.88-.41Zm-1-.62L590,107l13.54-7.87,56.53,31.55ZM544.82,80l11.89-7,45.78,25.55L589,106.38Zm-1-.62-3.26-1.94,11.86-6.85,3.26,1.82ZM497,39.65,551.32,70,539.5,76.8,487,45.42Zm-5.28,15.23-4.36-8,51.57,30.8v7.36Zm51.51,33L540,85.76v-7.4l3.25,1.94Zm1-6.91,44.17,26.38,0,9.44L544.27,88.51Zm45.18,36.49,0-9.49,54,32.25-10.68,5Z"/><polygon class="cls-3" points="571.66 94.55 571.66 92.11 583.25 98.88 583.02 101.15 571.66 94.55"/><polygon class="cls-3" points="594.38 92.11 583.02 98.67 571.66 92.11 583.02 85.55 594.38 92.11"/><polygon class="cls-3" points="590.57 92.11 583.02 96.47 575.47 92.11 583.02 87.75 590.57 92.11"/><path class="cls-13" d="M583,86.34l-10.68,6.17,11.29,6.6,10.75-6.21Zm0,10.13-6.44-4L583,87.9,590.45,92Z"/><path class="cls-7" d="M594.61,92h0l-.23-.13L583,85.29l-11.36,6.56h0l-.23.13h0v2.77l11.36,6.57.23.13h0l.23-.13,11.36-6.49V92Zm-11.82,8.81-10.91-6.3v-2l10.91,6.3Zm.23-2.38-10.91-6.3L583,85.81l10.91,6.3Z"/><path class="cls-7" d="M590.68,92.31l.34-.2-7.77-4.49-.23-.13-8,4.62,8,4.62,6.9-4,.76-.44Zm-7.43-4.17,6.86,4-1.18.68-5.68-3.21Zm-5.69,4.91L583,90l5.46,3.08L583,96.21Z"/><polygon class="cls-3" points="485.9 31.75 497.04 25.5 512.37 34.35 501.23 40.6 485.9 31.75"/><polygon class="cls-13" points="485.9 33.82 497.04 27.56 512.37 36.41 501.23 42.67 485.9 33.82"/><path class="cls-7" d="M522.43,50.93c-4.62-3.33-9.54-10.27-9.54-16.58V34L497,24.89l-.53.3V26.4l.53-.3,14.26,8.24L501.23,40l-4.72-2.73v1.88l.66,11L510.3,60.65l12.35-7.28V51.09Z"/><path class="cls-3" d="M501.23,40.6,485.9,31.75V45.37L510.34,60V58.3C505.21,54.6,501.23,46.73,501.23,40.6Z"/><path class="cls-7" d="M501.76,40.9l11.14-6.25V34L497,24.89,485.9,31.15l-.53.29h0V45.67l25.5,15.27V58l-.22-.16C505.82,54.4,501.89,46.85,501.76,40.9ZM497,26.1l14.26,8.24L501.23,40,487,31.76Zm12.78,33-23.4-14V32.66l10.11,5.84,4.17,2.41c.13,6.25,4.07,13.89,9.12,17.65Z"/><path class="cls-3" d="M512.57,46.3,512,44.78a2.5,2.5,0,1,0-4.63,1.89L508,48.2a2.46,2.46,0,0,0,1.34,1.35,2.51,2.51,0,0,0,1,.2,2.44,2.44,0,0,0,.95-.19A2.49,2.49,0,0,0,512.57,46.3Z"/><rect class="cls-7" x="509.57" y="29.52" width="123.36" height="2.1" transform="translate(10.39 143.25) rotate(-14.42)"/><path class="cls-3" d="M511.51,47.85h0A1.89,1.89,0,0,1,509.62,46h0a1.9,1.9,0,0,1,1.89-1.9h0a1.9,1.9,0,0,1,1.9,1.9h0A1.9,1.9,0,0,1,511.51,47.85Z"/><path class="cls-7" d="M511.51,48.49A2.53,2.53,0,1,1,514,46,2.54,2.54,0,0,1,511.51,48.49Zm0-3.79A1.26,1.26,0,1,0,512.77,46,1.26,1.26,0,0,0,511.51,44.7Z"/><path class="cls-7" d="M492.56,46.66,488,44V38.68l4.61,2.66Zm-3.82-3.12,3,1.75v-3.5l-3-1.74Z"/><polygon class="cls-3" points="485.61 31.75 485.61 29.22 497.6 36.23 497.37 38.58 485.61 31.75"/><polygon class="cls-3" points="509.13 29.22 497.37 36.01 485.61 29.22 497.37 22.43 509.13 29.22"/><polygon class="cls-3" points="505.18 29.22 497.37 33.73 489.55 29.22 497.37 24.71 505.18 29.22"/><path class="cls-13" d="M497.37,23.25l-11.05,6.38L498,36.47,509.13,30Zm0,10.48-6.67-4.1,6.67-4.76,7.69,4.28Z"/><path class="cls-7" d="M509.36,29.09h0l-.23-.14-11.76-6.79L485.61,29h0l-.24.14h0V32l11.76,6.8.24.14h0l.23-.14L509.36,32V29.09Zm-12.23,9.12-11.29-6.53V29.63l11.29,6.52Zm.24-2.47-11.29-6.52,11.29-6.52,11.29,6.52Z"/><path class="cls-7" d="M505.3,29.43l.35-.21-8-4.64-.23-.14-8.28,4.78L497.37,34l7.14-4.13.79-.45Zm-7.7-4.31,7.11,4.1-1.22.71L497.6,26.6Zm-5.88,5.08L497.37,27,503,30.2l-5.65,3.26Z"/><path class="cls-3" d="M599.47,289.7l-18.81,10.66a8.22,8.22,0,0,1-8.17,0l-27.64-16.05a1.87,1.87,0,0,1,0-3.24l22.91-13,31.71,18.41A1.86,1.86,0,0,1,599.47,289.7Z"/><g id="_2-2" data-name="2"><polygon class="cls-3" points="557.43 268.67 557.43 270.35 587.81 287.84 587.81 286.21 557.43 268.67"/><polygon class="cls-3" points="587.81 286.21 557.43 268.67 561.07 266.57 591.44 284.11 587.81 286.21"/><polygon class="cls-13" points="587.81 286.21 558.04 269.02 561.07 267.27 590.92 284.5 587.81 286.21"/><path class="cls-7" d="M591.66,284.24V284h0l-.22-.13-30.26-17.47-.11-.06-3.64,2.09h0l-.22.13h0v1.94L587.58,288l.23.13h0L588,288l3.63-2.1Zm-.66-.13-.88.5L587.81,286,577,279.72l-19.14-11.05,3.19-1.84Zm-33.34-13.89v-1.16l29.92,17.27v1.12Z"/><polygon class="cls-3" points="552.47 271.33 552.47 273.01 582.85 290.5 582.85 288.87 552.47 271.33"/><polygon class="cls-3" points="582.85 288.87 552.47 271.33 556.11 269.23 586.48 286.77 582.85 288.87"/><polygon class="cls-13" points="582.85 288.87 553.08 271.68 556.11 269.93 585.96 287.17 582.85 288.87"/><path class="cls-7" d="M586.7,286.9v-.26h0l-.22-.13L556.22,269l-.11-.06-3.64,2.09h0l-.22.13h0v1.94l30.37,17.49.23.13h0l.22-.13,3.63-2.1Zm-.66-.13-.88.5-2.31,1.34-10.79-6.23-19.14-11.05,3.19-1.84ZM552.7,272.88v-1.16L582.62,289v1.12Z"/><polygon class="cls-3" points="547.51 274.2 547.51 275.88 577.89 293.37 577.89 291.73 547.51 274.2"/><polygon class="cls-3" points="577.89 291.73 547.51 274.2 551.15 272.1 581.52 289.64 577.89 291.73"/><polygon class="cls-13" points="577.89 291.73 548.12 274.55 551.15 272.8 581 290.03 577.89 291.73"/><path class="cls-7" d="M581.74,289.77v-.26h0l-.22-.13-30.26-17.47-.11-.07-3.64,2.1h0l-.22.13h0V276l30.38,17.49.22.12h0l.22-.12,3.63-2.1Zm-.66-.13-.88.5-2.31,1.34-10.79-6.23L548,274.2l3.19-1.84Zm-33.34-13.89v-1.17l29.93,17.28V293Z"/><polygon class="cls-3" points="542.55 277.07 542.55 278.76 572.93 296.24 572.93 294.61 542.55 277.07"/><polygon class="cls-3" points="572.93 294.61 542.55 277.07 546.19 274.98 576.56 292.51 572.93 294.61"/><polygon class="cls-13" points="572.93 294.61 543.16 277.42 546.19 275.68 576.04 292.91 572.93 294.61"/><path class="cls-7" d="M576.78,292.64v-.25h0l-.22-.13L546.3,274.78l-.11-.06-3.63,2.1h0l-.23.13h0v1.94l30.38,17.48.22.13h0l.22-.13,3.63-2.09Zm-.66-.13-.88.51-2.31,1.33-10.79-6.22L543,277.07l3.19-1.84Zm-33.34-13.88v-1.17l29.93,17.28v1.12Z"/><polygon class="cls-3" points="557.43 263.38 557.43 265.06 587.81 282.55 587.81 280.91 557.43 263.38"/><polygon class="cls-3" points="587.81 280.91 557.43 263.38 561.07 261.28 591.44 278.82 587.81 280.91"/><polygon class="cls-13" points="587.81 280.91 558.04 263.73 561.07 261.98 590.91 279.21 587.81 280.91"/><path class="cls-7" d="M591.66,278.94v-.25h0l-.22-.13-30.26-17.47-.11-.07-3.64,2.1h0l-.22.13h0v1.94l30.37,17.48.23.13h0l.22-.13,3.63-2.09Zm-.66-.12-.88.5-2.31,1.34L577,274.43l-19.14-11.05,3.19-1.84Zm-33.34-13.89v-1.17L587.58,281v1.12Z"/><polygon class="cls-3" points="552.47 266.04 552.47 267.72 582.85 285.21 582.85 283.57 552.47 266.04"/><polygon class="cls-3" points="582.85 283.57 552.47 266.04 556.11 263.94 586.48 281.48 582.85 283.57"/><polygon class="cls-13" points="582.85 283.57 553.08 266.39 556.11 264.64 585.96 281.87 582.85 283.57"/><path class="cls-7" d="M586.7,281.6v-.25h0l-.22-.13-30.26-17.47-.11-.07-3.64,2.1h0l-.22.13h0v1.94l30.37,17.48.23.13h0l.22-.13,3.63-2.09Zm-.66-.12-.88.5-2.31,1.34-10.79-6.23-19.14-11,3.19-1.84ZM552.7,267.59v-1.17l29.92,17.28v1.12Z"/><polygon class="cls-3" points="547.51 268.9 547.51 270.59 577.89 288.07 577.89 286.44 547.51 268.9"/><polygon class="cls-3" points="577.89 286.44 547.51 268.9 551.15 266.81 581.52 284.34 577.89 286.44"/><polygon class="cls-13" points="577.89 286.44 548.12 269.25 551.15 267.51 581 284.74 577.89 286.44"/><path class="cls-7" d="M581.74,284.47v-.25h0l-.22-.13-30.26-17.47-.11-.07-3.64,2.1h0l-.22.13h0v1.94l30.38,17.48.22.13h0l.22-.13,3.63-2.09Zm-.66-.13-.88.51-2.31,1.33L567.1,280,548,268.9l3.19-1.84Zm-33.34-13.88v-1.17l29.93,17.28v1.12Z"/><polygon class="cls-3" points="542.55 271.78 542.55 273.46 572.93 290.95 572.93 289.32 542.55 271.78"/><polygon class="cls-3" points="572.93 289.32 542.55 271.78 546.19 269.68 576.56 287.22 572.93 289.32"/><polygon class="cls-13" points="572.93 289.32 543.16 272.13 546.19 270.38 576.04 287.62 572.93 289.32"/><path class="cls-7" d="M576.78,287.35v-.26h0l-.22-.13L546.3,269.49l-.11-.06-3.63,2.09h0l-.23.13h0v1.94l30.38,17.49.22.13h0l.22-.13,3.63-2.09Zm-.66-.13-.88.51-2.31,1.33-10.79-6.23L543,271.78l3.19-1.84Zm-33.34-13.88v-1.17l29.93,17.28v1.12Z"/><polygon class="cls-3" points="564.71 289.89 564.71 286.21 569.31 288.87 569.31 292.52 564.71 289.89"/><path class="cls-7" d="M572.48,290.69l-3-1.7v-.25l-5-2.92V290l5,2.88v-.51Zm-3.39,1.45-4.16-2.38v-3.17l4.16,2.4Z"/><polygon class="cls-3" points="545.78 278.91 545.78 275.32 550.38 278.01 550.38 281.59 545.78 278.91"/><path class="cls-7" d="M553.55,279.76l-2.95-1.7v-.18l-5-2.95V279l5,2.93v-.51Zm-3.39,1.44L546,278.78v-3.07l4.16,2.43Z"/><polygon class="cls-3" points="555.02 284.24 555.02 280.65 559.62 283.34 559.62 286.92 555.02 284.24"/><path class="cls-7" d="M562.79,285.09l-2.95-1.7v-.18l-5-2.95v4.11l5,2.93v-.51Zm-3.39,1.44-4.16-2.42V281l4.16,2.42Z"/><polygon class="cls-14" points="579.92 259.6 566.22 251.69 552.53 259.6 552.53 259.6 552.53 275.41 566.22 283.32 566.22 267.55 579.92 259.6"/><polygon class="cls-10" points="552.53 275.36 566.22 283.27 566.22 267.5 552.53 259.55 552.53 259.55 552.53 275.36"/><path class="cls-7" d="M580.19,259.44l-14-8.06-13.92,8,0,0h0v.32h0v15.81l13.7,7.91h0l.27.16.28-.16h0l13.55-7.83.14-.08V259.76h0Zm-14-7.43,6.44,3.72-13.15,7.59-6.43-3.72ZM566,282.84l-13.15-7.59V260.08L566,267.66ZM571.8,264l-5.58,3.22-6.43-3.72,13.14-7.59,6.44,3.72Z"/><path class="cls-7" d="M560.78,267.53l-2.54-1.47a.77.77,0,0,0-.8,0,1,1,0,0,0-.41.88,2.18,2.18,0,0,0,.94,1.78l2.54,1.47a.89.89,0,0,0,.46.13.69.69,0,0,0,.34-.09,1,1,0,0,0,.42-.89A2.18,2.18,0,0,0,560.78,267.53Zm.26,2.18a.27.27,0,0,1-.26,0l-2.54-1.47a1.63,1.63,0,0,1-.66-1.3c0-.24.07-.37.14-.41s.19,0,.25,0l.17.11a2.08,2.08,0,0,0,.86,1.47l2.17,1.25C561.16,269.56,561.1,269.68,561,269.71Z"/><path class="cls-14" d="M577.94,270.79a.44.44,0,0,0-.44,0l-2,1.16a1.26,1.26,0,0,0-.53,1v2.17a.55.55,0,0,0,.23.5.41.41,0,0,0,.19,0,.49.49,0,0,0,.25-.08l2-1.16h0a1.27,1.27,0,0,0,.54-1v-2.17A.55.55,0,0,0,577.94,270.79Z"/></g><path class="cls-3" d="M553.71,235.54l-81.86,47.37a6.68,6.68,0,0,1-6.67,0L427.33,261a2.36,2.36,0,0,1,0-4.09l84-48.61a2.34,2.34,0,0,1,2.37,0l40,23.12A2.36,2.36,0,0,1,553.71,235.54Z"/><polygon class="cls-3" points="463.19 274.34 424.69 252.11 424.69 209.7 463.19 231.93 463.19 274.34"/><polygon class="cls-3" points="499.99 166.17 424.68 209.65 463.19 231.88 538.49 188.4 499.99 166.17"/><path class="cls-7" d="M424.68,209.39l-.24.2v45.65l5.16,3,2.46-1.56,25,14.43,1.1,3.63,4.76,2.75.51-.06V231.78l-38.27-22.11Zm4.7,48.12L425,255v-2.4l1.17.68,4.15,2.4Zm33.55,19.37-4.33-2.5-.89-2.91,5.22,3Zm0-3-.31-.18-7.2-4.16v-1.45l-4.95-2.86v1.45l-13.07-7.54V257.7l-4.94-2.85v1.45L425,252V210.14l38,21.93Z"/><path class="cls-13" d="M500,167.39l-74.39,43,38,21.91,74.37-43Zm-36.78,61-32.95-18.64L500,169.49l32.82,18.95Z"/><path class="cls-7" d="M538.49,188.1l-75.43,43.55-.13.07v45.75l.21.11,5.06-2.92,1.1-3.62,61.9-35.74,2.38,1.61,5.16-3V188.25Zm-5.4,47.77-1.38-.87.76-.43.06.12Z"/><path class="cls-3" d="M467,232.86l-.13.08v35.87l3.86-2.22.13-.07h0l2.61-1.5.09,0h0l3.28-1.89.2-.1h0l2.7-1.57h0l3.25-1.87.23-.1h0l2.7-1.58h0l3.23-1.85.25-.11h0l2.7-1.59h0l3.21-1.84.27-.11h0l2.7-1.6h0l3.3-1.9.18-.1h0l.3-.17,2.4-1.36v0l3.23-1.85.25-.11h0l2.7-1.59h0l3.21-1.84.27-.11h0l2.7-1.6h0l3.18-1.83.3-.1h0l2.7-1.62h0l3.16-1.82.32-.1h0l2.7-1.63h0l3.43-2h0v0l2.58-1.48.12-.08V193.57Zm34.78,15.3h0v-34.7l2.2-1.27v34.71Zm-30.92-16.93,2.19-1.26v34.7l-2.19,1.24Zm2.7-1.55,3-1.71v34.61l-3,0Zm3.48,32.7v-34.7l2.19-1.27v34.71Zm2.69-36.25,3-1.71V259l-3,0V226.13Zm3.49,32.7v-34.7l2.19-1.27v34.71Zm2.66-36.24,3-1.73V255.5l-3,0V222.59Zm3.52,32.69V220.57l2.2-1.26V254Zm2.64-36.23,3-1.74V252l-3,0V219.05Zm3.54,32.68V217l2.2-1.26v34.7Zm2.62-36.21,3-1.76v34.6l-3,0V215.52Zm6.26-3.61,3-1.7v34.64l-3,0ZM508,244.62v-34.7l2.2-1.27v34.71Zm2.64-36.22,3-1.75v34.66l-3,0V208.4Zm3.54,32.67V206.36l2.2-1.26v34.71Zm2.7-36.26,3-1.71v34.67l-3,0Zm3.48,32.71V202.81l2.2-1.26v34.7Zm2.7-36.26,3-1.71v34.68l-3,0ZM526.5,234V199.26l2.2-1.27V232.7Zm2.7-36.27,3-1.7v34.52l-3,0Zm3.48,32.64V195.7l2.2-1.26V229.1Zm-62.31,1.18v34.57l-3,0V233.23Z"/><polygon class="cls-13" points="439.65 204.78 441.88 203.48 473.83 221.72 471.6 223.01 439.65 204.78"/><polygon class="cls-13" points="434.08 208.06 436.31 206.77 468.26 225.01 466.03 226.29 434.08 208.06"/><polygon class="cls-13" points="445.48 201.45 447.72 200.16 479.66 218.4 477.44 219.68 445.48 201.45"/><polygon class="cls-13" points="451.19 198.04 453.43 196.74 485.38 214.98 483.15 216.26 451.19 198.04"/><polygon class="cls-13" points="456.8 194.71 459.04 193.42 490.98 211.65 488.75 212.94 456.8 194.71"/><polygon class="cls-13" points="462.64 191.38 464.87 190.09 496.82 208.33 494.59 209.61 462.64 191.38"/><polygon class="cls-13" points="468.35 187.97 470.58 186.67 502.53 204.91 500.3 206.2 468.35 187.97"/><polygon class="cls-13" points="474.22 184.74 476.45 183.45 508.4 201.69 506.17 202.97 474.22 184.74"/><polygon class="cls-13" points="479.93 181.33 482.17 180.03 514.11 198.27 511.88 199.56 479.93 181.33"/><polygon class="cls-13" points="485.9 178 488.13 176.71 520.08 194.95 517.85 196.23 485.9 178"/><polygon class="cls-13" points="491.74 174.68 493.97 173.38 525.91 191.62 523.69 192.91 491.74 174.68"/><polygon class="cls-13" points="497.45 171.26 499.68 169.97 531.63 188.2 529.4 189.49 497.45 171.26"/><path class="cls-7" d="M463.19,232.17l-.13-.07-38.6-22.29.22-.42L500,165.88l.12.07,38.63,22.3v.3Zm-38-22.52,38,21.93L538,188.4l-38-21.94Z"/><path class="cls-7" d="M532.78,188.44l-.38-.22h0L500,169.49l-.13-.07-11.63,6.74-.05,0L484.91,178l0,0-2.55,1.48-.1-.05-3.24,1.88.09.06-2.54,1.47-.08,0-3.25,1.88.08.05-14.06,8.14h0L456,194.79h0l-25.83,15,32.46,18.48.44.25h0l.13.07ZM432.72,210.59l1.57-2.34,31.34,18.38L463.26,228Zm26.59-17.09,32,18.29-2.23,1.28-32-18.28Zm17.3-10,32.07,18.31-2.23,1.28-32.08-18.3Zm1.79.4,1.25-2.17h0L511.75,200l-2.57,1.48-.05,0,0,0Zm4-3.76,32.08,18.31-2.22,1.29L480.17,181.4Zm1.85.42,1.26-2.17,32,18.29L515,198.13h0l0,0Zm3.95-3.79,32.09,18.33-2.22,1.28L486,178Zm37.88,15L523.86,193l-32.09-18.3,2.24-1.3ZM496,173.92l1.26-2.18L529.14,190l-2.53,1.46Zm1.67-2.52,2.24-1.3,31.91,18.34-2.12,1.23Zm25.73,21.9-2.53,1.46L490.1,177.22l1.26-2.17Zm-26.2,15.13-2.23,1.29-32-18.27,2.24-1.29Zm-30.07-17.77,1.26-2.17,31.86,18.18-2.53,1.46Zm1.67-2.52,2.24-1.29,1,.54,0,0,31,17.69-2.2,1.26Zm3.89-.93,1.24-2.15,32.06,18.29-2.49,1.45ZM494.41,210l-2.53,1.46L461.23,194l1.26-2.17Zm-56.68-2.44,30.49,17.56-2.09,1.21-31.41-18.42,1.82-1Zm.51-.29,1.16-2.07,31.86,18.17-2.39,1.38Zm1.57-2.42,2.24-1.3L474,221.8l-2.22,1.29Zm4.18-.79,1.26-2.18L477.05,220l-2.53,1.46Zm1.67-2.52,2.24-1.3,31.91,18.19-2.25,1.3Zm4-.91,1.26-2.17,31.93,18.22-2.53,1.46Zm1.67-2.52,2.24-1.29,1.13.64v0l30.88,17.63-2.21,1.27Zm4.06-.83,1.25-2.16,32,18.23-2.51,1.45Z"/><path class="cls-13" d="M502.74,236.29a3.28,3.28,0,0,0-1.31,1.5,5.46,5.46,0,0,0-.47,2.32c0,1.83.59,2.4,1.78,1.71a9.61,9.61,0,0,0,1.81-1.47v1.45a8.27,8.27,0,0,1-1.95,1.55c-1,.6-1.82.69-2.37.28s-.82-1.28-.82-2.64a7.66,7.66,0,0,1,.41-2.47,6.9,6.9,0,0,1,1.15-2.14,6.29,6.29,0,0,1,1.77-1.53,4.36,4.36,0,0,1,2.08-.63l-.49,1.7a4.43,4.43,0,0,0-.8.08A2.44,2.44,0,0,0,502.74,236.29Z"/><path class="cls-13" d="M510.4,238.73l-.51-1.65-2.59,1.49-.51,2.25-1.62.94,2.5-9.68,1.84-1.06L512,237.8Zm-.87-2.9c-.48-1.49-.74-2.34-.8-2.53a4.58,4.58,0,0,1-.13-.48c-.11.54-.41,1.9-.92,4.08Z"/><path class="cls-13" d="M514.42,233.27v3.14l-1.5.87v-8.19L515,227.9a3.09,3.09,0,0,1,2.14-.63c.47.14.7.62.7,1.44a3.6,3.6,0,0,1-.35,1.49,5.29,5.29,0,0,1-1,1.44c1.07,1.23,1.76,2,2.08,2.37l-1.66,1-1.7-2.16Zm0-1.41.49-.28a3.54,3.54,0,0,0,1.05-.88,1.76,1.76,0,0,0,.34-1.06c0-.39-.12-.6-.35-.63a2,2,0,0,0-1.07.37l-.46.26Z"/><path class="cls-13" d="M522.17,227.34l2.81-1.63V230a14.59,14.59,0,0,1-1.28,1.11,13.14,13.14,0,0,1-1.24.81c-1.07.62-1.89.73-2.45.33s-.85-1.28-.85-2.64a7.17,7.17,0,0,1,1-3.66,7.39,7.39,0,0,1,2.73-2.68,5.15,5.15,0,0,1,2.11-.72l-.5,1.68a3.18,3.18,0,0,0-1.62.49,4,4,0,0,0-1.56,1.66,5,5,0,0,0-.59,2.37,2.41,2.41,0,0,0,.47,1.76q.48.43,1.38-.09a7.44,7.44,0,0,0,1-.66V228l-1.34.77Z"/><path class="cls-13" d="M533.11,221.51a7.51,7.51,0,0,1-.87,3.64,6.43,6.43,0,0,1-2.51,2.53c-1.08.63-1.92.75-2.5.36s-.87-1.27-.87-2.64a7.44,7.44,0,0,1,.87-3.63,6.53,6.53,0,0,1,2.51-2.52c1.1-.63,1.93-.75,2.51-.36S533.11,220.16,533.11,221.51Zm-5.17,3a2.58,2.58,0,0,0,.45,1.81c.3.29.75.26,1.34-.08,1.21-.7,1.81-2,1.81-3.81s-.6-2.42-1.8-1.73a3.4,3.4,0,0,0-1.35,1.48A5.47,5.47,0,0,0,527.94,224.5Z"/><path class="cls-7" d="M460.67,269.82,427.2,250.5V213.89l33.47,19.33Zm-32.84-19.69L460,268.73V233.58L427.83,215Z"/><polygon class="cls-7" points="443.69 259.66 443.06 259.66 443.13 223.82 443.76 223.82 443.69 259.66"/><path class="cls-7" d="M436.54,241.15l-.05,0a1.52,1.52,0,0,1,.28.81c0,.46-.32.65-.72.42l-1.66-1a1.59,1.59,0,0,1-.72-1.25c0-.27.11-.43.28-.48l-.06,0c-.63-.37-1.14-.07-1.14.66a2.55,2.55,0,0,0,1.14,2l2.65,1.53c.64.36,1.15.07,1.15-.67A2.5,2.5,0,0,0,436.54,241.15Z"/><path class="cls-7" d="M453.46,250.91l-.06,0a1.51,1.51,0,0,1,.29.81c0,.46-.33.64-.72.41l-1.67-1a1.59,1.59,0,0,1-.72-1.25.46.46,0,0,1,.29-.48l-.06,0c-.63-.36-1.15-.07-1.15.66a2.53,2.53,0,0,0,1.15,2l2.65,1.53c.63.37,1.15.07,1.15-.66A2.56,2.56,0,0,0,453.46,250.91Z"/><polygon class="cls-10" points="483.45 190.36 483.45 187.64 496.4 195.2 496.14 197.73 483.45 190.36"/><polygon class="cls-10" points="508.84 187.64 496.14 194.97 483.45 187.64 496.14 180.31 508.84 187.64"/><polygon class="cls-10" points="504.58 187.64 496.14 192.51 487.71 187.64 496.14 182.77 504.58 187.64"/><path class="cls-14" d="M496.14,181.2l-11.92,6.88,12.61,7.38,12-6.93Zm0,11.31L489,188.08l7.19-5.14,8.31,4.62Z"/><path class="cls-7" d="M509.09,187.49h0l-.25-.14L496.14,180l-12.69,7.33h0l-.25.14h0v3.1l12.69,7.33.25.15h0l.26-.14,12.69-7.25v-3.19Zm-13.2,9.85-12.19-7.05v-2.21l12.19,7Zm.25-2.66-12.18-7,12.18-7,12.19,7Z"/><path class="cls-7" d="M504.7,187.86l.38-.22-8.68-5-.26-.14-8.93,5.16,8.93,5.16,7.71-4.45.85-.49Zm-8.3-4.65,7.67,4.43-1.32.76-6.35-3.59ZM490,188.69l6.1-3.44,6.11,3.44-6.11,3.53Z"/><path class="cls-3" d="M453.21,294.82l-81.85,47.37a6.68,6.68,0,0,1-6.67,0l-37.85-21.88a2.37,2.37,0,0,1,0-4.1l84-48.6a2.34,2.34,0,0,1,2.37,0l40,23.12A2.36,2.36,0,0,1,453.21,294.82Z"/><polygon class="cls-3" points="361.9 332.71 323.41 310.49 323.41 268.08 361.9 290.31 361.9 332.71"/><polygon class="cls-3" points="398.7 224.55 323.4 268.02 361.9 290.25 437.2 246.78 398.7 224.55"/><path class="cls-7" d="M323.4,267.77l-.25.2v45.65l5.17,3,2.45-1.56,25,14.43,1.11,3.63,4.76,2.74.5,0V290.16l-38.26-22.11Zm4.69,48.12-4.43-2.56v-2.4l1.17.68L329,314Zm33.56,19.37-4.34-2.5-.89-2.91,5.23,3Zm0-3-.31-.18-7.2-4.16v-1.45l-4.95-2.86v1.45l-13.07-7.54v-1.46l-4.95-2.85v1.45l-7.51-4.33V268.52l38,21.93Z"/><path class="cls-13" d="M398.68,225.76l-74.39,43,38,21.92,74.38-42.95Zm-36.78,61-33-18.65,69.73-40.28,32.83,18.95Z"/><path class="cls-7" d="M437.2,246.48,361.77,290l-.12.07v45.74l.2.12,5.06-2.92,1.11-3.62,61.89-35.74,2.38,1.61,5.17-3V246.63Zm-5.4,47.77-1.37-.87.75-.43.06.12Z"/><path class="cls-3" d="M365.74,291.24l-.13.08v35.87l3.85-2.22.13-.07h0l2.61-1.5.09,0h0l3.28-1.89.2-.1h0l2.71-1.57h0l3.25-1.87.22-.1h0l2.71-1.58h0l3.22-1.85.25-.11h0l2.71-1.59h0l3.2-1.84.27-.11h0l2.71-1.6h0l3.3-1.9.17-.1h0l.3-.17,2.41-1.36v0l3.22-1.85.25-.11h0l2.71-1.59h0l3.2-1.84.27-.11h0l2.71-1.6h0l3.18-1.83.29-.1h0l2.71-1.62h0l3.15-1.82.32-.1h0l2.71-1.64h0l3.43-2h0v0L434,287.9l.13-.08V252Zm34.78,15.3h0v-34.7l2.2-1.27v34.71Zm-30.93-16.93,2.2-1.26v34.7l-2.2,1.24Zm2.7-1.55,3-1.71V321l-3,0Zm3.48,32.7v-34.7l2.2-1.27V319.5Zm2.69-36.25,3-1.71v34.62l-3,0V284.51Zm3.49,32.7v-34.7l2.2-1.27V316ZM384.62,281l3-1.73v34.64l-3,0V281Zm3.51,32.69V279l2.2-1.26V312.4Zm2.64-36.23,3-1.74v34.65l-3,0V277.43Zm3.54,32.68V275.4l2.2-1.26v34.7Zm2.62-36.22,3.06-1.75v34.6l-3,0V273.89Zm6.27-3.6,3-1.7v34.63l-3,0ZM406.67,303V268.29l2.2-1.26v34.71Zm2.64-36.22,3-1.75v34.66l-3,0V266.78Zm3.54,32.67V264.74l2.2-1.26v34.71Zm2.71-36.26,3-1.71v34.67l-3,0ZM419,295.9V261.19l2.2-1.26v34.7Zm2.71-36.27,3-1.7v34.68l-3,0Zm3.47,32.72V257.64l2.2-1.27v34.71Zm2.71-36.27,3-1.71V288.9l-3,0Zm3.47,32.64V254.08l2.2-1.26v34.66Zm-62.31,1.18v34.57l-3,0V291.61Z"/><polygon class="cls-13" points="338.36 263.16 340.6 261.86 372.54 280.1 370.32 281.38 338.36 263.16"/><polygon class="cls-13" points="332.79 266.44 335.03 265.15 366.97 283.39 364.75 284.67 332.79 266.44"/><polygon class="cls-13" points="344.2 259.83 346.43 258.54 378.38 276.77 376.15 278.06 344.2 259.83"/><polygon class="cls-13" points="349.91 256.42 352.14 255.12 384.09 273.36 381.86 274.64 349.91 256.42"/><polygon class="cls-13" points="355.51 253.09 357.75 251.79 389.69 270.03 387.47 271.32 355.51 253.09"/><polygon class="cls-13" points="361.35 249.76 363.58 248.47 395.53 266.71 393.31 267.99 361.35 249.76"/><polygon class="cls-13" points="367.06 246.35 369.3 245.05 401.24 263.29 399.02 264.58 367.06 246.35"/><polygon class="cls-13" points="372.93 243.12 375.17 241.83 407.11 260.07 404.89 261.35 372.93 243.12"/><polygon class="cls-13" points="378.64 239.71 380.88 238.41 412.83 256.65 410.6 257.94 378.64 239.71"/><polygon class="cls-13" points="384.61 236.38 386.85 235.09 418.79 253.33 416.57 254.61 384.61 236.38"/><polygon class="cls-13" points="390.45 233.06 392.68 231.76 424.63 250 422.4 251.28 390.45 233.06"/><polygon class="cls-13" points="396.16 229.64 398.4 228.34 430.34 246.58 428.12 247.87 396.16 229.64"/><path class="cls-7" d="M361.9,290.55l-.12-.08-38.61-22.28.23-.42,75.3-43.51.13.07,38.63,22.3v.3ZM323.9,268l38,21.94,74.8-43.18-38-21.94Z"/><path class="cls-7" d="M431.5,246.82l-.38-.22h0l-32.45-18.73-.13-.08-11.63,6.75,0,0-3.25,1.88,0,0-2.55,1.48-.09-.05-3.25,1.88.1.05-2.55,1.48-.08,0L372,243.1l.08,0L358,251.29h0l-3.25,1.89h0l-25.83,15,32.46,18.48.45.26h0l.13.07ZM331.44,269l1.57-2.34L364.34,285,362,286.38ZM358,251.88l32,18.29-2.22,1.28-32-18.28Zm17.3-10,32.07,18.3-2.22,1.29-32.08-18.3Zm1.79.4,1.26-2.17h0l32.08,18.31-2.56,1.48,0,0,0,0Zm4-3.76L413.2,256.8,411,258.09l-32.09-18.31Zm1.84.42,1.26-2.17L416.28,255l-2.57,1.48h0l0,0Zm4-3.79L419,253.45l-2.23,1.28-32.1-18.31Zm37.89,15-2.23,1.29-32.09-18.3,2.24-1.3Zm-30.14-17.8,1.26-2.18,31.94,18.22-2.53,1.46Zm1.67-2.52,2.24-1.3,31.92,18.34-2.13,1.23Zm25.74,21.9-2.53,1.46L388.81,235.6l1.26-2.17Zm-26.21,15.13-2.22,1.29-32-18.27,2.23-1.29ZM365.8,249l1.25-2.17,31.87,18.18-2.53,1.46Zm1.67-2.52,2.23-1.29,1,.54v0l31,17.69-2.19,1.26Zm3.88-.93,1.24-2.15,32.07,18.29-2.5,1.44Zm21.78,22.8-2.53,1.46L360,252.35l1.25-2.17ZM336.45,266l30.49,17.56-2.09,1.21L333.44,266.3l1.81-1Zm.51-.29,1.16-2.08L370,281.76l-2.39,1.38Zm1.57-2.42,2.23-1.3,31.95,18.24-2.23,1.28Zm4.18-.79,1.25-2.18,31.8,18.15-2.53,1.46Zm1.67-2.52,2.23-1.3,31.92,18.19-2.26,1.3Zm4-.91,1.25-2.17,31.94,18.21L379,276.53Zm1.67-2.52,2.23-1.29,1.13.64v0l30.88,17.63-2.21,1.27Zm4.06-.83,1.24-2.16,32,18.23-2.51,1.45Z"/><polygon class="cls-13" points="331.27 308.95 358.57 293.06 358.57 324.66 331.27 308.95"/><polygon class="cls-13" points="326.98 309.09 328.69 308.05 358.57 325.24 358.57 327.33 326.98 309.09"/><path class="cls-7" d="M326.23,272.82v35.87h0v0l.26.13h0l32.58,18.81V291.78Zm2.21,1.85v32.4l-1,.6-.71.43V273.69ZM327,308.54l.69-.41,1-.62,29.88,17.18v2.09Zm4.29-.14,27.3-15.89v31.6Z"/><polygon class="cls-10" points="382.25 248.54 382.25 245.82 395.2 253.38 394.94 255.91 382.25 248.54"/><polygon class="cls-10" points="407.64 245.82 394.94 253.15 382.25 245.82 394.94 238.49 407.64 245.82"/><polygon class="cls-10" points="403.38 245.82 394.94 250.69 386.51 245.82 394.94 240.95 403.38 245.82"/><path class="cls-14" d="M394.94,239.38,383,246.26l12.61,7.38,12-6.93Zm0,11.31-7.19-4.43,7.19-5.14,8.31,4.62Z"/><path class="cls-7" d="M407.89,245.67h0l-.25-.14-12.7-7.33-12.69,7.33h0l-.25.14h0v3.1l12.69,7.33.25.15h0l.26-.14,12.69-7.25v-3.19Zm-13.2,9.85-12.19-7.05v-2.21l12.19,7Zm.25-2.66-12.18-7,12.18-7,12.19,7Z"/><path class="cls-7" d="M403.5,246l.38-.22-8.68-5-.26-.14L386,245.82l8.94,5.16,7.71-4.45.85-.49Zm-8.3-4.65,7.67,4.43-1.32.76L395.2,243Zm-6.36,5.48,6.1-3.44,6.1,3.44-6.1,3.53Z"/><polygon class="cls-10" points="340.69 300.1 340.69 294.25 345.58 297.17 345.58 302.94 340.69 300.1"/><polygon class="cls-14" points="340.69 294.25 344.84 291.79 347.86 293.53 347.86 295.82 345.58 297.17 340.69 294.25"/><path class="cls-7" d="M344.84,291.59l-4.15,2.46-.17.1v6l4.89,2.85.17.1h0l.16-.1,2.29-1.31v-8.3Zm0,.39,2.85,1.64v2.11L345.58,297l-3.65-2.18-.92-.55Zm-4,8v-5.46l.93.56,3.63,2.17v5.38Z"/><polygon class="cls-11" points="347.89 301.92 347.89 293.06 355.3 297.49 355.3 306.23 347.89 301.92"/><polygon class="cls-12" points="347.89 293.06 354.18 289.33 358.76 291.97 358.76 295.45 355.3 297.49 347.89 293.06"/><path class="cls-7" d="M354.18,289l-6.29,3.73-.25.15v9.15l7.41,4.31.25.14h0l.25-.14,3.46-2V291.82Zm0,.58,4.32,2.49v3.19l-3.21,1.9-5.52-3.3-1.39-.84Zm-6.05,12.16v-8.27l1.42.84,5.49,3.28v8.16Z"/><polygon class="cls-10" points="351.54 311.07 351.54 305.22 356.43 308.15 356.43 313.92 351.54 311.07"/><polygon class="cls-14" points="351.54 305.22 355.69 302.76 358.71 304.5 358.71 306.8 356.43 308.15 351.54 305.22"/><path class="cls-7" d="M355.69,302.57,351.54,305l-.17.1v6l4.89,2.84.17.1h0l.17-.1,2.28-1.31v-8.3Zm0,.38,2.85,1.65v2.1L356.43,308l-3.64-2.17-.92-.56Zm-4,8v-5.46l.93.56,3.62,2.16v5.39Z"/></g></g></svg>