<svg id="content" xmlns="http://www.w3.org/2000/svg" xmlns:xlink="http://www.w3.org/1999/xlink" viewBox="0 0 612 330"><defs><style>.cls-1{fill:none;}.cls-2{clip-path:url(#clip-path);}.cls-3{fill:#d4e8fc;}.cls-4{fill:#9fccf9;}.cls-5{fill:#3594f2;}.cls-6{fill:#66aef5;}.cls-7{fill:#d0e6fc;}.cls-8{fill:#dcedfd;}.cls-9{fill:#a3cef9;}.cls-10{fill:#f3f8fe;}.cls-11{fill:#fff;}.cls-12{fill:#a1cdf9;}.cls-13{fill:#deeefd;}.cls-14{fill:#badafb;}.cls-15{fill:#e0effd;}.cls-16{fill:#3996f3;}.cls-17{fill:#e9f3fe;}.cls-18{fill:#b6d8fa;}.cls-19{fill:#3393f2;}.cls-20{fill:#bedcfb;}.cls-21{fill:#cee5fc;}.cls-22{fill:#c0ddfb;}.cls-23{fill:#e2f0fd;}.cls-24{fill:#99c9f9;}.cls-25{fill:#eff6fe;}.cls-26{fill:#bcdbfb;}.cls-27{fill:#e4f1fd;}.cls-28{fill:#d2e7fc;}.cls-29{fill:#c8e2fc;}</style><clipPath id="clip-path"><rect class="cls-1" width="611.71" height="330"/></clipPath></defs><title>Metal-02</title><g id="illustration"><g class="cls-2"><path class="cls-3" d="M300,303.16l23.46,13.58a17.64,17.64,0,0,0,17.6,0l123.81-71a15.08,15.08,0,0,1,14.95,0l16.59,9.43a14.67,14.67,0,0,0,14.55,0l66.1-38a6.41,6.41,0,0,0,0-11.12l-52-29.9L408.26,231.26,299.93,294.34A5.1,5.1,0,0,0,300,303.16Z"/><path class="cls-4" d="M468.71,233l-7.92,4.61a.25.25,0,0,1-.37-.22V222.87l8.29-4.83Z"/><path class="cls-5" d="M460.66,238.16a.74.74,0,0,1-.37-.1.75.75,0,0,1-.38-.65V222.58l9.3-5.42v16.15l-8.16,4.75A.76.76,0,0,1,460.66,238.16Zm.26-15V237l7.28-4.24V218.92Z"/><path class="cls-4" d="M434.21,253l-7.91,4.61a.25.25,0,0,1-.38-.21V242.86l8.29-4.82Z"/><path class="cls-5" d="M426.17,258.16a.69.69,0,0,1-.37-.1.73.73,0,0,1-.38-.65V242.57l9.3-5.41V253.3l-8.17,4.76A.75.75,0,0,1,426.17,258.16Zm.26-15V257l7.28-4.24V238.91Z"/><path class="cls-4" d="M399.72,273.07l-7.92,4.61a.24.24,0,0,1-.37-.21V262.92l8.29-4.83Z"/><path class="cls-5" d="M391.68,278.22a.76.76,0,0,1-.76-.75V262.63l9.3-5.41v16.14l-8.16,4.76A.86.86,0,0,1,391.68,278.22Zm.25-15V277l7.29-4.25V259Z"/><path class="cls-4" d="M365.23,292.86l-7.92,4.61a.25.25,0,0,1-.38-.22V282.71l8.3-4.83Z"/><path class="cls-5" d="M357.18,298a.76.76,0,0,1-.75-.76V282.42l9.3-5.41v16.14l-8.17,4.75A.73.73,0,0,1,357.18,298Zm.26-15v13.81l7.28-4.24V278.76Z"/><path class="cls-6" d="M422.14,195.39h-3v-24a11.87,11.87,0,0,1,5.66-10.15l5.43-3.35,1.58,2.57-5.42,3.35a8.86,8.86,0,0,0-4.23,7.58Z"/><path class="cls-7" d="M430.11,157.82l-3.38,2.09L422,163.45c-.23.26-.46.54-.67.82a1.41,1.41,0,0,0,2,1.94l.79-.59a9.06,9.06,0,0,1,2.15-1.88l2-1.26,3.2-2.39Z"/><path class="cls-5" d="M422.64,195.89h-4V171.43a12.33,12.33,0,0,1,5.9-10.57l5.85-3.62,2.11,3.42-5.85,3.62a8.35,8.35,0,0,0-4,7.15Zm-3-1h2V171.43a9.35,9.35,0,0,1,4.46-8l5-3.09L430,158.62l-5,3.09a11.36,11.36,0,0,0-5.42,9.72Z"/><path class="cls-8" d="M460,237.63l-14-8.2,14.42-6.56v14.54A.26.26,0,0,1,460,237.63Z"/><path class="cls-5" d="M460.17,238.16a.7.7,0,0,1-.38-.1l-14.88-8.68,16-7.29v15.32a.75.75,0,0,1-.38.65A.74.74,0,0,1,460.17,238.16Zm-13.08-8.67L459.91,237V223.65Z"/><path class="cls-8" d="M425.55,257.62l-14-8.19,14.41-6.57v14.55A.24.24,0,0,1,425.55,257.62Z"/><path class="cls-5" d="M425.67,258.16a.75.75,0,0,1-.38-.1l-14.88-8.69,16-7.29v15.33a.76.76,0,0,1-.76.75Zm-13.07-8.68L425.42,257V243.65Z"/><path class="cls-8" d="M391.05,277.68l-14-8.19,14.42-6.57v14.55A.25.25,0,0,1,391.05,277.68Z"/><path class="cls-5" d="M391.18,278.22a.86.86,0,0,1-.38-.1l-14.88-8.69,16-7.29v15.33a.74.74,0,0,1-.38.65A.79.79,0,0,1,391.18,278.22Zm-13.07-8.68L390.92,277V263.7Z"/><path class="cls-8" d="M356.56,297.47l-14-8.2,14.41-6.56v14.54A.25.25,0,0,1,356.56,297.47Z"/><path class="cls-5" d="M356.68,298a.76.76,0,0,1-.38-.11l-14.87-8.68,16-7.29v15.32a.78.78,0,0,1-.38.66A.86.86,0,0,1,356.68,298Zm-13.07-8.68,12.82,7.48V283.49Z"/><polygon class="cls-9" points="485.88 156.74 428.51 189.87 437.8 152.28 474.78 136.87 485.88 156.74"/><path class="cls-5" d="M427.74,190.89l9.64-39L475,136.23l11.57,20.7Zm10.49-38.25-9,36.2,55.92-32.29L474.56,137.5Z"/><path class="cls-10" d="M457,167.9h0a3.09,3.09,0,0,0-3.07.27l-171.4,98.74c-2.63,1.52-4.77,5.6-4.77,9.11,0,2,.69,3.37,1.76,3.91h0l39.54,22.52,42.62-30,128.86-73.22,6.27-8.57Z"/><path class="cls-11" d="M451.74,176.73a4.33,4.33,0,0,0-4.32,0L285.52,270.1a8.83,8.83,0,0,0-2.85,2.91,3.21,3.21,0,0,0,1.09,4.51l38.76,22.12,38.9-27.39,128.89-73.38Z"/><path class="cls-5" d="M319.08,303.05l-39.81-22.68c-1.28-.64-2-2.23-2-4.35,0-3.67,2.25-7.95,5-9.55l171.4-98.73a3.56,3.56,0,0,1,3.56-.28h0l40.3,23-6.76,9.16L361.92,272.89ZM455.8,168.11a3.25,3.25,0,0,0-1.63.5l-171.4,98.73c-2.49,1.44-4.52,5.33-4.52,8.68,0,1.72.55,3,1.49,3.46L319,301.86,361.39,272l128.8-73.2,5.87-8-39.31-22.48A1.94,1.94,0,0,0,455.8,168.11Z"/><path class="cls-12" d="M494,203.76l-171.4,98.73c-2.63,1.52-4.77-.09-4.77-3.61h0c0-3.51,2.14-7.59,4.77-9.11L494,191c2.63-1.52,4.76.09,4.76,3.61h0C498.72,198.16,496.59,202.24,494,203.76Z"/><path class="cls-5" d="M320.66,303.57a2.91,2.91,0,0,1-1.47-.39c-1.21-.7-1.9-2.26-1.9-4.3,0-3.66,2.25-7.94,5-9.54L493.7,190.6a3.58,3.58,0,0,1,3.63-.25c1.21.7,1.9,2.27,1.9,4.3,0,3.66-2.25,7.95-5,9.54h0l-171.4,98.74A4.41,4.41,0,0,1,320.66,303.57ZM495.85,191a3.25,3.25,0,0,0-1.64.51l-171.4,98.73c-2.49,1.44-4.52,5.33-4.52,8.67,0,1.67.51,2.91,1.4,3.43a2.62,2.62,0,0,0,2.62-.26L493.7,203.32c2.5-1.44,4.52-5.33,4.52-8.67,0-1.66-.51-2.91-1.4-3.42A1.88,1.88,0,0,0,495.85,191Z"/><path class="cls-4" d="M340.91,259.2c5.81,3.35,5.81,8.79,0,12.15s-15.24,3.36-21.05,0-5.81-8.8,0-12.15S335.1,255.84,340.91,259.2Z"/><path class="cls-4" d="M374,240c5.82,3.36,5.82,8.8,0,12.15s-15.23,3.36-21.05,0-5.81-8.79,0-12.15S368.2,236.62,374,240Z"/><path class="cls-4" d="M407.29,221c5.81,3.36,5.81,8.8,0,12.16s-15.24,3.35-21.05,0-5.81-8.8,0-12.16S401.48,217.68,407.29,221Z"/><ellipse class="cls-4" cx="430.04" cy="208.11" rx="14.88" ry="8.59"/><polygon class="cls-12" points="550.7 205.42 493.32 238.55 493.32 172.01 550.7 138.88 550.7 205.42"/><polygon class="cls-10" points="428.51 134.85 493.32 172.01 550.7 138.88 485.88 101.72 428.51 134.85"/><polygon class="cls-13" points="493.32 238.55 478.91 230.34 478.91 183.1 441.18 160.77 441.18 175.54 428.51 182.86 428.51 134.85 493.32 172.01 493.32 238.55"/><polygon class="cls-11" points="428.51 138.62 493.32 175.78 493.32 172.01 547.42 140.78 485.88 105.5 428.51 138.62"/><path class="cls-5" d="M551.2,138.59l-.5-.29-64.82-37.16-57.37,33.13-.5.29v49.17l13.67-7.89V161.66l36.73,21.72v47.25l14.41,8.21.5.29.5-.29,57.13-33,.25-.15V138.59Zm-121.68-3.74,56.37-32.55,63.8,36.58-56.37,32.55-15.95-9.15Zm49.89,95.2V182.81l-38.74-22.92v15.36L429,182V135.72l47.86,27.43,15.95,9.15v65.38Zm70.78-24.92-56.37,32.55V172.3l21.12-12.19,35.25-20.36Z"/><path class="cls-5" d="M502.71,208.48a2.28,2.28,0,0,1-1.17-.31,3.64,3.64,0,0,1-1.48-3.31c0-2.78,1.71-6,3.81-7.24L505,197a2.77,2.77,0,0,1,2.83-.18,3.66,3.66,0,0,1,1.49,3.31c0,2.78-1.71,6-3.82,7.24l-1.1.64A3.32,3.32,0,0,1,502.71,208.48Zm3.92-11a2.34,2.34,0,0,0-1.16.36l-1.1.63c-1.79,1-3.31,3.95-3.31,6.37a2.7,2.7,0,0,0,1,2.44,1.84,1.84,0,0,0,1.82-.18l1.1-.64c1.79-1,3.31-3.95,3.31-6.37a2.72,2.72,0,0,0-1-2.44A1.39,1.39,0,0,0,506.63,197.5Z"/><polygon class="cls-6" points="534.39 207.56 515.12 196.44 515.12 169.32 519.58 171.89 534.39 198.75 534.39 207.56"/><path class="cls-5" d="M533.79,207.8l-19.17-11.07V169.15a.41.41,0,0,1,.61-.35l4.72,2.72,14.94,27.1v8.54A.73.73,0,0,1,533.79,207.8Zm-18.16-11.65,18.26,10.54v-7.81l-14.68-26.63-3.58-2.06Z"/><polygon class="cls-14" points="515.12 169.32 537.01 156.64 541.47 159.21 519.58 171.89 515.12 169.32"/><polygon class="cls-15" points="515.63 171.66 515.63 171.07 537.01 158.69 541.47 161.26 519.58 173.94 515.63 171.66"/><path class="cls-5" d="M519.58,172.47l-4.85-2.8a.41.41,0,0,1,0-.71L537,156.06l4.5,2.6a.65.65,0,0,1,0,1.11Zm-3.45-3.15,3.45,2,20.89-12.1-3.45-2Z"/><polygon class="cls-14" points="534.39 198.75 556.28 186.08 541.47 159.21 519.58 171.89 534.39 198.75"/><path class="cls-5" d="M534.2,199.44,518.9,171.7l22.2-12.85a.64.64,0,0,1,.88.24L556.79,186a.36.36,0,0,1-.13.48Zm-13.94-27.36,14.32,26,21-12.17-14.32-26Z"/><polygon class="cls-16" points="534.39 207.56 556.28 194.88 556.28 186.08 534.39 198.75 534.39 207.56"/><path class="cls-5" d="M533.89,207.16v-8.7l22.36-13a.35.35,0,0,1,.53.31v9.36L535,207.8A.73.73,0,0,1,533.89,207.16Zm1-8.12v5.64l20.89-12.1V187Z"/><polygon class="cls-17" points="535.59 191.72 550.04 183.35 540.27 165.62 525.82 173.99 535.59 191.72"/><polygon class="cls-18" points="534.89 195.27 547.09 188.17 538.7 173.03 526.5 180.13 534.89 195.27"/><path class="cls-5" d="M535.4,192.41,525.14,173.8l15.32-8.87,10.26,18.61Zm-8.9-18.23L535.79,191l13.57-7.87-9.29-16.85Z"/><polygon class="cls-6" points="539.6 169.64 547.83 184.57 550.04 183.35 540.27 165.62 525.82 173.99 527.36 176.79 539.6 169.64"/><path class="cls-5" d="M547.64,185.26l-8.23-14.92-12.24,7.14-2-3.68,15.32-8.87,10.27,18.62ZM539.79,169,548,183.89l1.33-.74-9.29-16.84-13.57,7.87,1,1.91Z"/><path class="cls-5" d="M498.86,195.89a1.14,1.14,0,0,1-.77-.28,2,2,0,0,1-.23-2.26l5-12.36a2.87,2.87,0,0,1,2-1.86,1.19,1.19,0,0,1,1.11.47l4.88,6.64a1.87,1.87,0,0,1,.23,1.49,3.47,3.47,0,0,1-1.51,2.19l-9.92,5.72A1.68,1.68,0,0,1,498.86,195.89Zm6.22-15.76H505a2,2,0,0,0-1.2,1.24l-5,12.36c-.24.59-.17,1,0,1.12s.29,0,.45-.08l9.91-5.72a2.43,2.43,0,0,0,1-1.52.91.91,0,0,0-.05-.7l-4.88-6.64A.16.16,0,0,0,505.08,180.13Z"/><path class="cls-19" d="M322.72,299.58a1.78,1.78,0,0,1-.93-.25,2.32,2.32,0,0,1-1-2.14,6.26,6.26,0,0,1,2.88-5l149-86.38a2.1,2.1,0,0,1,3.39,1.95,6.3,6.3,0,0,1-2.88,5l-149,86.38A2.93,2.93,0,0,1,322.72,299.58ZM473.19,206.7l-149,86.38a5.33,5.33,0,0,0-2.38,4.11,1.4,1.4,0,0,0,.52,1.27,1.43,1.43,0,0,0,1.36-.18l149-86.38a5.35,5.35,0,0,0,2.38-4.12,1.41,1.41,0,0,0-.52-1.27,1.39,1.39,0,0,0-1.35.19Z"/><path class="cls-19" d="M322.72,299.58a1.78,1.78,0,0,1-.93-.25,2.32,2.32,0,0,1-1-2.14,6.26,6.26,0,0,1,2.88-5,2.09,2.09,0,0,1,3.38,2,6.31,6.31,0,0,1-2.88,5A2.93,2.93,0,0,1,322.72,299.58Zm2.35-6.79a1.81,1.81,0,0,0-.92.29,5.33,5.33,0,0,0-2.38,4.11,1.4,1.4,0,0,0,.52,1.27,1.43,1.43,0,0,0,1.36-.18,5.34,5.34,0,0,0,2.37-4.12,1.38,1.38,0,0,0-.52-1.27A.85.85,0,0,0,325.07,292.79Z"/><path class="cls-19" d="M471.76,213.2a1.81,1.81,0,0,1-.94-.25,2.31,2.31,0,0,1-1-2.13,6.28,6.28,0,0,1,2.88-5,2.1,2.1,0,0,1,3.39,1.95,6.3,6.3,0,0,1-2.88,5A3,3,0,0,1,471.76,213.2Zm2.35-6.79a1.92,1.92,0,0,0-.92.29,5.34,5.34,0,0,0-2.38,4.12,1.12,1.12,0,0,0,1.87,1.08,5.35,5.35,0,0,0,2.38-4.12,1.41,1.41,0,0,0-.52-1.27A.85.85,0,0,0,474.11,206.41Z"/><rect class="cls-5" x="297.27" y="264.4" width="1.01" height="46.11" transform="translate(-99.51 403.47) rotate(-60.27)"/><rect class="cls-5" x="299.61" y="257.59" width="1.01" height="46.07" transform="matrix(0.5, -0.86, 0.86, 0.5, -93.3, 399.13)"/><rect class="cls-5" x="457.22" y="165.99" width="1.01" height="45.98" transform="translate(65.38 491.11) rotate(-60.03)"/><polygon class="cls-5" points="478.91 188.35 449.22 171.02 449.73 170.15 478.91 187.18 478.91 188.35"/><rect class="cls-5" x="430.15" y="181.7" width="1.01" height="45.8" transform="translate(36.3 472.57) rotate(-59.61)"/><rect class="cls-5" x="314.74" y="248.1" width="1.01" height="45.82" transform="translate(-77.94 406.03) rotate(-59.64)"/><polygon class="cls-10" points="447.05 130.49 490.68 155.67 522.7 137.19 479.06 112 447.05 130.49"/><polygon class="cls-4" points="490.68 155.67 490.68 161.73 522.7 143.24 522.7 137.19 490.68 155.67"/><polygon class="cls-13" points="447.05 130.49 447.05 136.54 490.68 161.73 490.68 155.67 447.05 130.49"/><polygon class="cls-11" points="447.05 133.52 490.68 158.7 490.68 155.67 520.26 138.81 479.06 115.03 447.05 133.52"/><path class="cls-5" d="M523.2,136.9l-44.14-25.48L446.55,130.2v6.64l44.13,25.47,32.52-18.78Zm-75.15-6.41,31-17.91,42.63,24.61-31,17.9L480,148.94Zm-.5,5.76v-4.89l32,18.45L490.18,156v4.9Zm74.64,6.7-31,17.91V156l31-17.9Z"/><path class="cls-6" d="M439.63,207.12a4.09,4.09,0,0,0,0-.7v-8.2a.44.44,0,0,0-.45-.43l-3.47.05a17.62,17.62,0,0,0-14.86.24l-3.48,0v8.38l0,.77c.28,2.06,2.27,4.06,6,5.23a17.31,17.31,0,0,0,10.25,0c3.8-1.19,5.77-3.26,6-5.37Z"/><path class="cls-5" d="M428.51,213.78a17.91,17.91,0,0,1-5.25-.79c-3.7-1.16-6-3.21-6.35-5.64l-.05-.81v-8.9l3.86-.06a18.17,18.17,0,0,1,15.1-.24l3.35-.06a1,1,0,0,1,.68.27,1,1,0,0,1,.28.67v8.2a4.56,4.56,0,0,1,0,.74h0c-.24,2.5-2.54,4.61-6.32,5.8A17.66,17.66,0,0,1,428.51,213.78Zm-10.64-15.15,0,8.62c.27,2,2.39,3.76,5.65,4.78a16.88,16.88,0,0,0,9.95,0c3.32-1,5.42-2.89,5.61-4.94a3.11,3.11,0,0,0,0-.61v-8.24l-3.52.13-.11-.06a17,17,0,0,0-14.39.23l-.11.06Z"/><path class="cls-6" d="M436.39,193.58c4.35,2.52,4.35,6.59,0,9.1a17.43,17.43,0,0,1-15.76,0c-4.35-2.51-4.35-6.58,0-9.1A17.43,17.43,0,0,1,436.39,193.58Z"/><path class="cls-7" d="M436.39,195c4.35,2.51,4.35,6.58,0,9.1a17.43,17.43,0,0,1-15.76,0c-1.32-.77-2.78-1.54-2.76-2.63,0-1.42.06-3.95.06-3.95a7.14,7.14,0,0,1,2.7-2.52A17.37,17.37,0,0,1,436.39,195Z"/><path class="cls-5" d="M428.51,205.06a16.65,16.65,0,0,1-8.13-1.94c-2.27-1.31-3.52-3.08-3.52-5s1.25-3.67,3.52-5c4.48-2.59,11.78-2.59,16.26,0h0c2.27,1.31,3.52,3.08,3.52,5s-1.25,3.68-3.52,5A16.68,16.68,0,0,1,428.51,205.06Zm0-12.86a15.54,15.54,0,0,0-7.63,1.82c-1.94,1.12-3,2.58-3,4.11s1.07,3,3,4.12a16.88,16.88,0,0,0,15.26,0c1.94-1.13,3-2.59,3-4.12s-1.07-3-3-4.11h0A15.54,15.54,0,0,0,428.51,192.2Z"/><path class="cls-16" d="M434.18,195.07c3.13,1.69,3.13,4.43,0,6.12a13.32,13.32,0,0,1-11.34,0c-3.13-1.69-3.13-4.43,0-6.12A13.32,13.32,0,0,1,434.18,195.07Z"/><path class="cls-5" d="M428.51,203a12.77,12.77,0,0,1-5.91-1.32c-1.69-.91-2.61-2.15-2.61-3.5s.93-2.59,2.61-3.5a13.89,13.89,0,0,1,11.82,0h0c1.68.91,2.61,2.15,2.61,3.5s-.93,2.59-2.61,3.5A12.77,12.77,0,0,1,428.51,203Zm0-8.64a11.71,11.71,0,0,0-5.43,1.21c-1.35.72-2.09,1.65-2.09,2.61s.74,1.89,2.09,2.62a12.81,12.81,0,0,0,10.86,0c1.35-.73,2.09-1.66,2.09-2.62s-.74-1.89-2.09-2.61A11.68,11.68,0,0,0,428.51,194.31Z"/><path class="cls-6" d="M434.18,197.84a13.32,13.32,0,0,0-11.34,0,5,5,0,0,0-1.92,1.68,5,5,0,0,0,1.92,1.67,13.32,13.32,0,0,0,11.34,0,5,5,0,0,0,1.92-1.67A5,5,0,0,0,434.18,197.84Z"/><path class="cls-5" d="M428.51,203a12.77,12.77,0,0,1-5.91-1.32,5.45,5.45,0,0,1-2.11-1.85l-.16-.26.16-.27a5.45,5.45,0,0,1,2.11-1.85,13.89,13.89,0,0,1,11.82,0h0a5.54,5.54,0,0,1,2.11,1.85l.16.27-.16.26a5.45,5.45,0,0,1-2.11,1.85A12.77,12.77,0,0,1,428.51,203Zm-7-3.43a5,5,0,0,0,1.55,1.23,12.81,12.81,0,0,0,10.86,0,5,5,0,0,0,1.55-1.23,4.86,4.86,0,0,0-1.55-1.24,12.81,12.81,0,0,0-10.86,0A4.86,4.86,0,0,0,421.53,199.52Z"/><path class="cls-6" d="M406.35,226.12a4.09,4.09,0,0,0,0-.7v-8.2a.45.45,0,0,0-.45-.44l-3.46.06a17.62,17.62,0,0,0-14.86.24l-3.49,0v8.38l0,.77c.28,2.06,2.27,4.06,6,5.23a17.27,17.27,0,0,0,10.24,0c3.8-1.19,5.77-3.26,6-5.37Z"/><path class="cls-5" d="M395.23,232.77A17.83,17.83,0,0,1,390,232c-3.71-1.16-6-3.21-6.36-5.64l0-.81v-8.9l3.87-.07a18.21,18.21,0,0,1,15.1-.23l3.34-.06a1,1,0,0,1,.68.27,1,1,0,0,1,.28.67v8.2a4.56,4.56,0,0,1,0,.74h0c-.24,2.5-2.54,4.61-6.32,5.8A17.65,17.65,0,0,1,395.23,232.77Zm-10.64-15.14,0,8.62c.27,2,2.39,3.76,5.65,4.77a16.8,16.8,0,0,0,10,0c3.32-1,5.42-2.89,5.62-4.94a3.11,3.11,0,0,0,0-.61v-8.24l-3.52.13-.11-.06a17,17,0,0,0-14.39.23l-.11.06Z"/><path class="cls-6" d="M403.11,212.58c4.35,2.51,4.35,6.59,0,9.1a17.43,17.43,0,0,1-15.76,0c-4.35-2.51-4.35-6.59,0-9.1A17.43,17.43,0,0,1,403.11,212.58Z"/><path class="cls-7" d="M403.11,214c4.35,2.51,4.35,6.58,0,9.09a17.37,17.37,0,0,1-15.76,0c-1.32-.76-2.78-1.53-2.75-2.62,0-1.42,0-3.95,0-3.95a7.14,7.14,0,0,1,2.7-2.52A17.37,17.37,0,0,1,403.11,214Z"/><path class="cls-5" d="M395.23,224.06a16.68,16.68,0,0,1-8.13-1.94c-2.27-1.31-3.52-3.08-3.52-5s1.25-3.67,3.52-5c4.48-2.59,11.78-2.59,16.26,0h0c2.27,1.31,3.52,3.08,3.52,5s-1.25,3.68-3.52,5A16.65,16.65,0,0,1,395.23,224.06Zm0-12.86A15.57,15.57,0,0,0,387.6,213c-1.94,1.12-3,2.58-3,4.11s1.07,3,3,4.12a17,17,0,0,0,15.26,0c1.94-1.13,3-2.59,3-4.12s-1.07-3-3-4.11h0A15.54,15.54,0,0,0,395.23,211.2Z"/><path class="cls-16" d="M400.9,214.07c3.14,1.69,3.14,4.43,0,6.12a13.32,13.32,0,0,1-11.34,0c-3.13-1.69-3.13-4.43,0-6.12A13.32,13.32,0,0,1,400.9,214.07Z"/><path class="cls-5" d="M395.23,222a12.77,12.77,0,0,1-5.91-1.32c-1.68-.91-2.61-2.15-2.61-3.5s.93-2.59,2.61-3.5a13.89,13.89,0,0,1,11.82,0h0c1.69.91,2.61,2.15,2.61,3.5s-.92,2.59-2.61,3.5A12.77,12.77,0,0,1,395.23,222Zm0-8.64a11.73,11.73,0,0,0-5.43,1.21c-1.34.72-2.08,1.65-2.08,2.61s.74,1.89,2.08,2.62a12.81,12.81,0,0,0,10.86,0c1.35-.73,2.09-1.66,2.09-2.62s-.74-1.89-2.09-2.61A11.68,11.68,0,0,0,395.23,213.31Z"/><path class="cls-20" d="M400.9,216.84a13.32,13.32,0,0,0-11.34,0,5,5,0,0,0-1.92,1.68,5,5,0,0,0,1.92,1.67,13.32,13.32,0,0,0,11.34,0,5,5,0,0,0,1.92-1.67A4.9,4.9,0,0,0,400.9,216.84Z"/><path class="cls-5" d="M395.23,222a12.77,12.77,0,0,1-5.91-1.32,5.35,5.35,0,0,1-2.1-1.85l-.17-.26.17-.27a5.35,5.35,0,0,1,2.1-1.85,13.89,13.89,0,0,1,11.82,0h0a5.45,5.45,0,0,1,2.11,1.85l.17.27-.17.26a5.45,5.45,0,0,1-2.11,1.85A12.77,12.77,0,0,1,395.23,222Zm-7-3.43a4.82,4.82,0,0,0,1.54,1.23,12.81,12.81,0,0,0,10.86,0,5,5,0,0,0,1.55-1.23,4.86,4.86,0,0,0-1.55-1.24,12.81,12.81,0,0,0-10.86,0A4.71,4.71,0,0,0,388.26,218.52Z"/><path class="cls-6" d="M373.07,245.07a4.21,4.21,0,0,0,0-.71v-8.19a.45.45,0,0,0-.45-.44l-3.46.06a17.66,17.66,0,0,0-14.86.23l-3.49.06v8.38l0,.77c.29,2.06,2.28,4.06,6,5.22a17.19,17.19,0,0,0,10.24,0c3.8-1.2,5.77-3.26,6-5.37Z"/><path class="cls-5" d="M362,251.72a17.52,17.52,0,0,1-5.24-.79c-3.71-1.15-6-3.2-6.36-5.63l0-.82v-8.9l3.86-.06a18.24,18.24,0,0,1,15.1-.24l3.35-.05a.94.94,0,0,1,.95.94v8.19a3.13,3.13,0,0,1,0,.75h0c-.23,2.5-2.54,4.62-6.32,5.81A17.92,17.92,0,0,1,362,251.72Zm-10.64-15.14,0,8.62c.28,2,2.39,3.76,5.66,4.77a16.84,16.84,0,0,0,9.94,0c3.33-1.05,5.43-2.89,5.62-4.94a3.11,3.11,0,0,0,0-.61v-8.24l-3.53.12-.1,0a17.05,17.05,0,0,0-14.4.23l-.11.06Z"/><path class="cls-6" d="M369.83,231.53c4.36,2.51,4.36,6.59,0,9.1a17.43,17.43,0,0,1-15.76,0c-4.35-2.51-4.35-6.59,0-9.1A17.43,17.43,0,0,1,369.83,231.53Z"/><path class="cls-7" d="M369.84,232.91c4.35,2.52,4.35,6.59,0,9.1a17.39,17.39,0,0,1-15.77,0c-1.31-.76-2.78-1.53-2.75-2.62,0-1.42.06-4,.06-4a7.1,7.1,0,0,1,2.69-2.52A17.45,17.45,0,0,1,369.84,232.91Z"/><path class="cls-5" d="M362,243a16.57,16.57,0,0,1-8.13-1.95c-2.26-1.3-3.51-3.07-3.51-5s1.25-3.68,3.51-5c4.49-2.59,11.78-2.59,16.27,0h0c2.26,1.31,3.51,3.08,3.51,5s-1.25,3.68-3.51,5A16.58,16.58,0,0,1,362,243Zm0-12.87a15.51,15.51,0,0,0-7.62,1.83c-1.95,1.12-3,2.58-3,4.11s1.07,3,3,4.11a16.86,16.86,0,0,0,15.25,0c1.95-1.12,3-2.58,3-4.11s-1.07-3-3-4.11h0A15.52,15.52,0,0,0,362,230.14Z"/><path class="cls-16" d="M367.63,233c3.13,1.69,3.13,4.43,0,6.12a13.34,13.34,0,0,1-11.35,0c-3.13-1.69-3.13-4.43,0-6.12A13.34,13.34,0,0,1,367.63,233Z"/><path class="cls-5" d="M362,240.9a12.69,12.69,0,0,1-5.9-1.32c-1.69-.91-2.62-2.15-2.62-3.5s.93-2.59,2.62-3.5a13.87,13.87,0,0,1,11.81,0h0c1.69.91,2.62,2.15,2.62,3.5s-.93,2.59-2.62,3.5A12.74,12.74,0,0,1,362,240.9Zm0-8.65a11.86,11.86,0,0,0-5.43,1.21c-1.34.73-2.08,1.66-2.08,2.62s.74,1.89,2.08,2.62a12.84,12.84,0,0,0,10.87,0c1.34-.73,2.08-1.66,2.08-2.62s-.74-1.89-2.08-2.62A11.87,11.87,0,0,0,362,232.25Z"/><path class="cls-20" d="M367.63,235.79a13.34,13.34,0,0,0-11.35,0,5.12,5.12,0,0,0-1.92,1.67,5.13,5.13,0,0,0,1.92,1.68,13.34,13.34,0,0,0,11.35,0,5.13,5.13,0,0,0,1.92-1.68A5.12,5.12,0,0,0,367.63,235.79Z"/><path class="cls-17" d="M365.13,236.87a13.45,13.45,0,0,0-6.37,0,11.55,11.55,0,0,0-2.14.75,1.25,1.25,0,0,0,.07,2.27l0,0a11.44,11.44,0,0,0,10.47,0l0,0a1.25,1.25,0,0,0,.07-2.26A11.3,11.3,0,0,0,365.13,236.87Z"/><path class="cls-5" d="M362,240.9a12.69,12.69,0,0,1-5.9-1.32,5.31,5.31,0,0,1-2.11-1.85l-.17-.27.17-.26a5.31,5.31,0,0,1,2.11-1.85,13.87,13.87,0,0,1,11.81,0h0A5.31,5.31,0,0,1,370,237.2l.17.26-.17.27a5.39,5.39,0,0,1-2.11,1.85A12.74,12.74,0,0,1,362,240.9Zm-7-3.44a4.81,4.81,0,0,0,1.54,1.24,12.8,12.8,0,0,0,10.87,0,4.8,4.8,0,0,0,1.54-1.23,4.93,4.93,0,0,0-1.54-1.23,12.84,12.84,0,0,0-10.87,0A4.93,4.93,0,0,0,355,237.46Z"/><path class="cls-6" d="M339.68,264a4.09,4.09,0,0,0,0-.7v-8.2a.43.43,0,0,0-.45-.43l-3.47.05a17.6,17.6,0,0,0-14.85.24l-3.49,0v8.38l0,.77c.28,2.07,2.27,4.07,6,5.23a17.31,17.31,0,0,0,10.25,0c3.8-1.19,5.77-3.26,6-5.37Z"/><path class="cls-5" d="M328.56,270.69a17.91,17.91,0,0,1-5.25-.79c-3.7-1.15-6-3.21-6.35-5.64l0-.81v-8.9l3.86-.06a18.19,18.19,0,0,1,15.11-.24l3.34-.06a1,1,0,0,1,.68.27,1,1,0,0,1,.28.67v8.2a4.68,4.68,0,0,1,0,.75h0c-.24,2.5-2.54,4.61-6.32,5.8A17.66,17.66,0,0,1,328.56,270.69Zm-10.64-15.15,0,8.62c.27,2,2.39,3.76,5.65,4.78a16.88,16.88,0,0,0,9.95,0c3.32-1,5.42-2.89,5.62-4.94,0-.2,0-.4,0-.61v-8.24l-3.52.13-.11-.06a17,17,0,0,0-14.39.23l-.11.06Z"/><path class="cls-6" d="M336.44,250.49c4.35,2.52,4.35,6.59,0,9.1a17.37,17.37,0,0,1-15.76,0c-4.35-2.51-4.35-6.58,0-9.1A17.43,17.43,0,0,1,336.44,250.49Z"/><path class="cls-7" d="M336.44,251.88c4.35,2.51,4.35,6.58,0,9.1a17.43,17.43,0,0,1-15.76,0c-1.32-.76-2.78-1.54-2.75-2.63,0-1.41.05-4,.05-4a7.14,7.14,0,0,1,2.7-2.52A17.37,17.37,0,0,1,336.44,251.88Z"/><path class="cls-5" d="M328.56,262a16.68,16.68,0,0,1-8.13-1.94c-2.27-1.31-3.52-3.08-3.52-5s1.25-3.67,3.52-5c4.48-2.59,11.78-2.59,16.26,0h0c2.27,1.31,3.52,3.08,3.52,5s-1.25,3.68-3.52,5A16.65,16.65,0,0,1,328.56,262Zm0-12.86a15.68,15.68,0,0,0-7.63,1.82c-1.94,1.12-3,2.58-3,4.11s1.07,3,3,4.12a16.88,16.88,0,0,0,15.26,0c1.94-1.12,3-2.58,3-4.12s-1.07-3-3-4.11h0A15.65,15.65,0,0,0,328.56,249.11Z"/><path class="cls-16" d="M334.23,252c3.13,1.68,3.13,4.42,0,6.11a13.32,13.32,0,0,1-11.34,0c-3.13-1.69-3.13-4.43,0-6.11A13.32,13.32,0,0,1,334.23,252Z"/><path class="cls-5" d="M328.56,259.86a12.89,12.89,0,0,1-5.91-1.31C321,257.64,320,256.39,320,255s.93-2.59,2.61-3.5a14,14,0,0,1,11.82,0h0c1.69.91,2.61,2.15,2.61,3.5s-.92,2.6-2.61,3.51A12.89,12.89,0,0,1,328.56,259.86Zm0-8.64a11.71,11.71,0,0,0-5.43,1.21c-1.34.72-2.09,1.65-2.09,2.61s.75,1.89,2.09,2.62a12.81,12.81,0,0,0,10.86,0c1.35-.73,2.09-1.66,2.09-2.62s-.74-1.89-2.09-2.61A11.68,11.68,0,0,0,328.56,251.22Z"/><path class="cls-20" d="M334.23,254.75a13.32,13.32,0,0,0-11.34,0,5.05,5.05,0,0,0-1.92,1.68,5,5,0,0,0,1.92,1.67,13.32,13.32,0,0,0,11.34,0,5,5,0,0,0,1.92-1.67A5,5,0,0,0,334.23,254.75Z"/><path class="cls-17" d="M331.73,255.83a13.28,13.28,0,0,0-6.36,0,11,11,0,0,0-2.15.75,1.25,1.25,0,0,0,.07,2.26l0,0a11.44,11.44,0,0,0,10.47,0h0a1.25,1.25,0,0,0,.07-2.27A11.76,11.76,0,0,0,331.73,255.83Z"/><path class="cls-5" d="M328.56,259.86a12.89,12.89,0,0,1-5.91-1.31,5.55,5.55,0,0,1-2.11-1.86l-.16-.26.16-.27a5.54,5.54,0,0,1,2.11-1.85,13.89,13.89,0,0,1,11.82,0h0a5.54,5.54,0,0,1,2.11,1.85l.17.27-.17.26a5.45,5.45,0,0,1-2.11,1.85A12.77,12.77,0,0,1,328.56,259.86Zm-7-3.43a4.84,4.84,0,0,0,1.55,1.23,12.81,12.81,0,0,0,10.86,0,5,5,0,0,0,1.55-1.23A4.84,4.84,0,0,0,334,255.2a12.74,12.74,0,0,0-10.86,0A4.84,4.84,0,0,0,321.58,256.43Z"/><path class="cls-6" d="M526.07,195.68a1.51,1.51,0,0,0-1.51,1.51v26.12a10.1,10.1,0,0,1-5.12,8.77l-2.29,1.36a3.6,3.6,0,0,1-3.86-.18,3.78,3.78,0,0,1-1.54-3.13v-2.8h0v-15a13.82,13.82,0,0,0-5-10.35,1.59,1.59,0,0,0-2.26.16,1.51,1.51,0,0,0,.28,2.12,10.8,10.8,0,0,1,4,8.07v17.32h0v.4a6.87,6.87,0,0,0,3.35,6,6.56,6.56,0,0,0,6.58,0l2.29-1.36a13.11,13.11,0,0,0,6.63-11.38V197.19a1.51,1.51,0,0,0-1.51-1.51Z"/><path class="cls-21" d="M525.82,196a1.48,1.48,0,0,0-.81.24l-.06,0a1.52,1.52,0,0,0-.64,1.23v2.7l1.53-.9a13.75,13.75,0,0,0,1.49-1v-.81A1.52,1.52,0,0,0,525.82,196Z"/><path class="cls-7" d="M506.72,202a1.59,1.59,0,0,0-2.26.16,1.51,1.51,0,0,0,.28,2.12,11,11,0,0,1,3.58,5.43l1.42-.83a13.06,13.06,0,0,0,1.23-.81A14,14,0,0,0,506.72,202Z"/><path class="cls-7" d="M525,225.39V199.27a1.51,1.51,0,0,0-.58-1.18v25.09a19,19,0,0,1-7.57,11l-2.28,1.35a3.53,3.53,0,0,1-2.74.34l.11.08a6.62,6.62,0,0,0,3.27.87,6.7,6.7,0,0,0,3.31-.88l2.29-1.36c.35-.2.69-.43,1-.66A13.08,13.08,0,0,0,525,225.39Z"/><path class="cls-5" d="M515.35,237.44a7.18,7.18,0,0,1-3.51-.94,7.37,7.37,0,0,1-3.61-6.45V212.33a10.28,10.28,0,0,0-3.81-7.68,2,2,0,0,1-.37-2.81,2,2,0,0,1,1.32-.75,2.26,2.26,0,0,1,1.67.5,14.28,14.28,0,0,1,5.21,10.74v17.8a3.26,3.26,0,0,0,1.33,2.71,3.07,3.07,0,0,0,3.32.16l2.28-1.35a9.63,9.63,0,0,0,4.88-8.34V197.19a2,2,0,1,1,4,0v26.12a13.61,13.61,0,0,1-6.88,11.82l-2.28,1.35A7.19,7.19,0,0,1,515.35,237.44Zm-9.73-35.35h-.13a1,1,0,0,0-.64.35,1,1,0,0,0,.2,1.42,11.32,11.32,0,0,1,4.18,8.47v17.72a6.38,6.38,0,0,0,3.1,5.58,6.18,6.18,0,0,0,6.08,0l2.29-1.35a12.63,12.63,0,0,0,6.38-10.95V197.19a1,1,0,0,0-2,0v26.12a10.64,10.64,0,0,1-5.37,9.21l-2.29,1.35a4.08,4.08,0,0,1-4.4-.2,4.26,4.26,0,0,1-1.75-3.54v-17.8a13.23,13.23,0,0,0-4.85-10A1.24,1.24,0,0,0,505.62,202.09Z"/><path class="cls-17" d="M540.43,185.9a1.23,1.23,0,1,1,.43-1.69,1.17,1.17,0,0,1-.43,1.69Zm-2.24-2.31-3.39-5.11,1.84-1.09,2.87,5.41Z"/><path class="cls-5" d="M539.84,185.3a1.69,1.69,0,0,1-1.56-2,1.65,1.65,0,0,1,.34-.64l-.52.31-3.81-5.73,2.52-1.5,3.23,6.08-.52.31a1.62,1.62,0,0,1,1.16,3h0A1.51,1.51,0,0,1,539.84,185.3Zm0-2.49a.87.87,0,0,0-.44.14.8.8,0,0,0-.41.5.89.89,0,0,0,.12.66.8.8,0,0,0,1.14.31h0a.78.78,0,0,0,.27-1.15A.84.84,0,0,0,539.86,182.81Zm-4.5-5.36,3,4.48.71-.42-2.52-4.75Z"/><ellipse class="cls-5" cx="454.31" cy="130.49" rx="1.36" ry="0.78"/><path class="cls-5" d="M515.49,137.42a2.12,2.12,0,0,1-1.93,0,.59.59,0,0,1,0-1.11,2.18,2.18,0,0,1,1.93,0A.59.59,0,0,1,515.49,137.42Z"/><ellipse class="cls-5" cx="489.32" cy="150.84" rx="1.36" ry="0.78"/><path class="cls-5" d="M480,116.77a2.1,2.1,0,0,1-1.92,0c-.54-.31-.54-.8,0-1.11a2.1,2.1,0,0,1,1.92,0A.59.59,0,0,1,480,116.77Z"/><path class="cls-8" d="M532.76,137.05h0a1.56,1.56,0,0,0,1.57-1.56v-.73a2.36,2.36,0,0,1,1.17-2l5.28-3.1a.5.5,0,0,1,.75.43v3.58l3.13,1.81v-7a2.81,2.81,0,0,0-.63-1.83,2.65,2.65,0,0,0-3.34-.55l-6.79,4a5.52,5.52,0,0,0-2.7,4.74v.73A1.56,1.56,0,0,0,532.76,137.05Z"/><path class="cls-5" d="M532.76,137.56a2.07,2.07,0,0,1-2.07-2.07v-.73a6,6,0,0,1,3-5.17l6.79-4a3.12,3.12,0,0,1,4,.65,3.22,3.22,0,0,1,.77,2.16v7.89L541,133.92v-3.87l-5.28,3.1a1.88,1.88,0,0,0-.92,1.61v.73A2.07,2.07,0,0,1,532.76,137.56ZM542,126.18a2.09,2.09,0,0,0-1.08.29l-6.79,4a5,5,0,0,0-2.46,4.3v.73a1.07,1.07,0,0,0,2.13,0v-.73a2.88,2.88,0,0,1,1.41-2.47l5.29-3.1a1,1,0,0,1,1,0,1,1,0,0,1,.51.87v3.29l2.12,1.23v-6.15a2.27,2.27,0,0,0-.51-1.5A2.14,2.14,0,0,0,542,126.18Z"/><polygon class="cls-3" points="478.91 312.04 541.84 348.61 419.48 350.76 478.91 312.04"/><path class="cls-10" d="M465.66,275.82h0a3.07,3.07,0,0,0-3.07.27l-168.38,97c-2.64,1.52-4.77,5.6-4.77,9.11,0,2,.68,3.37,1.76,3.92h0l39.54,22.52,42.62-30L499.2,307.15l6.27-8.57Z"/><path class="cls-11" d="M460.89,284.12h0a3,3,0,0,0-3.07.27l-168.38,97c-2.64,1.52-4.77,5.6-4.77,9.11,0,2,.69,3.37,1.76,3.91h0L326,416.92l42.62-30,125.84-71.48,6.28-8.56Z"/><path class="cls-5" d="M330.77,409.22,291,386.54c-1.27-.64-2-2.23-2-4.35,0-3.67,2.26-7.95,5-9.55l168.39-97a3.56,3.56,0,0,1,3.56-.28h0l40.3,23.05-6.76,9.15L373.61,379.06ZM464.47,276a3.27,3.27,0,0,0-1.63.51l-168.38,97c-2.49,1.44-4.52,5.33-4.52,8.68,0,1.72.54,3,1.49,3.47L330.71,408l42.36-29.81,125.79-71.46,5.87-8-39.31-22.48A1.94,1.94,0,0,0,464.47,276Z"/><path class="cls-12" d="M502.63,311.68l-168.39,97c-2.63,1.52-4.76-.09-4.76-3.6h0c0-3.52,2.13-7.59,4.76-9.12l168.39-97c2.63-1.52,4.77.09,4.77,3.61h0C507.4,306.08,505.26,310.16,502.63,311.68Z"/><path class="cls-5" d="M332.35,409.74a2.92,2.92,0,0,1-1.48-.39c-1.21-.7-1.9-2.26-1.9-4.29,0-3.67,2.25-7.95,5-9.55l168.38-97a3.58,3.58,0,0,1,3.63-.25c1.21.7,1.9,2.26,1.9,4.3,0,3.66-2.25,7.94-5,9.54h0l-168.38,97A4.41,4.41,0,0,1,332.35,409.74ZM504.52,298.89a3.31,3.31,0,0,0-1.64.51l-168.38,97c-2.49,1.44-4.52,5.33-4.52,8.68,0,1.66.51,2.9,1.4,3.42a2.62,2.62,0,0,0,2.61-.25l168.38-97c2.5-1.44,4.52-5.33,4.52-8.67,0-1.67-.51-2.91-1.39-3.43A2,2,0,0,0,504.52,298.89Z"/><path class="cls-19" d="M334.41,405.75a1.79,1.79,0,0,1-.94-.25,2.31,2.31,0,0,1-1-2.13,6.28,6.28,0,0,1,2.88-5l165.13-95.71a2.09,2.09,0,0,1,3.38,1.95,6.3,6.3,0,0,1-2.88,5L335.84,405.32A3,3,0,0,1,334.41,405.75ZM501,303.54,335.84,399.25a5.34,5.34,0,0,0-2.38,4.12,1.12,1.12,0,0,0,1.87,1.08l165.12-95.71a5.35,5.35,0,0,0,2.38-4.12,1.11,1.11,0,0,0-1.87-1.08Z"/><path class="cls-19" d="M499.53,310a1.78,1.78,0,0,1-.93-.25,2.32,2.32,0,0,1-1-2.14,6.26,6.26,0,0,1,2.88-5,2.09,2.09,0,0,1,3.38,1.95,6.3,6.3,0,0,1-2.88,5A2.93,2.93,0,0,1,499.53,310Zm2.35-6.79a1.92,1.92,0,0,0-.92.29,5.33,5.33,0,0,0-2.38,4.11,1.4,1.4,0,0,0,.52,1.27,1.43,1.43,0,0,0,1.36-.18,5.37,5.37,0,0,0,2.37-4.12,1.4,1.4,0,0,0-.52-1.27A.85.85,0,0,0,501.88,303.25Z"/><path class="cls-4" d="M459.76,306.39c5.82,3.35,5.82,8.8,0,12.15s-15.24,3.36-21.05,0-5.81-8.79,0-12.15S454,303,459.76,306.39Z"/><ellipse class="cls-8" cx="415" cy="332.87" rx="14.88" ry="8.59"/><rect class="cls-5" x="468.9" y="272.16" width="1.01" height="45.98" transform="translate(-20.76 554.37) rotate(-60.03)"/><rect class="cls-5" x="477.18" y="267.44" width="1.01" height="45.84" transform="translate(-13.91 556.49) rotate(-59.72)"/><rect class="cls-5" x="481.34" y="265.06" width="1.01" height="45.79" transform="translate(-10.38 557.79) rotate(-59.59)"/><rect class="cls-5" x="441.84" y="287.87" width="1.01" height="45.8" transform="translate(-49.51 535.11) rotate(-59.61)"/><path class="cls-6" d="M424.58,329.43a4.09,4.09,0,0,0,0-.7v-8.19a.43.43,0,0,0-.44-.44l-3.47,0a17.62,17.62,0,0,0-14.86.24l-3.49.05v8.38l0,.77c.29,2.07,2.28,4.07,6,5.23a17.27,17.27,0,0,0,10.24,0c3.8-1.19,5.77-3.26,6-5.37Z"/><path class="cls-5" d="M413.46,336.09a17.84,17.84,0,0,1-5.24-.79c-3.71-1.15-6-3.21-6.36-5.64l0-.81V320l3.86-.06a18.17,18.17,0,0,1,15.1-.24l3.35-.06a1,1,0,0,1,.67.27,1,1,0,0,1,.28.68v8.19a3.13,3.13,0,0,1,0,.75h0c-.23,2.5-2.54,4.61-6.32,5.8A17.61,17.61,0,0,1,413.46,336.09Zm-10.64-15.15,0,8.63c.28,1.95,2.39,3.75,5.66,4.77a16.84,16.84,0,0,0,9.94,0c3.33-1,5.43-2.89,5.62-4.94a3,3,0,0,0,0-.6v-8.24l-3.52.12-.11-.06a17.05,17.05,0,0,0-14.4.23l-.11.06Z"/><ellipse class="cls-6" cx="413.47" cy="320.44" rx="11.14" ry="6.43"/><path class="cls-7" d="M421.35,317.28c4.35,2.51,4.35,6.58,0,9.1a17.43,17.43,0,0,1-15.76,0c-1.32-.76-2.79-1.54-2.76-2.63,0-1.41.06-3.95.06-3.95a7.06,7.06,0,0,1,2.7-2.52A17.43,17.43,0,0,1,421.35,317.28Z"/><path class="cls-5" d="M413.47,327.37a16.72,16.72,0,0,1-8.14-1.94c-2.26-1.31-3.51-3.08-3.51-5s1.25-3.67,3.51-5c4.49-2.59,11.78-2.59,16.27,0h0c2.26,1.31,3.51,3.08,3.51,5s-1.25,3.68-3.51,5A16.68,16.68,0,0,1,413.47,327.37Zm0-12.86a15.62,15.62,0,0,0-7.63,1.82c-1.95,1.12-3,2.58-3,4.11s1.07,3,3,4.12a16.86,16.86,0,0,0,15.25,0c2-1.12,3-2.58,3-4.12s-1.07-3-3-4.11h0A15.61,15.61,0,0,0,413.47,314.51Z"/><path class="cls-16" d="M419.14,317.39c3.13,1.69,3.13,4.42,0,6.11a13.34,13.34,0,0,1-11.35,0c-3.13-1.69-3.13-4.42,0-6.11A13.34,13.34,0,0,1,419.14,317.39Z"/><path class="cls-5" d="M413.47,325.26a12.86,12.86,0,0,1-5.91-1.31c-1.69-.91-2.62-2.16-2.62-3.51s.93-2.59,2.62-3.5a14,14,0,0,1,11.82,0h0c1.68.91,2.61,2.16,2.61,3.5s-.93,2.6-2.61,3.51A12.89,12.89,0,0,1,413.47,325.26Zm0-8.64a11.75,11.75,0,0,0-5.44,1.21c-1.34.72-2.08,1.65-2.08,2.61s.74,1.9,2.08,2.62a12.8,12.8,0,0,0,10.87,0c1.34-.72,2.08-1.65,2.08-2.62s-.74-1.89-2.08-2.61A11.73,11.73,0,0,0,413.47,316.62Z"/><path class="cls-20" d="M419.14,320.15a13.34,13.34,0,0,0-11.35,0,5.13,5.13,0,0,0-1.92,1.68,5,5,0,0,0,1.92,1.67,13.34,13.34,0,0,0,11.35,0,5,5,0,0,0,1.92-1.67A5.13,5.13,0,0,0,419.14,320.15Z"/><path class="cls-17" d="M416.64,321.24a13.2,13.2,0,0,0-6.37,0,10.86,10.86,0,0,0-2.14.75,1.25,1.25,0,0,0,.07,2.26l0,0a11.44,11.44,0,0,0,10.47,0h0a1.26,1.26,0,0,0,.07-2.27A11.08,11.08,0,0,0,416.64,321.24Z"/><path class="cls-5" d="M413.46,325.26a12.82,12.82,0,0,1-5.9-1.31,5.48,5.48,0,0,1-2.11-1.86l-.17-.26.17-.27a5.39,5.39,0,0,1,2.11-1.85,13.89,13.89,0,0,1,11.82,0h0a5.43,5.43,0,0,1,2.1,1.85l.17.27-.17.26a5.45,5.45,0,0,1-2.1,1.86A12.9,12.9,0,0,1,413.46,325.26Zm-7-3.43a4.8,4.8,0,0,0,1.54,1.23,12.76,12.76,0,0,0,10.87,0,4.8,4.8,0,0,0,1.54-1.23,4.8,4.8,0,0,0-1.54-1.23,12.76,12.76,0,0,0-10.87,0A4.8,4.8,0,0,0,406.49,321.83Z"/><path class="cls-6" d="M457.85,310.44a4.09,4.09,0,0,0,0-.7v-8.19a.43.43,0,0,0-.44-.44l-3.47.05a17.62,17.62,0,0,0-14.86.24l-3.49.05v8.38l0,.77c.29,2.07,2.28,4.07,6,5.23a17.27,17.27,0,0,0,10.24,0c3.81-1.19,5.77-3.26,6-5.37Z"/><path class="cls-5" d="M446.73,317.1a17.89,17.89,0,0,1-5.24-.79c-3.7-1.15-6-3.21-6.35-5.64l-.05-.81V301l3.86-.06a18.17,18.17,0,0,1,15.1-.24l3.35-.06a1,1,0,0,1,.67.27,1,1,0,0,1,.28.68v8.19a3.13,3.13,0,0,1,0,.75h0c-.23,2.5-2.54,4.61-6.32,5.8A17.61,17.61,0,0,1,446.73,317.1ZM436.1,302l0,8.63c.27,1.95,2.38,3.75,5.65,4.77a16.84,16.84,0,0,0,9.94,0c3.33-1,5.43-2.89,5.62-4.94a3,3,0,0,0,0-.6v-8.24l-3.52.12-.11-.06a17.05,17.05,0,0,0-14.4.23l-.11.06Z"/><ellipse class="cls-6" cx="446.74" cy="301.45" rx="11.14" ry="6.43"/><path class="cls-7" d="M454.62,298.29c4.35,2.51,4.35,6.58,0,9.1a17.43,17.43,0,0,1-15.76,0c-1.32-.76-2.79-1.54-2.76-2.63,0-1.41.06-3.95.06-3.95a7.14,7.14,0,0,1,2.7-2.52A17.43,17.43,0,0,1,454.62,298.29Z"/><path class="cls-5" d="M446.74,308.38a16.72,16.72,0,0,1-8.14-1.94c-2.26-1.31-3.51-3.08-3.51-5s1.25-3.67,3.51-5c4.49-2.59,11.78-2.59,16.27,0h0c2.27,1.31,3.51,3.08,3.51,5s-1.25,3.68-3.51,5A16.68,16.68,0,0,1,446.74,308.38Zm0-12.86a15.62,15.62,0,0,0-7.63,1.82c-1.94,1.12-3,2.58-3,4.11s1.07,3,3,4.12a16.88,16.88,0,0,0,15.26,0c1.94-1.12,3-2.58,3-4.12s-1.07-3-3-4.11h0A15.68,15.68,0,0,0,446.74,295.52Z"/><path class="cls-16" d="M452.41,298.4c3.13,1.69,3.13,4.42,0,6.11a13.32,13.32,0,0,1-11.34,0c-3.14-1.69-3.14-4.42,0-6.11A13.32,13.32,0,0,1,452.41,298.4Z"/><path class="cls-5" d="M446.74,306.27a12.89,12.89,0,0,1-5.91-1.31c-1.69-.91-2.62-2.16-2.62-3.51s.93-2.59,2.62-3.5a14,14,0,0,1,11.82,0h0c1.68.91,2.61,2.16,2.61,3.5s-.93,2.6-2.61,3.51A12.89,12.89,0,0,1,446.74,306.27Zm0-8.64a11.75,11.75,0,0,0-5.44,1.21c-1.34.72-2.08,1.65-2.08,2.61s.74,1.9,2.08,2.62a12.8,12.8,0,0,0,10.87,0c1.34-.72,2.08-1.65,2.08-2.62s-.74-1.89-2.08-2.61A11.73,11.73,0,0,0,446.74,297.63Z"/><path class="cls-20" d="M452.41,301.16a13.32,13.32,0,0,0-11.34,0,5,5,0,0,0-1.92,1.68,4.88,4.88,0,0,0,1.92,1.67,13.32,13.32,0,0,0,11.34,0,5,5,0,0,0,1.92-1.67A5.05,5.05,0,0,0,452.41,301.16Z"/><path class="cls-17" d="M449.91,302.25a13.2,13.2,0,0,0-6.37,0,11.1,11.1,0,0,0-2.14.75,1.25,1.25,0,0,0,.07,2.26l0,0a11.44,11.44,0,0,0,10.47,0h0a1.26,1.26,0,0,0,.07-2.27A11.08,11.08,0,0,0,449.91,302.25Z"/><path class="cls-5" d="M446.74,306.27a12.89,12.89,0,0,1-5.91-1.31,5.55,5.55,0,0,1-2.11-1.86l-.17-.26.17-.27a5.46,5.46,0,0,1,2.11-1.85,13.89,13.89,0,0,1,11.82,0h0a5.43,5.43,0,0,1,2.1,1.85l.17.27-.17.26a5.45,5.45,0,0,1-2.1,1.86A12.89,12.89,0,0,1,446.74,306.27Zm-7-3.43a4.91,4.91,0,0,0,1.54,1.23,12.76,12.76,0,0,0,10.87,0,4.82,4.82,0,0,0,1.54-1.23,4.69,4.69,0,0,0-1.54-1.23,12.76,12.76,0,0,0-10.87,0A4.91,4.91,0,0,0,439.76,302.84Z"/><path class="cls-22" d="M192.53,303.77c5,2.9,5,7.61,0,10.52s-13.2,2.9-18.23,0-5-7.62,0-10.52S187.49,300.86,192.53,303.77Z"/><path class="cls-8" d="M192.26,307.74a4.09,4.09,0,0,0,0-.7v-8.2a.43.43,0,0,0-.45-.43l-3.46,0a17.62,17.62,0,0,0-14.86.24l-3.49.05v8.38l0,.77c.28,2.07,2.27,4.07,6,5.23a17.27,17.27,0,0,0,10.24,0c3.8-1.19,5.77-3.26,6-5.37Z"/><path class="cls-5" d="M181.14,314.4a17.84,17.84,0,0,1-5.24-.79c-3.71-1.15-6-3.21-6.36-5.64l0-.81v-8.9l3.87-.06a18.17,18.17,0,0,1,15.1-.24l3.34-.06a1,1,0,0,1,.68.27,1,1,0,0,1,.28.67V307a4.68,4.68,0,0,1,0,.75h0c-.24,2.5-2.54,4.61-6.32,5.8A17.66,17.66,0,0,1,181.14,314.4ZM170.5,299.25l0,8.62c.27,2,2.39,3.76,5.65,4.78a16.88,16.88,0,0,0,9.95,0c3.32-1,5.42-2.89,5.62-4.94a3.11,3.11,0,0,0,0-.61v-8.24l-3.52.13-.11-.06a17,17,0,0,0-14.39.23l-.11.06Z"/><path class="cls-8" d="M189,294.2c4.35,2.52,4.35,6.59,0,9.1a17.37,17.37,0,0,1-15.76,0c-4.35-2.51-4.35-6.58,0-9.1A17.43,17.43,0,0,1,189,294.2Z"/><path class="cls-11" d="M189,295.59c4.36,2.51,4.36,6.58,0,9.1a17.43,17.43,0,0,1-15.76,0c-1.32-.76-2.78-1.54-2.75-2.63,0-1.41.05-3.95.05-3.95a7.14,7.14,0,0,1,2.7-2.52A17.37,17.37,0,0,1,189,295.59Z"/><path class="cls-5" d="M181.14,305.68a16.68,16.68,0,0,1-8.13-1.94c-2.27-1.31-3.52-3.08-3.52-5s1.25-3.67,3.52-5c4.48-2.59,11.78-2.59,16.26,0h0c2.27,1.31,3.52,3.08,3.52,5s-1.25,3.68-3.52,5A16.65,16.65,0,0,1,181.14,305.68Zm0-12.86a15.68,15.68,0,0,0-7.63,1.82c-1.94,1.12-3,2.58-3,4.11s1.07,3,3,4.12a16.88,16.88,0,0,0,15.26,0c1.94-1.13,3-2.58,3-4.12s-1.07-3-3-4.11h0A15.65,15.65,0,0,0,181.14,292.82Z"/><path class="cls-4" d="M186.81,295.69c3.14,1.69,3.14,4.43,0,6.12a13.32,13.32,0,0,1-11.34,0c-3.13-1.69-3.13-4.43,0-6.12A13.39,13.39,0,0,1,186.81,295.69Z"/><path class="cls-5" d="M181.14,303.57a12.77,12.77,0,0,1-5.91-1.32c-1.68-.9-2.61-2.15-2.61-3.5s.93-2.59,2.61-3.5a13.89,13.89,0,0,1,11.82,0h0c1.69.91,2.61,2.15,2.61,3.5s-.92,2.6-2.61,3.5A12.77,12.77,0,0,1,181.14,303.57Zm0-8.64a11.73,11.73,0,0,0-5.43,1.21c-1.34.72-2.08,1.65-2.08,2.61s.74,1.89,2.08,2.62a12.84,12.84,0,0,0,10.87,0c1.34-.73,2.08-1.66,2.08-2.62s-.74-1.89-2.08-2.61A11.75,11.75,0,0,0,181.14,294.93Z"/><path class="cls-11" d="M186.81,298.46a13.32,13.32,0,0,0-11.34,0,5,5,0,0,0-1.92,1.68,5,5,0,0,0,1.92,1.67,13.32,13.32,0,0,0,11.34,0,5,5,0,0,0,1.92-1.67A4.9,4.9,0,0,0,186.81,298.46Z"/><path class="cls-5" d="M181.14,303.57a12.77,12.77,0,0,1-5.91-1.32,5.35,5.35,0,0,1-2.1-1.85l-.17-.26.17-.27a5.43,5.43,0,0,1,2.1-1.85,13.89,13.89,0,0,1,11.82,0h0a5.54,5.54,0,0,1,2.11,1.85l.17.27-.17.26a5.45,5.45,0,0,1-2.11,1.85A12.77,12.77,0,0,1,181.14,303.57Zm-7-3.43a4.69,4.69,0,0,0,1.54,1.23,12.84,12.84,0,0,0,10.87,0,5.05,5.05,0,0,0,1.54-1.23,5.07,5.07,0,0,0-1.54-1.24,12.84,12.84,0,0,0-10.87,0A4.84,4.84,0,0,0,174.17,300.14Z"/><path class="cls-22" d="M244.77,279.88c5,2.91,5,7.62,0,10.53s-13.19,2.9-18.23,0-5-7.62,0-10.53S239.74,277,244.77,279.88Z"/><path class="cls-8" d="M244.63,282.22a4.09,4.09,0,0,0,0-.7v-8.19a.43.43,0,0,0-.44-.44l-3.47.05a17.62,17.62,0,0,0-14.86.24l-3.49.06v8.37l0,.77c.29,2.07,2.28,4.07,6,5.23a17.19,17.19,0,0,0,10.24,0c3.8-1.19,5.77-3.26,6-5.37Z"/><path class="cls-5" d="M233.51,288.88a17.52,17.52,0,0,1-5.24-.79c-3.71-1.15-6-3.21-6.36-5.64l0-.81v-8.9l3.86-.06a18.17,18.17,0,0,1,15.1-.24l3.35-.05a.94.94,0,0,1,.67.27.91.91,0,0,1,.28.67v8.19a3.13,3.13,0,0,1,0,.75h0c-.23,2.5-2.54,4.62-6.32,5.8A17.61,17.61,0,0,1,233.51,288.88Zm-10.64-15.15,0,8.63c.27,1.95,2.38,3.75,5.65,4.77a16.76,16.76,0,0,0,9.94,0c3.33-1,5.43-2.89,5.62-4.94a3,3,0,0,0,0-.6v-8.24l-3.52.12-.11-.05a17,17,0,0,0-14.4.22l-.11.06Z"/><path class="cls-8" d="M241.4,268.69c4.35,2.51,4.35,6.58,0,9.1a17.45,17.45,0,0,1-15.77,0c-4.35-2.52-4.35-6.59,0-9.1A17.39,17.39,0,0,1,241.4,268.69Z"/><path class="cls-11" d="M241.4,270.07c4.35,2.51,4.35,6.59,0,9.1a17.43,17.43,0,0,1-15.76,0c-1.32-.76-2.79-1.53-2.76-2.63,0-1.41.06-4,.06-4a7.06,7.06,0,0,1,2.7-2.52A17.43,17.43,0,0,1,241.4,270.07Z"/><path class="cls-5" d="M233.52,280.16a16.61,16.61,0,0,1-8.14-1.94c-2.26-1.31-3.51-3.08-3.51-5s1.25-3.68,3.51-5c4.49-2.59,11.78-2.59,16.27,0h0c2.26,1.31,3.51,3.08,3.51,5s-1.25,3.67-3.51,5A16.57,16.57,0,0,1,233.52,280.16Zm0-12.86a15.62,15.62,0,0,0-7.63,1.82c-1.95,1.12-3,2.59-3,4.12s1.07,3,3,4.11a16.86,16.86,0,0,0,15.25,0c2-1.12,3-2.58,3-4.11s-1.07-3-3-4.12h0A15.61,15.61,0,0,0,233.52,267.3Z"/><path class="cls-4" d="M239.19,270.18c3.13,1.69,3.13,4.43,0,6.11a13.34,13.34,0,0,1-11.35,0c-3.13-1.68-3.13-4.42,0-6.11A13.34,13.34,0,0,1,239.19,270.18Z"/><path class="cls-5" d="M233.52,278.06a12.74,12.74,0,0,1-5.91-1.32c-1.69-.91-2.62-2.16-2.62-3.5s.93-2.6,2.62-3.51a14,14,0,0,1,11.82,0h0c1.68.91,2.61,2.16,2.61,3.51s-.93,2.59-2.61,3.5A12.77,12.77,0,0,1,233.52,278.06Zm0-8.65a11.75,11.75,0,0,0-5.44,1.21c-1.34.72-2.08,1.65-2.08,2.62s.74,1.89,2.08,2.61a12.76,12.76,0,0,0,10.87,0c1.34-.72,2.08-1.65,2.08-2.61s-.74-1.9-2.08-2.62A11.73,11.73,0,0,0,233.52,269.41Z"/><path class="cls-18" d="M239.19,272.94a13.41,13.41,0,0,0-11.35,0,5.13,5.13,0,0,0-1.92,1.68,5,5,0,0,0,1.92,1.67,13.34,13.34,0,0,0,11.35,0,5,5,0,0,0,1.92-1.67A5.13,5.13,0,0,0,239.19,272.94Z"/><path class="cls-5" d="M233.51,278.06a12.69,12.69,0,0,1-5.9-1.32,5.54,5.54,0,0,1-2.11-1.85l-.17-.27.17-.27a5.47,5.47,0,0,1,2.11-1.85,13.89,13.89,0,0,1,11.82,0h0a5.51,5.51,0,0,1,2.1,1.85l.17.27-.17.27a5.51,5.51,0,0,1-2.1,1.85A12.78,12.78,0,0,1,233.51,278.06Zm-7-3.44a4.8,4.8,0,0,0,1.54,1.23,12.76,12.76,0,0,0,10.87,0,4.8,4.8,0,0,0,1.54-1.23,4.8,4.8,0,0,0-1.54-1.23,12.76,12.76,0,0,0-10.87,0A4.8,4.8,0,0,0,226.54,274.62Z"/><path class="cls-22" d="M233.36,294.14c5,2.91,5,7.62,0,10.52s-13.2,2.91-18.23,0-5-7.61,0-10.52S228.32,291.24,233.36,294.14Z"/><path class="cls-8" d="M233.56,297.32a4.09,4.09,0,0,0,0-.7v-8.19a.44.44,0,0,0-.45-.44l-3.47.06a17.66,17.66,0,0,0-14.86.23l-3.48.06v8.37l0,.78c.28,2.06,2.27,4.06,6,5.22a17.23,17.23,0,0,0,10.25,0c3.8-1.2,5.77-3.26,6-5.38Z"/><path class="cls-5" d="M222.44,304a17.58,17.58,0,0,1-5.25-.79c-3.7-1.15-6-3.2-6.35-5.63l-.05-.82v-8.9l3.86-.06a18.23,18.23,0,0,1,15.11-.24l3.34-.05a1,1,0,0,1,.68.27.93.93,0,0,1,.28.67v8.19a4.69,4.69,0,0,1,0,.75h0c-.24,2.5-2.54,4.62-6.32,5.81A18,18,0,0,1,222.44,304ZM211.8,288.83l0,8.63c.27,2,2.39,3.76,5.65,4.77a16.88,16.88,0,0,0,9.95,0c3.32-1.05,5.42-2.89,5.61-4.94a3.11,3.11,0,0,0,0-.61v-8.24l-3.52.12-.11-.05a17,17,0,0,0-14.39.22l-.11.06Z"/><path class="cls-8" d="M230.32,283.79c4.35,2.51,4.35,6.59,0,9.1a17.43,17.43,0,0,1-15.76,0c-4.35-2.51-4.35-6.59,0-9.1A17.43,17.43,0,0,1,230.32,283.79Z"/><path class="cls-11" d="M230.32,285.17c4.35,2.51,4.35,6.59,0,9.1a17.43,17.43,0,0,1-15.76,0c-1.32-.76-2.78-1.53-2.76-2.62,0-1.42.06-4,.06-4a7.21,7.21,0,0,1,2.7-2.52A17.43,17.43,0,0,1,230.32,285.17Z"/><path class="cls-5" d="M222.44,295.27a16.55,16.55,0,0,1-8.13-1.95c-2.27-1.3-3.52-3.08-3.52-5s1.25-3.68,3.52-5c4.48-2.59,11.78-2.59,16.26,0h0c2.27,1.31,3.52,3.08,3.52,5s-1.25,3.68-3.52,5A16.55,16.55,0,0,1,222.44,295.27Zm0-12.87a15.65,15.65,0,0,0-7.63,1.82c-1.94,1.13-3,2.59-3,4.12s1.07,3,3,4.11a16.88,16.88,0,0,0,15.26,0c1.94-1.12,3-2.58,3-4.11s-1.07-3-3-4.12h0A15.65,15.65,0,0,0,222.44,282.4Z"/><path class="cls-4" d="M228.11,285.28c3.13,1.69,3.13,4.43,0,6.12a13.32,13.32,0,0,1-11.34,0c-3.13-1.69-3.13-4.43,0-6.12A13.32,13.32,0,0,1,228.11,285.28Z"/><path class="cls-5" d="M222.44,293.16a12.77,12.77,0,0,1-5.91-1.32c-1.69-.91-2.61-2.15-2.61-3.5s.93-2.59,2.61-3.5a13.89,13.89,0,0,1,11.82,0h0c1.69.91,2.61,2.15,2.61,3.5s-.92,2.59-2.61,3.5A12.77,12.77,0,0,1,222.44,293.16Zm0-8.65a11.83,11.83,0,0,0-5.43,1.21c-1.35.73-2.09,1.66-2.09,2.62s.74,1.89,2.09,2.61a12.74,12.74,0,0,0,10.86,0c1.35-.72,2.09-1.65,2.09-2.61s-.74-1.89-2.09-2.62A11.8,11.8,0,0,0,222.44,284.51Z"/><path class="cls-4" d="M228.11,288.05a13.32,13.32,0,0,0-11.34,0,5,5,0,0,0-1.92,1.67,5.05,5.05,0,0,0,1.92,1.68,13.32,13.32,0,0,0,11.34,0,5.05,5.05,0,0,0,1.92-1.68A5,5,0,0,0,228.11,288.05Z"/><path class="cls-5" d="M222.44,293.16a12.77,12.77,0,0,1-5.91-1.32,5.54,5.54,0,0,1-2.11-1.85l-.16-.27.16-.26a5.55,5.55,0,0,1,2.11-1.86,14,14,0,0,1,11.82,0h0a5.55,5.55,0,0,1,2.11,1.86l.16.26-.16.27a5.54,5.54,0,0,1-2.11,1.85A12.77,12.77,0,0,1,222.44,293.16Zm-7-3.44A4.84,4.84,0,0,0,217,291a12.74,12.74,0,0,0,10.86,0,4.84,4.84,0,0,0,1.55-1.23,4.84,4.84,0,0,0-1.55-1.23,12.74,12.74,0,0,0-10.86,0A4.84,4.84,0,0,0,215.46,289.72Z"/><path class="cls-22" d="M315.46,212.21c5,2.9,5,7.61,0,10.52s-13.19,2.91-18.22,0-5-7.62,0-10.52S310.43,209.3,315.46,212.21Z"/><path class="cls-8" d="M314.1,213.94a4.09,4.09,0,0,0,0-.7V205a.43.43,0,0,0-.45-.43l-3.46,0a17.62,17.62,0,0,0-14.86.24l-3.49,0v8.38l0,.77c.28,2.06,2.27,4.07,6,5.23a17.27,17.27,0,0,0,10.24,0c3.8-1.19,5.77-3.26,6-5.37Z"/><path class="cls-5" d="M303,220.6a17.84,17.84,0,0,1-5.24-.79c-3.71-1.15-6-3.21-6.36-5.64l0-.81v-8.9l3.86-.06a18.17,18.17,0,0,1,15.1-.24l3.35-.06a1,1,0,0,1,.67.27,1,1,0,0,1,.28.67v8.2a4.68,4.68,0,0,1,0,.75h0c-.24,2.5-2.54,4.61-6.32,5.8A17.66,17.66,0,0,1,303,220.6Zm-10.64-15.15,0,8.62c.27,2,2.39,3.76,5.65,4.78a16.88,16.88,0,0,0,10,0c3.32-1,5.42-2.89,5.62-4.94a3.11,3.11,0,0,0,0-.61V205l-3.52.13-.11-.06a17,17,0,0,0-14.39.23l-.11.06Z"/><path class="cls-8" d="M310.86,200.4c4.35,2.52,4.35,6.59,0,9.1a17.37,17.37,0,0,1-15.76,0c-4.35-2.51-4.35-6.58,0-9.1A17.43,17.43,0,0,1,310.86,200.4Z"/><path class="cls-11" d="M310.86,201.79c4.36,2.51,4.36,6.58,0,9.1a17.43,17.43,0,0,1-15.76,0c-1.31-.76-2.78-1.54-2.75-2.63,0-1.41,0-3.95,0-3.95a7.14,7.14,0,0,1,2.7-2.52A17.37,17.37,0,0,1,310.86,201.79Z"/><path class="cls-5" d="M303,211.88a16.68,16.68,0,0,1-8.13-1.94c-2.27-1.31-3.51-3.08-3.51-5s1.24-3.67,3.51-5c4.48-2.59,11.78-2.59,16.26,0h0c2.27,1.31,3.52,3.08,3.52,5s-1.25,3.68-3.52,5A16.65,16.65,0,0,1,303,211.88ZM303,199a15.57,15.57,0,0,0-7.63,1.82c-1.94,1.12-3,2.58-3,4.11s1.07,3,3,4.12a16.88,16.88,0,0,0,15.26,0c1.94-1.13,3-2.59,3-4.12s-1.07-3-3-4.11h0A15.54,15.54,0,0,0,303,199Z"/><path class="cls-4" d="M308.65,201.89c3.14,1.69,3.14,4.43,0,6.12a13.32,13.32,0,0,1-11.34,0c-3.13-1.69-3.13-4.43,0-6.12A13.39,13.39,0,0,1,308.65,201.89Z"/><path class="cls-5" d="M303,209.77a12.77,12.77,0,0,1-5.91-1.32c-1.68-.91-2.61-2.15-2.61-3.5s.93-2.59,2.61-3.5a13.89,13.89,0,0,1,11.82,0h0c1.69.91,2.62,2.15,2.62,3.5s-.93,2.59-2.62,3.5A12.77,12.77,0,0,1,303,209.77Zm0-8.64a11.73,11.73,0,0,0-5.43,1.21c-1.34.72-2.08,1.65-2.08,2.61s.74,1.89,2.08,2.62a12.84,12.84,0,0,0,10.87,0c1.34-.73,2.08-1.66,2.08-2.62s-.74-1.89-2.08-2.61A11.75,11.75,0,0,0,303,201.13Z"/><path class="cls-18" d="M308.65,204.66a13.32,13.32,0,0,0-11.34,0,5,5,0,0,0-1.92,1.68,5,5,0,0,0,1.92,1.67,13.32,13.32,0,0,0,11.34,0,5,5,0,0,0,1.92-1.67A4.9,4.9,0,0,0,308.65,204.66Z"/><path class="cls-5" d="M303,209.77a12.77,12.77,0,0,1-5.91-1.32,5.35,5.35,0,0,1-2.1-1.85l-.17-.26.17-.27a5.35,5.35,0,0,1,2.1-1.85,13.89,13.89,0,0,1,11.82,0h0a5.54,5.54,0,0,1,2.11,1.85l.17.27-.17.26a5.45,5.45,0,0,1-2.11,1.85A12.77,12.77,0,0,1,303,209.77Zm-7-3.43a4.69,4.69,0,0,0,1.54,1.23,12.84,12.84,0,0,0,10.87,0,5.05,5.05,0,0,0,1.54-1.23,4.93,4.93,0,0,0-1.54-1.24,12.84,12.84,0,0,0-10.87,0A4.71,4.71,0,0,0,296,206.34Z"/><ellipse class="cls-22" cx="285.43" cy="176.76" rx="12.89" ry="7.44"/><path class="cls-8" d="M294.29,175.44a2.73,2.73,0,0,0,0-.7v-8.2a.43.43,0,0,0-.44-.43l-3.47,0a17.62,17.62,0,0,0-14.86.24l-3.49,0v8.38l.05.77c.28,2.07,2.27,4.07,6,5.23a17.31,17.31,0,0,0,10.25,0c3.8-1.19,5.77-3.26,6-5.37Z"/><path class="cls-5" d="M283.18,182.1a17.91,17.91,0,0,1-5.25-.79c-3.7-1.15-6-3.21-6.35-5.64l-.05-.81V166l3.86-.06a18.17,18.17,0,0,1,15.1-.24l3.35-.06a1,1,0,0,1,.68.27,1,1,0,0,1,.28.67v8.2a4.68,4.68,0,0,1,0,.75h0c-.24,2.5-2.54,4.61-6.32,5.8A17.66,17.66,0,0,1,283.18,182.1ZM272.54,167l0,8.62c.27,2,2.38,3.76,5.65,4.78a16.88,16.88,0,0,0,9.95,0c3.32-1,5.42-2.89,5.61-4.94a3.11,3.11,0,0,0,0-.61v-8.24l-3.52.13-.11-.06a17.05,17.05,0,0,0-14.4.23l-.1.06Z"/><path class="cls-8" d="M291.06,161.9c4.35,2.52,4.35,6.59,0,9.1a17.37,17.37,0,0,1-15.76,0c-4.35-2.51-4.35-6.58,0-9.1A17.43,17.43,0,0,1,291.06,161.9Z"/><path class="cls-11" d="M291.06,163.29c4.35,2.51,4.35,6.58,0,9.1a17.43,17.43,0,0,1-15.76,0c-1.32-.76-2.78-1.54-2.76-2.63,0-1.41.06-3.95.06-3.95a7.14,7.14,0,0,1,2.7-2.52A17.37,17.37,0,0,1,291.06,163.29Z"/><path class="cls-5" d="M283.18,173.38a16.65,16.65,0,0,1-8.13-1.94c-2.27-1.31-3.52-3.08-3.52-5s1.25-3.67,3.52-5c4.48-2.59,11.78-2.59,16.26,0h0c2.27,1.31,3.52,3.08,3.52,5s-1.25,3.68-3.52,5A16.68,16.68,0,0,1,283.18,173.38Zm0-12.86a15.65,15.65,0,0,0-7.63,1.82c-1.94,1.12-3,2.58-3,4.11s1.07,3,3,4.12a16.88,16.88,0,0,0,15.26,0c1.94-1.12,3-2.58,3-4.12s-1.07-3-3-4.11h0A15.68,15.68,0,0,0,283.18,160.52Z"/><path class="cls-4" d="M288.85,163.4c3.13,1.68,3.13,4.42,0,6.11a13.32,13.32,0,0,1-11.34,0c-3.13-1.69-3.13-4.43,0-6.11A13.32,13.32,0,0,1,288.85,163.4Z"/><path class="cls-5" d="M283.18,171.27a12.89,12.89,0,0,1-5.91-1.31c-1.69-.91-2.61-2.16-2.61-3.51s.92-2.59,2.61-3.5a14,14,0,0,1,11.82,0h0c1.68.91,2.61,2.16,2.61,3.5s-.93,2.6-2.61,3.51A12.89,12.89,0,0,1,283.18,171.27Zm0-8.64a11.68,11.68,0,0,0-5.43,1.21c-1.35.72-2.09,1.65-2.09,2.61s.74,1.89,2.09,2.62a12.81,12.81,0,0,0,10.86,0c1.35-.73,2.09-1.65,2.09-2.62s-.74-1.89-2.09-2.61A11.71,11.71,0,0,0,283.18,162.63Z"/><path class="cls-4" d="M288.85,166.16a13.32,13.32,0,0,0-11.34,0,5,5,0,0,0-1.92,1.68,5,5,0,0,0,1.92,1.67,13.32,13.32,0,0,0,11.34,0,5,5,0,0,0,1.92-1.67A5.05,5.05,0,0,0,288.85,166.16Z"/><path class="cls-5" d="M283.18,171.27a12.89,12.89,0,0,1-5.91-1.31,5.55,5.55,0,0,1-2.11-1.86l-.17-.26.17-.27a5.54,5.54,0,0,1,2.11-1.85,13.89,13.89,0,0,1,11.82,0h0a5.54,5.54,0,0,1,2.11,1.85l.16.27-.16.26a5.45,5.45,0,0,1-2.11,1.85A12.77,12.77,0,0,1,283.18,171.27Zm-7-3.43a4.84,4.84,0,0,0,1.55,1.23,12.81,12.81,0,0,0,10.86,0,5,5,0,0,0,1.55-1.23,4.84,4.84,0,0,0-1.55-1.23,12.74,12.74,0,0,0-10.86,0A4.84,4.84,0,0,0,276.2,167.84Z"/><path class="cls-22" d="M295.19,232.75c5.82,3.36,5.82,8.8,0,12.16s-15.23,3.35-21.05,0-5.81-8.8,0-12.16S289.38,229.4,295.19,232.75Z"/><path class="cls-8" d="M298.42,209.56l-32.16-.05,3.37,26.17h0c.16,1.74,1.39,3.45,3.68,4.78,4.95,2.86,13,2.87,17.92,0,2.59-1.49,3.83-3.46,3.71-5.42Z"/><path class="cls-5" d="M282.32,243.1a18.82,18.82,0,0,1-9.24-2.21,7.34,7.34,0,0,1-3.87-4.7h0l-.08-.44L265.69,209l33.31.05-3.54,26.07c.13,2.12-1.31,4.27-4,5.79A18.76,18.76,0,0,1,282.32,243.1Zm-12.25-7.92h0l.06.46c.16,1.63,1.37,3.19,3.43,4.38,4.8,2.78,12.62,2.79,17.42,0,2.31-1.33,3.57-3.13,3.46-5l3.39-25-31-.05Z"/><path class="cls-8" d="M293.78,202.06c6.3,3.66,6.29,9.56,0,13.2s-16.55,3.61-22.85,0-6.3-9.56,0-13.19S287.47,198.41,293.78,202.06Z"/><path class="cls-11" d="M293.78,203.22c6.3,3.66,6.29,9.56,0,13.19s-16.55,3.62-22.85,0-6.3-9.56,0-13.19S287.47,199.57,293.78,203.22Z"/><path class="cls-5" d="M282.37,218.46a23.86,23.86,0,0,1-11.71-2.8c-3.22-1.86-5-4.37-5-7s1.78-5.18,5-7c6.44-3.7,16.92-3.69,23.35,0h0c3.21,1.86,5,4.36,5,7s-1.78,5.17-5,7A23.85,23.85,0,0,1,282.37,218.46Zm-.06-18.65a22.89,22.89,0,0,0-11.13,2.65c-2.89,1.67-4.49,3.85-4.49,6.16s1.58,4.49,4.47,6.16c6.15,3.57,16.18,3.59,22.35,0,2.89-1.66,4.48-3.85,4.49-6.15s-1.59-4.5-4.48-6.17h0A22.84,22.84,0,0,0,282.31,199.81Z"/><path class="cls-4" d="M291.5,203.72c5.06,2.73,5.05,7.15,0,9.87s-13.26,2.71-18.31,0-5-7.15,0-9.87S286.45,201,291.5,203.72Z"/><path class="cls-5" d="M282.37,216.12a20.4,20.4,0,0,1-9.43-2.11c-2.61-1.42-4.05-3.33-4.05-5.39s1.45-4,4.07-5.37c5.18-2.79,13.61-2.77,18.78,0,2.62,1.41,4.05,3.32,4.05,5.38s-1.45,4-4.06,5.38A20.38,20.38,0,0,1,282.37,216.12Zm-.05-14a19.39,19.39,0,0,0-8.89,2c-2.27,1.23-3.53,2.82-3.53,4.49s1.25,3.27,3.52,4.5c4.91,2.66,12.91,2.67,17.83,0,2.28-1.22,3.53-2.82,3.53-4.49s-1.24-3.27-3.52-4.5h0A19.3,19.3,0,0,0,282.32,202.16Z"/><path class="cls-11" d="M291.5,210.84c-5.05-2.74-13.25-2.75-18.31,0-1.46.78-1.39.66-2,1.64.61,1,2.81,1.23,4.27,2,5.05,2.73,10.86,1.15,14.59-.17,1.56-.56,2.63-.94,3.25-1.92C292.68,211.39,293,211.63,291.5,210.84Z"/><path class="cls-5" d="M282.37,216.12a20.4,20.4,0,0,1-9.43-2.11,8.55,8.55,0,0,1-3.28-2.89l-.17-.27.17-.26a8.57,8.57,0,0,1,3.29-2.88c5.18-2.78,13.61-2.77,18.79,0h0a8.63,8.63,0,0,1,3.28,2.89l.17.26-.17.27a8.56,8.56,0,0,1-3.29,2.88A20.41,20.41,0,0,1,282.37,216.12Zm-11.68-5.26a7.86,7.86,0,0,0,2.73,2.26c4.91,2.66,12.91,2.67,17.83,0a7.91,7.91,0,0,0,2.74-2.26,8,8,0,0,0-2.73-2.26h0c-4.92-2.66-12.91-2.67-17.83,0A7.91,7.91,0,0,0,270.69,210.86Z"/><path class="cls-22" d="M560.68,279.25c5,2.91,5,7.62,0,10.52s-13.2,2.91-18.23,0-5-7.61,0-10.52S555.64,276.35,560.68,279.25Z"/><path class="cls-8" d="M560.9,260.69l-27-.05,2.83,22h0c.14,1.46,1.17,2.9,3.1,4a16.6,16.6,0,0,0,15,0c2.17-1.25,3.21-2.91,3.11-4.55Z"/><path class="cls-5" d="M547.38,288.93a16,16,0,0,1-7.81-1.86,6.34,6.34,0,0,1-3.27-3.94h0l-.07-.44-2.91-22.55,28.16,0-3,22c.11,1.8-1.11,3.63-3.36,4.92A15.91,15.91,0,0,1,547.38,288.93Zm-10.22-6.81h0l.07.46c.12,1.34,1.13,2.63,2.84,3.62a16.11,16.11,0,0,0,14.55,0c1.93-1.12,3-2.57,2.86-4.09l2.83-20.94-25.86,0Z"/><ellipse class="cls-8" cx="547.39" cy="259.91" rx="7.83" ry="13.57" transform="translate(286.63 806.91) rotate(-89.91)"/><path class="cls-11" d="M557,255.62c5.29,3.07,5.28,8,0,11.08s-13.9,3-19.19,0-5.29-8,0-11.08S551.7,252.56,557,255.62Z"/><path class="cls-5" d="M547.42,268.24a20.11,20.11,0,0,1-9.88-2.37c-2.72-1.57-4.22-3.7-4.22-6s1.51-4.4,4.24-6c5.43-3.12,14.26-3.11,19.69,0,2.72,1.57,4.22,3.7,4.21,6s-1.5,4.4-4.23,6A20.1,20.1,0,0,1,547.42,268.24Zm0-15.66a19.07,19.07,0,0,0-9.31,2.22c-2.4,1.38-3.73,3.19-3.73,5.09s1.31,3.72,3.71,5.11c5.15,3,13.53,3,18.69,0,2.4-1.38,3.72-3.19,3.73-5.1s-1.32-3.72-3.72-5.1A19.07,19.07,0,0,0,547.37,252.58Z"/><path class="cls-4" d="M555.09,255.78c4.24,2.3,4.23,6,0,8.29a18.05,18.05,0,0,1-15.37,0c-4.24-2.3-4.24-6,0-8.29A18,18,0,0,1,555.09,255.78Z"/><path class="cls-5" d="M547.42,266.27a17.1,17.1,0,0,1-8-1.78c-2.22-1.2-3.44-2.83-3.44-4.59s1.23-3.39,3.45-4.59a18.65,18.65,0,0,1,15.86,0h0c2.22,1.2,3.44,2.83,3.44,4.59s-1.23,3.39-3.46,4.59A17.13,17.13,0,0,1,547.42,266.27Zm0-11.72A16.09,16.09,0,0,0,540,256.2c-1.89,1-2.92,2.33-2.93,3.7s1,2.69,2.92,3.71a17.54,17.54,0,0,0,14.9,0c1.88-1,2.92-2.33,2.92-3.7s-1-2.69-2.91-3.71A16.19,16.19,0,0,0,547.37,254.55Z"/><path class="cls-11" d="M555.08,261.87a18,18,0,0,0-15.37,0c-1.23.65-1.09.27-1.61,1.1.52.83,2.95,2,4.33,2.18,4.55.65,7.09,1.92,11.34-.36,1.23-.66,2.23-.83,2.75-1.66C556,262.28,556.31,262.53,555.08,261.87Z"/><path class="cls-5" d="M547.42,266.27a17.1,17.1,0,0,1-8-1.78,7.3,7.3,0,0,1-2.79-2.45l-.16-.27.16-.26a7.26,7.26,0,0,1,2.8-2.45,18.63,18.63,0,0,1,15.85,0h0a7.3,7.3,0,0,1,2.79,2.45l.16.27-.16.26a7.26,7.26,0,0,1-2.8,2.45A17.13,17.13,0,0,1,547.42,266.27Zm-9.71-4.49a6.76,6.76,0,0,0,2.23,1.83,17.54,17.54,0,0,0,14.9,0,6.53,6.53,0,0,0,2.23-1.83,6.64,6.64,0,0,0-2.23-1.83h0a17.54,17.54,0,0,0-14.9,0A6.53,6.53,0,0,0,537.71,261.78Z"/><path class="cls-22" d="M542,291.67c5,2.91,5,7.62,0,10.53s-13.19,2.9-18.22,0-5-7.62,0-10.53S537,288.77,542,291.67Z"/><path class="cls-8" d="M541.91,294.13a4.09,4.09,0,0,0,0-.7v-8.19a.43.43,0,0,0-.44-.44l-3.47.05a17.62,17.62,0,0,0-14.86.24l-3.49.05v8.38l0,.77c.29,2.07,2.28,4.07,6,5.23a17.27,17.27,0,0,0,10.24,0c3.8-1.19,5.77-3.26,6-5.37Z"/><path class="cls-5" d="M530.79,300.79a17.84,17.84,0,0,1-5.24-.79c-3.71-1.15-6-3.21-6.35-5.64l-.05-.81v-8.9l3.86-.06a18.17,18.17,0,0,1,15.1-.24l3.35-.06a1,1,0,0,1,.67.27,1,1,0,0,1,.28.68v8.19a3.13,3.13,0,0,1,0,.75h0c-.23,2.5-2.54,4.62-6.32,5.8A17.61,17.61,0,0,1,530.79,300.79Zm-10.64-15.15.05,8.63c.27,2,2.38,3.75,5.65,4.77a16.76,16.76,0,0,0,9.94,0c3.33-1,5.43-2.89,5.62-4.94a3,3,0,0,0,0-.6v-8.24l-3.52.12-.11-.05a17,17,0,0,0-14.4.22l-.11.06Z"/><path class="cls-8" d="M538.68,280.6c4.35,2.51,4.35,6.58,0,9.09a17.37,17.37,0,0,1-15.76,0c-4.36-2.51-4.36-6.58,0-9.09A17.37,17.37,0,0,1,538.68,280.6Z"/><path class="cls-11" d="M538.68,282c4.35,2.51,4.35,6.59,0,9.1a17.43,17.43,0,0,1-15.76,0c-1.32-.76-2.79-1.54-2.76-2.63,0-1.41.06-3.95.06-3.95a7.14,7.14,0,0,1,2.7-2.52A17.43,17.43,0,0,1,538.68,282Z"/><path class="cls-5" d="M530.8,292.07a16.72,16.72,0,0,1-8.14-1.94c-2.26-1.31-3.51-3.08-3.51-5s1.25-3.67,3.51-5c4.49-2.59,11.78-2.59,16.27,0h0c2.26,1.31,3.51,3.08,3.51,5s-1.25,3.68-3.51,5A16.68,16.68,0,0,1,530.8,292.07Zm0-12.86a15.62,15.62,0,0,0-7.63,1.82c-1.95,1.12-3,2.58-3,4.11s1.07,3,3,4.12a16.86,16.86,0,0,0,15.25,0c2-1.12,3-2.58,3-4.12s-1.07-3-3-4.11h0A15.61,15.61,0,0,0,530.8,279.21Z"/><path class="cls-4" d="M536.47,282.09c3.13,1.69,3.13,4.42,0,6.11a13.34,13.34,0,0,1-11.35,0c-3.13-1.69-3.13-4.42,0-6.11A13.34,13.34,0,0,1,536.47,282.09Z"/><path class="cls-5" d="M530.8,290a12.73,12.73,0,0,1-5.91-1.31c-1.69-.91-2.62-2.16-2.62-3.51s.93-2.59,2.62-3.5a14,14,0,0,1,11.82,0h0c1.68.91,2.61,2.16,2.61,3.5s-.93,2.6-2.61,3.51A12.76,12.76,0,0,1,530.8,290Zm0-8.64a11.75,11.75,0,0,0-5.44,1.21c-1.34.72-2.08,1.65-2.08,2.61s.74,1.9,2.08,2.62a12.8,12.8,0,0,0,10.87,0c1.34-.72,2.08-1.65,2.08-2.62s-.74-1.89-2.08-2.61A11.73,11.73,0,0,0,530.8,281.32Z"/><path class="cls-18" d="M536.47,284.85a13.34,13.34,0,0,0-11.35,0,5.13,5.13,0,0,0-1.92,1.68,5,5,0,0,0,1.92,1.67,13.34,13.34,0,0,0,11.35,0,5,5,0,0,0,1.92-1.67A5.13,5.13,0,0,0,536.47,284.85Z"/><path class="cls-5" d="M530.79,290a12.69,12.69,0,0,1-5.9-1.31,5.48,5.48,0,0,1-2.11-1.86l-.17-.26.17-.27a5.39,5.39,0,0,1,2.11-1.85,13.89,13.89,0,0,1,11.82,0h0a5.43,5.43,0,0,1,2.1,1.85l.17.27-.17.26a5.45,5.45,0,0,1-2.1,1.86A12.9,12.9,0,0,1,530.79,290Zm-7-3.43a4.91,4.91,0,0,0,1.54,1.23,12.76,12.76,0,0,0,10.87,0,4.8,4.8,0,0,0,1.54-1.23,4.8,4.8,0,0,0-1.54-1.23,12.76,12.76,0,0,0-10.87,0A4.8,4.8,0,0,0,523.82,286.53Z"/><path class="cls-22" d="M556.5,305.51c5,2.9,5,7.61,0,10.52s-13.19,2.91-18.22,0-5-7.62,0-10.52S551.47,302.6,556.5,305.51Z"/><path class="cls-8" d="M555.16,308.81a4.09,4.09,0,0,0,0-.7v-8.2a.43.43,0,0,0-.44-.43l-3.47,0a17.62,17.62,0,0,0-14.86.24l-3.49.05v8.38l0,.77c.29,2.07,2.28,4.07,6,5.23a17.27,17.27,0,0,0,10.24,0c3.81-1.19,5.77-3.26,6-5.37Z"/><path class="cls-5" d="M544,315.47a17.84,17.84,0,0,1-5.24-.79c-3.7-1.15-6-3.21-6.35-5.64l-.05-.81v-8.9l3.86-.06a18.17,18.17,0,0,1,15.1-.24l3.35-.06a1,1,0,0,1,.67.27,1,1,0,0,1,.28.67v8.2a3.13,3.13,0,0,1,0,.75h0c-.23,2.5-2.54,4.61-6.32,5.8A17.61,17.61,0,0,1,544,315.47ZM533.4,300.32l.05,8.62c.27,2,2.38,3.76,5.65,4.78a16.84,16.84,0,0,0,9.94,0c3.33-1,5.43-2.89,5.62-4.94a3.11,3.11,0,0,0,0-.61v-8.24l-3.52.13L551,300a17.05,17.05,0,0,0-14.4.23l-.11.06Z"/><path class="cls-8" d="M551.93,295.27c4.35,2.52,4.35,6.59,0,9.1a17.37,17.37,0,0,1-15.76,0c-4.36-2.51-4.36-6.58,0-9.1A17.43,17.43,0,0,1,551.93,295.27Z"/><path class="cls-11" d="M551.93,296.66c4.35,2.51,4.35,6.58,0,9.1a17.43,17.43,0,0,1-15.76,0c-1.32-.76-2.79-1.54-2.76-2.63,0-1.41.06-3.95.06-3.95a7.14,7.14,0,0,1,2.7-2.52A17.37,17.37,0,0,1,551.93,296.66Z"/><path class="cls-5" d="M544.05,306.75a16.72,16.72,0,0,1-8.14-1.94c-2.26-1.31-3.51-3.08-3.51-5s1.25-3.67,3.51-5c4.49-2.59,11.78-2.59,16.27,0h0c2.27,1.31,3.51,3.08,3.51,5s-1.25,3.68-3.51,5A16.68,16.68,0,0,1,544.05,306.75Zm0-12.86a15.62,15.62,0,0,0-7.63,1.82c-1.95,1.12-3,2.58-3,4.11s1.07,3,3,4.12a16.86,16.86,0,0,0,15.25,0c2-1.12,3-2.58,3-4.12s-1.07-3-3-4.11h0A15.61,15.61,0,0,0,544.05,293.89Z"/><ellipse class="cls-4" cx="544.05" cy="299.82" rx="8.02" ry="4.33"/><path class="cls-5" d="M544.05,304.64a12.89,12.89,0,0,1-5.91-1.31c-1.69-.91-2.62-2.16-2.62-3.51s.93-2.59,2.62-3.5a14,14,0,0,1,11.82,0h0c1.68.91,2.61,2.15,2.61,3.5s-.93,2.6-2.61,3.51A12.89,12.89,0,0,1,544.05,304.64Zm0-8.64a11.75,11.75,0,0,0-5.44,1.21c-1.34.72-2.08,1.65-2.08,2.61s.74,1.89,2.08,2.62a12.84,12.84,0,0,0,10.87,0c1.34-.73,2.08-1.66,2.08-2.62s-.74-1.89-2.08-2.61A11.73,11.73,0,0,0,544.05,296Z"/><path class="cls-11" d="M549.72,299.53a13.32,13.32,0,0,0-11.34,0,5,5,0,0,0-1.92,1.68,5,5,0,0,0,1.92,1.67,13.32,13.32,0,0,0,11.34,0,5.12,5.12,0,0,0,1.92-1.67A5.13,5.13,0,0,0,549.72,299.53Z"/><path class="cls-5" d="M544.05,304.64a12.89,12.89,0,0,1-5.91-1.31,5.55,5.55,0,0,1-2.11-1.86l-.17-.26.17-.27a5.39,5.39,0,0,1,2.11-1.85,13.89,13.89,0,0,1,11.82,0h0a5.43,5.43,0,0,1,2.1,1.85l.17.27-.17.26a5.35,5.35,0,0,1-2.1,1.85A12.77,12.77,0,0,1,544.05,304.64Zm-7-3.43a4.91,4.91,0,0,0,1.54,1.23,12.84,12.84,0,0,0,10.87,0,4.82,4.82,0,0,0,1.54-1.23,4.84,4.84,0,0,0-1.54-1.24,12.84,12.84,0,0,0-10.87,0A5,5,0,0,0,537.07,301.21Z"/><path class="cls-23" d="M390,120.46h0l.14,1.68s-2,6.33-1.84,7.5l.19,1.17L390.94,142a.61.61,0,0,0,.9.41l3.91-2.17.56-.33a3.18,3.18,0,0,0,1.24-2.9V122.14Z"/><path class="cls-5" d="M391.54,143a1.09,1.09,0,0,1-.46-.1,1.13,1.13,0,0,1-.63-.78L388,130.92l-.2-1.2c-.19-1.19,1.43-6.37,1.83-7.64l-.2-2.26,8.14,1.8a.63.63,0,0,1,.49.61V137a3.65,3.65,0,0,1-1.48,3.33l-.57.34-3.92,2.17A1.11,1.11,0,0,1,391.54,143Zm-1-21.89.09,1.09,0,.1c-.83,2.58-1.94,6.55-1.82,7.27l.19,1.17,2.45,11.17.41.51-.24-.44,4.46-2.49a2.8,2.8,0,0,0,1-2.47V122.54Z"/><path class="cls-24" d="M389,142.59l-.54-.31c-2-1.16-3.63-4.27-3.63-6.94V120.46l7.8,4.51v14.87C392.6,142.52,391,143.75,389,142.59Z"/><polygon class="cls-18" points="384.8 120.46 389.75 117.63 397.55 122.14 392.6 124.97 384.8 120.46"/><polygon class="cls-25" points="384.8 122.01 389.75 119.18 395.7 122.62 392.6 125.09 392.6 126.52 384.8 122.01"/><path class="cls-5" d="M398.05,121.85l-8.3-4.8-5.45,3.12v15.17c0,2.88,1.7,6.11,3.88,7.37l.54.31a3.39,3.39,0,0,0,1.7.51,2.42,2.42,0,0,0,1.18-.31,3.73,3.73,0,0,0,1.51-3.38V125.26l4.94-2.83Zm-8.31-3.64,6.8,3.92-3.94,2.26-6.79-3.93Zm2.36,21.63a2.78,2.78,0,0,1-1,2.5,1.9,1.9,0,0,1-1.88-.19l-.54-.31a8.17,8.17,0,0,1-3.38-6.5v-14l6.8,3.93Z"/><path class="cls-5" d="M389.05,135.83a1.53,1.53,0,0,0-1.53-.12,1.51,1.51,0,0,0-.66,1.39,4,4,0,0,0,1.86,3.22,1.91,1.91,0,0,0,.92.28,1.18,1.18,0,0,0,.61-.16,1.52,1.52,0,0,0,.66-1.38A4.08,4.08,0,0,0,389.05,135.83Zm-1.2.45a.6.6,0,0,1,.27-.07,1.3,1.3,0,0,1,.6.19,2.76,2.76,0,0,1,.65.55l-1.48,1.49a3,3,0,0,1-.38-1.34A.9.9,0,0,1,387.85,136.28Zm2.07,3.59a.9.9,0,0,1-.87-.12,2.76,2.76,0,0,1-.8-.73l1.51-1.53a3.2,3.2,0,0,1,.49,1.57A.9.9,0,0,1,389.92,139.87Z"/><path class="cls-18" d="M399,58.29,375.45,44.67a1.87,1.87,0,0,0-1.65-.24h0l-4.91,2.94,6.61,10L377,63.55a9.05,9.05,0,0,0,3.88,5.53l5,2.91,5.49,7.71,4.95-3v0a2.23,2.23,0,0,0,1.1-1.42l4-11.9C401.91,61.81,400.71,59.26,399,58.29Z"/><path class="cls-25" d="M399.62,60.44,376,46.83a1.84,1.84,0,0,0-1.65-.24h0l-4.91,2.94,6.61,10,1.46,6.15a9.08,9.08,0,0,0,3.88,5.53l5,2.91,3,3.82L391,76.9a36.12,36.12,0,0,0,7.95-8l2-2.71C401.35,64.66,401.3,61.41,399.62,60.44Z"/><path class="cls-5" d="M391.26,80.21l-5.64-7.93-5-2.87a9.48,9.48,0,0,1-4.06-5.77l-1.44-6.09-6.79-10.3L373.79,44l0,0a2.29,2.29,0,0,1,1.81.33L399.22,58c1.83,1,3.1,3.8,2.58,5.54l-4,11.91A2.67,2.67,0,0,1,396.6,77l-.09.06ZM369.42,47.49l6.45,9.82,1.46,6.16a8.77,8.77,0,0,0,3.7,5.28l5.16,3,5.28,7.43,4.67-2.82a1.88,1.88,0,0,0,.92-1.2l4-11.91c.42-1.39-.73-3.79-2.24-4.66L375.26,45a1.47,1.47,0,0,0-1.3-.22Z"/><path class="cls-18" d="M388.45,79.44l-12.68-7.32a9.05,9.05,0,0,1-3.88-5.53L368,50.1c-.51-2.16.69-3.37,2.39-2.39L394,61.33c1.67,1,2.88,3.52,2.4,5.1l-4,11.9C391.84,80,390.25,80.48,388.45,79.44Z"/><path class="cls-5" d="M390.27,80.37a4.06,4.06,0,0,1-2-.6l-12.68-7.32a9.48,9.48,0,0,1-4.06-5.77l-3.9-16.49a2.7,2.7,0,0,1,.65-2.88,2,2,0,0,1,2.3.08L394.15,61c1.82,1.06,3.1,3.8,2.57,5.54l-4,11.91a2.59,2.59,0,0,1-1.5,1.75A2.45,2.45,0,0,1,390.27,80.37Zm-1.64-1.26a2.69,2.69,0,0,0,2.3.39A1.86,1.86,0,0,0,392,78.22l4-11.91c.43-1.41-.7-3.77-2.23-4.66L370.19,48a1.34,1.34,0,0,0-1.47-.13,2.07,2.07,0,0,0-.37,2.1l3.9,16.5A8.81,8.81,0,0,0,376,71.8Z"/><path class="cls-24" d="M382.64,110.71c-.73-1-1.74-1.4-2.28-.9a4.1,4.1,0,0,1-1.41.88c-.6.24-1.53-.36-2-1.29l-.41-.75c-.68-1.25-.68-2.56,0-3l.91-.64a5.62,5.62,0,0,0,2.06-4.83v-5l-3.34-1.93-2.43,1.58,1,6.35-.63.45c-1.34.93-1.69,3.08-1.07,5.5l-.62,1.35,3.52,5.69,4,1.69,1.84-1.26a5.84,5.84,0,0,0,1.27-.87C383.59,113.15,383.43,111.8,382.64,110.71Z"/><path class="cls-5" d="M379.94,116.25l-4.35-1.81-3.69-6,.65-1.42c-.63-2.59-.16-4.79,1.25-5.77l.45-.31-1-6.36,2.82-1.84,3.73,2.15v5.22c0,2.32-.78,4.14-2.21,5.14l-.91.64c-.44.3-.52,1.36.12,2.54l.41.75c.44.8,1.21,1.26,1.58,1.12a4.13,4.13,0,0,0,1.28-.8,1.19,1.19,0,0,1,1-.32,2.86,2.86,0,0,1,1.87,1.27h0c.91,1.26,1.05,2.79.31,3.48a6.12,6.12,0,0,1-1.36.94Zm-3.83-2.41,3.74,1.56s-.19-4.58-.76-4.36c-.77.31-1.91-.35-2.51-1.46l-.41-.75c-.79-1.45-.75-2.93.1-3.52l.91-.64a5.26,5.26,0,0,0,1.9-4.52V95.36l-2.95-1.7-2,1.33,1,6.34-.83.58c-1.17.81-1.52,2.76-.92,5.09l0,.13-.6,1.3Z"/><path class="cls-26" d="M376.53,112.28c-.6.23-1.53-.36-2-1.3l-.41-.74c-.68-1.25-.69-2.57,0-3l.91-.63a5.65,5.65,0,0,0,2-4.83v-5l-3.34-1.93v5a3.19,3.19,0,0,1-1.19,2.74l-.91.63c-1.83,1.28-1.82,4.86,0,8.25l.41.74a9.83,9.83,0,0,0,3.53,3.8,3.66,3.66,0,0,0,3.11.5,5.8,5.8,0,0,0,1.91-1.19c.58-.54.43-1.89-.36-3h0c-.74-1-1.74-1.41-2.28-.9A4.47,4.47,0,0,1,376.53,112.28Z"/><path class="cls-5" d="M377.75,117a4.84,4.84,0,0,1-2.38-.73,10.25,10.25,0,0,1-3.67-3.94l-.41-.74c-2-3.58-1.92-7.34.09-8.73l.91-.64a2.85,2.85,0,0,0,1-2.43V94.15l4.09,2.36v5.23a6,6,0,0,1-2.22,5.14l-.91.63c-.44.31-.51,1.37.13,2.55l.41.74c.44.81,1.21,1.27,1.57,1.13h0a3.92,3.92,0,0,0,1.29-.81,1.22,1.22,0,0,1,1-.31,2.82,2.82,0,0,1,1.86,1.26c.92,1.27,1.06,2.8.32,3.49a6.36,6.36,0,0,1-2,1.26A2.86,2.86,0,0,1,377.75,117Zm-3.68-21.56v4.35a3.56,3.56,0,0,1-1.35,3l-.91.63c-1.66,1.16-1.6,4.57.14,7.75l.41.75a9.47,9.47,0,0,0,3.39,3.65,3.3,3.3,0,0,0,2.79.48,5.46,5.46,0,0,0,1.78-1.11c.4-.37.31-1.51-.41-2.49a2.14,2.14,0,0,0-1.32-1,.46.46,0,0,0-.4.12,4.59,4.59,0,0,1-1.52.95h0c-.78.31-1.91-.35-2.52-1.47l-.4-.74c-.79-1.45-.75-2.93.1-3.53l.91-.63a5.28,5.28,0,0,0,1.9-4.52V97Z"/><path class="cls-27" d="M376.44,112.28c-.6.23-1.53-.36-2-1.3l-.41-.74c-.68-1.25-.69-2.57,0-3l.91-.63a5.66,5.66,0,0,0,2.06-4.83v-5l-3.34-1.93v5a3.19,3.19,0,0,1-1.2,2.74l-.91.63c-1.83,1.28-1.82,4.86,0,8.25l.41.74a9.83,9.83,0,0,0,3.53,3.8,3.68,3.68,0,0,0,3.12.5,5.86,5.86,0,0,0,1.9-1.19c.59-.54.43-1.89-.36-3h0c-.74-1-1.74-1.41-2.28-.9A4.47,4.47,0,0,1,376.44,112.28Z"/><path class="cls-5" d="M377.66,117a4.84,4.84,0,0,1-2.38-.73,10.25,10.25,0,0,1-3.67-3.94l-.41-.74c-1.95-3.58-1.92-7.34.09-8.73l.91-.64a2.85,2.85,0,0,0,1-2.43V94.15l4.09,2.36v5.23a6,6,0,0,1-2.22,5.14l-.9.63c-.44.31-.52,1.37.12,2.55l.41.74c.44.81,1.21,1.27,1.57,1.13h0a4,4,0,0,0,1.28-.81,1.23,1.23,0,0,1,1-.31,2.86,2.86,0,0,1,1.87,1.26c.91,1.27,1.05,2.8.31,3.49a6.36,6.36,0,0,1-2,1.26A2.82,2.82,0,0,1,377.66,117ZM374,95.46v4.35a3.56,3.56,0,0,1-1.35,3l-.91.63c-1.66,1.16-1.6,4.57.14,7.75l.41.75a9.54,9.54,0,0,0,3.39,3.65,3.3,3.3,0,0,0,2.79.48,5.46,5.46,0,0,0,1.78-1.11c.4-.37.31-1.51-.4-2.49a2.16,2.16,0,0,0-1.33-1,.46.46,0,0,0-.4.12,4.59,4.59,0,0,1-1.52.95h0c-.78.31-1.91-.35-2.51-1.47l-.41-.74c-.79-1.45-.75-2.93.1-3.53l.91-.63a5.26,5.26,0,0,0,1.9-4.52V97Z"/><path class="cls-24" d="M375.25,70.85l-8.73,5,8.58,22,8.27-4.73c1.26-.57,2-2.06,2-4.09V76.68Z"/><path class="cls-23" d="M373.85,68.48l-8.74,5,8.59,22L382,90.73c1.26-.57,2-2.06,2-4.09V74.31Z"/><path class="cls-5" d="M374.9,98.37l-8.85-22.7,9.2-5.26,10.48,6V89c0,2.18-.81,3.8-2.2,4.43ZM367,76l8.31,21.27,7.89-4.51c1.15-.52,1.79-1.89,1.79-3.76V76.89l-9.72-5.61Z"/><path class="cls-18" d="M372.18,97.87l-.67-.39C369,96,367,92.17,367,88.84V76.73l9.72,5.61V94.45C376.7,97.78,374.68,99.31,372.18,97.87Z"/><path class="cls-5" d="M374,98.79a4,4,0,0,1-2-.59l-.67-.39c-2.6-1.5-4.71-5.52-4.71-9V76.07l10.47,6.05V94.45c0,1.89-.64,3.34-1.75,4A2.74,2.74,0,0,1,374,98.79Zm-6.62-21.41V88.84c0,3.21,1.95,6.94,4.33,8.31l.68.39a2.53,2.53,0,0,0,2.58.24c.87-.5,1.37-1.72,1.37-3.33V82.56Z"/><rect class="cls-5" x="365.48" width="1.01" height="56.54"/><path class="cls-18" d="M376.79,50.68c-3.11-1.79-5.92-2-8-.93h0a11.07,11.07,0,0,0-1,.68L365.41,52l.69.6a11,11,0,0,0-1,4.84c0,7.44,5.23,16.49,11.68,20.22s11.68.7,11.68-6.74S383.24,54.41,376.79,50.68Z"/><path class="cls-25" d="M371,74.1l15.55-9.23c-1.94-5.48-5.86-10.73-10.39-13.35-3.11-1.8-5.92-2-8-.93h0a11.89,11.89,0,0,0-1,.69l-2.32,1.55.69.6a11,11,0,0,0-1,4.84C364.43,63.56,367.09,69.67,371,74.1Z"/><path class="cls-5" d="M382,79.62A11,11,0,0,1,376.6,78c-6.54-3.77-11.86-13-11.86-20.54a11.55,11.55,0,0,1,.9-4.74l-.85-.74,2.73-1.83c.29-.24,1-.68,1.05-.7l.17-.1h0c2.28-1.08,5.18-.72,8.21,1,6.54,3.77,11.86,13,11.86,20.55,0,3.74-1.28,6.54-3.61,7.88A6.31,6.31,0,0,1,382,79.62ZM366,52l.53.46-.12.26a10.61,10.61,0,0,0-.95,4.68c0,7.31,5.15,16.23,11.49,19.89,3,1.73,5.79,2,7.88.82s3.23-3.77,3.23-7.23c0-7.32-5.16-16.24-11.49-19.9-2.87-1.66-5.59-2-7.65-.92l-.15.08a8.33,8.33,0,0,0-.82.55Z"/><ellipse class="cls-24" cx="373.75" cy="66.24" rx="9.53" ry="16.51" transform="translate(16.96 195.75) rotate(-30)"/><path class="cls-5" d="M379,81.69A11,11,0,0,1,373.56,80c-6.54-3.77-11.86-13-11.86-20.55,0-3.74,1.28-6.54,3.61-7.88s5.39-1,8.63.82c6.54,3.77,11.87,13,11.87,20.55,0,3.74-1.29,6.54-3.61,7.88A6.34,6.34,0,0,1,379,81.69ZM368.54,51.53a5.57,5.57,0,0,0-2.85.73c-2.09,1.21-3.24,3.77-3.24,7.23,0,7.32,5.16,16.24,11.49,19.9,3,1.73,5.8,2,7.88.82s3.23-3.77,3.23-7.23c0-7.32-5.15-16.24-11.49-19.9A10.22,10.22,0,0,0,368.54,51.53Z"/><path class="cls-5" d="M378.21,79.45a9.31,9.31,0,0,1-4.58-1.4c-5.57-3.22-10.11-11.07-10.11-17.5,0-3.17,1.09-5.55,3.05-6.68s4.56-.89,7.31.7c5.57,3.22,10.1,11.07,10.1,17.5,0,3.17-1.08,5.54-3.05,6.68A5.35,5.35,0,0,1,378.21,79.45ZM369.3,53.67a4.85,4.85,0,0,0-2.48.64c-1.8,1-2.79,3.25-2.79,6.24,0,6.27,4.42,13.93,9.85,17.06,2.58,1.5,5,1.74,6.8.7s2.8-3.25,2.8-6.24c0-6.27-4.42-13.93-9.85-17.07A8.9,8.9,0,0,0,369.3,53.67Z"/><path class="cls-5" d="M376.2,73.7a5.43,5.43,0,0,1-2.64-.8,12.59,12.59,0,0,1-5.67-9.83,3.71,3.71,0,0,1,6.05-3.5,12.58,12.58,0,0,1,5.68,9.83,4.2,4.2,0,0,1-1.8,3.88A3.18,3.18,0,0,1,376.2,73.7Zm-4.9-14.17a2.48,2.48,0,0,0-1.24.31,3.53,3.53,0,0,0-1.42,3.23,11.72,11.72,0,0,0,5.3,9.17,3,3,0,0,0,4.92-2.84,11.69,11.69,0,0,0-5.3-9.17A4.53,4.53,0,0,0,371.3,59.53Z"/><path class="cls-27" d="M378,69.38c0,2.73-1.92,3.84-4.29,2.48a9.49,9.49,0,0,1-4.28-7.42c0-2.73,1.92-3.84,4.28-2.47A9.44,9.44,0,0,1,378,69.38Z"/><path class="cls-5" d="M375.67,72a4.16,4.16,0,0,1-2-.62,9.76,9.76,0,0,1-4.41-7.64,2.85,2.85,0,0,1,4.66-2.69,9.78,9.78,0,0,1,4.41,7.64,3.25,3.25,0,0,1-1.38,3A2.49,2.49,0,0,1,375.67,72ZM371.84,61a1.94,1.94,0,0,0-1,.25,2.77,2.77,0,0,0-1.13,2.55,9.2,9.2,0,0,0,4.16,7.2,2.36,2.36,0,0,0,3.9-2.25,9.19,9.19,0,0,0-4.15-7.2A3.64,3.64,0,0,0,371.84,61Z"/><path class="cls-5" d="M382.38,80.75l-.27-.87,2.43-1.71c1.81-1.28,2-6,2-7.66V0h1V70.49c0,.25.24,6.65-2.39,8.5Z"/><path class="cls-18" d="M381.31,69.15,357.73,55.54a1.84,1.84,0,0,0-1.65-.24h0l-4.91,2.93,6.61,10,1.46,6.16a9.1,9.1,0,0,0,3.88,5.52l5,2.91,5.49,7.72,5-3h0a2.28,2.28,0,0,0,1.1-1.43l4-11.9C384.19,72.67,383,70.12,381.31,69.15Z"/><path class="cls-25" d="M381.39,71.36,357.81,57.75a1.84,1.84,0,0,0-1.65-.24h0l-4.91,2.93,6.61,10,1.46,6.16a9.06,9.06,0,0,0,3.88,5.52l5,2.91,4.31,2.36,1.29-.94A36.36,36.36,0,0,0,382,78.2l1.24-1.75A4.82,4.82,0,0,0,381.39,71.36Z"/><path class="cls-5" d="M373.54,91.07l-5.64-7.93-5-2.87a9.48,9.48,0,0,1-4.06-5.77l-1.44-6.09-6.79-10.3,5.43-3.24,0,0a2.32,2.32,0,0,1,1.81.32L381.5,68.82c1.83,1.06,3.1,3.8,2.58,5.54l-4,11.91a2.62,2.62,0,0,1-1.18,1.58l-.09.06ZM351.7,58.35l6.45,9.83,1.46,6.15a8.79,8.79,0,0,0,3.7,5.29l5.16,3,5.28,7.43,4.68-2.82a1.9,1.9,0,0,0,.91-1.2l4-11.91c.42-1.38-.73-3.78-2.24-4.65L357.54,55.86a1.51,1.51,0,0,0-1.3-.22Z"/><path class="cls-18" d="M370.73,90.3,358.05,83a9.06,9.06,0,0,1-3.88-5.52L350.27,61c-.51-2.16.69-3.36,2.39-2.38l23.58,13.61c1.67,1,2.88,3.53,2.4,5.11l-4,11.89C374.12,90.89,372.53,91.35,370.73,90.3Z"/><path class="cls-5" d="M372.55,91.24a4.08,4.08,0,0,1-2-.61l-12.68-7.32a9.48,9.48,0,0,1-4.06-5.77l-3.9-16.49a2.71,2.71,0,0,1,.65-2.88,2,2,0,0,1,2.3.08l23.58,13.61c1.82,1.06,3.1,3.8,2.57,5.54l-4,11.91a2.57,2.57,0,0,1-1.5,1.75A2.46,2.46,0,0,1,372.55,91.24ZM370.91,90a2.72,2.72,0,0,0,2.3.38,1.86,1.86,0,0,0,1.06-1.28l4-11.9c.42-1.39-.72-3.79-2.23-4.66L352.47,58.9c-.6-.34-1.12-.39-1.47-.12a2.06,2.06,0,0,0-.37,2.1l3.9,16.49a8.81,8.81,0,0,0,3.71,5.29Z"/><path class="cls-26" d="M356.53,79.7l2.3-2.31Z"/><path class="cls-26" d="M370.08,87.52l2.29-2.31Z"/><path class="cls-5" d="M358,76.08a1.56,1.56,0,0,0-2.52,1.45,4.68,4.68,0,0,0,2.14,3.71,2.16,2.16,0,0,0,1.06.31,1.4,1.4,0,0,0,.7-.18,1.73,1.73,0,0,0,.76-1.59A4.66,4.66,0,0,0,358,76.08Zm-1.38.51a.66.66,0,0,1,.32-.07,1.43,1.43,0,0,1,.68.21,3,3,0,0,1,.75.64l-1.7,1.71a3.43,3.43,0,0,1-.43-1.55A1.06,1.06,0,0,1,356.57,76.59ZM359,80.72a1,1,0,0,1-1-.14,3.06,3.06,0,0,1-.92-.85L358.77,78a3.74,3.74,0,0,1,.56,1.8A1,1,0,0,1,359,80.72Z"/><path class="cls-5" d="M371.5,83.9A1.56,1.56,0,0,0,369,85.35a4.68,4.68,0,0,0,2.14,3.71,2.18,2.18,0,0,0,1.06.32,1.32,1.32,0,0,0,.7-.19,1.72,1.72,0,0,0,.76-1.59A4.66,4.66,0,0,0,371.5,83.9Zm-1.38.52a.57.57,0,0,1,.32-.08,1.43,1.43,0,0,1,.68.21,3,3,0,0,1,.74.64l-1.69,1.71a3.43,3.43,0,0,1-.43-1.55A1,1,0,0,1,370.12,84.42Zm2.38,4.12a1,1,0,0,1-1-.14,3.16,3.16,0,0,1-.92-.84l1.74-1.75a3.67,3.67,0,0,1,.56,1.79A1,1,0,0,1,372.5,88.54Z"/><path class="cls-6" d="M334.05,158.37h0a4.32,4.32,0,0,1-.28-6.1l5-5.48a4.32,4.32,0,0,1,6.1-.28h0Z"/><path class="cls-7" d="M333.94,159.87h0a4.31,4.31,0,0,1-.28-6.1l5-5.48a4.32,4.32,0,0,1,6.11-.28h0Z"/><path class="cls-5" d="M334.08,159.08l-.37-.34a4.83,4.83,0,0,1-.31-6.81l5-5.48a4.82,4.82,0,0,1,6.81-.31l.37.34Zm7.89-13.2a3.78,3.78,0,0,0-2.82,1.25l-5,5.48a3.83,3.83,0,0,0-.1,5l10.11-11.07A3.81,3.81,0,0,0,342,145.88Z"/><path class="cls-14" d="M333.61,158.91h0a4.31,4.31,0,0,1-.28-6.1l2.56-2.77a4.32,4.32,0,0,1,6.1-.28h0Z"/><path class="cls-5" d="M333.64,159.62l-.37-.34a4.81,4.81,0,0,1-.31-6.81l2.56-2.77a4.83,4.83,0,0,1,6.81-.31l.37.34Zm5.44-10.48a3.77,3.77,0,0,0-2.82,1.24l-2.56,2.77a3.81,3.81,0,0,0-.1,5l7.66-8.36A3.79,3.79,0,0,0,339.08,149.14Z"/><path class="cls-6" d="M399.82,167.82l-35.89-42.3L333.32,159.2l0,0c-2.09,2.16-3,5.68-2.15,10.17,1.77,9.7,10.72,20.25,20,23.57,4.85,1.74,8.82,1.15,11.27-1.19Z"/><path class="cls-14" d="M363.68,125.39,362.2,127l27,31.8-37.37,24c-2.44,2.33-6.42,2.92-11.27,1.19a24,24,0,0,1-3.12-1.41c3.72,4.66,8.57,8.5,13.52,10.28s8.83,1.14,11.27-1.19l37.36-24Z"/><path class="cls-5" d="M356.46,194.47a16.21,16.21,0,0,1-5.44-1c-9.42-3.36-18.53-14.11-20.32-23.95-.78-4.29-.08-7.92,2-10.29l.25-.34,31-34.11,36.64,43.18-37.85,24.28A8.85,8.85,0,0,1,356.46,194.47ZM334,159.21h0l-.3.36c-2.05,2.12-2.77,5.57-2,9.73,1.73,9.52,10.55,19.93,19.67,23.19,4.51,1.61,8.33,1.23,10.75-1.08l37-23.71-35.15-41.43Z"/><ellipse class="cls-6" cx="383.05" cy="145.67" rx="16.09" ry="27.87" transform="translate(-3.28 282.4) rotate(-40.31)"/><ellipse class="cls-28" cx="382.2" cy="148.16" rx="16.09" ry="27.87" transform="translate(-5.09 282.45) rotate(-40.31)"/><path class="cls-5" d="M393.87,169.85a20.71,20.71,0,0,1-6.92-1.32c-12-4.28-23.54-17.93-25.82-30.43-1.12-6.17.15-11.16,3.57-14.06s8.55-3.34,14.45-1.23c12,4.28,23.54,17.94,25.82,30.44h0c1.12,6.16-.15,11.15-3.57,14.05A11.35,11.35,0,0,1,393.87,169.85ZM372.24,122.5a10.34,10.34,0,0,0-6.89,2.31c-3.14,2.65-4.28,7.31-3.23,13.11,2.22,12.18,13.51,25.49,25.17,29.66,5.55,2,10.33,1.62,13.46-1s4.28-7.32,3.23-13.11c-2.22-12.19-13.51-25.5-25.17-29.67A19.73,19.73,0,0,0,372.24,122.5Z"/><ellipse class="cls-6" cx="383.05" cy="145.67" rx="12.04" ry="22.33" transform="translate(-3.28 282.41) rotate(-40.31)"/><path class="cls-14" d="M400.06,152.25a29.5,29.5,0,0,0-3.35-8.39c-2.27,2.54-6.3,3.15-11.37,1.17A33.47,33.47,0,0,1,373,135.91a3.69,3.69,0,0,0-6.38,3.14l0,.13c2,9.65,11.12,20.38,20.31,24S402.08,161.77,400.06,152.25Z"/><path class="cls-5" d="M392.38,164.91a16.14,16.14,0,0,1-5.79-1.22c-9.35-3.66-18.66-14.62-20.74-24.45-1-4.87-.17-8.77,2.43-11s6.59-2.42,11.23-.61c9.35,3.66,18.66,14.63,20.74,24.45h0c1,4.88.17,8.78-2.43,11A8.17,8.17,0,0,1,392.38,164.91Zm-18.66-37.47a7.21,7.21,0,0,0-4.79,1.59c-2.31,1.95-3.05,5.51-2.1,10,2,9.53,11.05,20.16,20.12,23.71,4.29,1.68,7.92,1.52,10.22-.44s3.05-5.51,2.1-10c-2-9.53-11-20.17-20.12-23.72A15.1,15.1,0,0,0,373.72,127.44Z"/><path class="cls-16" d="M393.88,157.19c-2.05-9.7-11.2-20.48-20.43-24.08a13.91,13.91,0,0,0-7-1.06,13.94,13.94,0,0,0-.1,7.09c2.06,9.69,11.2,20.47,20.43,24.08a13.94,13.94,0,0,0,7,1.06A13.84,13.84,0,0,0,393.88,157.19Z"/><path class="cls-5" d="M392.31,164.89a15.78,15.78,0,0,1-5.72-1.2c-9.35-3.66-18.66-14.62-20.74-24.45a14.46,14.46,0,0,1,.11-7.35l.1-.3.31,0a14.34,14.34,0,0,1,7.27,1.09c9.35,3.65,18.65,14.62,20.74,24.44h0a14.46,14.46,0,0,1-.11,7.35l-.1.3-.31.05A11.2,11.2,0,0,1,392.31,164.89ZM366.83,132.5a13.84,13.84,0,0,0,0,6.54c2,9.53,11.05,20.16,20.12,23.71a13.56,13.56,0,0,0,6.45,1.07,13.68,13.68,0,0,0,0-6.53h0c-2-9.53-11.05-20.17-20.12-23.71A13.67,13.67,0,0,0,366.83,132.5Z"/><rect class="cls-5" x="338.27" width="1.01" height="146.79"/><path class="cls-23" d="M361.94,136.35h0l.15,1.67s-2,6.34-1.84,7.51l.19,1.17,2.46,11.19a.61.61,0,0,0,.9.4l3.9-2.16.57-.33a3.23,3.23,0,0,0,1.23-2.9V138Z"/><path class="cls-5" d="M363.5,158.88a1.23,1.23,0,0,1-.46-.1,1.08,1.08,0,0,1-.63-.78L360,146.81l-.2-1.2c-.2-1.2,1.42-6.37,1.83-7.65l-.2-2.25,8.14,1.8a.63.63,0,0,1,.49.61V152.9a3.69,3.69,0,0,1-1.48,3.33l-.57.33L364,158.73A1.08,1.08,0,0,1,363.5,158.88Zm-1-21.89.1,1.09,0,.1c-.83,2.58-1.95,6.54-1.83,7.27l.19,1.17,2.46,11.16.41.51-.25-.44,4.46-2.49a2.75,2.75,0,0,0,1-2.46V138.43Z"/><path class="cls-24" d="M360.93,158.47l-.55-.31c-2-1.16-3.63-4.26-3.63-6.94V136.35l7.81,4.5v14.88C364.56,158.4,362.93,159.63,360.93,158.47Z"/><polygon class="cls-18" points="356.75 136.35 361.7 133.52 369.5 138.02 364.56 140.85 356.75 136.35"/><polygon class="cls-25" points="356.75 137.9 361.7 135.06 367.65 138.5 364.56 140.98 364.56 142.4 356.75 137.9"/><path class="cls-5" d="M370,137.73l-8.31-4.79-5.45,3.12v15.16c0,2.88,1.71,6.12,3.88,7.38l.54.31a3.48,3.48,0,0,0,1.7.5,2.31,2.31,0,0,0,1.18-.31,3.7,3.7,0,0,0,1.51-3.37V141.14l4.95-2.83Zm-8.31-3.63,6.79,3.92-3.93,2.25-6.8-3.92Zm2.35,21.63a2.77,2.77,0,0,1-1,2.5,1.88,1.88,0,0,1-1.87-.19l-.54-.31c-1.87-1.08-3.38-4-3.38-6.51v-14l6.79,3.92Z"/><path class="cls-5" d="M361,151.72a1.5,1.5,0,0,0-1.53-.12,1.52,1.52,0,0,0-.66,1.38,4.08,4.08,0,0,0,1.86,3.23,1.92,1.92,0,0,0,.93.27,1.15,1.15,0,0,0,.6-.16,1.48,1.48,0,0,0,.66-1.38A4.06,4.06,0,0,0,361,151.72Zm-1.2.45a.51.51,0,0,1,.28-.07,1.16,1.16,0,0,1,.59.19,2.54,2.54,0,0,1,.65.55l-1.48,1.49a3,3,0,0,1-.37-1.35A.9.9,0,0,1,359.8,152.17Zm2.07,3.59a.93.93,0,0,1-.87-.12,2.92,2.92,0,0,1-.8-.74l1.51-1.52a3.15,3.15,0,0,1,.5,1.56A.92.92,0,0,1,361.87,155.76Z"/><path class="cls-18" d="M362.86,137.78h0a1.52,1.52,0,0,1-1.51-1.51V124.56a12.81,12.81,0,0,1,5.87-10.16l18.16-10.69a4.6,4.6,0,0,1,7.39,4.25v11.71a1.52,1.52,0,0,1-1.51,1.51h0a1.51,1.51,0,0,1-1.51-1.51V108a1.67,1.67,0,0,0-2.85-1.64L368.74,117a9.81,9.81,0,0,0-4.37,7.55v11.71A1.51,1.51,0,0,1,362.86,137.78Z"/><path class="cls-23" d="M389,105.83a5.07,5.07,0,0,0-5.13.36L365.7,116.88a11.12,11.12,0,0,0-3.11,2.81,11.48,11.48,0,0,0-1.19,4.8V136.2a1.51,1.51,0,0,0,1.45,1.5V127a9.73,9.73,0,0,1,2.3-5.71,9.56,9.56,0,0,1,3.64-4.39L387,106.25a2.25,2.25,0,0,1,2.1-.36,2.28,2.28,0,0,1,.75,2V119.6a1.5,1.5,0,0,0,1.45,1.5V110.45A5.1,5.1,0,0,0,389,105.83Z"/><path class="cls-5" d="M362.86,138.28a2,2,0,0,1-2-2V124.56A13.33,13.33,0,0,1,367,114l18.15-10.69a5.09,5.09,0,0,1,8.15,4.68v11.71a2,2,0,0,1-4,0V108c0-.88-.24-1.42-.49-1.56s-.83-.09-1.6.36L369,117.44a9.23,9.23,0,0,0-4.12,7.12v11.71A2,2,0,0,1,362.86,138.28Zm25.58-35a5.63,5.63,0,0,0-2.81.84l-18.15,10.69a12.22,12.22,0,0,0-5.62,9.72v11.71a1,1,0,0,0,2,0V124.56a10.23,10.23,0,0,1,4.62-8l18.15-10.68a2.15,2.15,0,0,1,3.61,2.07v11.71a1,1,0,0,0,2,0V108a4.61,4.61,0,0,0-2-4.18A3.63,3.63,0,0,0,388.44,103.31Z"/><path class="cls-17" d="M400.9,216.83l-.45-.23a4.93,4.93,0,0,1-2.82-3.76c-1.33-10-2.19-42,1.44-51.13,4.32-10.83-29.49-15.4-29.49-15.4v1.05A46.43,46.43,0,0,0,383,161.72c.6.41,1.23.75,1.86,1.1,2.08,1.14,6.48,8.19,6.93,50.46a3.93,3.93,0,0,1-2.07,3.48l-.13.07a5,5,0,0,0-1.92,1.68c.67,1.07,2.11,2,4.41,2.59a13.2,13.2,0,0,0,6.37,0c2.3-.57,3.73-1.53,4.4-2.59A4.9,4.9,0,0,0,400.9,216.83Z"/><path class="cls-18" d="M395.72,217.51c-1.34-10-2.2-42,1.43-51.12,3.29-8.24-15.5-12.86-24.67-14.59a47.14,47.14,0,0,0,10.49,10,20.2,20.2,0,0,0,1.86,1.1c2.07,1.14,6.47,8.19,6.92,50.46a3.93,3.93,0,0,1-1.92,3.39c0,.4,0,.77,0,1.17a3.91,3.91,0,0,1-.62,2.15,10.05,10.05,0,0,0,2.83,1.11,13.16,13.16,0,0,0,6.36,0h0A4.91,4.91,0,0,1,395.72,217.51Z"/><path class="cls-5" d="M395.23,222a13.61,13.61,0,0,1-3.3-.4c-2.28-.56-3.92-1.54-4.72-2.82l-.16-.26.16-.27a5.45,5.45,0,0,1,2.11-1.85l.13-.07a3.38,3.38,0,0,0,1.8-3c-.44-42.08-4.8-49-6.66-50l-.17-.09c-.57-.32-1.17-.65-1.73-1a46.83,46.83,0,0,1-13.55-14.52l-.06-.12v-1.76l.57.08c1,.14,25,3.46,29.53,11.3a5.24,5.24,0,0,1,.35,4.79c-3.54,8.88-2.81,40.28-1.4,50.87a4.46,4.46,0,0,0,2.54,3.38,5.21,5.21,0,0,1,.47.24h0a5.54,5.54,0,0,1,2.11,1.85l.17.27-.17.26c-.8,1.28-2.43,2.26-4.71,2.82A13.69,13.69,0,0,1,395.23,222Zm-7-3.48a7.13,7.13,0,0,0,3.91,2.11,12.84,12.84,0,0,0,6.13,0,7.16,7.16,0,0,0,3.91-2.1,4.86,4.86,0,0,0-1.55-1.24l-.42-.21a5.41,5.41,0,0,1-3.1-4.16c-1.43-10.66-2.14-42.35,1.46-51.37a4.23,4.23,0,0,0-.29-3.91c-4-6.78-24.52-10.17-28.23-10.73v.33a45.65,45.65,0,0,0,13.18,14.08,16.69,16.69,0,0,0,1.65,1l.17.1c3.05,1.68,6.77,11.87,7.18,50.89a4.42,4.42,0,0,1-2.33,3.94l-.13.06A4.71,4.71,0,0,0,388.26,218.51Z"/><path class="cls-5" d="M378.65,74.62a5.8,5.8,0,0,0-2.26-2.76L352.8,58.25a2,2,0,0,0-2.3-.08,2.72,2.72,0,0,0-.64,2.88l3.9,16.49a9.45,9.45,0,0,0,4.06,5.77l12.68,7.32a4.08,4.08,0,0,0,2,.61,2.46,2.46,0,0,0,.94-.18,2.41,2.41,0,0,0,1.27-1.19L379,77.53A4.14,4.14,0,0,0,378.65,74.62Zm-9.51-6.07,3.22,1.86-4.14,4.69L365,73.24Zm-8.87-5.12,3.21,1.85L359.34,70l-3.21-1.85Zm-9.68-2.55a2.06,2.06,0,0,1,.36-2.1,1.34,1.34,0,0,1,1.48.12l2.18,1.26L351.32,64Zm23.64,28.2a1.86,1.86,0,0,1-1.06,1.28,2.72,2.72,0,0,1-2.3-.38L358.2,82.66a8.81,8.81,0,0,1-3.71-5.29l-2.55-10.8L377,81Zm4-11.9-1,3.1-3.31-1.91,3.7-4.2A4,4,0,0,1,378.24,77.18Z"/><path class="cls-5" d="M397,60.08a2.1,2.1,0,0,1-1.92,0,.59.59,0,0,1,0-1.11A2.16,2.16,0,0,1,397,59,.59.59,0,0,1,397,60.08Z"/><path class="cls-5" d="M375.49,47.92a2.1,2.1,0,0,1-1.92,0,.59.59,0,0,1,0-1.11,2.16,2.16,0,0,1,1.92,0A.59.59,0,0,1,375.49,47.92Z"/><path class="cls-5" d="M357.49,58.79a2.16,2.16,0,0,1-1.92,0,.59.59,0,0,1,0-1.11,2.1,2.1,0,0,1,1.92,0A.59.59,0,0,1,357.49,58.79Z"/><path class="cls-5" d="M378.8,71a2.16,2.16,0,0,1-1.92,0,.59.59,0,0,1,0-1.11,2.1,2.1,0,0,1,1.92,0A.59.59,0,0,1,378.8,71Z"/><path class="cls-10" d="M429.48,223.53l-53.36,30.81c-1.29.74-2.33,0-2.33-1.76V213.82a5.56,5.56,0,0,1,2.33-4.45l53.36-30.81c1.29-.74,2.33.05,2.33,1.76v38.77A5.55,5.55,0,0,1,429.48,223.53Z"/><path class="cls-5" d="M375.19,255.13a1.66,1.66,0,0,1-.84-.23,2.53,2.53,0,0,1-1.06-2.32V213.82a6,6,0,0,1,2.58-4.88l53.36-30.81a2,2,0,0,1,2-.13,2.56,2.56,0,0,1,1.05,2.32v38.77a6.06,6.06,0,0,1-2.57,4.88l-53.37,30.81A2.38,2.38,0,0,1,375.19,255.13Zm55.22-76.35a1.37,1.37,0,0,0-.67.22l-53.37,30.81a5.11,5.11,0,0,0-2.07,4v38.76a1.63,1.63,0,0,0,.55,1.45,1.06,1.06,0,0,0,1-.12l53.36-30.81a5.1,5.1,0,0,0,2.08-4V180.32a1.64,1.64,0,0,0-.55-1.44A.67.67,0,0,0,430.41,178.78Z"/><path class="cls-10" d="M434.65,172l-5.19-3-.14-.08h0a2.81,2.81,0,0,0-2.69.28l-58,33.48c-2.37,1.37-4.28,5-4.28,8.19v43.87a3.87,3.87,0,0,0,1.39,3.4h0a1.34,1.34,0,0,0,.23.13l5.05,2.9.77-2.26.48.71,58.63-35.06,3.49-8.16Zm-63.58,42.58,1.83-5.44,53.75-30.32v37.44a5.55,5.55,0,0,1-2.33,4.44l-52.21,30.15Z"/><path class="cls-5" d="M371.31,261.92l-5.57-3.2-.25-.14a4.34,4.34,0,0,1-1.63-3.83V210.88c0-3.31,2-7.18,4.54-8.62l58-33.48a3.3,3.3,0,0,1,3.17-.3l.14.08,5.47,3.13-.29,44.92-3.55,8.31-59.18,35.39L372,260Zm57-92.72a2.89,2.89,0,0,0-1.44.45l-58,33.48c-2.22,1.28-4,4.76-4,7.75v43.87a3.44,3.44,0,0,0,1.16,3l.18.1,4.55,2.61.91-2.64.77,1.16,58.08-34.74,3.38-7.91.25-44-4.94-2.83-.11-.06A1.68,1.68,0,0,0,428.33,169.2Zm-56.68,82.48-1.09-37.19,1.93-5.71,54.67-30.84v38.3a6.07,6.07,0,0,1-2.58,4.88Zm-.07-37.05,1,35.35,51.5-29.73a5.1,5.1,0,0,0,2.08-4V179.66l-52.83,29.81Z"/><path class="cls-29" d="M431.79,172.17l-58,33.48c-2.37,1.36-4.29,5-4.29,8.18V257.7c0,3.16,1.92,4.61,4.29,3.24l58-33.48c2.37-1.36,4.29-5,4.29-8.18V175.41C436.08,172.25,434.16,170.8,431.79,172.17Zm0,47a5.59,5.59,0,0,1-2.33,4.45l-53.36,30.81c-1.29.74-2.33,0-2.33-1.76V213.92a5.59,5.59,0,0,1,2.33-4.45l53.36-30.81c1.29-.74,2.33.05,2.33,1.76Z"/><path class="cls-5" d="M372.11,262a2.69,2.69,0,0,1-1.36-.36c-1.1-.63-1.73-2.06-1.73-3.9V213.83c0-3.31,2-7.18,4.54-8.62l58-33.48a3.22,3.22,0,0,1,3.31-.22c1.1.63,1.73,2.05,1.73,3.9v43.87c0,3.31-2,7.18-4.53,8.62l-58,33.48A4,4,0,0,1,372.11,262Zm59.94-89.36-58,33.48c-2.22,1.29-4,4.76-4,7.75V257.7c0,1.48.45,2.58,1.23,3a2.27,2.27,0,0,0,2.3-.22l58-33.48c2.23-1.29,4-4.76,4-7.75V175.41c0-1.48-.45-2.58-1.23-3a2.25,2.25,0,0,0-2.3.22Zm-56.86,82.63a1.72,1.72,0,0,1-.85-.23,2.53,2.53,0,0,1-1-2.31V213.92a6,6,0,0,1,2.58-4.88l53.36-30.81a2,2,0,0,1,2-.12,2.53,2.53,0,0,1,1.05,2.31v38.77a6,6,0,0,1-2.57,4.88l-53.37,30.81A2.38,2.38,0,0,1,375.19,255.23Zm55.22-76.34a1.36,1.36,0,0,0-.67.21l-53.37,30.81a5.12,5.12,0,0,0-2.07,4v38.77a1.62,1.62,0,0,0,.55,1.44,1,1,0,0,0,1-.12l53.36-30.81a5.1,5.1,0,0,0,2.08-4V180.42a1.65,1.65,0,0,0-.55-1.44A.65.65,0,0,0,430.41,178.89Z"/><rect class="cls-5" x="367.15" y="205.56" width="1.01" height="5.61" transform="matrix(0.5, -0.86, 0.86, 0.5, 2.8, 421.6)"/><rect class="cls-5" x="428" y="217.55" width="1.01" height="5.61" transform="translate(22.71 480.18) rotate(-59.84)"/><rect class="cls-5" x="427.5" y="168.62" width="1.01" height="5.61" transform="matrix(0.5, -0.86, 0.86, 0.5, 64.77, 455.39)"/><rect class="cls-5" x="366.29" y="252.32" width="1.01" height="5.61" transform="translate(-38.07 444.11) rotate(-59.84)"/></g></g></svg>