<svg id="content" xmlns="http://www.w3.org/2000/svg" viewBox="0 0 516.42 324.62"><defs><style>.cls-1{fill:#ddd;}.cls-2{fill:#ededed;}.cls-3{fill:#3f4040;}.cls-4{fill:#82cff1;}.cls-5{fill:#ececec;}.cls-6{fill:#a1a1a1;}.cls-7{fill:#82cef0;}.cls-8{fill:#f1b831;}.cls-9{fill:#dedede;}.cls-10{fill:#249ac5;}.cls-11{fill:#fdbc38;}.cls-12{fill:#a2a2a2;}.cls-13{fill:#414242;}.cls-14{fill:#3e3f3f;}.cls-15{fill:#f5e4cc;}.cls-16{fill:#dcdcdc;}.cls-17{fill:#82d0f2;}.cls-18{fill:#a3a3a3;}.cls-19{fill:#dfdfdf;}.cls-20{fill:#f7e6cc;}.cls-21{fill:#f2b92c;}.cls-22{fill:#f6e5cc;}.cls-23{fill:#219dc8;}.cls-24{fill:#ffbe2e;}.cls-25{fill:#f8e7cc;}.cls-26{fill:#3c3d3d;}.cls-27{fill:#ccc;}.cls-28{fill:#febd33;}.cls-29{fill:#3d3e3e;}.cls-30{fill:#eee;}</style></defs><title>Security</title><g id="illustration"><path class="cls-1" d="M319.81,285.67,201.4,217.31c-1.56-.9-1.37-2.48.44-3.53l165-95.25a6.79,6.79,0,0,1,6.11-.26l118.41,68.37c1.57.9,1.37,2.48-.44,3.53l-165,95.25A6.75,6.75,0,0,1,319.81,285.67Z" transform="translate(-41.14 -1.95)"/><path class="cls-1" d="M319.81,292.24,201.4,223.88c-1.56-.9-1.37-2.48.44-3.53l165-95.25a6.79,6.79,0,0,1,6.11-.26l118.41,68.37c1.57.9,1.37,2.48-.44,3.52L325.92,292A6.78,6.78,0,0,1,319.81,292.24Z" transform="translate(-41.14 -1.95)"/><path class="cls-2" d="M366.39,125.1,203.81,219l115.56,66.71a6.75,6.75,0,0,0,6.11-.25l162.58-93.86L372.5,124.84A6.79,6.79,0,0,0,366.39,125.1Z" transform="translate(-41.14 -1.95)"/><path class="cls-3" d="M322.47,287.11a6.2,6.2,0,0,1-3.07-.73L201,218a2.6,2.6,0,0,1-1.46-2.24,3.3,3.3,0,0,1,1.9-2.71l165-95.25a7.57,7.57,0,0,1,6.93-.26l118.41,68.37a2.59,2.59,0,0,1,1.47,2.24,3.32,3.32,0,0,1-1.91,2.71l-165,95.25A7.89,7.89,0,0,1,322.47,287.11ZM370.3,118.48a6.28,6.28,0,0,0-3.06.76l-165,95.25c-.67.39-1.08.88-1.08,1.29s.4.68.64.82L320.23,285a6,6,0,0,0,5.28-.25l165-95.25c.67-.39,1.09-.88,1.09-1.29s-.41-.68-.65-.82L372.53,119A4.65,4.65,0,0,0,370.3,118.48Z" transform="translate(-41.14 -1.95)"/><path class="cls-4" d="M457,198.58,412.8,173c-.21-.12-.19-.33.06-.47l7.62-4.4a.88.88,0,0,1,.82,0l44.22,25.53c.21.12.18.33-.06.47l-7.62,4.4A.92.92,0,0,1,457,198.58Z" transform="translate(-41.14 -1.95)"/><path class="cls-3" d="M457.38,196.63a1.52,1.52,0,0,1-.77-.2h0L412.39,170.9a1.08,1.08,0,0,1-.56-.91,1.14,1.14,0,0,1,.62-1l7.62-4.4a1.74,1.74,0,0,1,1.64,0l44.22,25.53a1.06,1.06,0,0,1,.55.92,1.15,1.15,0,0,1-.61,1l-7.62,4.4A1.77,1.77,0,0,1,457.38,196.63ZM414.06,170l43.31,25,6.89-3.95-43.37-25Z" transform="translate(-41.14 -1.95)"/><path class="cls-4" d="M443.51,206.38l-44.22-25.54c-.21-.12-.19-.33.06-.47L407,176a.88.88,0,0,1,.82,0L452,201.47c.21.12.19.33-.06.47l-7.62,4.4A.92.92,0,0,1,443.51,206.38Z" transform="translate(-41.14 -1.95)"/><path class="cls-3" d="M443.87,204.42a1.52,1.52,0,0,1-.77-.19h0L398.88,178.7a1,1,0,0,1-.55-.91,1.12,1.12,0,0,1,.6-1l7.63-4.4a1.71,1.71,0,0,1,1.64,0l44.22,25.53a1,1,0,0,1,.55.92,1.15,1.15,0,0,1-.6,1l-7.63,4.4A1.76,1.76,0,0,1,443.87,204.42Zm-43.32-26.65,43.31,25,6.89-3.95-43.37-25Z" transform="translate(-41.14 -1.95)"/><path class="cls-4" d="M430,214.17l-44.22-25.53c-.21-.12-.18-.33.06-.47l7.62-4.4a.88.88,0,0,1,.82,0l44.22,25.53c.21.12.19.33-.06.47l-7.62,4.4A.88.88,0,0,1,430,214.17Z" transform="translate(-41.14 -1.95)"/><path class="cls-3" d="M430.36,212.23a1.52,1.52,0,0,1-.77-.2L385.37,186.5a1,1,0,0,1-.55-.92,1.14,1.14,0,0,1,.61-1l7.62-4.4a1.71,1.71,0,0,1,1.64,0l44.22,25.53a1,1,0,0,1,.55.91,1.12,1.12,0,0,1-.6,1L431.23,212A1.77,1.77,0,0,1,430.36,212.23ZM387,185.57l43.31,25,6.89-4-43.37-25Z" transform="translate(-41.14 -1.95)"/><path class="cls-4" d="M416.49,222l-44.22-25.53c-.21-.12-.18-.33.06-.47l7.62-4.4a.92.92,0,0,1,.82,0L425,217.07c.21.12.19.33-.06.47l-7.62,4.4A.88.88,0,0,1,416.49,222Z" transform="translate(-41.14 -1.95)"/><path class="cls-3" d="M416.85,220a1.52,1.52,0,0,1-.77-.19h0L371.86,194.3a1,1,0,0,1-.55-.92,1.14,1.14,0,0,1,.61-1l7.62-4.4a1.68,1.68,0,0,1,1.64,0L425.4,213.5a1.08,1.08,0,0,1,.56.92,1.15,1.15,0,0,1-.61,1l-7.63,4.4A1.76,1.76,0,0,1,416.85,220Zm-43.32-26.65,43.31,25,6.89-3.95-43.37-25Z" transform="translate(-41.14 -1.95)"/><path class="cls-4" d="M403,229.77l-44.22-25.53c-.21-.12-.18-.33.06-.47l7.62-4.4a.92.92,0,0,1,.82,0l44.22,25.54c.21.12.19.33-.05.47l-7.63,4.4A.88.88,0,0,1,403,229.77Z" transform="translate(-41.14 -1.95)"/><path class="cls-3" d="M403.34,227.82a1.52,1.52,0,0,1-.77-.19L358.35,202.1a1,1,0,0,1-.55-.92,1.14,1.14,0,0,1,.61-1L366,195.8a1.76,1.76,0,0,1,1.64,0l44.22,25.53a1.07,1.07,0,0,1,.56.92,1.14,1.14,0,0,1-.62,1l-7.62,4.4A1.76,1.76,0,0,1,403.34,227.82ZM360,201.17l43.31,25,6.89-4-43.37-25Z" transform="translate(-41.14 -1.95)"/><path class="cls-4" d="M382.05,241.64l-99.13-57.23c-.31-.18-.27-.5.09-.71l7.19-4.15a1.35,1.35,0,0,1,1.22-.05l99.13,57.23c.32.19.28.5-.09.71l-7.19,4.15A1.35,1.35,0,0,1,382.05,241.64Z" transform="translate(-41.14 -1.95)"/><path class="cls-3" d="M382.58,239.73a2,2,0,0,1-.94-.23l-99.13-57.23a1.19,1.19,0,0,1-.62-1,1.3,1.3,0,0,1,.71-1.11l7.19-4.15a2.14,2.14,0,0,1,2-.05L391,233.17a1.19,1.19,0,0,1,.62,1,1.3,1.3,0,0,1-.71,1.11l-7.19,4.15A2.17,2.17,0,0,1,382.58,239.73Zm-.12-1.65a.75.75,0,0,0,.4-.05l6.62-3.82L291,177.36a.59.59,0,0,0-.4,0L284,181.23Z" transform="translate(-41.14 -1.95)"/><path class="cls-4" d="M368.54,249.44l-99.13-57.23c-.31-.18-.27-.5.09-.71l7.19-4.15a1.35,1.35,0,0,1,1.22,0L377,244.53c.32.18.28.5-.09.71l-7.19,4.15A1.35,1.35,0,0,1,368.54,249.44Z" transform="translate(-41.14 -1.95)"/><path class="cls-3" d="M369.08,247.53a2,2,0,0,1-.95-.23h0L269,190.07a1.19,1.19,0,0,1-.62-1,1.3,1.3,0,0,1,.71-1.11l7.19-4.15a2.14,2.14,0,0,1,2,0L377.45,241a1.16,1.16,0,0,1,.62,1,1.29,1.29,0,0,1-.7,1.12l-7.2,4.15A2.16,2.16,0,0,1,369.08,247.53Zm-.14-1.66a.64.64,0,0,0,.42,0L376,242,277.5,185.16a.59.59,0,0,0-.4.05L270.48,189Z" transform="translate(-41.14 -1.95)"/><path class="cls-4" d="M355,257.24,255.9,200c-.31-.18-.27-.5.09-.71l7.19-4.15a1.35,1.35,0,0,1,1.22-.05l99.13,57.23c.32.18.28.5-.08.71l-7.2,4.15A1.35,1.35,0,0,1,355,257.24Z" transform="translate(-41.14 -1.95)"/><path class="cls-3" d="M355.57,255.33a2,2,0,0,1-.95-.23h0l-99.13-57.23a1.19,1.19,0,0,1-.62-1,1.29,1.29,0,0,1,.71-1.11l7.19-4.15a2.16,2.16,0,0,1,2.05-.05l99.12,57.23a1.17,1.17,0,0,1,.63,1,1.3,1.3,0,0,1-.71,1.12l-7.2,4.15A2.16,2.16,0,0,1,355.57,255.33Zm-.14-1.66a.6.6,0,0,0,.41,0l6.62-3.82L264,193a.6.6,0,0,0-.4,0L257,196.83Z" transform="translate(-41.14 -1.95)"/><path class="cls-4" d="M290.76,235.73l-48.54-28c-.22-.13-.19-.35.06-.49l7.59-4.38a1,1,0,0,1,.86,0l48.53,28c.22.12.2.34-.06.49l-7.58,4.38A.94.94,0,0,1,290.76,235.73Z" transform="translate(-41.14 -1.95)"/><path class="cls-3" d="M291.14,233.79a1.6,1.6,0,0,1-.79-.2h0l-48.54-28a1.09,1.09,0,0,1-.56-.93,1.16,1.16,0,0,1,.62-1l7.59-4.38a1.77,1.77,0,0,1,1.67,0l48.54,28a1.07,1.07,0,0,1,.56.93,1.15,1.15,0,0,1-.61,1L292,233.56A1.87,1.87,0,0,1,291.14,233.79Zm-47.67-29.16,47.65,27.51,6.9-3.94-47.7-27.54Z" transform="translate(-41.14 -1.95)"/><path class="cls-4" d="M277.25,243.53l-48.54-28c-.22-.13-.19-.35.07-.49l7.58-4.38a1,1,0,0,1,.86,0l48.53,28c.22.12.2.34-.06.49l-7.58,4.38A.94.94,0,0,1,277.25,243.53Z" transform="translate(-41.14 -1.95)"/><path class="cls-3" d="M277.63,241.59a1.63,1.63,0,0,1-.79-.2l-48.54-28a1.08,1.08,0,0,1-.55-.93,1.14,1.14,0,0,1,.62-1l7.58-4.37a1.73,1.73,0,0,1,1.68,0l48.53,28a1.05,1.05,0,0,1,.56.93,1.15,1.15,0,0,1-.62,1l-7.58,4.38A1.84,1.84,0,0,1,277.63,241.59ZM230,212.43l47.65,27.51,6.9-3.94-47.7-27.54Z" transform="translate(-41.14 -1.95)"/><path class="cls-4" d="M328.29,273,303.4,258.63c-.16-.09-.14-.25,0-.36l7.84-4.52a.68.68,0,0,1,.62,0l24.9,14.37c.15.1.13.26-.05.36L328.91,273A.71.71,0,0,1,328.29,273Z" transform="translate(-41.14 -1.95)"/><path class="cls-3" d="M328.56,271a1.32,1.32,0,0,1-.68-.17h0L303,256.49a1,1,0,0,1-.52-.87,1.05,1.05,0,0,1,.56-.91l7.84-4.53a1.5,1.5,0,0,1,1.44,0l24.9,14.37a1,1,0,0,1,.51.86,1.07,1.07,0,0,1-.55.92l-7.85,4.52A1.44,1.44,0,0,1,328.56,271Zm-23.81-15.42,23.83,13.76,6.86-4-23.83-13.76Z" transform="translate(-41.14 -1.95)"/><path class="cls-1" d="M78.62,213.38l-19.38-3.26c-4.47-.75-9,.71-10,3.27l-3.37,8.31c-.38.92.61,1.89,2.22,2.16l9.13,1.53-2.77,6.76L57.28,234s0,0,0,0L56.15,237h0l-3.87.51h0l-1,2.57-.31.75,3,1.91a0,0,0,0,1,0,0l-1.37,3.36h0l-3.84.43a2.83,2.83,0,0,0,.42,1.84l1,1.72a2.23,2.23,0,0,0,1.5.82l2,.33a3.25,3.25,0,0,0,1.93-.23l2.1-1.07a4.5,4.5,0,0,0,2.22-2.14l8.42-20.55,9.56,1.61c1.61.27,3.22-.25,3.6-1.17l3.38-8.32C85.86,216.82,83.09,214.14,78.62,213.38Z" transform="translate(-41.14 -1.95)"/><path class="cls-1" d="M145.42,228.31,129,237.77c-2.15,1.24-5.9,1.09-8.38-.34L92.19,221c-2.48-1.43-2.75-3.59-.6-4.83L108,206.69c2.14-1.24,5.89-1.08,8.37.35l28.47,16.44C147.3,224.91,147.57,227.07,145.42,228.31Z" transform="translate(-41.14 -1.95)"/><path class="cls-3" d="M92.52,203.52a20.55,20.55,0,0,0-10.87-3.12h0a22.08,22.08,0,0,0-10.87,2.75l-.87-1.37a23.57,23.57,0,0,1,11.74-3h0a21.61,21.61,0,0,1,11.81,3.42Z" transform="translate(-41.14 -1.95)"/><path class="cls-3" d="M90.3,204.66v-6.32l.31-.26,4.67-3.14h.25l6.73-.41.36.21,2.91,2.57-.12.85-3,1.75-.38-.15c-1.3-.47-4.47-1.33-7.17.28l1.8,2-2.27,1.3Zm1.62-5.51v3.27l2.19-.79-1.32-1.46.1-.75.31-.21c2.32-1.85,5.62-2.26,9-1.1l1-.61-1.51-1.34-6,.38Z" transform="translate(-41.14 -1.95)"/><path class="cls-5" d="M106,198.64c-1.33-5.62-13.81-5.62-15.13,0h0c1.32,5.62,13.81,5.62,15.13,0Zm-7.49,2.64c-6-.46-6-4.9,0-5.37h0c6,.47,6,4.91,0,5.37Z" transform="translate(-41.14 -1.95)"/><path class="cls-3" d="M98.45,203.63c-3.59,0-7.57-1.5-8.36-4.84l0-.28,0-.1c.79-3.34,4.77-4.84,8.36-4.84s7.57,1.5,8.36,4.84l0,.29,0,.09C106,202.13,102,203.63,98.45,203.63Zm-6.73-5c.66,2.2,3.47,3.27,6.19,3.39-3.44-.42-4.68-2.08-4.68-3.44,0-1.19,1-2.63,3.55-3.24C94.45,195.65,92.29,196.7,91.72,198.6Zm8.64-3.25c2.55.63,3.47,2,3.47,3.2,0,1.34-1.21,3-4.55,3.43,2.63-.19,5.27-1.26,5.9-3.38C104.64,196.77,102.6,195.72,100.36,195.35Zm-1.89,1.33c-2.31.19-3.62,1.11-3.62,1.87s1.3,1.68,3.7,1.88c2.35-.19,3.66-1.11,3.66-1.88S100.9,196.87,98.47,196.68Z" transform="translate(-41.14 -1.95)"/><path class="cls-5" d="M71.62,200.7c-2.25-4.15-11.5-4.59-14.14-.68h0c-.52,2.8,1,4.06,2.91,4.87,0,0,0,0,0,0-1.33-1.55,0-3.59,4.11-3.73h0c4,.52,5.21,2.68,3.74,4.1,0,0,0,0,0,0,2-.63,3.61-1.74,3.37-4.56Z" transform="translate(-41.14 -1.95)"/><path class="cls-3" d="M67.91,206.24l-.69-1.09.46-.47a.91.91,0,0,0,.33-1c-.21-.63-1.28-1.46-3.6-1.76-2.21.08-3.36.82-3.62,1.42a.87.87,0,0,0,.23,1l.42.5-.79,1.06-.61-.27c-1-.43-4.11-1.75-3.36-5.76l.07-.22c1.44-2.14,4.49-3.31,8-3.13s6.41,1.62,7.59,3.78l.1.2v.2c.34,4-2.87,5-3.93,5.34Zm-3.43-5.9c2.78.35,4.58,1.39,5.07,2.87a2.41,2.41,0,0,1,.11.52A2.85,2.85,0,0,0,70.83,201c-1-1.57-3.35-2.67-6.16-2.8s-5.33.72-6.43,2.21a2.94,2.94,0,0,0,.9,2.87,2.91,2.91,0,0,1,.16-.5C59.93,201.3,61.82,200.43,64.48,200.34Z" transform="translate(-41.14 -1.95)"/><path class="cls-3" d="M64.87,206.56h-.61c-3.59-.17-7.49-1.85-8.12-5.23l0-.27.12-.25c.89-3.16,4.93-4.47,8.52-4.3s7.49,1.85,8.12,5.23v.34l-.08.18C71.94,205.23,68.29,206.56,64.87,206.56Zm1.67-8.19c2.52.75,3.39,2.19,3.33,3.36-.06,1.34-1.35,2.92-4.71,3.21,2.64-.07,5.33-1,6-3.1C70.76,200,68.76,198.84,66.54,198.37Zm-8.78,2.87c.47,2.17,3.28,3.39,6,3.65-3.42-.58-4.58-2.31-4.52-3.66.06-1.19,1.09-2.58,3.71-3.07C60.63,198.39,58.4,199.35,57.76,201.24Zm6.84-1.63c-2.31.08-3.66.93-3.7,1.7s1.21,1.73,3.59,2c2.39-.08,3.72-.93,3.76-1.69S67,199.91,64.6,199.61Z" transform="translate(-41.14 -1.95)"/><path class="cls-3" d="M68.51,203.64c-.12,0-11.69-3.5-9.17-14.06a9.46,9.46,0,0,1,7.15-7c4.32-1.11,9.22.16,11.91,3.1s5.44,2,8.86.66a21.33,21.33,0,0,1,5.46-1.54,6.55,6.55,0,0,1,6.63,3c1.07,1.85,2.09,6-3,13l-1.32-1c3.32-4.54,4.37-8.62,2.9-11.19a5,5,0,0,0-5.07-2.23,20.49,20.49,0,0,0-5,1.44c-3.51,1.34-7.15,2.73-10.62-1.07-2.31-2.52-6.55-3.6-10.31-2.63a7.89,7.89,0,0,0-6,5.84c-2.16,9.06,7.62,12,8,12.12Z" transform="translate(-41.14 -1.95)"/><path class="cls-6" d="M80.37,214.58a1.7,1.7,0,0,0,0-.39l.25-5-2.56,1.72h0a11,11,0,0,0-3.94-1.41l-19-3.19c-4.38-.74-8.77.69-9.81,3.2l-1.05,2.57h0l-2.05.48s0,0,0,0L42,217.93v.25c0,.76.92,1.32,2.26,1.55l29.14,4.9c1.57.26,3.15-.25,3.53-1.15l3.3-8.15a3.07,3.07,0,0,0,.18-.64h0Z" transform="translate(-41.14 -1.95)"/><path class="cls-5" d="M80.52,211a9.44,9.44,0,0,0-5.19-2.41l-19-3.19c-4.39-.74-8.78.69-9.81,3.19l-3.09,5.46c-.7,2,.52,2.36.89,2.43l29.22,4.95c1.58.26,3.16-.25,3.53-1.15l3.22-7.9A2.77,2.77,0,0,0,80.52,211Z" transform="translate(-41.14 -1.95)"/><path class="cls-3" d="M74.2,225.51a6.83,6.83,0,0,1-1-.08l-29.13-4.9c-1.83-.31-2.93-1.19-2.94-2.34V218l.26-5.53,2.29-1.06.89-2.19c1.19-2.88,5.89-4.5,10.7-3.69l19,3.19A12.37,12.37,0,0,1,78,209.93l3.42-.8-.25,5.1c0,.11,0,.26,0,.42l-.17.76a2.25,2.25,0,0,1-.08.24l-3.31,8.13A3.59,3.59,0,0,1,74.2,225.51Zm-31.44-7.34c0,.17.47.57,1.59.76l29.13,4.9c1.35.23,2.47-.24,2.65-.66l3.3-8.14a2,2,0,0,0,.13-.47v-.08a2.44,2.44,0,0,0,0-.27l.17-3.48-1.67,1.13-.47-.3A10.31,10.31,0,0,0,74,210.27l-19-3.19c-4-.66-8,.58-8.93,2.71l-1.25,3.07h-.45L43,213.2,42.78,218Z" transform="translate(-41.14 -1.95)"/><path class="cls-3" d="M76.88,223.45l3.3-8.14a3,3,0,0,0,.18-.65h0v-.1a1.7,1.7,0,0,0,0-.39l.25-5-2.57,1.74a8.66,8.66,0,0,0-1.43-.71l-1.22,9.05h0l-.26,5.36A2.33,2.33,0,0,0,76.88,223.45Z" transform="translate(-41.14 -1.95)"/><path class="cls-6" d="M61.24,221l-7.79-1.32s0,0,0,0l-1.18,2.86-1.57,0-.2,4.34h0l2.78,1.79a0,0,0,0,1,0,0l-1.11,2.89h0l-2.19.29h0L47.24,231s0,0,0,0L47,235.3h0l2.91,1.87-.25.6-.17.24L45,236.57l0,0-.28,5.86a2.72,2.72,0,0,0,.42,1.8l1,1.68a2.11,2.11,0,0,0,1.46.8l2,.33a3.12,3.12,0,0,0,1.89-.23l2.06-1a4.42,4.42,0,0,0,2.17-2.09L64.19,223h0l.31-6.73s0,0,0,0L61.26,221S61.25,221,61.24,221Z" transform="translate(-41.14 -1.95)"/><path class="cls-3" d="M50.2,247.92a4.62,4.62,0,0,1-.74-.06l-1.94-.33a2.85,2.85,0,0,1-2-1.17l-1-1.69a3.45,3.45,0,0,1-.53-2.33l.29-6.19,1.31-.05,1.75.35-1.07-.69v-.46l.22-4.76.68-.48L50,231l1.55-.2.71-1.85-2.61-1.67v-.46L50,221.2l1.77.49,1.17-2.85h.56l7.43,1.25,3.29-4.79,1.18.4-.4,7.62L56.47,244a5.12,5.12,0,0,1-2.55,2.52l-2.07,1A3.67,3.67,0,0,1,50.2,247.92Zm-4.42-10.25-.23,4.82a2,2,0,0,0,.3,1.34l1,1.68a1.46,1.46,0,0,0,.91.42l1.94.33a2.32,2.32,0,0,0,1.39-.15l2.06-1A3.69,3.69,0,0,0,55,243.39l8.42-20.56.18-3.8-2,2.86-.53-.13-7.13-1.21-1.14,2.78-1.33,0-.15,3.1,3,1.93L54,229l-1.29,3.34h-.57l-2,.36-.36-.1L48,232.06l-.14,2.83,3.09,2-.75,1.62-.34.5Z" transform="translate(-41.14 -1.95)"/><path class="cls-6" d="M56,237.82l8.47-20.68,0,0-10.79-1.83s0,0,0,0l-3,7.19h0l2.79,1.79s0,0,0,0l-1.12,2.89h0l-3.79.5s0,0,0,0l-1,2.51-.3.74,2.9,1.87h0l-1.35,3.3a0,0,0,0,1,0,0l-3.76.42a2.72,2.72,0,0,0,.42,1.8l1,1.68a2.06,2.06,0,0,0,1.46.8l2,.33a3.07,3.07,0,0,0,1.88-.23l2.07-1A4.42,4.42,0,0,0,56,237.82Z" transform="translate(-41.14 -1.95)"/><path class="cls-2" d="M56.75,240.16l7-17.13h0l.24-3.25-.57-.62-9-1.52s0,0,0,0l-3,7.19h0l2.79,1.79h0l-1.12,2.9a0,0,0,0,1,0,0l-3.79.49h0l-1,2.52-.31.74,2.91,1.86v0l-1.35,3.29s0,0,0,0l-3.76.43a2.72,2.72,0,0,0,.42,1.8l1,1.68a2.1,2.1,0,0,0,1.46.8l2,.33a3.15,3.15,0,0,0,1.88-.23l2.07-1A4.43,4.43,0,0,0,56.75,240.16Z" transform="translate(-41.14 -1.95)"/><path class="cls-3" d="M50.43,242a4.37,4.37,0,0,1-.72-.06l-1.94-.33a2.83,2.83,0,0,1-2-1.18l-1-1.68a3.45,3.45,0,0,1-.53-2.33l.08-.63,3.93-.44.91-2.24-2.33-1.5a.83.83,0,0,1-.32-1L48,226.89h.55l3.22-.42.71-1.86-2.14-1.36a1,1,0,0,1-.37-1.17l3.17-7.73.7.16L65,216.38l.38.69-.14.37-8.47,20.68a5.1,5.1,0,0,1-2.55,2.51l-2.07,1.05A3.73,3.73,0,0,1,50.43,242Zm-4.6-4.75a2.3,2.3,0,0,0,.27.66l1,1.67a1.37,1.37,0,0,0,.91.43l1.94.33a2.32,2.32,0,0,0,1.39-.15l2.06-1a3.59,3.59,0,0,0,1.79-1.67l8.09-19.76-9.19-1.55-2.45,6L54.45,224l-.23.63L52.9,228h-.57l-3.22.43-.9,2.2,2.95,1.9-.32.67L49.31,237h-.56Z" transform="translate(-41.14 -1.95)"/><path class="cls-3" d="M50.53,242.08l-1-.61L60.05,215.7h.63l4.34.73.38.74-.18.38-8.45,20.62a5.14,5.14,0,0,1-2.55,2.51l-2.06,1a3.67,3.67,0,0,1-1.35.35Zm10.58-24.67L51.93,240l1.56-.79a3.62,3.62,0,0,0,1.78-1.68l8.09-19.75Z" transform="translate(-41.14 -1.95)"/><path class="cls-3" d="M64.37,217.83l-1.72,3.53h0l-6.21,15.33-.82,2.1h0l-2.89,1.73h0l-2,.76h0l-.28,5.84a2.89,2.89,0,0,0,1-.26l2.06-1.05a4.34,4.34,0,0,0,2.17-2.09L64.13,223h0Z" transform="translate(-41.14 -1.95)"/><path class="cls-6" d="M73.6,219.27l-29.13-4.9c-1.58-.27-2.56-1.21-2.18-2.11l3.3-8.14c1-2.5,5.43-3.94,9.81-3.2l19,3.19c4.38.74,7.09,3.36,6.05,5.87l-3.3,8.14C76.76,219,75.18,219.53,73.6,219.27Z" transform="translate(-41.14 -1.95)"/><path class="cls-2" d="M80.64,208.6a9.34,9.34,0,0,0-5.2-2.41l-19-3.19c-4.38-.74-8.77.69-9.81,3.19l-3.2,7.88a4.62,4.62,0,0,0,1,.3l29.13,4.9c1.58.26,3.16-.25,3.53-1.15l3.3-8.14A2.8,2.8,0,0,0,80.64,208.6Z" transform="translate(-41.14 -1.95)"/><path class="cls-7" d="M66,218.19l-10.56-1.78c-.61-.1-1-.46-.84-.81L56.46,211c.35-.86,1.85-1.35,3.35-1.09l7.34,1.23c1.5.25,2.42,1.15,2.07,2l-1.87,4.63C67.21,218.09,66.6,218.29,66,218.19Z" transform="translate(-41.14 -1.95)"/><path class="cls-3" d="M74.45,220.15a6.83,6.83,0,0,1-1-.08l-29.13-4.9a3.74,3.74,0,0,1-2.69-1.6,1.82,1.82,0,0,1-.1-1.62l3.3-8.14c1.19-2.88,5.9-4.5,10.7-3.69l19,3.19c3,.51,5.45,1.9,6.46,3.72a3.65,3.65,0,0,1,.21,3.26l-3.3,8.13A3.59,3.59,0,0,1,74.45,220.15Zm-.72-1.68c1.36.22,2.47-.24,2.65-.66l3.3-8.14a2,2,0,0,0-.13-1.85c-.76-1.37-2.8-2.49-5.31-2.91l-19-3.19c-4-.66-8,.57-8.93,2.71L43,212.56a.22.22,0,0,0,0,.22,2.22,2.22,0,0,0,1.54.79Z" transform="translate(-41.14 -1.95)"/><path class="cls-3" d="M68.15,219.09a3.63,3.63,0,0,1-.65-.05L50.64,216.2a2.55,2.55,0,0,1-1.88-1.14,1.44,1.44,0,0,1-.08-1.26l3-7.39c.71-1.73,3.45-2.71,6.23-2.24l11.73,2a5.25,5.25,0,0,1,3.78,2.21,2.37,2.37,0,0,1,.14,2.09l-3,7.39A2.51,2.51,0,0,1,68.15,219.09ZM50.21,214.4a5.76,5.76,0,0,0,.7.2l16.86,2.84a1.62,1.62,0,0,0,1.3-.23l3-7.38a.75.75,0,0,0-.05-.69,3.81,3.81,0,0,0-2.63-1.4l-11.73-2c-2.17-.37-4.09.37-4.46,1.25l-3,7.39Z" transform="translate(-41.14 -1.95)"/><path class="cls-6" d="M143.58,212.85l-8.74-.33h0l-20.44-11.8c-2.37-1.37-6-1.52-8-.33l-10.62,6.13h0l-6.42-1.33h0v6.33h0a3.34,3.34,0,0,0,2,2.54L118.5,229.8c2.38,1.37,6,1.52,8,.33l15.68-9a2.36,2.36,0,0,0,1.38-2.06v-6.17Z" transform="translate(-41.14 -1.95)"/><path class="cls-3" d="M123,231.75a10,10,0,0,1-4.93-1.25L90.86,214.77a4.58,4.58,0,0,1-2.22-2.43l-.15-.88h0v-6.64l.59-.5.38.07,6.15,1.28,10.36-6c2.31-1.34,6.19-1.19,8.82.33l20.27,11.7,8.67.34.67.81h0V219a3.12,3.12,0,0,1-1.78,2.76l-15.69,9.05A7.8,7.8,0,0,1,123,231.75ZM90.11,211.37v.13c0,.62.6,1.32,1.55,1.87l27.24,15.73c2.11,1.21,5.41,1.36,7.2.33l15.69-9.06a1.62,1.62,0,0,0,1-1.33v-5.41l-8.29-.31-.16-.15L114,201.42c-2.11-1.21-5.41-1.36-7.2-.33L96,207.33h-.31l-5.55-1.16Z" transform="translate(-41.14 -1.95)"/><path class="cls-6" d="M142.2,214.81l-15.68,9.06c-2.06,1.18-5.65,1-8-.33L91.26,207.81c-2.37-1.37-2.63-3.44-.57-4.63l15.68-9.05c2.06-1.19,5.65-1,8,.33l27.24,15.72C144,211.55,144.26,213.63,142.2,214.81Z" transform="translate(-41.14 -1.95)"/><path class="cls-2" d="M141.66,212.37l-27.24-15.73c-2.37-1.37-6-1.52-8-.33l-15.69,9.06a3,3,0,0,0-1,.9v2.28h0A4.46,4.46,0,0,0,91.3,210l27.24,15.73c2.37,1.37,6,1.52,8,.33l15.35-8.86C144,216,144,213.74,141.66,212.37Z" transform="translate(-41.14 -1.95)"/><path class="cls-3" d="M123,225.5a10.14,10.14,0,0,1-4.93-1.24L90.86,208.53a4.07,4.07,0,0,1-2.37-3.32,3.18,3.18,0,0,1,1.79-2.71L106,193.44c2.31-1.33,6.19-1.19,8.82.33L142,209.5a4.07,4.07,0,0,1,2.37,3.32,3.16,3.16,0,0,1-1.79,2.71l-15.69,9.06A7.9,7.9,0,0,1,123,225.5Zm-13.19-31.34a6.18,6.18,0,0,0-3.06.69L91.09,203.9a1.69,1.69,0,0,0-1,1.31c0,.64.58,1.35,1.56,1.92l27.24,15.72c2.11,1.22,5.4,1.37,7.2.34l15.69-9.06a1.69,1.69,0,0,0,1-1.31c0-.63-.58-1.35-1.56-1.91L114,195.18A8.58,8.58,0,0,0,109.84,194.16Z" transform="translate(-41.14 -1.95)"/><path class="cls-3" d="M118.5,223.55v6.26h0a8.5,8.5,0,0,0,1.91.78v-6.26h0A7.74,7.74,0,0,1,118.5,223.55Z" transform="translate(-41.14 -1.95)"/><path class="cls-3" d="M143.59,212.87a2.42,2.42,0,0,1-1.39,2l-15.68,9a7,7,0,0,1-3.3.79h0v6.24s0,0,0,0a7,7,0,0,0,3.3-.78l15.68-9.06a2.36,2.36,0,0,0,1.38-2.06v-6.16Z" transform="translate(-41.14 -1.95)"/><path class="cls-8" d="M129.23,214.67l-7.09,4.09a3.27,3.27,0,0,1-2.93-.12l-16-9.25c-.87-.5-1-1.26-.21-1.69l7.09-4.09a3.24,3.24,0,0,1,2.93.12L129,213C129.89,213.47,130,214.23,129.23,214.67Z" transform="translate(-41.14 -1.95)"/><path class="cls-3" d="M123.35,221.2a5.7,5.7,0,0,1-2.8-.7L97.4,207.13A2.52,2.52,0,0,1,96,205a2.06,2.06,0,0,1,1.14-1.76l10.26-5.92a5.51,5.51,0,0,1,5.05.17l23.16,13.37A2.51,2.51,0,0,1,137,213a2.07,2.07,0,0,1-1.14,1.77l-10.25,5.92A4.66,4.66,0,0,1,123.35,221.2Zm-13.76-22.75a3,3,0,0,0-1.43.31l-10.25,5.92c-.21.12-.33.26-.33.36s.13.4.63.69l23.15,13.36a4,4,0,0,0,3.44.18l10.25-5.92c.21-.12.33-.25.33-.36s-.13-.4-.63-.68l-23.16-13.37A4.2,4.2,0,0,0,109.59,198.45Z" transform="translate(-41.14 -1.95)"/><path class="cls-9" d="M352.28,309.76l8.2-7.88.11,0a5.58,5.58,0,0,1,2.61-3.36l108.24-61.62a5.55,5.55,0,0,1,5.49,9.65L368.7,308.13a5.47,5.47,0,0,1-3.75.61l-.38.32-10.69,3.4a1.61,1.61,0,0,1-1.6-2.7Z" transform="translate(-41.14 -1.95)"/><path class="cls-7" d="M364.48,291.55l108.23-61.61a5.56,5.56,0,0,1,7.58,2.07h0a5.55,5.55,0,0,1-2.08,7.58L370,301.21a5.55,5.55,0,0,1-7.58-2.08h0A5.56,5.56,0,0,1,364.48,291.55Z" transform="translate(-41.14 -1.95)"/><path class="cls-10" d="M363.32,295.12,471.55,233.5a5.57,5.57,0,0,1,7.58,2.08h0c1.52,2.67-1,4.39-3.7,5.91L368.81,301.58c-2.67,1.52-5.92,2.21-7.44-.46h0C359.85,298.45,360.65,296.64,363.32,295.12Z" transform="translate(-41.14 -1.95)"/><path class="cls-3" d="M367.24,302.76a6.56,6.56,0,0,1-1.7-.22,6.37,6.37,0,0,1-4.46-7.85,6.32,6.32,0,0,1,3-3.85l108.24-61.62a6.38,6.38,0,0,1,6.31,11.09L370.38,301.93A6.36,6.36,0,0,1,367.24,302.76ZM475.45,230a4.7,4.7,0,0,0-2.33.62L364.89,292.27a4.71,4.71,0,0,0-2.23,2.86,4.74,4.74,0,0,0,6.91,5.37L477.8,238.88a4.73,4.73,0,0,0-1.08-8.68A4.57,4.57,0,0,0,475.45,230Z" transform="translate(-41.14 -1.95)"/><rect class="cls-5" x="421.84" y="242.11" width="49.91" height="4.92" rx="1.34" transform="translate(914.94 234.09) rotate(150.35)"/><rect class="cls-11" x="422.18" y="244.14" width="49.91" height="4.92" rx="1.34" transform="translate(916.58 237.73) rotate(150.35)"/><path class="cls-3" d="M427.17,259.06a3.3,3.3,0,0,1-.82-.11,3,3,0,0,1-1.85-1.44l-.22-.38a3.1,3.1,0,0,1-.29-2.33,3.07,3.07,0,0,1,1.44-1.85l39.48-22.47a3.05,3.05,0,0,1,4.18,1.14l.22.38a3.07,3.07,0,0,1-1.15,4.18l-39.48,22.48A3.13,3.13,0,0,1,427.17,259.06Zm39.26-27.34a1.4,1.4,0,0,0-.7.18l-39.49,22.48a1.43,1.43,0,0,0-.66.86,1.45,1.45,0,0,0,.13,1.08l.22.37a1.41,1.41,0,0,0,.86.67,1.45,1.45,0,0,0,1.08-.13l39.48-22.48a1.43,1.43,0,0,0,.53-1.94l-.22-.38a1.43,1.43,0,0,0-.86-.66A1.18,1.18,0,0,0,466.43,231.72Z" transform="translate(-41.14 -1.95)"/><path class="cls-12" d="M365.84,302.14l.91-.75a4,4,0,0,0,.71-5.35h0a4,4,0,0,0-4.43-1.49l-1.27.41-8.21,7.88a1.62,1.62,0,0,0-.28,2h0a1.62,1.62,0,0,0,1.89.74Z" transform="translate(-41.14 -1.95)"/><path class="cls-9" d="M363.1,297.07a4,4,0,0,1,4.43,1.49,3.61,3.61,0,0,1,.35.6,4,4,0,0,1-1.29,2l-.9.74L355,305.28a1.62,1.62,0,0,1-1.19-.1l8-7.7Z" transform="translate(-41.14 -1.95)"/><path class="cls-3" d="M354.68,306.43a2.43,2.43,0,0,1-1.7-4.18l8.34-8,1.46-.46a4.79,4.79,0,0,1,4.49,8.26l-1.18.89-10.68,3.4A2.31,2.31,0,0,1,354.68,306.43Zm7.51-10.75-8.06,7.75a.79.79,0,0,0,.78,1.32l10.53-3.35.78-.64a3.16,3.16,0,0,0,.57-4.25,3.12,3.12,0,0,0-3.52-1.17Z" transform="translate(-41.14 -1.95)"/><polygon class="cls-13" points="326.79 297.31 440.29 232.63 439.48 231.22 326.74 295.46 326.79 297.31"/><path class="cls-1" d="M449.41,105.34c-8.36,4.48-21.38,4.27-29-.47s-7-12.23,1.32-16.71,21.38-4.28,29,.46S457.77,100.86,449.41,105.34Z" transform="translate(-41.14 -1.95)"/><g id="_6" data-name="6"><path class="cls-11" d="M451.53,86.24l-2.3.84a13.24,13.24,0,0,0-2.46-2c-.23-.14-.47-.26-.71-.4a4.17,4.17,0,0,0,.25-1.48c-.13-.79-5.41-4.17-7-5s-9.51-1.17-9.51-1.17l-8.66,6.19,1.31.77c-.5.22-1,.45-1.44.7a16.15,16.15,0,0,0-2.29,1.48l-3.65,0v6.52h0c.08,2.46,1.64,4.9,4.74,6.82,6.79,4.21,18.36,4.4,25.8.42,3.84-2.07,5.82-4.85,5.92-7.63h0Zm-22.08,8.05-4.68-4.72a8.11,8.11,0,0,1,1.86-1.35c4-2.15,10.28-2,13.94.22a5.65,5.65,0,0,1,2.28,2.42Z" transform="translate(-41.14 -1.95)"/><path class="cls-14" d="M433,103.61c-5,0-10-1.13-13.57-3.39-3.08-1.9-4.87-4.43-5.09-7.13l0,0V86a.59.59,0,0,1,.58-.59l3.57,0A16.93,16.93,0,0,1,420.62,84l.18-.1-1.09-.65,9.83-7,.26,0c.83,0,8.1.35,9.83,1.25.07,0,7.18,4.08,7.43,5.57a2.81,2.81,0,0,1-.11,1.23l.23.13a14.29,14.29,0,0,1,2.24,1.72l2.28-.83a.44.44,0,0,1,.59.42l0,7c-.28,3.06-2.5,5.84-6.3,7.88A28.16,28.16,0,0,1,433,103.61Zm-17.16-11v.07c.08,2.29,1.64,4.49,4.38,6.19,6.58,4.09,17.81,4.26,25,.39,3.47-1.86,5.43-4.34,5.52-7v-5L449,88l-.35-.35a12.1,12.1,0,0,0-2.31-1.85l-.45-.25-.78-.43.18-.59a3.21,3.21,0,0,0,.23-1.14,43,43,0,0,0-6.63-4.46c-1-.54-5.91-.94-8.92-1.07l-7.49,5.35,1.58.94-1.36.59c-.48.21-.94.44-1.39.68a14.8,14.8,0,0,0-2.18,1.41L419,87l-3.15,0Zm13.4,2.48-5.53-5.57.55-.54a8.71,8.71,0,0,1,2-1.48c4.23-2.27,10.83-2.16,14.71.24a6.29,6.29,0,0,1,2.57,2.76l.36.83Zm-3.33-5.53,3.8,3.83,12-3.07a6,6,0,0,0-1.49-1.28C436.71,87,430.8,86.86,427,88.9A8,8,0,0,0,425.88,89.61Z" transform="translate(-41.14 -1.95)"/><path class="cls-11" d="M445.59,93.88c-7.43,4-19,3.8-25.79-.42S413.54,82.59,421,78.6s19-3.8,25.79.41S453,89.89,445.59,93.88Zm-19-11.77c-4,2.16-4.3,5.76-.63,8s9.92,2.38,13.94.23,4.3-5.76.63-8S430.65,80,426.63,82.11Z" transform="translate(-41.14 -1.95)"/><path class="cls-15" d="M446.88,81.06c-6.79-4.21-18.36-4.4-25.8-.41a11.61,11.61,0,0,0-5.28,5v5.56a10.54,10.54,0,0,0,4.11,4.26c6.78,4.21,18.35,4.39,25.79.41S453.66,85.27,446.88,81.06ZM440,92.41c-4,2.15-10.27,2-13.94-.22s-3.38-5.88.64-8,10.27-2.06,13.94.22S444.06,90.26,440,92.41Z" transform="translate(-41.14 -1.95)"/><path class="cls-14" d="M433,97.5c-5,0-10-1.13-13.57-3.38-3.4-2.11-5.22-4.92-5.13-7.91.11-3.2,2.36-6.15,6.35-8.28,7.65-4.1,19.56-3.91,26.56.43,3.39,2.11,5.21,4.92,5.12,7.9-.1,3.21-2.36,6.15-6.34,8.29A28.16,28.16,0,0,1,433,97.5Zm.64-21a26.48,26.48,0,0,0-12.27,2.8c-3.44,1.84-5.45,4.38-5.53,7-.08,2.42,1.48,4.75,4.39,6.55,6.58,4.09,17.81,4.26,25,.39,3.44-1.84,5.45-4.39,5.54-7,.07-2.42-1.49-4.75-4.4-6.56A24.83,24.83,0,0,0,433.61,76.48Zm-.49,16.19a14.64,14.64,0,0,1-7.53-1.88c-1.94-1.2-3-2.83-2.93-4.58s1.34-3.56,3.61-4.77c4.23-2.27,10.83-2.16,14.71.24,1.95,1.21,3,2.84,2.93,4.58s-1.34,3.56-3.61,4.78A15.55,15.55,0,0,1,433.12,92.67Zm.35-11.36A13.89,13.89,0,0,0,427,82.79c-1.75.93-2.77,2.2-2.81,3.47s.75,2.32,2.21,3.23c3.46,2.15,9.37,2.24,13.18.2,1.74-.93,2.76-2.2,2.8-3.47s-.75-2.33-2.21-3.23A12.94,12.94,0,0,0,433.47,81.31Z" transform="translate(-41.14 -1.95)"/></g><polygon class="cls-14" points="386.62 85.47 384.75 86.56 383.97 87.16 382.29 83.66 383.59 81.54 386.62 79.41 386.62 85.47"/><polygon class="cls-14" points="410.55 92.21 408.69 94.46 406.21 97.23 406.21 90.4 408.38 88.93 410.55 86.16 410.55 92.21"/><path class="cls-16" d="M516.39,190.82l-64.27-37.11c-3.9-2.25-3.41-6.18,1.09-8.78l22.24-12.84c4.5-2.6,11.31-2.88,15.21-.63l64.27,37.11c3.89,2.25,3.41,6.18-1.09,8.77l-22.25,12.85C527.09,192.78,520.29,193.07,516.39,190.82Z" transform="translate(-41.14 -1.95)"/><path class="cls-1" d="M551.77,157.82c2.4-2.23,2.49-4.93.1-6.82,2.56-2.46,2.34-5.46-.88-7.32l-64.27-37.11c-3.9-2.25-10.71-2-15.21.63L449.27,120c-4.12,2.38-4.87,5.88-2,8.18-2.33,2.24-2.35,4.93.1,6.8-2.67,2.47-2.49,5.54.77,7.42l64.27,37.11c3.9,2.25,10.71,2,15.21-.63l22.24-12.84C554.07,163.67,554.79,160.12,551.77,157.82Z" transform="translate(-41.14 -1.95)"/><path class="cls-6" d="M551.77,157.73c2.41-2.23,2.5-4.93.11-6.82,2.56-2.46,2.34-5.46-.88-7.32l-2.32-1.34-29.62,17.89V181a17.65,17.65,0,0,0,8.6-2.12L549.91,166C554.08,163.58,554.79,160,551.77,157.73Z" transform="translate(-41.14 -1.95)"/><path class="cls-16" d="M512.45,158.62l-64.27-37.1c-3.9-2.25-3.41-6.18,1.09-8.78L471.51,99.9c4.5-2.6,11.31-2.88,15.21-.63L551,136.37c3.9,2.25,3.41,6.18-1.09,8.78L527.66,158C523.16,160.59,516.35,160.87,512.45,158.62Z" transform="translate(-41.14 -1.95)"/><path class="cls-5" d="M550.55,139.17l-64.27-37.11c-3.89-2.25-10.7-2-15.2.63l-22.24,12.84a8,8,0,0,0-3.28,3.18,5.06,5.06,0,0,0,2.48,2.81l64.27,37.1c3.89,2.25,10.7,2,15.2-.63l22.24-12.84A8,8,0,0,0,553,142,5,5,0,0,0,550.55,139.17Z" transform="translate(-41.14 -1.95)"/><path class="cls-7" d="M537.54,142.72c-3.32-1.92-3.32-5,0-6.94a8.61,8.61,0,0,1,1.06-.5l-50.44-29.13a5.86,5.86,0,0,1-.87.62,13.26,13.26,0,0,1-12,0,6.13,6.13,0,0,1-1.41-1.13l-14.75,8.51a9.76,9.76,0,0,1,1.95.82c3.32,1.91,3.32,5,0,6.94a9,9,0,0,1-.94.44l50.42,29.11a6.91,6.91,0,0,1,.77-.54,13.24,13.24,0,0,1,12,0,6.17,6.17,0,0,1,1.42,1.12l14.74-8.51A9.65,9.65,0,0,1,537.54,142.72Z" transform="translate(-41.14 -1.95)"/><path class="cls-5" d="M509.26,137.78c-5.35,3.09-14,3.09-19.37,0s-5.35-8.09,0-11.18,14-3.09,19.37,0S514.62,134.7,509.26,137.78Z" transform="translate(-41.14 -1.95)"/><path class="cls-3" d="M553,151a5.39,5.39,0,0,0,1.43-3.47,4.76,4.76,0,0,0-1.7-3.5,5.62,5.62,0,0,0,1.71-3.8,5.31,5.31,0,0,0-3-4.52L487.13,98.56c-4.12-2.38-11.31-2.09-16,.63L448.87,112c-2.63,1.52-4.14,3.58-4.14,5.67a4.77,4.77,0,0,0,1.71,3.56,5.52,5.52,0,0,0-1.71,3.75,4.67,4.67,0,0,0,1.43,3.28,5.46,5.46,0,0,0-1.43,3.44,4.71,4.71,0,0,0,1.52,3.36,5.44,5.44,0,0,0-1.52,3.54,5.32,5.32,0,0,0,3,4.52L512,180.26a14.18,14.18,0,0,0,6.89,1.6h.26a18.43,18.43,0,0,0,8.87-2.24l22.24-12.84c2.62-1.51,4.13-3.58,4.13-5.67a4.64,4.64,0,0,0-1.51-3.31,5.51,5.51,0,0,0,1.52-3.59A4.67,4.67,0,0,0,553,151Zm-3.51,7.51-22.24,12.84a16.59,16.59,0,0,1-7.45,2V168.2a18.21,18.21,0,0,0,8.26-2.2l22.24-12.84a11.51,11.51,0,0,0,1.53-1,3,3,0,0,1,1,2.1C552.81,155.7,551.6,157.26,549.49,158.47Zm0-6.72-22.24,12.84a16.55,16.55,0,0,1-7.44,2V160.9a18.21,18.21,0,0,0,8.26-2.2l22.25-12.84a13.21,13.21,0,0,0,1.17-.78,3.23,3.23,0,0,1,1.32,2.41C552.8,149,551.59,150.53,549.48,151.75Zm0-7.3-22.24,12.84c-4.27,2.46-10.72,2.74-14.39.63l-64.27-37.11a3.78,3.78,0,0,1-2.22-3.11c0-1.49,1.2-3,3.31-4.26l22.24-12.84c4.27-2.46,10.72-2.74,14.39-.63l64.27,37.11a3.77,3.77,0,0,1,2.23,3.11C552.81,141.68,551.6,143.23,549.49,144.45ZM447.76,122.21h0l64.28,37.11a13.84,13.84,0,0,0,6.28,1.58v5.66a12.19,12.19,0,0,1-5.48-1.35l-64.27-37.11a3.78,3.78,0,0,1-2.22-3.1A4.13,4.13,0,0,1,447.76,122.21Zm-.34,7.09a2.07,2.07,0,0,0,.35.22L512,166.63a13.89,13.89,0,0,0,6.29,1.58v5.09a12,12,0,0,1-5.47-1.36l-64.27-37.11a3.77,3.77,0,0,1-2.22-3.1A3.85,3.85,0,0,1,447.42,129.3Zm.1,6.79h0l.22.15,64.28,37.11a13.84,13.84,0,0,0,6.28,1.57v5.27a12.18,12.18,0,0,1-5.48-1.36l-64.27-37.11a3.77,3.77,0,0,1-2.22-3.1A3.9,3.9,0,0,1,447.52,136.09Zm72.28,44.1v-5.26a18.47,18.47,0,0,0,8.26-2.2l22.25-12.85a11,11,0,0,0,1.41-1,3,3,0,0,1,1.08,2.19c0,1.49-1.21,3-3.32,4.26l-22.24,12.84A16.55,16.55,0,0,1,519.8,180.19Z" transform="translate(-41.14 -1.95)"/><path class="cls-3" d="M537.94,142a3.47,3.47,0,0,1-2.08-2.76c0-1,.74-2,2.08-2.76a6.81,6.81,0,0,1,1-.46l1.52-.63-52.28-30.19-.07,0-.44.35a6.41,6.41,0,0,1-.77.54,12.38,12.38,0,0,1-11.2,0,5.15,5.15,0,0,1-1.23-1l-.44-.47-16.67,9.62-.24.14,1.76.56a9.22,9.22,0,0,1,1.79.74c1.35.78,2.09,1.76,2.09,2.77s-.74,2-2.08,2.76c-.23.13-.48.24-.82.39l-1.54.66,51.85,29.93.53.2.44-.34a4.55,4.55,0,0,1,.6-.42,12.41,12.41,0,0,1,11.2,0,5.41,5.41,0,0,1,1.23,1l.44.46,16.66-9.62.25-.14-1.77-.55A9.46,9.46,0,0,1,537.94,142Zm-73.57-23.57c0-1.61-1-3.1-2.9-4.18L461,114l12.74-7.36a6.28,6.28,0,0,0,1.14.83,14.21,14.21,0,0,0,12.83,0,6,6,0,0,0,.53-.35l48.65,28.09a4.88,4.88,0,0,0-2.65,4c0,1.61,1,3.09,2.9,4.18l.47.25L524.87,151a7.17,7.17,0,0,0-1.14-.82,14.21,14.21,0,0,0-12.83,0c-.14.08-.27.17-.43.28L461.83,122.4A4.84,4.84,0,0,0,464.37,118.44Z" transform="translate(-41.14 -1.95)"/><path class="cls-3" d="M489.48,134.3a22.35,22.35,0,0,0,20.19,0c2.85-1.64,4.42-3.88,4.42-6.3s-1.57-4.65-4.42-6.3c-5.56-3.21-14.62-3.21-20.19,0-2.85,1.65-4.42,3.88-4.42,6.3S486.63,132.65,489.48,134.3Zm-2.79-6.3c0-1.81,1.28-3.54,3.61-4.89a20.59,20.59,0,0,1,18.56,0c2.32,1.35,3.6,3.08,3.6,4.89s-1.28,3.55-3.6,4.89c-5.12,3-13.45,3-18.56,0C488,131.55,486.69,129.81,486.69,128Z" transform="translate(-41.14 -1.95)"/><path class="cls-1" d="M355.78,105.43l-178.33,103c-3.12,1.8-8.57,1.57-12.18-.51L99.11,169.09c-3.6-2.08-4-5.23-.87-7l178.32-103c3.12-1.8,8.58-1.58,12.18.5L354.9,98.4C358.51,100.48,358.9,103.63,355.78,105.43Z" transform="translate(-41.14 -1.95)"/><path class="cls-17" d="M347.63,51,292.07,19.09a5.43,5.43,0,0,0-4.34-.4L254.38,30.35a4.59,4.59,0,0,1-3.28.06l-20.92-8.6c-4.59-1.89-6.35-2.48-11.55.19h0L186.32,3a1.45,1.45,0,0,0-1.44,0L110.43,45.61a13.58,13.58,0,0,0-5.71,8L100.1,71.49c-2.57,9.89-7.3,59.82-7.3,68.76v9.63c0,2.27.76,4,2.11,4.84l1.86,1.14,28.53,16.37a.92.92,0,0,0,1.21-.26h0a2,2,0,0,1,2.52-.58l.19.11a2.19,2.19,0,0,1,1.11,1.57l.15.85a3,3,0,0,0,1.48,2.13l21.58,12.39,12.62-24.71L196,122.48l95.74-55.37,34-1.11,21.09-12.63.92-1.81A.45.45,0,0,0,347.63,51Z" transform="translate(-41.14 -1.95)"/><path class="cls-3" d="M153.87,189.55l-22.31-12.8a3.84,3.84,0,0,1-1.87-2.7l-.15-.85a1.38,1.38,0,0,0-.7-1l-.19-.1a1.16,1.16,0,0,0-1.49.34,1.75,1.75,0,0,1-2.26.49l-4.34-2.5c-14.92-8.55-24-13.76-24.21-13.89l-1.86-1.14c-1.6-1-2.49-2.94-2.49-5.51v-9.64c0-8.47,4.67-58.77,7.32-69L104,53.46A14.29,14.29,0,0,1,110,44.92L184.49,2.25a2.22,2.22,0,0,1,2.23,0l31.94,18.83c5.11-2.54,7.08-2,11.82,0l20.93,8.59a3.79,3.79,0,0,0,2.71-.06l33.34-11.66a6.13,6.13,0,0,1,5,.47L348,50.28a1.26,1.26,0,0,1,.5,1.64l-1,2-.19.12L326,66.8l-34,1.1-95.42,55.19L166.81,164.2ZM128.1,170.36a2.84,2.84,0,0,1,1.32.33l.18.1a3,3,0,0,1,1.52,2.15l.15.85a2.19,2.19,0,0,0,1.09,1.57l20.85,12,12.24-24,30.16-41.58,95.91-55.47h.2l33.83-1.1L346.28,52.8l.66-1.3L291.68,19.79a4.6,4.6,0,0,0-3.69-.34L254.64,31.11a5.41,5.41,0,0,1-3.84,0l-20.93-8.6c-4.38-1.81-5.86-2.41-10.87.16l-.4.2L185.91,3.64a.6.6,0,0,0-.63,0L110.82,46.3a12.88,12.88,0,0,0-5.32,7.56l-4.63,17.83c-2.63,10.12-7.26,60.13-7.26,68.56v9.64c0,2,.62,3.47,1.71,4.14l1.87,1.15,24.16,13.87,4.35,2.49A3.14,3.14,0,0,1,128.1,170.36Z" transform="translate(-41.14 -1.95)"/><path class="cls-3" d="M305.82,63.08l-19.39-7.95L229.78,22.5l.7-1.43,19.75,8.11,56.29,32.47ZM241,27.1l46.16,26.6,8.3,3.4-45.9-26.48Z" transform="translate(-41.14 -1.95)"/><path class="cls-8" d="M132.8,173a2.17,2.17,0,0,1-1.17,2.78c-1,.25-2-.61-2.35-1.9a2.19,2.19,0,0,1,1.18-2.79C131.43,170.84,132.48,171.7,132.8,173Z" transform="translate(-41.14 -1.95)"/><path class="cls-3" d="M131.29,176.62a2.54,2.54,0,0,1-1.59-.6,3.7,3.7,0,0,1-1.2-2c-.43-1.75.34-3.4,1.76-3.75a2.94,2.94,0,0,1,3.32,2.49c.44,1.75-.34,3.4-1.76,3.75A2.33,2.33,0,0,1,131.29,176.62Zm-.5-4.78-.14,0c-.46.11-.83.89-.59,1.82a2.1,2.1,0,0,0,.65,1.1.9.9,0,0,0,.72.22c.47-.12.83-.89.6-1.82S131.24,171.84,130.79,171.84Z" transform="translate(-41.14 -1.95)"/><path class="cls-18" d="M216.56,161s-6.54,2.79-12.68-5.77-17,.69-17,.69l19.37-15.75s11.22,3.85,11.28,4.11,4,8.86,4,8.86l-4.24,5.54Z" transform="translate(-41.14 -1.95)"/><path class="cls-3" d="M213.89,162.25c-2.68,0-6.76-1.11-10.66-6.55a7.34,7.34,0,0,0-5.14-3.24c-4.63-.58-9.6,3.18-10.56,3.94l-.18.14-1-1.23.3-.24,19.43-15.8.42.14c11.63,4,11.67,4.14,11.8,4.69.13.33,2.42,5.4,3.93,8.71l.2.43L218,159.05l-.73,2.53-.35.15A8.09,8.09,0,0,1,213.89,162.25ZM197.11,150.8a9.18,9.18,0,0,1,1.17.07,8.84,8.84,0,0,1,6.24,3.9c4.93,6.86,10,6,11.39,5.6l.69-2.17,4-5.17c-2.58-5.66-3.41-7.54-3.69-8.19-1.16-.52-6.75-2.48-10.48-3.77l-12.56,10.21A12,12,0,0,1,197.11,150.8Z" transform="translate(-41.14 -1.95)"/><path class="cls-18" d="M331.48,94.64s-6.54,2.79-12.69-5.77-17,.7-17,.7l19.37-15.76s11.21,3.85,11.28,4.12,4,8.85,4,8.85l-4.25,5.54Z" transform="translate(-41.14 -1.95)"/><path class="cls-3" d="M328.8,95.89c-2.67,0-6.75-1.11-10.66-6.55A7.3,7.3,0,0,0,313,86.1c-4.61-.59-9.59,3.17-10.55,3.94l-.18.15-1-1.23.3-.25L321,72.91l.42.15c11.62,4,11.66,4.13,11.8,4.67.13.35,2.42,5.41,3.93,8.72l.2.44-4.45,5.8-.74,2.53-.34.15A8.11,8.11,0,0,1,328.8,95.89ZM312,84.44a8.81,8.81,0,0,1,7.41,4c4.93,6.86,10.05,6,11.39,5.6l.69-2.17,4-5.17c-2.57-5.65-3.4-7.53-3.68-8.18C330.62,78,325,76,321.3,74.71L308.75,84.92A12.39,12.39,0,0,1,312,84.44Z" transform="translate(-41.14 -1.95)"/><path class="cls-19" d="M198.93,186.07a18.79,18.79,0,0,1-9.27-3c-4.82-3-7.27-4.54-8.7-6.34s7.61-17.38,7.61-17.38l6.58-10.29s10.22,3.65,14.81,8.52S204.27,176,204.27,176Z" transform="translate(-41.14 -1.95)"/><path class="cls-3" d="M198.92,186.87a19.59,19.59,0,0,1-9.69-3.12l-.46-.29c-4.64-2.92-7-4.39-8.43-6.23s4.06-12.28,7.54-18.29l6.94-10.84.6.21c.42.15,10.45,3.76,15.12,8.72,4.92,5.22-4.54,18-5.63,19.46l-5.5,10.37h-.49ZM195.48,150l-6.23,9.74c-4,6.9-8.06,15.2-7.62,16.52,1.25,1.56,3.5,3,8,5.8l.47.29a18.69,18.69,0,0,0,8.37,2.86l5.1-9.62c2.82-3.72,9.2-13.91,5.82-17.5C205.59,154.12,197.7,150.9,195.48,150Z" transform="translate(-41.14 -1.95)"/><path class="cls-18" d="M212.85,163.63c.82,7-3.1,16.11-8.76,20.33s-10.92,1.95-11.74-5.06,3.1-16.11,8.76-20.33S212,156.62,212.85,163.63Z" transform="translate(-41.14 -1.95)"/><path class="cls-3" d="M198.6,186.88a6.16,6.16,0,0,1-2.51-.51c-2.49-1.07-4.1-3.69-4.54-7.38-.85-7.25,3.23-16.7,9.08-21.06,3-2.22,6-2.85,8.48-1.78s4.1,3.7,4.53,7.38c.85,7.26-3.22,16.71-9.08,21.07A10.17,10.17,0,0,1,198.6,186.88Zm8-29.64a8.62,8.62,0,0,0-5,2c-5.45,4.06-9.24,12.85-8.45,19.6.37,3.09,1.64,5.26,3.58,6.09s4.39.28,6.89-1.59c5.45-4.05,9.23-12.84,8.44-19.59-.36-3.09-1.63-5.26-3.57-6.1A4.8,4.8,0,0,0,206.59,157.24Z" transform="translate(-41.14 -1.95)"/><path class="cls-3" d="M199.73,182.72a4.72,4.72,0,0,1-1.9-.39c-1.87-.8-3.07-2.75-3.39-5.48-.62-5.29,2.34-12.17,6.61-15.35,2.21-1.65,4.45-2.11,6.32-1.31s3.07,2.76,3.39,5.49c.62,5.29-2.35,12.17-6.61,15.35A7.53,7.53,0,0,1,199.73,182.72Zm5.73-21.31a6,6,0,0,0-3.45,1.37,16.72,16.72,0,0,0-6,13.88c.26,2.14,1.12,3.63,2.44,4.2s3,.17,4.73-1.11a16.73,16.73,0,0,0,6-13.88c-.25-2.14-1.12-3.64-2.44-4.21A3.16,3.16,0,0,0,205.46,161.41Z" transform="translate(-41.14 -1.95)"/><path class="cls-3" d="M199.73,182.71a4.63,4.63,0,0,1-2.46-.68l-.48-.29,0-.72a1,1,0,0,1,.79-.75A6.54,6.54,0,0,0,200.5,179a16.73,16.73,0,0,0,6-13.88A5.74,5.74,0,0,0,205,161.5l-.4-.39.18-.7a.89.89,0,0,1,.94-.59c2.72.11,4.67,2.36,5.08,5.86.62,5.29-2.35,12.17-6.61,15.35A7.52,7.52,0,0,1,199.73,182.71ZM207.24,162a8.89,8.89,0,0,1,.83,2.93c.62,5.29-2.35,12.17-6.61,15.35a10.22,10.22,0,0,1-1.36.86,6.29,6.29,0,0,0,3.09-1.34,16.72,16.72,0,0,0,6-13.88A5.38,5.38,0,0,0,207.24,162Z" transform="translate(-41.14 -1.95)"/><path class="cls-19" d="M313.61,119.1a18.84,18.84,0,0,1-9.27-3c-4.82-3-7.28-4.55-8.7-6.34s7.61-17.39,7.61-17.39l6.58-10.28s10.22,3.64,14.81,8.52S319,109,319,109Z" transform="translate(-41.14 -1.95)"/><path class="cls-3" d="M313.6,119.91a19.65,19.65,0,0,1-9.69-3.12l-.46-.3c-4.65-2.92-7-4.38-8.44-6.22S299.08,98,302.56,92l6.94-10.85.6.22c.42.15,10.45,3.76,15.12,8.72,4.92,5.22-4.54,18-5.63,19.46l-5.5,10.37h-.49Zm-3.45-36.84-6.23,9.74c-4,6.91-8.05,15.21-7.62,16.52,1.26,1.57,3.51,3,8,5.81l.47.29a18.79,18.79,0,0,0,8.37,2.86l5.1-9.62c2.82-3.73,9.2-13.91,5.82-17.51C320.27,87.15,312.38,83.93,310.15,83.07Z" transform="translate(-41.14 -1.95)"/><ellipse class="cls-18" cx="317.28" cy="104.3" rx="15.65" ry="9.04" transform="translate(54.8 352.45) rotate(-66.69)"/><path class="cls-3" d="M313.28,119.92a6.38,6.38,0,0,1-2.52-.51c-2.49-1.08-4.1-3.7-4.53-7.38-.85-7.25,3.22-16.7,9.08-21.07,3-2.22,6-2.85,8.48-1.77s4.1,3.69,4.53,7.38c.85,7.25-3.22,16.7-9.08,21.06A10.19,10.19,0,0,1,313.28,119.92Zm8-29.64a8.67,8.67,0,0,0-5,2c-5.44,4-9.23,12.85-8.44,19.59.37,3.1,1.63,5.26,3.58,6.1s4.39.27,6.89-1.59c5.44-4.06,9.23-12.85,8.44-19.59-.36-3.1-1.63-5.27-3.58-6.1A4.58,4.58,0,0,0,321.27,90.28Z" transform="translate(-41.14 -1.95)"/><path class="cls-3" d="M314.41,115.75a4.76,4.76,0,0,1-1.91-.38c-1.86-.81-3.07-2.76-3.39-5.49-.61-5.28,2.35-12.17,6.62-15.35,2.2-1.64,4.44-2.1,6.31-1.3s3.08,2.75,3.4,5.48h0c.62,5.29-2.35,12.18-6.62,15.36A7.56,7.56,0,0,1,314.41,115.75Zm5.73-21.3a6,6,0,0,0-3.46,1.37,16.71,16.71,0,0,0-6,13.87c.25,2.15,1.12,3.64,2.44,4.21s3,.17,4.73-1.12a16.74,16.74,0,0,0,6-13.88h0c-.25-2.14-1.12-3.63-2.44-4.2A3.16,3.16,0,0,0,320.14,94.45Z" transform="translate(-41.14 -1.95)"/><path class="cls-3" d="M314.41,115.75a4.76,4.76,0,0,1-2.47-.68l-.48-.3.05-.71a.93.93,0,0,1,.79-.76,6.48,6.48,0,0,0,2.88-1.32,16.72,16.72,0,0,0,6-13.88,5.77,5.77,0,0,0-1.52-3.57l-.4-.38.18-.71a.91.91,0,0,1,.94-.58c2.72.1,4.66,2.35,5.08,5.86h0c.62,5.28-2.35,12.17-6.62,15.35A7.53,7.53,0,0,1,314.41,115.75ZM321.92,95a8.75,8.75,0,0,1,.83,2.93c.62,5.28-2.35,12.17-6.61,15.35a10.79,10.79,0,0,1-1.36.85,6.29,6.29,0,0,0,3.09-1.34,16.71,16.71,0,0,0,6-13.87h0A5.36,5.36,0,0,0,321.92,95Z" transform="translate(-41.14 -1.95)"/><path class="cls-3" d="M142.11,182.74l-2.27-2.52a12.39,12.39,0,0,1-2.65-4.68,9,9,0,0,0-4.11-5.16l-25.49-14.64a3.08,3.08,0,0,0-3.48.25,7,7,0,0,1-4.31,1.5H98.21v-1.6H99.8a5.39,5.39,0,0,0,3.32-1.15,4.67,4.67,0,0,1,5.27-.39L133.88,169a10.6,10.6,0,0,1,4.84,6.09,10.66,10.66,0,0,0,2.31,4.07l2.27,2.52Z" transform="translate(-41.14 -1.95)"/><path class="cls-20" d="M150,173.09a100.76,100.76,0,0,1,.72-11.84l-5.13-3a2.29,2.29,0,0,0-3.42,1.56l-.27,1.49A16.39,16.39,0,0,0,142,168l.7,2.9a5.58,5.58,0,0,0,2.51,3.45l4.7,2.87Z" transform="translate(-41.14 -1.95)"/><path class="cls-21" d="M147.9,162.27a2.29,2.29,0,0,0-3.41,1.57l-.27,1.49a16.34,16.34,0,0,0,.19,6.75l.55,2.28c.1.07.19.16.29.22l4.7,2.86v-4.15c0-3.08.2-6.27.51-9.51Z" transform="translate(-41.14 -1.95)"/><path class="cls-3" d="M150.75,178.67l-5.91-3.61a6.37,6.37,0,0,1-2.88-3.94l-.7-2.91a17.07,17.07,0,0,1-.2-7.08l.27-1.49a3.09,3.09,0,0,1,4.61-2.11l5.59,3.3-.06.51a99.65,99.65,0,0,0-.72,11.75Zm-6.38-20a1.46,1.46,0,0,0-1.46,1.22l-.27,1.49a15.49,15.49,0,0,0,.18,6.43l.7,2.9a4.8,4.8,0,0,0,2.15,3l3.48,2.12v-2.73a102.33,102.33,0,0,1,.67-11.41l-4.69-2.77A1.48,1.48,0,0,0,144.37,158.7Z" transform="translate(-41.14 -1.95)"/><path class="cls-20" d="M92.91,144.47l3.72,2.23a2,2,0,0,0,2.76-.68l1.22-2a9.2,9.2,0,0,0,1.29-5.79l-.19-1.79a6.67,6.67,0,0,0-3.12-4.94l-5-3-.1.19a101,101,0,0,0-.7,11.6v4.15Z" transform="translate(-41.14 -1.95)"/><path class="cls-21" d="M98.67,140.23l-.2-1.79a6.6,6.6,0,0,0-3.12-4.93l-2.15-1.32c-.24,2.79-.4,5.55-.4,8.22v4.15l.11.07,3.72,2.22a1.46,1.46,0,0,0,.19.07l.55-.9A9.19,9.19,0,0,0,98.67,140.23Z" transform="translate(-41.14 -1.95)"/><path class="cls-3" d="M97.66,147.78a2.8,2.8,0,0,1-1.44-.4L92,144.85v-4.6a103,103,0,0,1,.7-11.7l.2-.48.41-.73L99,130.83a7.44,7.44,0,0,1,3.5,5.53l.2,1.79a10,10,0,0,1-1.41,6.29l-1.22,2A2.81,2.81,0,0,1,97.66,147.78Zm-4-3.83L97,146a1.22,1.22,0,0,0,1.67-.41l1.22-2a8.45,8.45,0,0,0,1.18-5.29l-.2-1.79a5.84,5.84,0,0,0-2.74-4.33l-4-2.45a100.18,100.18,0,0,0-.57,10.5Z" transform="translate(-41.14 -1.95)"/><path class="cls-3" d="M99.74,143.68a9.41,9.41,0,0,1-4.63-1.21L92.41,141l.79-1.39,2.7,1.52a7.76,7.76,0,0,0,5.21.88l.29,1.58A9.3,9.3,0,0,1,99.74,143.68Z" transform="translate(-41.14 -1.95)"/><path class="cls-3" d="M149.64,173.56l-3.76-2.29a13.63,13.63,0,0,1-3-2.46l-1.73-1.89,1.17-1.08,1.73,1.89a12.62,12.62,0,0,0,2.66,2.18l3.76,2.29Z" transform="translate(-41.14 -1.95)"/><rect class="cls-3" x="331.77" y="43.01" width="1.6" height="7.05" transform="translate(85.01 309.45) rotate(-60.03)"/><rect class="cls-3" x="309.92" y="14.68" width="1.6" height="38.65" transform="translate(85.44 284.63) rotate(-60.15)"/><path class="cls-8" d="M125,168.93l-9.37-5.4a2.74,2.74,0,0,1-1.14-2.18v-4.17c0-.84.51-1.23,1.14-.87l9.37,5.41a2.73,2.73,0,0,1,1.14,2.18v4.17C126.14,168.91,125.63,169.3,125,168.93Z" transform="translate(-41.14 -1.95)"/><path class="cls-22" d="M116.56,160.58c0-.84.51-1.23,1.14-.86l8.44,4.87v-.88a2.73,2.73,0,0,0-1.14-2.18l-9.37-5.41c-.63-.36-1.14,0-1.14.86v4.17a2.73,2.73,0,0,0,1.14,2.18l.93.54Z" transform="translate(-41.14 -1.95)"/><path class="cls-3" d="M125.45,169.87a1.63,1.63,0,0,1-.85-.25h0l-9.37-5.4a3.53,3.53,0,0,1-1.54-2.87v-4.17a1.77,1.77,0,0,1,.8-1.62,1.54,1.54,0,0,1,1.55.06L125.4,161a3.52,3.52,0,0,1,1.54,2.87v4.17a1.77,1.77,0,0,1-.8,1.61A1.28,1.28,0,0,1,125.45,169.87ZM115.3,157a.57.57,0,0,0,0,.14v4.17a2,2,0,0,0,.75,1.48l9.29,5.37s0-.08,0-.13V163.9a2,2,0,0,0-.74-1.49Z" transform="translate(-41.14 -1.95)"/><path class="cls-17" d="M167.57,78.37l74.14-42.43a.2.2,0,0,0,0-.34L187.09,3.32a3,3,0,0,0-3,0L110.42,45.52a11.73,11.73,0,0,0-3.66,3.58l57.51,32.34A11.2,11.2,0,0,1,167.57,78.37Z" transform="translate(-41.14 -1.95)"/><path class="cls-3" d="M164.49,82.48l-58.88-33.1.49-.72A12.37,12.37,0,0,1,110,44.83L183.7,2.61a3.79,3.79,0,0,1,3.8,0l55,32.52.09.63a1,1,0,0,1-.5.85L168,79.06a10.45,10.45,0,0,0-3.05,2.86ZM107.93,48.85l56.13,31.56a11.7,11.7,0,0,1,3.11-2.73h0l73.23-41.91L186.68,4a2.15,2.15,0,0,0-2.18,0L110.82,46.22A10.5,10.5,0,0,0,107.93,48.85Z" transform="translate(-41.14 -1.95)"/><path class="cls-23" d="M346.13,51.06l-34.6,12.1a4.59,4.59,0,0,1-3.28.05l-20.93-8.59c-4.58-1.89-10.35-1-16.3,2.4l-22.35,12.7L242,35.94a.11.11,0,0,0-.16-.09L167.57,78.42a13.6,13.6,0,0,0-5.7,8l-4.63,17.83c-2.56,9.89-7.29,59.82-7.29,68.76v9.63c0,2.27.76,4,2.1,4.83l1.87,1.15a6.35,6.35,0,0,0,5.38.37l17.52-5.68a29.35,29.35,0,0,0,5.66-2.56l2.89-1.67a4,4,0,0,0,1.76-3c.26-5.42,2.06-20.49,13.86-27.3s14,6,14.43,11a1.06,1.06,0,0,0,1.74.9l83.08-48a3.93,3.93,0,0,0,1.75-3c.26-5.41,2.07-20.49,13.86-27.3s14,6,14.44,11c.08,1,.83,1.41,1.74.89l3.26-1.88a19.15,19.15,0,0,0,6.14-6.1l3.69-5.62A22.32,22.32,0,0,0,349,69.18l0-15.63C349,51.53,347.79,50.48,346.13,51.06Z" transform="translate(-41.14 -1.95)"/><path class="cls-3" d="M156.83,190.26a6.22,6.22,0,0,1-3.33-.91l-1.86-1.14c-1.61-1-2.49-2.94-2.49-5.52v-9.63c0-8.47,4.67-58.77,7.32-69l4.63-17.83a14.29,14.29,0,0,1,6.07-8.54L241.83,35l.88.38.11.51,6.42,32.63,21.39-12.15c6.15-3.55,12.18-4.42,17-2.44l20.92,8.59a3.79,3.79,0,0,0,2.71-.06l34.6-12.1a2.86,2.86,0,0,1,2.66.26,3.53,3.53,0,0,1,1.28,3l0,15.63a23.09,23.09,0,0,1-4,12.12l-3.69,5.62a20,20,0,0,1-6.41,6.35l-3.26,1.88a2,2,0,0,1-2,.15,2,2,0,0,1-1-1.67c-.23-2.83-1.18-9.62-5.05-11.65-2.09-1.1-4.84-.67-8.19,1.26-11.3,6.53-13.18,20.8-13.46,26.64a4.77,4.77,0,0,1-2.15,3.62l-83.08,48a1.84,1.84,0,0,1-2.94-1.52c-.23-2.83-1.18-9.62-5.05-11.65-2.09-1.1-4.84-.67-8.18,1.25-11.31,6.53-13.18,20.81-13.47,26.65a4.74,4.74,0,0,1-2.15,3.62l-2.89,1.67a30.45,30.45,0,0,1-5.82,2.63l-17.51,5.68A8.67,8.67,0,0,1,156.83,190.26ZM241.42,37,168,79.11a12.85,12.85,0,0,0-5.33,7.56L158,104.5c-2.63,10.12-7.27,60.13-7.27,68.56v9.63c0,2,.63,3.48,1.72,4.15l1.87,1.14a5.52,5.52,0,0,0,4.72.3l17.51-5.68a29.36,29.36,0,0,0,5.51-2.49l2.89-1.67a3.2,3.2,0,0,0,1.36-2.32c.29-6.1,2.27-21,14.26-28,3.84-2.22,7.11-2.66,9.72-1.29,4.41,2.32,5.59,9.1,5.91,12.94a.52.52,0,0,0,.12.38s.18,0,.43-.12l83.07-48a3.22,3.22,0,0,0,1.36-2.32c.29-6.1,2.26-21,14.26-27.95,3.84-2.22,7.11-2.66,9.72-1.29,4.41,2.32,5.59,9.1,5.9,12.94,0,.24.09.36.13.38a.66.66,0,0,0,.42-.11l3.26-1.89A18.54,18.54,0,0,0,340.77,86l3.68-5.62a21.43,21.43,0,0,0,3.72-11.25l0-15.62a2,2,0,0,0-.61-1.67,1.31,1.31,0,0,0-1.2-.06l-34.6,12.1A5.3,5.3,0,0,1,308,64L287,55.36c-4.34-1.78-9.88-1-15.6,2.35L248.1,71Z" transform="translate(-41.14 -1.95)"/><path class="cls-3" d="M149.26,178.8v-5.92a84,84,0,0,1,.7-11.72l0-.46,4.92-2a2.4,2.4,0,0,1,2.12.72,4,4,0,0,1,.63,3.62L156,170.58a10.76,10.76,0,0,1-4.09,6.38Zm2.23-17a82.17,82.17,0,0,0-.63,11v2.87l.15-.1a9.29,9.29,0,0,0,3.44-5.41l1.67-7.54a2.53,2.53,0,0,0-.25-2.19.75.75,0,0,0-.63-.22Z" transform="translate(-41.14 -1.95)"/><path class="cls-3" d="M149.26,178.8v-6.55l.6-.15s3.31-.85,4.87-2.78l2.1-2.6-.82,3.85a10.75,10.75,0,0,1-4.09,6.39Zm1.6-5.32v2.27l.15-.1a8.86,8.86,0,0,0,2.79-3.5A14.06,14.06,0,0,1,150.86,173.48Z" transform="translate(-41.14 -1.95)"/><path class="cls-3" d="M172.94,167.82a2,2,0,0,1-1-.26,2.81,2.81,0,0,1-1.2-2.55v-2.64a6.32,6.32,0,0,1,2.7-5.08l3.23-1.86a2.23,2.23,0,0,1,2.3-.12,2.81,2.81,0,0,1,1.2,2.55v2.63a6.29,6.29,0,0,1-2.7,5.08l-3.23,1.86A2.6,2.6,0,0,1,172.94,167.82ZM178,156.65a1,1,0,0,0-.51.17l-3.23,1.86a4.7,4.7,0,0,0-1.9,3.69V165c0,.69.21,1.06.4,1.16s.53,0,.7-.12l3.23-1.87a4.68,4.68,0,0,0,1.9-3.69v-2.63c0-.69-.22-1.06-.4-1.17A.38.38,0,0,0,178,156.65Z" transform="translate(-41.14 -1.95)"/><path class="cls-3" d="M260.08,95.88a1.44,1.44,0,0,1-.58-.13,1.51,1.51,0,0,1-.83-1.12l-3.88-20.48A3.29,3.29,0,0,1,256.3,71l15-8.66c5.26-3,10.4-3.75,14.5-2L300,66.42a2.38,2.38,0,0,1,1.36,2.21A6.32,6.32,0,0,1,298.48,74L261,95.61A1.74,1.74,0,0,1,260.08,95.88Zm-3.72-22,3.86,20.34,37.46-21.61a4.7,4.7,0,0,0,2.07-3.86c0-.31-.1-.7-.39-.83l-14.17-6.07c-3.62-1.54-8.26-.87-13.07,1.91l-15,8.67a1.76,1.76,0,0,0-.75,1.45Z" transform="translate(-41.14 -1.95)"/><path class="cls-3" d="M293,77.12l-2.76-14.87L300,66.42a2.38,2.38,0,0,1,1.36,2.21A6.32,6.32,0,0,1,298.48,74Zm-.64-12.22,1.8,9.7,3.5-2a4.7,4.7,0,0,0,2.07-3.86c0-.31-.1-.7-.39-.83Z" transform="translate(-41.14 -1.95)"/><path class="cls-3" d="M238.3,108.39a1.33,1.33,0,0,1-.58-.13,1.46,1.46,0,0,1-.82-1.11L233,86.81a3.54,3.54,0,0,1,1.52-3.27l9.94-5.74a1.56,1.56,0,0,1,1.47-.13,1.48,1.48,0,0,1,.82,1.11l3.88,20.52a3.21,3.21,0,0,1-1.49,3.09l-9.94,5.74A1.78,1.78,0,0,1,238.3,108.39Zm-3.74-21.88,3.88,20.19,9.89-5.69a1.71,1.71,0,0,0,.72-1.41l-3.86-20.37-9.89,5.69A2.11,2.11,0,0,0,234.56,86.51Z" transform="translate(-41.14 -1.95)"/><path class="cls-3" d="M238.3,108.47a1.43,1.43,0,0,1-.58-.12,1.48,1.48,0,0,1-.82-1.12l-.51-2.7,8.56-5a1.69,1.69,0,0,0,.72-1.4l-3.58-18.94,2.36-1.36a1.56,1.56,0,0,1,1.47-.13,1.48,1.48,0,0,1,.82,1.11l3.88,20.52a3.22,3.22,0,0,1-1.49,3.1l-9.94,5.73A1.69,1.69,0,0,1,238.3,108.47Zm-.13-3.12.27,1.43,9.89-5.69a1.7,1.7,0,0,0,.72-1.4h0l-3.86-20.37-1.32.75,3.37,17.82a3.21,3.21,0,0,1-1.49,3.09Z" transform="translate(-41.14 -1.95)"/><path class="cls-3" d="M260.09,95.88a1.44,1.44,0,0,1-.58-.13,1.48,1.48,0,0,1-.83-1.12l-.51-2.69,36.14-20.87a4.74,4.74,0,0,0,2.07-3.44,1.41,1.41,0,0,0-.27-1.17L292,63l8,3.43a2.38,2.38,0,0,1,1.36,2.21A6.32,6.32,0,0,1,298.49,74L261,95.61A1.74,1.74,0,0,1,260.09,95.88ZM260,92.76l.27,1.43,37.46-21.61a4.7,4.7,0,0,0,2.07-3.86c0-.31-.1-.7-.39-.83L298,67.3c0,.15,0,.31,0,.47a6.35,6.35,0,0,1-2.86,4.69Z" transform="translate(-41.14 -1.95)"/><path class="cls-3" d="M262.19,130a1.9,1.9,0,0,1-1-.25,2.44,2.44,0,0,1-1.08-2.21v-6.86l-9-46.92a4.73,4.73,0,0,1,2.17-4.47l18.59-10.74c5.35-3.09,10.58-3.8,14.73-2l18.68,8.07c2,.91,3.19,3.17,3.19,6.21V80.5a8.83,8.83,0,0,1-1.93,5.2c-5.6,7.16-7,15.85-7.32,20.39a5.93,5.93,0,0,1-2.69,4.44l-33,19.06A2.73,2.73,0,0,1,262.19,130Zm19.59-72.83a18.47,18.47,0,0,0-9.06,2.77L254.13,70.66a3.15,3.15,0,0,0-1.39,2.79h0l9,47.07v7c0,.49.15.75.28.82s.43,0,.75-.14l33-19.06a4.43,4.43,0,0,0,1.9-3.18c.34-4.72,1.79-13.76,7.65-21.26a7.28,7.28,0,0,0,1.59-4.21V70.81c0-2.38-.81-4.11-2.24-4.74L286,58A10.66,10.66,0,0,0,281.78,57.16Z" transform="translate(-41.14 -1.95)"/><path class="cls-20" d="M271.84,97.1l-6.94,4c-.88.51-1.59,0-1.59-1.2h0a3.77,3.77,0,0,1,1.59-3l6.94-4c.88-.51,1.59,0,1.59,1.19h0A3.78,3.78,0,0,1,271.84,97.1Z" transform="translate(-41.14 -1.95)"/><path class="cls-8" d="M271,99.56l-6.94,4c-.88.51-1.59,0-1.59-1.2h0a3.77,3.77,0,0,1,1.59-3l6.94-4c.88-.51,1.59,0,1.59,1.19h0A3.78,3.78,0,0,1,271,99.56Z" transform="translate(-41.14 -1.95)"/><path class="cls-3" d="M264.27,102.1a1.63,1.63,0,0,1-.81-.21,2.19,2.19,0,0,1-.95-2,4.54,4.54,0,0,1,2-3.72l6.94-4a1.82,1.82,0,0,1,1.84-.08,2.18,2.18,0,0,1,1,2,4.56,4.56,0,0,1-2,3.72h0l-6.94,4A2.06,2.06,0,0,1,264.27,102.1Zm8.2-8.62a.62.62,0,0,0-.23.09l-6.94,4a3,3,0,0,0-1.19,2.33c0,.41.12.57.15.59s.09,0,.24-.08l6.94-4a3,3,0,0,0,1.19-2.34c0-.41-.12-.57-.15-.58Z" transform="translate(-41.14 -1.95)"/><path class="cls-3" d="M154.67,181.1a18.26,18.26,0,0,1-3.89-.39l.37-1.55c.06,0,5.87,1.34,10.75-1.37l26.17-15,.79,1.39-26.18,15A16.58,16.58,0,0,1,154.67,181.1Z" transform="translate(-41.14 -1.95)"/><path class="cls-24" d="M214.4,149.4,303,98.26Z" transform="translate(-41.14 -1.95)"/><rect class="cls-3" x="207.55" y="123.03" width="102.27" height="1.6" transform="translate(-68.41 143.78) rotate(-29.96)"/><path class="cls-3" d="M329.31,84.42,328.58,83c.09,0,9.48-4.85,13.22-8.37s5.59-5.49,5.61-5.51l1.17,1.08c-.07.08-1.83,2-5.68,5.6S329.7,84.22,329.31,84.42Z" transform="translate(-41.14 -1.95)"/><rect class="cls-3" x="226.47" y="127.66" width="31.06" height="1.6" transform="translate(-72.95 136.04) rotate(-29.96)"/><rect class="cls-3" x="219.11" y="138.59" width="8.03" height="1.6" transform="translate(-80.86 126.31) rotate(-29.57)"/><path class="cls-25" d="M330.77,75.66a1.91,1.91,0,1,1-2.42-1.55A2,2,0,0,1,330.77,75.66Z" transform="translate(-41.14 -1.95)"/><path class="cls-8" d="M330.77,77.12a1.91,1.91,0,1,1-2.42-1.55A2,2,0,0,1,330.77,77.12Z" transform="translate(-41.14 -1.95)"/><path class="cls-3" d="M329.08,78.8a2.93,2.93,0,0,1-2.73-2.2,3.1,3.1,0,0,1,.24-2.34A2.55,2.55,0,0,1,328.13,73a2.58,2.58,0,0,1,2.12.33,3.11,3.11,0,0,1,1.29,1.77,2.84,2.84,0,0,1-1.78,3.59A2.71,2.71,0,0,1,329.08,78.8Zm-.26-4.28a.69.69,0,0,0-.25,0A1,1,0,0,0,328,75a1.47,1.47,0,0,0-.1,1.13,1.12,1.12,0,1,0,2.11-.6,1.52,1.52,0,0,0-.61-.86A1.06,1.06,0,0,0,328.82,74.52Z" transform="translate(-41.14 -1.95)"/><rect class="cls-3" x="124.7" y="39.46" width="35.27" height="1.6" transform="translate(-42.13 74.87) rotate(-30.11)"/><rect class="cls-3" x="131.61" y="43.48" width="35.27" height="1.6" transform="translate(-43.21 78.89) rotate(-30.11)"/><rect class="cls-3" x="138.52" y="47.56" width="35.27" height="1.6" transform="translate(-44.33 82.9) rotate(-30.11)"/><rect class="cls-3" x="145.43" y="51.72" width="35.27" height="1.6" transform="translate(-45.48 86.95) rotate(-30.11)"/><rect class="cls-3" x="152.34" y="55.79" width="35.27" height="1.6" transform="translate(-46.59 90.95) rotate(-30.11)"/><rect class="cls-3" x="159.25" y="59.94" width="35.27" height="1.6" transform="translate(-47.75 94.96) rotate(-30.11)"/><path class="cls-3" d="M120.72,153.22l-1.59-.17L125.29,94a103.5,103.5,0,0,1,2.26-13.34l2.33-9.8,1.55.37L129.11,81a103.89,103.89,0,0,0-2.23,13.14Z" transform="translate(-41.14 -1.95)"/><path class="cls-21" d="M203.75,46.2l-31.24-18c-1.42-.82-1.24-2.26.39-3.2l11.48-6.63a6.21,6.21,0,0,1,5.54-.23l31.23,18c1.42.82,1.25,2.25-.39,3.2L209.28,46A6.13,6.13,0,0,1,203.75,46.2Z" transform="translate(-41.14 -1.95)"/><path class="cls-3" d="M206.42,43.87a5.75,5.75,0,0,1-2.81-.66l-31.24-18A2.42,2.42,0,0,1,171,23.09a3.06,3.06,0,0,1,1.76-2.5L184.24,14a6.92,6.92,0,0,1,6.34-.23l31.24,18a2.42,2.42,0,0,1,1.36,2.08,3.06,3.06,0,0,1-1.76,2.51L210,43A7.2,7.2,0,0,1,206.42,43.87Zm-2-2a5.35,5.35,0,0,0,4.74-.23L220.62,35c.71-.41,1-.84,1-1.12s-.35-.57-.56-.69l-31.24-18a5.38,5.38,0,0,0-4.74.23L173.57,22c-.71.4-1,.84-1,1.11s.35.58.56.7Z" transform="translate(-41.14 -1.95)"/><path class="cls-22" d="M172.77,24.48l.34.2.06,0L184.64,18a6.15,6.15,0,0,1,5.54-.23l30.9,17.84c1.58-1,1.74-2.36.34-3.17l-31.24-18a6.15,6.15,0,0,0-5.54.23l-11.47,6.62C171.53,22.23,171.35,23.66,172.77,24.48Z" transform="translate(-41.14 -1.95)"/><path class="cls-3" d="M221.09,36.56,189.78,18.48a5.41,5.41,0,0,0-4.74.23l-11.87,6.86-.8-.4A2.42,2.42,0,0,1,171,23.09a3.06,3.06,0,0,1,1.76-2.5L184.24,14a6.92,6.92,0,0,1,6.34-.23l31.24,18a2.43,2.43,0,0,1,1.36,2.07,3,3,0,0,1-1.69,2.48ZM187.77,16.44a5.72,5.72,0,0,1,2.81.66L221,34.69a1.23,1.23,0,0,0,.54-.84c0-.32-.35-.57-.56-.69l-31.24-18a5.38,5.38,0,0,0-4.74.23L173.57,22c-.71.4-1,.84-1,1.11s.3.53.51.66l11.12-6.42A7.23,7.23,0,0,1,187.77,16.44Z" transform="translate(-41.14 -1.95)"/><path class="cls-22" d="M194.18,35.14l-3.62-2.09c-.71-.41-.62-1.12.19-1.6h0a3.09,3.09,0,0,1,2.77-.11l3.63,2.09c.71.41.62,1.13-.2,1.6h0A3.09,3.09,0,0,1,194.18,35.14Z" transform="translate(-41.14 -1.95)"/><path class="cls-22" d="M194.18,32.68l-3.62-2.09c-.71-.41-.62-1.13.19-1.6h0a3.09,3.09,0,0,1,2.77-.11L197.15,31c.71.41.62,1.13-.2,1.6h0A3.09,3.09,0,0,1,194.18,32.68Z" transform="translate(-41.14 -1.95)"/><path class="cls-3" d="M195.39,33.76a3.36,3.36,0,0,1-1.61-.38h0l-3.62-2.1a1.6,1.6,0,0,1-.88-1.38,1.92,1.92,0,0,1,1.07-1.6,3.86,3.86,0,0,1,3.57-.12l3.63,2.1a1.61,1.61,0,0,1,.88,1.39,1.91,1.91,0,0,1-1.08,1.59A4,4,0,0,1,195.39,33.76ZM194.58,32a2.34,2.34,0,0,0,2-.11c.24-.14.28-.25.28-.25l-3.71-2.06a2.34,2.34,0,0,0-2,.11.71.71,0,0,0-.28.25Z" transform="translate(-41.14 -1.95)"/><path class="cls-22" d="M115.6,134.66l-6.49-3.74a3.66,3.66,0,0,1-1.51-2.9h0c0-1.12.68-1.63,1.51-1.15l6.49,3.74a3.66,3.66,0,0,1,1.51,2.9h0C117.11,134.63,116.43,135.14,115.6,134.66Z" transform="translate(-41.14 -1.95)"/><path class="cls-3" d="M116.2,135.64a2,2,0,0,1-1-.29l-6.49-3.74A4.38,4.38,0,0,1,106.8,128a2.11,2.11,0,0,1,.92-1.92,1.73,1.73,0,0,1,1.79.08l6.49,3.74a4.39,4.39,0,0,1,1.91,3.59,2.11,2.11,0,0,1-.92,1.92A1.56,1.56,0,0,1,116.2,135.64ZM116,134a.34.34,0,0,0,.2.07.92.92,0,0,0,.11-.53,2.86,2.86,0,0,0-1.12-2.21l-6.48-3.74a.36.36,0,0,0-.2-.07.92.92,0,0,0-.11.53,2.84,2.84,0,0,0,1.11,2.2Z" transform="translate(-41.14 -1.95)"/><path class="cls-8" d="M115.27,132.47c0,1.14-.8,1.6-1.78,1a3.93,3.93,0,0,1-1.78-3.08c0-1.13.8-1.59,1.78-1A3.92,3.92,0,0,1,115.27,132.47Z" transform="translate(-41.14 -1.95)"/><path class="cls-3" d="M114.29,134.54a2.43,2.43,0,0,1-1.2-.35,4.74,4.74,0,0,1-2.18-3.77,1.87,1.87,0,0,1,3-1.71,4.73,4.73,0,0,1,2.18,3.76,2,2,0,0,1-.92,1.85A1.69,1.69,0,0,1,114.29,134.54Zm-1.6-4.58h-.06s-.12.16-.12.45a3.17,3.17,0,0,0,1.38,2.39c.27.15.42.14.46.12s.12-.14.12-.46a3.15,3.15,0,0,0-1.38-2.38A.77.77,0,0,0,112.69,130Z" transform="translate(-41.14 -1.95)"/><path class="cls-22" d="M133.78,145l-6.48-3.74a3.67,3.67,0,0,1-1.51-2.9h0c0-1.12.68-1.63,1.51-1.15l6.48,3.74a3.64,3.64,0,0,1,1.52,2.9h0C135.3,145,134.62,145.47,133.78,145Z" transform="translate(-41.14 -1.95)"/><path class="cls-3" d="M134.39,146a2.08,2.08,0,0,1-1-.29l-6.48-3.74a4.4,4.4,0,0,1-1.92-3.59,2.1,2.1,0,0,1,.93-1.92,1.73,1.73,0,0,1,1.79.08l6.48,3.74a4.36,4.36,0,0,1,1.92,3.59,2.13,2.13,0,0,1-.92,1.92A1.56,1.56,0,0,1,134.39,146Zm-7.69-8.15h0a.92.92,0,0,0-.11.53,2.84,2.84,0,0,0,1.11,2.2l6.48,3.75a.6.6,0,0,0,.21.07.92.92,0,0,0,.11-.53,2.88,2.88,0,0,0-1.11-2.21l-6.49-3.74A.38.38,0,0,0,126.7,137.82Z" transform="translate(-41.14 -1.95)"/><path class="cls-8" d="M131.2,141.48c0,1.14-.8,1.6-1.79,1a4,4,0,0,1-1.8-3.1c0-1.15.81-1.61,1.8-1A4,4,0,0,1,131.2,141.48Z" transform="translate(-41.14 -1.95)"/><path class="cls-3" d="M130.21,143.56a2.34,2.34,0,0,1-1.2-.36,4.76,4.76,0,0,1-2.2-3.79,1.88,1.88,0,0,1,3-1.73,4.78,4.78,0,0,1,2.19,3.8,2.06,2.06,0,0,1-.92,1.85A1.77,1.77,0,0,1,130.21,143.56Zm-1.61-4.63h-.06s-.13.18-.13.47a3.17,3.17,0,0,0,1.4,2.41c.25.14.42.15.47.12a.64.64,0,0,0,.12-.46,3.19,3.19,0,0,0-1.39-2.42A.88.88,0,0,0,128.6,138.93Z" transform="translate(-41.14 -1.95)"/><rect class="cls-3" x="120.61" y="133.96" width="1.6" height="39.86" transform="translate(-113.96 178.32) rotate(-59.46)"/><rect class="cls-3" x="131.27" y="45.73" width="1.6" height="52.22" transform="translate(-37.09 148.71) rotate(-60.17)"/><path class="cls-22" d="M130.14,174.37a2.17,2.17,0,0,1-1.17,2.78c-1,.24-2-.61-2.35-1.91a2.18,2.18,0,0,1,1.18-2.78C128.77,172.22,129.82,173.07,130.14,174.37Z" transform="translate(-41.14 -1.95)"/><path class="cls-3" d="M128.63,178a2.59,2.59,0,0,1-1.59-.59,3.74,3.74,0,0,1-1.2-2c-.43-1.75.34-3.4,1.77-3.76s2.88.74,3.31,2.49-.34,3.4-1.76,3.76A2.33,2.33,0,0,1,128.63,178Zm-.5-4.77H128c-.46.12-.82.9-.59,1.82a2.1,2.1,0,0,0,.65,1.1.83.83,0,0,0,.72.22c.47-.11.83-.89.6-1.81S128.58,173.22,128.13,173.22Z" transform="translate(-41.14 -1.95)"/><path class="cls-4" d="M212.07,84.2l-22.47,13a5.51,5.51,0,0,0-2.59,6.1l7.05,28.19a3.21,3.21,0,0,0,4.74,2l22.35-13.09a5.51,5.51,0,0,0,2.56-6.06l-6.92-28.06A3.21,3.21,0,0,0,212.07,84.2Z" transform="translate(-41.14 -1.95)"/><path class="cls-26" d="M192.07,131.89a4.12,4.12,0,0,1-1.57-.32,4,4,0,0,1-2.34-2.73l-7-28.19a6.34,6.34,0,0,1,3-7l22.47-13a4,4,0,0,1,3.59-.21,4,4,0,0,1,2.33,2.73l6.91,28.07a6.34,6.34,0,0,1-2.94,6.95L194.1,131.33A4,4,0,0,1,192.07,131.89Zm16.49-50.1a2.31,2.31,0,0,0-1.19.32l-22.48,13a4.69,4.69,0,0,0-2.2,5.19l7.05,28.2a2.34,2.34,0,0,0,1.39,1.62,2.37,2.37,0,0,0,2.15-.14l22.34-13.09a4.71,4.71,0,0,0,2.18-5.17l-6.91-28.06a2.39,2.39,0,0,0-2.33-1.82Z" transform="translate(-41.14 -1.95)"/><path class="cls-15" d="M210.14,95.65l-6.35,23.77a.26.26,0,0,1-.44.11l-30-31.8a.26.26,0,0,1,.34-.38l28.08,20.92a.26.26,0,0,0,.38-.07l7.53-12.74A.25.25,0,0,1,210.14,95.65Z" transform="translate(-41.14 -1.95)"/><path class="cls-11" d="M208.5,98.52,201,111.26a.25.25,0,0,1-.37.08L184.68,99.47l18.61,19.73a.25.25,0,0,0,.19,0L209,98.72A.26.26,0,0,0,208.5,98.52Z" transform="translate(-41.14 -1.95)"/><path class="cls-26" d="M203.54,120.42a1.11,1.11,0,0,1-.78-.33l-30-31.8a1.07,1.07,0,0,1,1.41-1.59l27.59,20.55L209,95a1.07,1.07,0,0,1,2,.82l-6.36,23.77a1.08,1.08,0,0,1-.77.76A1.09,1.09,0,0,1,203.54,120.42ZM178.31,91.8l24.95,26.45,5.05-18.89-5.47,9.25a1.07,1.07,0,0,1-1.55.31Z" transform="translate(-41.14 -1.95)"/><path class="cls-22" d="M349,54.67l-7.77,4.48c-1.29.74-2.09,2.86-1.46,3.82l.7,1.07c1.3,2,3.73,2.26,6.37.74L349,63.54Z" transform="translate(-41.14 -1.95)"/><path class="cls-21" d="M347.18,58.11l-7.77,4.48c-1.29.74-2.09,2.86-1.46,3.82l.7,1.07c1.3,2,3.73,2.26,6.37.74L347.16,67Z" transform="translate(-41.14 -1.95)"/><path class="cls-3" d="M343.65,66.54a4.47,4.47,0,0,1-3.85-2.06l-.7-1.07a2.74,2.74,0,0,1-.24-2.15,4.54,4.54,0,0,1,2-2.8l9-5.18,0,10.72-2.54,1.47A7.23,7.23,0,0,1,343.65,66.54Zm4.55-10.49-6.57,3.79a3,3,0,0,0-1.22,1.79,1.28,1.28,0,0,0,0,.9l.7,1.07c1.05,1.61,3,1.79,5.3.49l1.74-1Z" transform="translate(-41.14 -1.95)"/><path class="cls-22" d="M341.23,59.15c-1.29.74-2.09,2.86-1.46,3.82l.7,1.07a3.92,3.92,0,0,0,4.74,1.46l-1.7-7.66Z" transform="translate(-41.14 -1.95)"/><path class="cls-3" d="M343.66,66.54a4.5,4.5,0,0,1-3.86-2.06l-.7-1.07a2.74,2.74,0,0,1-.24-2.15,4.54,4.54,0,0,1,2-2.8l3.22-1.86,2.1,9.45-.7.21A6.11,6.11,0,0,1,343.66,66.54Zm-.7-7.47-1.33.77a3,3,0,0,0-1.22,1.79,1.28,1.28,0,0,0,0,.9l.7,1.07a3,3,0,0,0,3.12,1.3Z" transform="translate(-41.14 -1.95)"/><path class="cls-27" d="M349.46,192.91l-18.54-10.7c-4-2.32-3.51-6.37,1.12-9.05h0c4.64-2.67,11.65-3,15.67-.65l18.54,10.71c4,2.32,3.51,6.37-1.12,9h0C360.49,194.94,353.48,195.23,349.46,192.91Z" transform="translate(-41.14 -1.95)"/><path class="cls-28" d="M383.41,103.09l-27.77-28.4h0L327.85,71a3.93,3.93,0,0,0-3.23.35l-9.16,5.48s0,0,0,0l5.61,12h0v18.91h0a129.5,129.5,0,0,0,18.28,48.47c12,18.72,14.38,20.32,14.4,20.33h0s1.47.72,7.76-1.21h0l1.63.75h0l6.39-3.74a57.19,57.19,0,0,0,5-3.06l.12-.07h0c11.34-8,13.66-24.8,13.66-24.82h0l0-31.27C388.35,109.79,386.33,105.7,383.41,103.09Z" transform="translate(-41.14 -1.95)"/><path class="cls-15" d="M380.12,104.1,357.34,80.79a1.48,1.48,0,0,0-1.8-.24c-4.34,2.52-8.11,4.54-8.71,4.81-.12.09,1.12.47,1,.56h0l-.12.07a57,57,0,0,1-5,3.06l-6.39,3.74h0l-1.63-.75h0c-6.28,1.93-7.74,1.22-7.75,1.21h0s-1.75-1.17-9.61-13l3.18,6.81c0,.21.09.42.14.63v18.59h0a129.67,129.67,0,0,0,18.29,48.46c12,18.72,14.38,20.32,14.4,20.33h0s1.47.72,7.75-1.21h0l1.63.75h0l6.39-3.74a57,57,0,0,0,5-3.06l.12-.07h0l.35-.27c8.15-8.12,10.26-20.73,10.45-22,0-.08,0-.14,0-.22l0-31.15C385.06,110.79,383.05,106.7,380.12,104.1Z" transform="translate(-41.14 -1.95)"/><path class="cls-29" d="M376.19,115.05h0l-1.37-.93c-1,.69-2.62,3.52-3.76,4.06l-6.38,3.74h0l-1.63-.75h0c-6.28,1.93-7.74,1.22-7.75,1.21h0s-16.42.58-32.13-3a130.88,130.88,0,0,0,15.92,37c12,18.72,14.39,20.32,14.4,20.33h0s1.47.71,7.76-1.21h0l1.63.75h0l6.39-3.74a57.19,57.19,0,0,0,5-3.06l.12-.07v0c11.34-8,13.66-24.79,13.67-24.82h0V113.29a11.65,11.65,0,0,0-1.09-4.65A90.45,90.45,0,0,1,376.19,115.05Z" transform="translate(-41.14 -1.95)"/><path class="cls-3" d="M354.81,177.54a3.23,3.23,0,0,1-1.45-.23c-.33-.21-2.91-2.16-14.75-20.64a130.12,130.12,0,0,1-18.41-48.82V89l-5.65-12.1.14-.65.31-.2,9.18-5.49a4.74,4.74,0,0,1,3.89-.44L356,73.86l.19.14L384,102.47c3.11,2.79,5.2,7.06,5.2,10.64l0,31.27c0,.28-2.37,16.91-13.6,25.21v.06l-.49.3c-1,.68-4,2.59-5.2,3.17l-6.79,4-.46-.29-1.22-.56A24.51,24.51,0,0,1,354.81,177.54Zm-.65-1.78c.39.08,2.18.25,7.08-1.25l.33-.11,1.53.71,6-3.51a56.6,56.6,0,0,0,5-3l.11-.08c10.87-7.67,13.28-24.07,13.3-24.23V113.11c0-3.08-1.91-6.93-4.64-9.37l0,0L355.22,75.49l-27.49-3.67a3.22,3.22,0,0,0-2.63.23l-8.55,5.1,5.38,11.32v19.27a128.05,128.05,0,0,0,18.15,48C350.54,172.1,353.62,175.27,354.16,175.76Z" transform="translate(-41.14 -1.95)"/><path class="cls-28" d="M355.6,74.71s0,0,0,0L327.85,71a3.93,3.93,0,0,0-3.23.35l-9.16,5.48s0,0,0,0l2.91,6.24h0l27.82-2.76h0Z" transform="translate(-41.14 -1.95)"/><path class="cls-15" d="M332.76,74.84a3.9,3.9,0,0,0-3.22.35l-9.16,5.48s0,0,0,0l1.14,2.44,25-2.48h0l5.45-3.25Z" transform="translate(-41.14 -1.95)"/><path class="cls-14" d="M321,77.2s0,0,0,0l9.17-5.47a2.59,2.59,0,0,1,.6-.3l-3-.41a3.9,3.9,0,0,0-3.22.36l-9.16,5.48s0,0,0,0l2.92,6.24h0l5.23-.52Z" transform="translate(-41.14 -1.95)"/><path class="cls-3" d="M317.73,84l-.19-.73-3-6.35.14-.65.31-.2,9.18-5.49a4.74,4.74,0,0,1,3.89-.44l28.26,3.77.23,1.23-.52.31-9.58,5.72h-.24Zm-1.18-6.85,2.35,5L346,79.47l7.12-4.26-25.34-3.39a3.22,3.22,0,0,0-2.63.23Z" transform="translate(-41.14 -1.95)"/><path class="cls-28" d="M374,108.72,346.22,80.31h0l-27.78-3.71c-2.92-.77-4.94,1-4.94,4.31l0,31.26h0a129.5,129.5,0,0,0,18.28,48.47c12,18.72,14.39,20.32,14.4,20.33h0s2.43,1.19,14.5-3.63C376,171.22,378.9,150,378.91,150h0l0-31.27C378.93,115.41,376.91,111.32,374,108.72Z" transform="translate(-41.14 -1.95)"/><path class="cls-22" d="M372.08,119.51l-23.4-24h0l-23.42-3.13c-2.46-.66-4.16.83-4.17,3.63v26.35h0a109.11,109.11,0,0,0,15.41,40.85c10.1,15.78,12.12,17.13,12.14,17.14h0s2,1,12.21-3.06c12.93-5.16,15.39-23,15.39-23h0l0-26.35A12.36,12.36,0,0,0,372.08,119.51Z" transform="translate(-41.14 -1.95)"/><path class="cls-3" d="M347.23,182a3.26,3.26,0,0,1-1.49-.24c-.3-.2-2.88-2.15-14.71-20.63a130,130,0,0,1-18.42-48.82V80.9a5.51,5.51,0,0,1,1.87-4.5,4.67,4.67,0,0,1,4.16-.64l27.9,3.72.2.14,27.84,28.47c3.11,2.79,5.2,7.06,5.2,10.64l0,31.27c0,.32-3,21.82-18.8,28.14C353,181.32,349.07,182,347.23,182Zm-.66-1.77c.53.11,3.57.41,13.76-3.66,14.71-5.86,17.69-26.44,17.72-26.65V118.73c0-3.08-1.91-6.93-4.64-9.37l0,0-27.57-28.2-27.5-3.67a3.09,3.09,0,0,0-2.77.32,3.82,3.82,0,0,0-1.19,3.13l0,31.26a128.26,128.26,0,0,0,18.15,48C343,176.56,346.05,179.71,346.57,180.19Z" transform="translate(-41.14 -1.95)"/><path class="cls-28" d="M379.86,150.77l-.07-1.91a35.1,35.1,0,0,0,7.38-4.94l0,2.24A27.78,27.78,0,0,1,379.86,150.77Z" transform="translate(-41.14 -1.95)"/><path class="cls-11" d="M347.79,144.92c-5.62-3.25-10.2-10.9-10.19-17.06v-5.45c0-2.91,2.17-4,4.84-2.49l10.74,6.21a10.43,10.43,0,0,1,4.83,8.08v5.45C358,145.81,353.42,148.17,347.79,144.92Zm-5.36-22.78c-1.54-.9-2.8-.25-2.8,1.44V129c0,4.93,3.67,11.07,8.17,13.67s8.18.72,8.18-4.21V133a6.06,6.06,0,0,0-2.8-4.69Z" transform="translate(-41.14 -1.95)"/><path class="cls-11" d="M347.8,139.92a7.85,7.85,0,0,1-3.64-6.08c0-2.19,1.64-3,3.64-1.87a7.79,7.79,0,0,1,3.63,6.08C351.43,140.24,349.8,141.08,347.8,139.92Zm0-5.74c-.89-.51-1.61-.14-1.61.83a3.46,3.46,0,0,0,1.61,2.69c.88.52,1.61.14,1.61-.83A3.48,3.48,0,0,0,347.8,134.18Z" transform="translate(-41.14 -1.95)"/><path class="cls-11" d="M354.59,128.06l-2-1.18v-7.79a5.42,5.42,0,0,0-2.51-4.19l-4.5-2.6c-1.38-.8-2.51-.22-2.51,1.29v7.79l-2-1.17v-7.79c0-2.74,2-3.78,4.53-2.34l4.5,2.6a9.77,9.77,0,0,1,4.53,7.58Z" transform="translate(-41.14 -1.95)"/><path class="cls-26" d="M346.19,145.76c-5.63-3.25-10.2-10.9-10.2-17v-5.46c0-2.91,2.18-4,4.84-2.49L351.57,127a10.42,10.42,0,0,1,4.83,8.08v5.45C356.39,146.66,351.81,149,346.19,145.76ZM340.83,123c-1.55-.89-2.81-.24-2.81,1.45v5.45c0,4.93,3.66,11.06,8.17,13.67s8.18.71,8.18-4.22v-5.45a6.05,6.05,0,0,0-2.8-4.69Z" transform="translate(-41.14 -1.95)"/><path class="cls-26" d="M346.19,140.76a7.83,7.83,0,0,1-3.63-6.07c0-2.2,1.63-3,3.64-1.88a7.86,7.86,0,0,1,3.63,6.08C349.83,141.08,348.2,141.92,346.19,140.76Zm0-5.73c-.88-.51-1.61-.14-1.61.83a3.48,3.48,0,0,0,1.61,2.69c.89.51,1.61.14,1.61-.83A3.46,3.46,0,0,0,346.19,135Z" transform="translate(-41.14 -1.95)"/><path class="cls-26" d="M353,128.9l-2-1.17v-7.79a5.38,5.38,0,0,0-2.5-4.19l-4.5-2.61c-1.39-.8-2.51-.22-2.51,1.3v7.79l-2-1.17v-7.8c0-2.73,2-3.78,4.54-2.33l4.5,2.6a9.77,9.77,0,0,1,4.53,7.58Z" transform="translate(-41.14 -1.95)"/><path class="cls-1" d="M280.56,310.36c-8.36,4.48-21.38,4.27-29-.47s-7-12.23,1.32-16.72,21.38-4.27,29,.47S288.93,305.87,280.56,310.36Z" transform="translate(-41.14 -1.95)"/><g id="_6-2" data-name="6"><path class="cls-11" d="M282.68,291.26l-2.3.84a12.92,12.92,0,0,0-2.46-2c-.22-.14-.47-.27-.71-.4a4.21,4.21,0,0,0,.25-1.49c-.13-.78-5.4-4.16-7-5s-9.51-1.17-9.51-1.17l-8.66,6.18,1.31.78c-.49.22-1,.45-1.44.7a16,16,0,0,0-2.28,1.48l-3.65,0v6.53h0c.09,2.46,1.64,4.9,4.74,6.82,6.79,4.21,18.36,4.4,25.8.41,3.85-2.06,5.83-4.84,5.92-7.63h0Zm-22.08,8.05-4.68-4.72a7.7,7.7,0,0,1,1.87-1.35c4-2.15,10.27-2.05,13.94.22a5.65,5.65,0,0,1,2.27,2.41Z" transform="translate(-41.14 -1.95)"/><path class="cls-14" d="M264.12,308.63a26.38,26.38,0,0,1-13.57-3.39c-3.08-1.91-4.87-4.43-5.09-7.13l0,0v-7a.59.59,0,0,1,.59-.59l3.56,0a18.08,18.08,0,0,1,2.19-1.39L252,289l-1.08-.65,9.82-7H261c.82,0,8.09.36,9.82,1.26.07,0,7.19,4.08,7.44,5.57a3.19,3.19,0,0,1-.11,1.23l.22.13a13.84,13.84,0,0,1,2.24,1.72l2.28-.83a.44.44,0,0,1,.59.42l0,7c-.27,3.06-2.49,5.84-6.3,7.88A28.1,28.1,0,0,1,264.12,308.63ZM247,297.68l0,.07c.08,2.29,1.63,4.49,4.38,6.19,6.58,4.08,17.8,4.26,25,.39,3.47-1.86,5.43-4.34,5.51-7l0-.39v-4.61l-1.74.64-.35-.36a12.14,12.14,0,0,0-2.31-1.84,4.79,4.79,0,0,0-.45-.25l-.77-.43.18-.59a3,3,0,0,0,.22-1.14,43.29,43.29,0,0,0-6.62-4.46c-1.05-.54-5.92-.94-8.93-1.07l-7.48,5.34,1.58.94-1.37.6c-.48.21-.94.43-1.39.67a16.27,16.27,0,0,0-2.18,1.41l-.2.16L247,292Zm13.4,2.48-5.52-5.58.54-.54a9,9,0,0,1,2-1.48c4.24-2.26,10.84-2.15,14.71.25a6.29,6.29,0,0,1,2.57,2.76l.36.82ZM257,294.63l3.79,3.83,12-3.07a5.78,5.78,0,0,0-1.49-1.28c-3.46-2.15-9.37-2.23-13.17-.2A7.58,7.58,0,0,0,257,294.63Z" transform="translate(-41.14 -1.95)"/><path class="cls-11" d="M276.75,298.89c-7.44,4-19,3.8-25.8-.41s-6.26-10.88,1.18-14.86,19-3.8,25.79.41S284.18,294.91,276.75,298.89Zm-19-11.76c-4,2.15-4.31,5.76-.64,8s9.92,2.38,13.94.22,4.31-5.75.64-8S261.81,285,257.79,287.13Z" transform="translate(-41.14 -1.95)"/><path class="cls-15" d="M278,286.07c-6.79-4.21-18.36-4.39-25.8-.41a11.64,11.64,0,0,0-5.27,5v5.55a10.47,10.47,0,0,0,4.1,4.27c6.79,4.21,18.36,4.39,25.79.41S284.82,290.29,278,286.07Zm-6.83,11.36c-4,2.15-10.28,2.05-13.94-.22s-3.39-5.88.63-8,10.27-2.05,13.94.23S275.21,295.27,271.2,297.43Z" transform="translate(-41.14 -1.95)"/><path class="cls-14" d="M264.12,302.52a26.38,26.38,0,0,1-13.57-3.39c-3.4-2.11-5.22-4.91-5.12-7.9.1-3.21,2.35-6.15,6.34-8.29,7.65-4.1,19.56-3.9,26.56.44,3.4,2.11,5.22,4.92,5.12,7.9-.1,3.21-2.35,6.15-6.34,8.29A28.1,28.1,0,0,1,264.12,302.52Zm.65-21a26.64,26.64,0,0,0-12.28,2.79c-3.43,1.85-5.45,4.39-5.53,7-.08,2.42,1.48,4.74,4.4,6.55,6.58,4.08,17.8,4.26,25,.39,3.43-1.84,5.45-4.39,5.53-7,.08-2.41-1.49-4.74-4.4-6.55A24.82,24.82,0,0,0,264.77,281.5Zm-.5,16.19a14.57,14.57,0,0,1-7.52-1.88c-1.95-1.21-3-2.83-2.94-4.58s1.34-3.56,3.61-4.78c4.24-2.26,10.84-2.15,14.71.25,1.95,1.21,3,2.84,2.94,4.58s-1.35,3.56-3.62,4.78A15.52,15.52,0,0,1,264.27,297.69Zm.35-11.36a13.92,13.92,0,0,0-6.47,1.48c-1.74.93-2.77,2.19-2.81,3.47s.75,2.32,2.21,3.23c3.46,2.15,9.38,2.24,13.18.2,1.74-.93,2.76-2.2,2.8-3.48s-.74-2.32-2.21-3.23A13,13,0,0,0,264.62,286.33Z" transform="translate(-41.14 -1.95)"/></g><polygon class="cls-14" points="217.78 290.49 215.9 291.57 215.12 292.17 213.44 288.67 214.75 286.56 217.78 284.43 217.78 290.49"/><polygon class="cls-14" points="241.7 297.23 239.85 299.48 237.36 302.25 237.36 295.42 239.53 293.95 241.7 291.18 241.7 297.23"/><path class="cls-9" d="M236,291.76l-58.76,33.93a6.6,6.6,0,0,1-6.6,0l-58.76-33.93a2.74,2.74,0,0,1,0-4.74l60.69-35a2.74,2.74,0,0,1,2.74,0L236,287A2.73,2.73,0,0,1,236,291.76Z" transform="translate(-41.14 -1.95)"/><polygon class="cls-9" points="189.99 264.67 128.15 300.38 66.31 264.67 128.15 228.97 189.99 264.67"/><polygon class="cls-9" points="66.31 264.67 66.31 279.18 128.15 314.88 128.15 300.38 66.31 264.67"/><polygon class="cls-12" points="189.99 264.67 189.99 279.18 128.15 314.88 128.15 300.38 189.99 264.67"/><path class="cls-3" d="M232,266.11l-.89-.51-61.83-35.7-61.84,35.7-.89.51v15.54l61.84,35.7.89.51.89-.51,61.39-35.45.44-.25V266.11ZM169.29,232l60.05,34.68-28,16.15L169.29,301.3l-60.06-34.67Zm-60.95,48.67V268.17l60.06,34.67v12.45Zm121.89,0-60,34.67V302.84l60-34.67Z" transform="translate(-41.14 -1.95)"/><path class="cls-9" d="M169.29,230.93l-39,22.49h0a18.07,18.07,0,0,1-19.37-.55c-1.13,11.37,10.68,21.06,15.62,24.59a13.64,13.64,0,0,0,1.8,1.24l40.92,23.63,61.83-35.7Z" transform="translate(-41.14 -1.95)"/><path class="cls-30" d="M128.7,278.7l40.92,23.63,55.58-32.09L170.06,238.4l-39,22.5h0a18,18,0,0,1-18.61-.06c3,7.77,10.67,14,14.41,16.62A13.64,13.64,0,0,0,128.7,278.7Z" transform="translate(-41.14 -1.95)"/><path class="cls-4" d="M119.94,271.91a57.08,57.08,0,0,0,6.62,5.55,13.64,13.64,0,0,0,1.8,1.24l40.92,23.63,48.47-28L170.38,247l-39,22.49h0A17.87,17.87,0,0,1,119.94,271.91Z" transform="translate(-41.14 -1.95)"/><path class="cls-3" d="M169.29,303.36l-41.37-23.89a15.55,15.55,0,0,1-1.91-1.31c-5.16-3.68-17.12-13.59-15.94-25.38l.16-1.57,1.26.94a17,17,0,0,0,18.39.5l39.41-22.75,61.79,35.68a1.21,1.21,0,0,1,0,2.1Zm-57.52-49c0,10.24,10.59,19,15.31,22.33a15.48,15.48,0,0,0,1.73,1.19l40.48,23.37,60.05-34.67L169.29,232l-38.52,22.24A19,19,0,0,1,111.77,254.41Z" transform="translate(-41.14 -1.95)"/><path class="cls-3" d="M175.75,244.64a8.61,8.61,0,0,1-4.24-1,3.18,3.18,0,0,1,0-5.92l13.94-8.05a11.94,11.94,0,0,1,11,0,3.94,3.94,0,0,1,0,7.36l-8.9,5.13-.89-1.54,8.9-5.13a2.74,2.74,0,0,0,1.64-2.14,2.71,2.71,0,0,0-1.64-2.14,10.32,10.32,0,0,0-9.19,0l-13.94,8c-.72.41-1.13.93-1.13,1.42s.41,1,1.13,1.42a7.52,7.52,0,0,0,6.7,0l12.5-7.21.89,1.54L180,243.61A8.59,8.59,0,0,1,175.75,244.64Z" transform="translate(-41.14 -1.95)"/><polygon class="cls-3" points="127.71 305.38 65.88 270.49 66.75 269.5 128.59 304.39 127.71 305.38"/><polygon class="cls-3" points="127.71 311.03 65.87 275.49 66.76 274.51 128.59 310.05 127.71 311.03"/><polygon class="cls-3" points="128.59 305.87 128.59 304.31 189.55 269.42 189.48 270.98 128.59 305.87"/><polygon class="cls-3" points="128.59 310.61 128.59 309.05 189.55 274.17 189.48 275.72 128.59 310.61"/><path class="cls-2" d="M183.24,281.19l-7.92-.83-.1-1.33-2.73-.28-.15-1.41,1.91-.51-7.6-.37,0-1.62,5,0c1.42-.77,3-1.92,2.45-3l0,0c-10.51,2-26,3.83-28.57-1.53-.32-.67-.82-2.37,1.51-3.53,5.24-2.6,23-.79,27.65,3.29,3-.58,6-1.22,8.54-1.86l.4,1.58c-1,.24-4,1-7.9,1.74.34,1,.16,2.28-1.66,3.7l5.93.29.22,1.41-.72.23-2,.52,3.4.36.1,1.33,2.28.24c3.31,0,7.43-.46,8.27-1.07a4,4,0,0,0-1-.71l.79-1.42c.6.33,2.2,1.21,1.87,2.5C192.72,280.89,186.75,281.19,183.24,281.19Zm-28.11-14.12c-3.08,0-5.76.35-7.33,1.13-1.15.57-.92,1.05-.76,1.37,1.78,3.72,14.11,2.85,25.53.85C169.15,268.47,161.34,267.07,155.13,267.07Z" transform="translate(-41.14 -1.95)"/><path class="cls-2" d="M185.43,269.3l-.39-1.57a5.6,5.6,0,0,0,2.49-1.44l1.19,1.1A7.11,7.11,0,0,1,185.43,269.3Z" transform="translate(-41.14 -1.95)"/><path class="cls-2" d="M184.67,283.37l-.55-.95c-1.23-.46-7.14-.35-12.18,0l-.13-1.62c13.23-1,13.65.35,13.82.92S185.49,282.89,184.67,283.37Z" transform="translate(-41.14 -1.95)"/><path class="cls-14" d="M183.32,279.64l-7.92-.82-.11-1.33-2.73-.29-.14-1.4,1.9-.52-7.59-.36,0-1.62,5,0c1.42-.78,3-1.93,2.44-3v0c-10.51,2-26,3.84-28.57-1.52-.33-.68-.83-2.37,1.51-3.53,5.24-2.61,23-.79,27.65,3.28,3-.57,6-1.21,8.54-1.85l.4,1.57c-1,.24-4,1-7.9,1.74.33,1,.16,2.28-1.66,3.71l5.92.28.23,1.42-.72.22-2,.53,3.4.35.1,1.33,2.28.24c3.31,0,7.42-.45,8.27-1.07a4.25,4.25,0,0,0-1-.71l.78-1.42c.61.33,2.21,1.21,1.88,2.5C192.8,279.34,186.83,279.64,183.32,279.64ZM155.2,265.53c-3.07,0-5.75.34-7.32,1.12-1.15.57-.92,1.06-.77,1.38,1.78,3.71,14.11,2.85,25.54.85C169.23,266.92,161.42,265.53,155.2,265.53Z" transform="translate(-41.14 -1.95)"/><path class="cls-14" d="M185.51,267.76l-.39-1.58a5.63,5.63,0,0,0,2.49-1.43l1.19,1.1A7.2,7.2,0,0,1,185.51,267.76Z" transform="translate(-41.14 -1.95)"/><path class="cls-14" d="M184.74,281.82l-.55-.95c-1.22-.45-7.13-.35-12.18,0l-.12-1.62c13.23-1,13.64.34,13.82.92S185.57,281.35,184.74,281.82Z" transform="translate(-41.14 -1.95)"/></g></svg>