<svg id="content" xmlns="http://www.w3.org/2000/svg" viewBox="0 0 612 330"><defs><style>.cls-1{fill:#dedede;}.cls-2{fill:#dfdfdf;}.cls-3{fill:#414242;}.cls-4{fill:#239bc6;}.cls-5{fill:#82cef0;}.cls-6{fill:#f1f1f1;}.cls-7{fill:#a3a3a3;}.cls-8{fill:#82cff1;}.cls-9{fill:#229cc7;}.cls-10{fill:#3f4040;}.cls-11{fill:#eee;}.cls-12{fill:#f0f0f0;}.cls-13{fill:#a2a2a2;}.cls-14{fill:#249ac5;}.cls-15{fill:#f5e4cc;}.cls-16{fill:#f0b735;}.cls-17{fill:#db9c17;}.cls-18{fill:#f4e3cc;}.cls-19{fill:#efb639;}.cls-20{fill:#f6e5cc;}.cls-21{fill:#f1b831;}.cls-22{fill:#82cdef;}.cls-23{fill:#fff;}.cls-24{fill:#efefef;}.cls-25{fill:#f3e2cc;}</style></defs><title>about-01</title><g id="illustration"><path class="cls-1" d="M485.8,242.59l-10.5-6.07a9.06,9.06,0,0,0,.37-2.42c0-.15,0-.27,0-.41a18.53,18.53,0,0,0,.9-5.43c0-3.13-1-5.54-2.85-6.88v0l-.31-.18a1.13,1.13,0,0,0-.18-.12l-.2-.1L424.78,193h0l-13.5-7.82v0l-.09,0-5.5-3.19c-3.07-1.46-7.24-.09-11.16,3.68a23,23,0,0,0-6.37,11c-1.3,5.24-.43,9.53,2.37,11.51l67.43,39.11.08.06.09,0h0l.63.32h0a6.25,6.25,0,0,0,2.26.41,10,10,0,0,0,4.92-1.49A18.38,18.38,0,0,0,470.3,243l.34-.17a9.26,9.26,0,0,0,1.9-1.52l10.5,6.07a1.61,1.61,0,0,1,0,2.76l-.92.52a49.94,49.94,0,0,1-50.54,0l-16.26-9.54a13.88,13.88,0,0,0-14.06,0l-25.55,14.81c-1.95-1.82-4-2.48-5.65-1.72l-39.95,23.67h0l0,0h0l-.18.1,0,.07a4.2,4.2,0,0,0-1.52,3.56,11.42,11.42,0,0,0,5.24,9.07,5.09,5.09,0,0,0,2.53.76,3.17,3.17,0,0,0,1.19-.25l.09,0,.27-.16.07,0,.05-.05,39.93-23.67c1.55-1.06,2-3.41,1.18-6.28-.05-.16-.12-.32-.17-.48l25.36-14.71a8.36,8.36,0,0,1,8.48,0l16.26,9.54a55.46,55.46,0,0,0,56.08,0l.92-.52a7.11,7.11,0,0,0,0-12.3Z"/><path class="cls-2" d="M368.82,239.24l-21.19,12.23c-2.38,1.37-6.52,1.2-9.26-.38l-19.86-11.47c-2.74-1.58-3-4-.67-5.34l9.08-5.25c9.06-5.23,24.89-4.57,35.36,1.47l5.88,3.39C370.9,235.47,371.19,237.87,368.82,239.24Z"/><ellipse class="cls-2" cx="256.33" cy="217.73" rx="32.44" ry="58.86" transform="translate(12.5 449.38) rotate(-83.88)"/><ellipse class="cls-2" cx="559.65" cy="224.33" rx="48.99" ry="28.28"/><path class="cls-1" d="M325.27,41.57H255.64v60.25h0c0,5.14,3.4,10.29,10.2,14.21,13.59,7.85,35.64,7.85,49.23,0,6.8-3.92,10.2-9.07,10.2-14.21h0Z"/><path class="cls-3" d="M290.46,122.59c-9,0-18.08-2-25-6S255,107.44,255,101.82V40.88h71v60.94c0,5.62-3.75,10.88-10.54,14.81S299.49,122.59,290.46,122.59ZM256.33,42.26v59.56c0,5.11,3.5,10,9.85,13.61,13.39,7.73,35.16,7.73,48.55,0,6.35-3.66,9.85-8.5,9.85-13.61V42.26Z"/><rect class="cls-3" x="230.01" y="80.85" width="60.19" height="1.38" transform="translate(178.3 341.55) rotate(-89.94)"/><rect class="cls-3" x="317.41" y="53.78" width="1.38" height="60.25"/><rect class="cls-3" x="313.96" y="56" width="1.38" height="60.25"/><rect class="cls-3" x="305.86" y="59.51" width="1.38" height="60.25"/><path class="cls-4" d="M313.32,54.83a17.54,17.54,0,0,1-4.44,6.63,27.84,27.84,0,0,1-4.55,3.43c-2.11,1.27-4.21,3.24-3.35,5.82,1.59,4.78-4.65,5.3-3.47,0,1.06-4.76-1-6.32-3.87-6.1s-3.91,5.35-2.5,11.07.19,8.42-2.76,8.33-3.34-5.61-2-9.18.54-11.41-4.22-10.08c-2.54.71-6.57,3.86-9.09-1.92a17.88,17.88,0,0,0-5.91-7l46.65-2.22Z"/><path class="cls-5" d="M275.52,62.58A17.66,17.66,0,0,0,270.16,56l-3,.15a17.9,17.9,0,0,1,5.91,7c1.8,4.13,4.37,3.7,6.62,2.86C278.15,66,276.68,65.23,275.52,62.58Z"/><path class="cls-5" d="M288.83,74.58c1.32-3.56.54-11.41-4.22-10.08a11.61,11.61,0,0,0-1.18.43c3.58.33,4.11,7,2.92,10.2-1.31,3.56-.93,9.08,2,9.17a3,3,0,0,0,2-.61C287.87,83.08,287.59,78,288.83,74.58Z"/><path class="cls-5" d="M300,70.46c1.06-4.76-1-6.32-3.87-6.1a2.44,2.44,0,0,0-1.35.57c2.25.25,3.65,2,2.74,6.07-.85,3.85,2.19,4.62,3.32,2.93C300.08,73.43,299.58,72.31,300,70.46Z"/><path class="cls-3" d="M288.52,84.7h-.17A2.9,2.9,0,0,1,286,83.31c-1.41-2.09-1.25-6.07-.27-8.72.9-2.45.69-6.81-.92-8.56a2.27,2.27,0,0,0-2.47-.62c-.42.12-.91.32-1.43.53-2.45,1-6.14,2.52-8.48-2.83a17.25,17.25,0,0,0-5.66-6.68L265,55.26l49.83-2.37L314,55.08A18.27,18.27,0,0,1,309.35,62a30.25,30.25,0,0,1-4.66,3.53c-2.61,1.56-3.64,3.24-3.05,5s.28,3.31-.8,4.16a2.49,2.49,0,0,1-2.83.16c-1.16-.74-1.6-2.32-1.17-4.25s.32-3.6-.41-4.44a3.12,3.12,0,0,0-2.73-.82,1.92,1.92,0,0,0-1.41.88c-1.24,1.72-1.44,5.47-.49,9.33s.79,6.44-.41,7.93A3.53,3.53,0,0,1,288.52,84.7Zm-5.36-20.79a3.51,3.51,0,0,1,2.65,1.19c2.15,2.33,2.14,7.38,1.19,10s-.88,6,.12,7.47a1.56,1.56,0,0,0,1.28.78,2.21,2.21,0,0,0,1.92-.75c.89-1.1.94-3.49.15-6.73-1.06-4.3-.78-8.41.7-10.47a3.26,3.26,0,0,1,2.42-1.44,4.45,4.45,0,0,1,3.88,1.28c1,1.2,1.28,3.1.71,5.65-.29,1.33-.08,2.37.57,2.78a1.07,1.07,0,0,0,1.24-.08c.61-.47.73-1.46.34-2.64-.56-1.68-.39-4.2,3.65-6.62A27.3,27.3,0,0,0,308.41,61a17,17,0,0,0,4.27-6.37l.64.25-.64-.25.08-.21L269,56.45a17.94,17.94,0,0,1,4.64,6.1c1.8,4.12,4.18,3.15,6.7,2.12a14.79,14.79,0,0,1,1.58-.58A4.44,4.44,0,0,1,283.16,63.91Z"/><path class="cls-6" d="M315.07,27.36c13.6,7.85,13.6,20.57,0,28.42s-35.64,7.85-49.23,0-13.6-20.57,0-28.42S301.48,19.51,315.07,27.36Z"/><path class="cls-3" d="M290.46,62.68c-9.11,0-18.21-2-25.14-6s-10.71-9.36-10.71-15.11,3.8-11.12,10.71-15.11c13.86-8,36.41-8,50.27,0,6.91,4,10.71,9.36,10.71,15.11s-3.8,11.12-10.71,15.11S299.56,62.68,290.46,62.68Zm0-40.18c-8.73,0-17.46,1.92-24.1,5.75-6.25,3.61-9.69,8.34-9.69,13.32s3.44,9.71,9.69,13.32c13.29,7.67,34.91,7.67,48.2,0,6.24-3.61,9.68-8.34,9.68-13.32s-3.44-9.71-9.68-13.32C307.91,24.42,299.18,22.5,290.46,22.5Z"/><ellipse class="cls-2" cx="290.46" cy="41.57" rx="28.95" ry="16.72"/><path class="cls-3" d="M290.46,59c-7.54,0-15.08-1.66-20.82-5s-8.82-7.7-8.82-12.42,3.13-9.13,8.82-12.42c11.48-6.62,30.15-6.62,41.63,0,5.69,3.29,8.83,7.7,8.83,12.42S317,50.7,311.27,54,298,59,290.46,59Zm0-33.42c-7.29,0-14.58,1.6-20.13,4.81-5.25,3-8.14,7-8.14,11.22s2.89,8.2,8.14,11.22c11.09,6.41,29.15,6.41,40.25,0,5.25-3,8.14-7,8.14-11.22s-2.89-8.19-8.14-11.22C305,27.14,297.74,25.54,290.46,25.54Z"/><ellipse class="cls-7" cx="290.46" cy="44.34" rx="5.07" ry="2.93"/><path class="cls-3" d="M290.46,45.19a8,8,0,0,1-3.94-.95,2.86,2.86,0,0,1,0-5.34,8.6,8.6,0,0,1,7.87,0,2.86,2.86,0,0,1,0,5.34A8,8,0,0,1,290.46,45.19Zm0-5.86a6.65,6.65,0,0,0-3.25.77,1.9,1.9,0,0,0-1.14,1.47,1.93,1.93,0,0,0,1.14,1.48,7.33,7.33,0,0,0,6.49,0,1.93,1.93,0,0,0,1.14-1.48,1.9,1.9,0,0,0-1.14-1.47A6.63,6.63,0,0,0,290.46,39.33Z"/><path class="cls-7" d="M270,33.31c11.31-6.53,29.64-6.53,40.95,0,4.79,2.77,7.55,6.26,8.28,9.87,0,0,.05,0,.06,0,.8-4.8-2-9.75-8.34-13.43-11.31-6.53-29.64-6.53-40.95,0-6.36,3.68-9.14,8.63-8.34,13.43,0,0,.06,0,.06,0C262.43,39.57,265.19,36.08,270,33.31Z"/><path class="cls-3" d="M261.66,43.9h-.57l-.13-.6c-.88-5.29,2.28-10.44,8.68-14.13,11.48-6.63,30.15-6.63,41.63,0,6.4,3.7,9.56,8.85,8.68,14.14l-.1.58-1.18,0-.14-.58c-.72-3.57-3.47-6.83-7.95-9.42-11.1-6.4-29.16-6.4-40.25,0h0c-4.48,2.59-7.23,5.85-7.95,9.42l-.11.56Zm28.8-16.16c7.53,0,15.07,1.66,20.81,5a19.28,19.28,0,0,1,7.17,6.64c-.83-3.36-3.55-6.51-7.86-9-11.1-6.41-29.16-6.41-40.25,0-4.3,2.48-7,5.63-7.85,9a19.3,19.3,0,0,1,7.16-6.63h0C275.38,29.4,282.92,27.74,290.46,27.74Z"/><path class="cls-2" d="M395,86c-9-5.2-16.31-17.85-16.31-28.25,0-5.07,1.74-8.65,4.56-10.41l0-.06L250.67,130l-4.89,3.08-6,3.8h0c-8.35-5.38-15.73-1.69-16.28,8.23-.6,10.61,6.92,24,16.28,29.44.57.34,158.37,90.59,175.78,100.55a3.13,3.13,0,0,0,3.12,0L571,187.78Z"/><path class="cls-8" d="M390.62,78.69c-9-5.21-16.31-17.86-16.31-28.26,0-5.07,1.74-8.65,4.56-10.41l0-.06L246.31,122.67l-4.89,3.08-6,3.8h0c-8.34-5.38-15.73-1.68-16.28,8.23-.59,10.61,6.92,24,16.28,29.44L411.17,267.78a3.11,3.11,0,0,0,3.11,0L566.6,180.43Z"/><path class="cls-4" d="M558.69,180.68c0-.59-151.28,84.45-151.28,84.45.58.33,0,0,4.1,2.65a3,3,0,0,0,3.12,0L567,180.43Z"/><path class="cls-3" d="M412.72,268.88a3.75,3.75,0,0,1-1.89-.51L235,167.82c-9.62-5.55-17.23-19.32-16.63-30.08.28-5,2.26-8.72,5.57-10.41s7.26-1.14,11.4,1.41l5.67-3.57,4.89-3.08L379.17,38.94l.53,1.3-.47.36c-2.73,1.71-4.23,5.2-4.23,9.83,0,10.17,7.16,22.58,16,27.66L568,180.43,414.63,268.37A3.82,3.82,0,0,1,412.72,268.88ZM228.05,127.76a7.45,7.45,0,0,0-3.45.8c-2.85,1.45-4.56,4.74-4.81,9.26-.58,10.29,6.72,23.49,15.93,28.81L411.51,267.18a2.48,2.48,0,0,0,2.43,0l151.28-86.75-175-101.14C381.09,74,373.62,61,373.62,50.43a15.72,15.72,0,0,1,1.61-7.4L246.67,123.25l-4.88,3.08h0l-3,1.91c-3.4,2.13-3.4,2.14-3.77,1.88A13.16,13.16,0,0,0,228.05,127.76Z"/><path class="cls-9" d="M404.64,86.9l-14-8.1c-9-5.2-16.31-17.85-16.31-28.26a15.11,15.11,0,0,1,1.5-7l-1.39-.74-128.11,80-4.89,3.08-10.87,1.64c-6.19-1.5-11,2.46-11.45,10.39-.59,10.61,6.92,24,16.28,29.45l13.09,7.49a1,1,0,0,0,1,0Z"/><path class="cls-3" d="M249,175.65a1.75,1.75,0,0,1-.86-.22l-7.63-4.37L235,167.93c-9.61-5.55-17.22-19.32-16.62-30.08.24-4.32,1.8-7.75,4.37-9.66a9.2,9.2,0,0,1,7.8-1.39l10.59-1.6,4.77-3L374.39,42l2.35,1.24-.32.6A14.49,14.49,0,0,0,375,50.54c0,10.17,7.16,22.58,16,27.66L406,86.91l-1,.59L249.83,175.43A1.67,1.67,0,0,1,249,175.65Zm-21-47.77a7.27,7.27,0,0,0-4.43,1.41c-2.24,1.67-3.59,4.73-3.81,8.64-.58,10.3,6.72,23.49,15.93,28.81l5.47,3.12,7.62,4.37a.34.34,0,0,0,.34,0L403.25,86.9l-13-7.51c-9.18-5.3-16.65-18.24-16.65-28.85a16.2,16.2,0,0,1,1.28-6.67l-.45-.24L246.67,123.37l-5.15,3.17-11,1.67-.13,0A10.42,10.42,0,0,0,228,127.88Z"/><path class="cls-8" d="M399.87,50.29A31.49,31.49,0,0,0,390.2,41c-4.61-2.66-8.76-2.85-11.72-1l-.06,0L223.84,128.15c2.91-1.46,6.81-1.14,11.12,1.34a31.68,31.68,0,0,1,9.82,9.49h0Z"/><path class="cls-3" d="M244.58,139.89l-.37-.52a30.59,30.59,0,0,0-9.6-9.28c-3.92-2.27-7.64-2.74-10.46-1.32l-.65-1.22L378.42,39.17l.05,0c3.29-1.82,7.55-1.4,12.07,1.21a32.08,32.08,0,0,1,9.9,9.49l.43.62-.66.37ZM228,126.59a15.73,15.73,0,0,1,7.34,2.3,31.77,31.77,0,0,1,9.68,9.18l153.89-88a30.33,30.33,0,0,0-9-8.47c-4.22-2.44-8.13-2.8-11-1l-.34.21-.07,0Z"/><rect class="cls-3" x="396.12" y="220.93" width="178.88" height="1.38" transform="translate(-46.16 268.07) rotate(-29.53)"/><rect class="cls-3" x="229.61" y="89.78" width="178.88" height="1.38" transform="translate(-3.16 168.95) rotate(-29.52)"/><path class="cls-3" d="M412.46,177.6,380.1,158.91l-24.22,14,32.36,18.69Zm-2.75,0-10,5.8-29.61-17.1,10.05-5.8Zm-41-10.51,29.61,17.1L388.24,190l-29.61-17.1Z"/><path class="cls-3" d="M487.55,159.7l-18.67-10.78h0l-12.3-7.1-11.33,6.54-28.81-16.64,11.32-6.54-7.59-4.38L337.9,157.58l-.23.11-7.23,15.43,7.15,4.12,4.76-2.75,12.34,7.12-7.75,4.47,27.41,15.83h0L393,212.69l-7.76,4.48L310.32,173.9l-.69,1.19,3.85,2.23.38,6.28,1.37-.08-.32-5.38,4.25,2.45.37,6.29,1.38-.08-.32-5.38,4,2.29.37,6.28,1.38-.08-.32-5.38,4.24,2.45.38,6.29,1.37-.09-.32-5.37,4.54,2.62.38,6.28,1.37-.08-.32-5.38,4,2.29.38,6.28,1.37-.08-.32-5.37,4.25,2.45.37,6.28L349,203l-.33-5.38,4.25,2.45.38,6.28,1.37-.08-.32-5.37,4.25,2.45.37,6.28,1.38-.08-.33-5.38,4,2.29.37,6.28,1.38-.08-.32-5.37,4.24,2.45.38,6.28,1.37-.08-.32-5.38,4,2.29.38,6.28,1.37-.08-.32-5.37,8.77,5.06,9.14-5.28h0l8.94-5.16h0l4.81-2.77h0Zm-31-16.29,9.54,5.51-4.25,2.46-5.69,3.28-9.55-5.51Zm-62.78,9.18,19.09,11-7,4-19.08-11Zm20.46,10.22-19.08-11,23.65-13.65,19.09,11Zm25-14.45-19.08-11,1.6-.92,19.09,11Zm-107.07,24.2,6.48-13.82,81.38-36.4,4.92,2.84-87.41,50.47Zm79.34-38,3.5-2,5.38,3.1-36.36,21,21.84,12.61,36.35-21,1.61.92h0l10.93,6.31-38.65,22.31-32.67,18.87-7.6-4.39L343.73,173.7Zm-61.87,51.54,6.37-3.67,26,15-.18.1-6.19,3.57Zm44.71,25.81-17.29-10,47.8-27.6,31.26-18.05h0l11.32-6.54,17.3,10-78,45.05-3.69-2.13,48-27.72-5.41-3.12-52.82,30.5,9.09,5.25Zm8.94-5.16-7.72-4.45,50.07-28.91,2.65,1.53-48,27.72,5.07,2.93-.75.43Z"/><path class="cls-3" d="M459.74,165l-5.4-3.12L445,167.24l5.41,3.12Zm-5.4-1.53L457,165l-6.57,3.79-2.65-1.53Z"/><path class="cls-3" d="M337.4,166.82l5.41,3.12,9.32-5.39-5.4-3.12Zm5.41,1.52-2.65-1.52,6.57-3.8,2.65,1.53Z"/><path class="cls-10" d="M457,198.9a4.31,4.31,0,0,1-1.94-1.72c-.2-.51.19-1,1.16-1.6a4.41,4.41,0,0,1,2.78-.68,8.06,8.06,0,0,1,3,1.12l5.91,3.41a5.08,5.08,0,0,1,2.08,1.79c.26.54-.11,1.09-1.1,1.66a4.27,4.27,0,0,1-2.86.64,9.17,9.17,0,0,1-3.11-1.21Zm3.46-2.09c-1.2-.69-2.1-.92-2.7-.67a3,3,0,0,0-.36.18,1.17,1.17,0,0,0-.35.3q-.12.16.12.51a4.17,4.17,0,0,0,1.19.88l6,3.48.06,0a5.17,5.17,0,0,0,2.41.91,1.46,1.46,0,0,0,.67-.2,2.1,2.1,0,0,0,.4-.26.38.38,0,0,0,.15-.25c.07-.31-.45-.78-1.55-1.42l-.05,0Z"/><path class="cls-10" d="M463.41,195.19a4.37,4.37,0,0,1-1.94-1.72c-.2-.51.19-1.05,1.15-1.6a4.45,4.45,0,0,1,2.79-.68,8.06,8.06,0,0,1,3,1.12l5.91,3.41a5,5,0,0,1,2.08,1.79c.26.54-.11,1.09-1.1,1.66a4.33,4.33,0,0,1-2.86.64,9.31,9.31,0,0,1-3.11-1.21Zm3.46-2.09c-1.2-.7-2.1-.92-2.7-.68a3.34,3.34,0,0,0-.36.19,1.17,1.17,0,0,0-.35.3q-.12.17.12.51a4.17,4.17,0,0,0,1.19.88l6,3.48.06,0a5.1,5.1,0,0,0,2.41.92,1.5,1.5,0,0,0,.67-.2,2.1,2.1,0,0,0,.4-.26.38.38,0,0,0,.15-.25c.07-.31-.45-.78-1.55-1.42l-.05,0Z"/><path class="cls-10" d="M469.84,191.47a4.25,4.25,0,0,1-1.94-1.71c-.2-.51.19-1,1.15-1.61a4.51,4.51,0,0,1,2.79-.67,8.2,8.2,0,0,1,3,1.11l5.91,3.42a5,5,0,0,1,2.08,1.79c.25.54-.11,1.09-1.1,1.66a4.33,4.33,0,0,1-2.86.64,9.31,9.31,0,0,1-3.11-1.21Zm3.46-2.09c-1.2-.69-2.1-.91-2.7-.67a3.34,3.34,0,0,0-.36.19,1,1,0,0,0-.35.3c-.08.11,0,.28.12.5a4.15,4.15,0,0,0,1.19.89l6,3.48.06,0a5.1,5.1,0,0,0,2.41.92,1.64,1.64,0,0,0,.67-.2,3.51,3.51,0,0,0,.4-.26.38.38,0,0,0,.15-.25c.07-.31-.45-.78-1.55-1.42l-.05,0Z"/><path class="cls-10" d="M474.71,185.05l1-.59,12.37,7.14-1.44.84-10.42-6a.87.87,0,0,1-.23.65,2.49,2.49,0,0,1-.7.58l-1-.58a1.76,1.76,0,0,0,.65-.94A1.26,1.26,0,0,0,474.71,185.05Z"/><path class="cls-10" d="M480.8,185.15a4.37,4.37,0,0,1-1.94-1.72c-.2-.51.19-1.05,1.15-1.6a4.45,4.45,0,0,1,2.79-.68,8.06,8.06,0,0,1,3,1.12l5.91,3.41a5,5,0,0,1,2.08,1.79c.26.54-.11,1.09-1.1,1.66a4.33,4.33,0,0,1-2.86.64,9.39,9.39,0,0,1-3.11-1.21Zm3.46-2.09c-1.2-.7-2.1-.92-2.7-.68a3.34,3.34,0,0,0-.36.19,1.17,1.17,0,0,0-.35.3c-.08.11,0,.28.12.5a4,4,0,0,0,1.19.89l6,3.48.06,0a5.1,5.1,0,0,0,2.41.92,1.46,1.46,0,0,0,.67-.2,2.1,2.1,0,0,0,.4-.26.38.38,0,0,0,.15-.25c.07-.31-.45-.78-1.55-1.42l-.05,0Z"/><path class="cls-10" d="M488.66,181.77c-1.93-1.12-2.91-1.92-3-2.41a1.22,1.22,0,0,1,.07-.51,2.07,2.07,0,0,1,1-.91q2-1.17,5.45.81a6.2,6.2,0,0,1,2.48,2.44c.22.43.43.85.63,1.27a7.1,7.1,0,0,0,2,2.58l2.71-1.57,1.09.63L497,186.48l-.69-.4a8.13,8.13,0,0,1-2.72-3.19s-.14-.27-.42-.77a8.58,8.58,0,0,1-.46-.89,3.17,3.17,0,0,0-.77-.88,9.7,9.7,0,0,0-2.62-1.56,2.89,2.89,0,0,0-.88-.21.93.93,0,0,0-.52.13.55.55,0,0,0-.27.25q-.19.47,1.59,1.5l1.61.93-1.42.81Z"/><path class="cls-10" d="M493.5,177.82a4.31,4.31,0,0,1-1.94-1.72c-.2-.51.18-1,1.15-1.61a4.51,4.51,0,0,1,2.79-.67,8.16,8.16,0,0,1,3,1.11l5.91,3.42a5,5,0,0,1,2.09,1.79c.25.54-.11,1.09-1.1,1.66a4.35,4.35,0,0,1-2.87.64,9.47,9.47,0,0,1-3.11-1.21Zm3.46-2.09c-1.2-.7-2.1-.92-2.7-.68a3.34,3.34,0,0,0-.36.19,1.17,1.17,0,0,0-.35.3c-.08.11,0,.28.12.5a4,4,0,0,0,1.19.89l6,3.48.05,0a5.17,5.17,0,0,0,2.41.92,1.64,1.64,0,0,0,.68-.2,3.51,3.51,0,0,0,.4-.26.38.38,0,0,0,.15-.25c.07-.31-.45-.78-1.55-1.42l0,0Z"/><path class="cls-10" d="M506.33,173.56a6.28,6.28,0,0,1,4.39,1.05c1.2.7,1.89,1.33,2.08,1.89s-.16,1.1-1,1.6a4.16,4.16,0,0,1-2.67.58,8.93,8.93,0,0,1-3.17-1.21l-.55-.32,1.41-.81.57.33a8.62,8.62,0,0,0,1.94.91,1.63,1.63,0,0,0,1.25-.19c.41-.24.51-.5.31-.78a6,6,0,0,0-1.65-1.2,7.28,7.28,0,0,0-2.18-.93,2.3,2.3,0,0,0-1.58.29l-.4.23-1.16-.67.38-.22a1.37,1.37,0,0,0,.62-.55c.14-.34-.34-.83-1.45-1.46l0,0a5.3,5.3,0,0,0-1.89-.77,1.78,1.78,0,0,0-1.14.21c-.32.18-.41.4-.26.66a4.07,4.07,0,0,0,1.36,1l.3.17-1.43.82L500,174c-1.11-.64-1.74-1.21-1.91-1.73s.18-1,1-1.5a4.44,4.44,0,0,1,2.66-.61,7.44,7.44,0,0,1,3,1.07Q507.13,172.57,506.33,173.56Z"/><path class="cls-10" d="M505.89,167.05l1.5-.87,8.89,5.14,1-.59,1.16.66-1,.59,2.34,1.35-1.32.76-2.34-1.35-2.93,1.69-1-.59Zm9.06,5-6.43-3.72,4.71,4.72Z"/><ellipse class="cls-2" cx="249.05" cy="210.18" rx="29.79" ry="54.06" transform="matrix(0.11, -0.99, 0.99, 0.11, 13.51, 435.39)"/><path class="cls-3" d="M256.15,241a93.17,93.17,0,0,1-37.75-7.78c-14.1-6.39-22.77-15.6-23.79-25.25-.73-7,2.57-13.38,9.57-18.54,16.92-12.51,50.8-13.56,75.52-2.34,14.1,6.4,22.77,15.6,23.79,25.25.73,7-2.57,13.38-9.57,18.55C284.86,237.61,270.93,241,256.15,241Zm-14.24-60.33c-14.46,0-28.07,3.33-36.91,9.86-6.58,4.87-9.7,10.85-9,17.3,1,9.15,9.35,18,23,24.14,24.32,11,57.57,10,74.13-2.19,6.58-4.86,9.7-10.84,9-17.29-1-9.16-9.35-18-23-24.15h0A91.91,91.91,0,0,0,241.91,180.69Z"/><path class="cls-7" d="M281,188.07l12.12,19.77s8.07,5.16,7.26,14.58C307,211,299.75,197.18,281,188.07Z"/><path class="cls-3" d="M299.42,225.4l.26-3c.76-8.88-6.88-13.89-6.95-13.94l-.22-.22-13.35-21.78,2.12,1c11.35,5.51,18.94,12.94,21.37,20.93A17.66,17.66,0,0,1,301,222.76Zm-5.81-18.05c1,.67,6.65,4.83,7.41,12.1a16.24,16.24,0,0,0,.31-10.67c-2.16-7.11-8.69-13.79-18.49-19Z"/><path class="cls-7" d="M202.91,222.05a21,21,0,0,1,0-23.14c2.48-3.87,2.38-6.78,1.08-9C192.07,199.05,192.32,211.62,202.91,222.05Z"/><path class="cls-3" d="M202.43,222.54c-5.67-5.58-8.46-11.74-8.08-17.81.37-5.7,3.57-11,9.26-15.32l.62-.47.39.66c1.64,2.74,1.27,6-1.09,9.69a20.06,20.06,0,0,0-.05,22.36ZM203.8,191c-5,4-7.75,8.74-8.07,13.8-.27,4.28,1.17,8.63,4.21,12.78a21.25,21.25,0,0,1,2.43-19.05C204.22,195.66,204.7,193.13,203.8,191Z"/><path class="cls-2" d="M292.32,202.11h0s-10.87-43.65-48.59-45.7c-36.29-2-45.49,42.21-45.49,42.21h0c-2.42,9.37,4.71,19.62,20,26.27,21.63,9.42,51.36,8,66.43-3.11C292.34,216.1,294.71,209,292.32,202.11Z"/><path class="cls-11" d="M247.34,212.37c7.69-5.68,10.06-12.8,7.67-19.66h0s-5.57-22.32-22.52-35.79c-27.07,6.4-34.35,41.24-34.35,41.24h0c-2.1,8.17,3.05,17,14.53,23.55C226.16,221.71,239,218.53,247.34,212.37Z"/><path class="cls-3" d="M249.89,231.8A81.42,81.42,0,0,1,218,225.52c-15-6.52-22.77-16.73-20.45-26.71l.07-.33c.1-.45,9.77-44.78,46.21-42.76,37.79,2.06,49.11,45.79,49.22,46.23v0c2.5,7.35-.39,14.76-7.95,20.34C276.61,228.58,263.56,231.8,249.89,231.8Zm-50.77-33.87h0l-.22.86c-2.42,9.4,5.08,19.15,19.57,25.47,21.38,9.31,50.88,8,65.74-3,7.18-5.3,9.82-12,7.43-18.88l-.32-.91h.07c-1.78-6.08-13.86-42.49-47.71-44.34C211.11,155.34,200.62,191.93,199.12,197.93Z"/><path class="cls-12" d="M281.72,181.28c-10.38-23.12-24-33.62-38.2-31.91A18.79,18.79,0,0,0,238,151l-13.05,6.52-.26,2,12.72-1.33,15.1,8.63,6,10.69,10.12,13.76,5.4,26.41,2.23,12.14.14.06,12.47-8.59a2.65,2.65,0,0,0,1.15-2C290.26,215,290.36,200.54,281.72,181.28Z"/><path class="cls-3" d="M276.45,230.63l-.69-.29-.2-.43-2.23-12.13L268,191.53l-10-13.64L252,167.29l-14.75-8.42-13.37,1.39.42-3.23,13.39-6.69a19.61,19.61,0,0,1,5.75-1.66c14.91-1.81,28.74,9.68,38.9,32.32h0c8.76,19.51,8.59,34.24,8.34,38.28a3.31,3.31,0,0,1-1.45,2.54Zm-38.9-73.18L253,166.29l6.07,10.86,10.19,13.95,5.41,26.41,2.06,11.25,11.71-8.07a2,2,0,0,0,.85-1.49c.25-4,.41-18.42-8.21-37.64-9.89-22-23.21-33.23-37.49-31.51a18.33,18.33,0,0,0-5.32,1.53l-12.7,6.35-.1.78Z"/><path class="cls-2" d="M274.09,204.81l-2.21,2.4L274,217.65l2.23,12.14.14.06,12.47-8.6a2.62,2.62,0,0,0,1.15-2c.2-3.11.28-11.57-3-23.33Z"/><path class="cls-3" d="M276.46,230.63l-.69-.29-.21-.43-2.22-12.13L271.13,207l2.57-2.75,13.73-9.45.26.93c3.3,11.92,3.19,20.44,3,23.55a3.31,3.31,0,0,1-1.45,2.54Zm-3.84-23.21,2.07,10.09,2.06,11.24,11.71-8.06a2,2,0,0,0,.85-1.49c.19-3,.29-10.94-2.7-22.17l-12.06,8.31Z"/><path class="cls-7" d="M214.45,167.81s20-21,40,6.17,17.49,54,17.49,54l4.24,1.88a.09.09,0,0,0,.13-.07c.18-1.6,2-19.76-7.93-41.83-10.37-23.12-24-33.63-38.19-31.92-16.26,2-25.68,25.82-25.68,25.82A65.32,65.32,0,0,1,214.45,167.81Z"/><path class="cls-3" d="M276.18,230.57a.72.72,0,0,1-.32-.08l-4.69-2.07.05-.49c0-.26,2.2-26.88-17.37-53.54-6.28-8.56-13.19-13.14-20.52-13.61-10.48-.63-18.31,7.43-18.39,7.51h0a65.18,65.18,0,0,0-9.85,13.89l-1.26-.56c.39-1,9.76-24.26,26.24-26.25C245,153.56,258.81,165,269,187.68c9.92,22.1,8.21,40.21,8,42.2l0,.35-.36.24A.8.8,0,0,1,276.18,230.57Zm-3.56-3,3.05,1.34c.34-4.12,1-20.71-8-40.65-9.89-22-23.19-33.24-37.48-31.51-6.81.82-12.44,5.69-16.62,10.95.11-.12.22-.24.34-.35.36-.39,8.36-8.62,19.46-7.93,7.76.49,15,5.26,21.55,14.16C273.37,198.65,272.83,223.74,272.62,227.56Z"/><rect class="cls-3" x="271.22" y="194.17" width="15.48" height="1.38" transform="translate(-61.3 191.33) rotate(-34.34)"/><rect class="cls-3" x="233.51" y="151.89" width="15.27" height="1.38" transform="translate(-42.4 120.48) rotate(-25.86)"/><path class="cls-1" d="M560.5,299.42,513.42,326.6a5.25,5.25,0,0,1-5.28,0l-47.08-27.18a2.19,2.19,0,0,1,0-3.79l48.62-28.08a2.2,2.2,0,0,1,2.19,0l48.63,28.08A2.19,2.19,0,0,1,560.5,299.42Z"/><polygon class="cls-1" points="556.61 279.29 507.07 307.89 457.53 279.29 507.07 250.68 556.61 279.29"/><polygon class="cls-1" points="457.53 279.29 457.53 290.91 507.07 319.51 507.07 307.89 457.53 279.29"/><polygon class="cls-13" points="556.61 279.29 556.61 290.91 507.07 319.51 507.07 307.89 556.61 279.29"/><path class="cls-10" d="M557.33,278.87l-.72-.41-49.54-28.6-49.54,28.6-.71.42v12.44l49.54,28.6.71.41.71-.41L557,291.52l.36-.2V278.87Zm-50.26-27.36,48.12,27.78-22.41,12.94-25.71,14.84L459,279.29Zm-48.83,39v-10l48.12,27.78v10Zm97.66,0-48.12,27.78v-10l48.12-27.78Z"/><path class="cls-1" d="M507.07,250.68l-31.21,18h0a14.46,14.46,0,0,1-15.52-.45c-.91,9.12,8.55,16.88,12.51,19.71a11.78,11.78,0,0,0,1.44,1l32.78,18.93,49.54-28.6Z"/><path class="cls-11" d="M474.55,289l32.79,18.93,44.53-25.71-44.18-25.51-31.21,18h0a14.44,14.44,0,0,1-14.91-.05c2.42,6.22,8.55,11.18,11.54,13.32A12.6,12.6,0,0,0,474.55,289Z"/><path class="cls-10" d="M507.07,308.71l-33.14-19.13a12.86,12.86,0,0,1-1.53-1.06c-4.13-2.95-13.72-10.88-12.77-20.33l.12-1.26,1,.76a13.62,13.62,0,0,0,14.73.4l31.57-18.23,49.51,28.58a1,1,0,0,1,0,1.69ZM461,269.5c0,8.21,8.49,15.19,12.27,17.89a11.49,11.49,0,0,0,1.38.95l32.43,18.73,48.12-27.78-48.12-27.78-30.86,17.81A15.2,15.2,0,0,1,461,269.5Z"/><path class="cls-10" d="M512.25,261.67a7,7,0,0,1-3.4-.82,2.56,2.56,0,0,1,0-4.75L520,249.65a9.6,9.6,0,0,1,8.79,0,3.16,3.16,0,0,1,0,5.9l-7.13,4.11-.72-1.23,7.14-4.12a2.19,2.19,0,0,0,1.31-1.71c0-.62-.47-1.22-1.31-1.71a8.28,8.28,0,0,0-7.36,0l-11.17,6.44c-.58.34-.91.75-.91,1.14s.33.81.91,1.14a6,6,0,0,0,5.37,0l10-5.78.72,1.24-10,5.78A6.93,6.93,0,0,1,512.25,261.67Z"/><polygon class="cls-10" points="506.72 311.89 457.18 283.94 457.88 283.15 507.42 311.11 506.72 311.89"/><polygon class="cls-10" points="506.72 316.42 457.18 287.95 457.89 287.17 507.43 315.64 506.72 316.42"/><polygon class="cls-10" points="507.43 312.29 507.42 311.04 556.26 283.09 556.21 284.34 507.43 312.29"/><polygon class="cls-10" points="507.43 316.09 507.42 314.84 556.26 286.89 556.21 288.14 507.43 316.09"/><path class="cls-1" d="M371,325.81l-6.94-6.67-.09,0a4.67,4.67,0,0,0-2.21-2.85l-91.63-52.17a4.7,4.7,0,0,0-4.65,8.18l91.62,52.16a4.64,4.64,0,0,0,3.18.52l.32.27,9,2.87a1.36,1.36,0,0,0,1.36-2.28Z"/><path class="cls-5" d="M360.68,310.4l-91.63-52.16a4.69,4.69,0,0,0-6.41,1.76h0a4.69,4.69,0,0,0,1.76,6.41L356,318.57a4.7,4.7,0,0,0,6.42-1.76h0A4.71,4.71,0,0,0,360.68,310.4Z"/><path class="cls-14" d="M361.66,313.42,270,261.26a4.69,4.69,0,0,0-6.41,1.76h0c-1.29,2.26.87,3.71,3.13,5L357,318.89c2.26,1.28,5,1.86,6.3-.39h0C364.59,316.24,363.91,314.71,361.66,313.42Z"/><path class="cls-10" d="M355.68,319.18,264.05,267a5.4,5.4,0,0,1,5.34-9.39L361,309.79a5.39,5.39,0,0,1,2.53,3.27,5.34,5.34,0,0,1-.51,4.1,5.4,5.4,0,0,1-3.26,2.54,5.93,5.93,0,0,1-1.44.19A5.35,5.35,0,0,1,355.68,319.18Zm-90-60.72a4,4,0,0,0-.92,7.35L356.37,318a4,4,0,0,0,4-7l-91.62-52.16a4,4,0,0,0-2-.52A3.93,3.93,0,0,0,265.66,258.46Z"/><rect class="cls-13" x="269.86" y="268.54" width="42.25" height="4.17" rx="1.35" transform="translate(172 -108.53) rotate(29.65)"/><rect class="cls-1" x="269.58" y="270.26" width="42.25" height="4.17" rx="1.35" transform="translate(172.82 -108.16) rotate(29.65)"/><path class="cls-10" d="M306.33,282.55l-33.42-19a2.6,2.6,0,0,1-1-3.54l.19-.32a2.62,2.62,0,0,1,3.54-1l33.42,19a2.62,2.62,0,0,1,1,3.54l-.18.32a2.63,2.63,0,0,1-1.57,1.22,2.72,2.72,0,0,1-.69.09A2.61,2.61,0,0,1,306.33,282.55Zm-32.28-22.76a1.16,1.16,0,0,0-.72.56l-.19.32a1.22,1.22,0,0,0,.45,1.64l33.43,19a1.15,1.15,0,0,0,.91.11,1.18,1.18,0,0,0,.73-.56l.18-.32a1.16,1.16,0,0,0,.11-.91,1.18,1.18,0,0,0-.56-.73L275,259.9a1.28,1.28,0,0,0-.6-.16A1.25,1.25,0,0,0,274.05,259.79Z"/><path class="cls-13" d="M359.52,319.36l-.76-.63a3.36,3.36,0,0,1-.61-4.54h0a3.35,3.35,0,0,1,3.76-1.25l1.07.34,6.94,6.67a1.37,1.37,0,0,1,.24,1.66h0a1.37,1.37,0,0,1-1.6.63Z"/><path class="cls-1" d="M361.85,315.07a3.37,3.37,0,0,0-3.76,1.26,3.2,3.2,0,0,0-.29.51,3.37,3.37,0,0,0,1.08,1.67l.77.63,9,2.88a1.35,1.35,0,0,0,1-.09l-6.78-6.52Z"/><path class="cls-10" d="M368.35,322.9l-9-2.88-1-.75a4.06,4.06,0,0,1,3.81-7l1.23.39,7.06,6.79A2.06,2.06,0,0,1,369,323,2.29,2.29,0,0,1,368.35,322.9Zm-6.66-9.3a2.66,2.66,0,0,0-2.49,4.59l.66.55,8.92,2.83a.66.66,0,0,0,.66-1.11l-6.83-6.57Z"/><polygon class="cls-3" points="357.75 316.92 261.68 262.18 262.36 260.98 357.8 315.36 357.75 316.92"/><path class="cls-15" d="M456.51,242.85l14.59-24.93a.06.06,0,0,0,0,0l-67.71-39.22c-2.59-1.24-6.39-.28-10.38,3.56a22.38,22.38,0,0,0-6.18,10.68c-1.32,5.35-.28,9.11,2.05,10.75h0l67.6,39.21A0,0,0,0,0,456.51,242.85Z"/><path class="cls-16" d="M392.06,188.94a22.33,22.33,0,0,0-5.82,9.45c.11,2.76,1.07,4.77,2.6,5.86l67.6,39.2a0,0,0,0,0,0,0l11.69-20-65.73-38.07C399.85,184.15,396.05,185.1,392.06,188.94Z"/><path class="cls-3" d="M456.77,243.79l-.63-.32-67.62-39.22c-2.8-2-3.67-6.27-2.36-11.52a22.89,22.89,0,0,1,6.36-11c3.92-3.77,8.1-5.15,11.16-3.68l68,39.39.15.6-.17.27Zm-55.73-65c-2.23,0-4.93,1.35-7.56,3.88a21.57,21.57,0,0,0-6,10.36c-1.16,4.67-.5,8.42,1.78,10l67,38.85,13.92-23.8L403,179.26A4.61,4.61,0,0,0,401,178.83Z"/><path class="cls-3" d="M394.06,207.43c-2.75-1.94-3.62-6.24-2.32-11.48a23,23,0,0,1,6.37-11c3.92-3.77,8.1-5.15,11.16-3.68l-.6,1.24c-2.53-1.21-6.12.07-9.6,3.43a21.49,21.49,0,0,0-6,10.35c-1.16,4.67-.5,8.42,1.78,10Z"/><path class="cls-3" d="M407.59,215.28c-2.75-1.94-3.62-6.24-2.31-11.48a22.89,22.89,0,0,1,6.36-11c3.93-3.77,8.1-5.15,11.16-3.68l-.59,1.24c-2.53-1.21-6.12.07-9.61,3.43a21.57,21.57,0,0,0-6,10.35c-1.16,4.67-.49,8.42,1.78,10Z"/><path class="cls-17" d="M473.86,224.36c0,6.53-4.59,14.47-10.24,17.74s-10.25.62-10.25-5.91,4.59-14.48,10.25-17.74S473.86,217.83,473.86,224.36Z"/><path class="cls-3" d="M459,244.19a6,6,0,0,1-3-.78c-2.16-1.24-3.35-3.81-3.35-7.22,0-6.74,4.75-15,10.59-18.34,3-1.71,5.78-2,7.93-.72s3.35,3.81,3.35,7.23c0,6.74-4.75,15-10.59,18.34A10,10,0,0,1,459,244.19Zm9.15-26.46A8.66,8.66,0,0,0,464,219c-5.46,3.15-9.9,10.84-9.9,17.15,0,2.9.94,5,2.66,6s4,.73,6.55-.72c5.46-3.15,9.9-10.84,9.9-17.14,0-2.9-.94-5.05-2.66-6A4.53,4.53,0,0,0,468.19,217.73Z"/><path class="cls-18" d="M465.06,238.66l6.67-11.41s0,0,0,0l-3.42-2.09c-1.18-.56-2.92-.13-4.75,1.63a10.2,10.2,0,0,0-2.82,4.89c-.61,2.44-.13,4.16.93,4.92h0l3.37,2.08Z"/><path class="cls-19" d="M465.4,234.7,462,232.61a2.63,2.63,0,0,0-1.44-.21c-.29,2,.19,3.36,1.12,4l2,1.24,1.73-2.95A0,0,0,0,0,465.4,234.7Z"/><path class="cls-3" d="M465,239.41l-.27-.16-3.38-2.09c-1.44-1-1.88-3.08-1.24-5.67a10.93,10.93,0,0,1,3-5.22c1.92-1.83,4-2.49,5.53-1.75l3.7,2.33,0,.81-6.75,11.57Zm2.27-13.83a5.08,5.08,0,0,0-3.19,1.69,9.49,9.49,0,0,0-2.63,4.55c-.5,2-.25,3.55.66,4.19l2.75,1.7,6-10.24L468,225.73A1.66,1.66,0,0,0,467.23,225.58Z"/><ellipse class="cls-17" cx="468.31" cy="232.9" rx="6.63" ry="3.83" transform="translate(32.46 522.02) rotate(-60)"/><path class="cls-3" d="M466.22,239.64a3.14,3.14,0,0,1-1.57-.4,4,4,0,0,1-1.71-3.63,11,11,0,0,1,5-8.72,3.53,3.53,0,0,1,5.72,3.31,11,11,0,0,1-5,8.71A4.94,4.94,0,0,1,466.22,239.64Zm4.18-12.1a3.51,3.51,0,0,0-1.74.55,9.58,9.58,0,0,0-4.34,7.52,2.19,2.19,0,0,0,3.65,2.1,9.6,9.6,0,0,0,4.34-7.51,2.66,2.66,0,0,0-1-2.44A1.69,1.69,0,0,0,470.4,227.54Z"/><path class="cls-3" d="M366.64,262.55l-2.77-4.76,35.46-20.56a13.85,13.85,0,0,1,14.06,0l16.26,9.54a49.94,49.94,0,0,0,50.54,0l.92-.52a1.59,1.59,0,0,0,.76-1.38,1.58,1.58,0,0,0-.81-1.39l-13-7.48a2.76,2.76,0,0,1-1-3.77h0a2.76,2.76,0,0,1,3.77-1l12.74,7.34a7.43,7.43,0,0,1,3.82,6,7.06,7.06,0,0,1-3.51,6.49l-.92.52a55.43,55.43,0,0,1-56.08,0L410.6,242a8.36,8.36,0,0,0-8.48,0Z"/><path class="cls-13" d="M328.45,274.64l6.84,12h0l40.06-23.75c1.18-.82,1.69-2.75.91-5.52a10.6,10.6,0,0,0-2.58-4.46c-2-2.05-3.91-2.59-5.21-2h0l-40,23.71Z"/><path class="cls-2" d="M376,257.6a.09.09,0,0,0,0-.05,10.54,10.54,0,0,0-2.57-4.46c-2-2.05-3.91-2.58-5.21-2l-38,22.52,4.92,8.64h0l40-23.75A2.53,2.53,0,0,0,376,257.6Z"/><path class="cls-3" d="M335.43,287.36l-.57-.12-.17-.27-7-12.28.24-.56.18-.1,40-23.71c1.76-.82,4,0,6.05,2.1a11.32,11.32,0,0,1,2.75,4.75c.81,2.87.37,5.21-1.18,6.28Zm-6.05-12.49,6.16,10.82L375,262.29c1-.68,1.22-2.51.59-4.74a9.82,9.82,0,0,0-2.4-4.17c-1.61-1.65-3.31-2.36-4.43-1.85Z"/><path class="cls-2" d="M332,286.23a10.81,10.81,0,0,1-4.89-8.47c0-3.12,2.19-4.39,4.89-2.83a10.81,10.81,0,0,1,4.89,8.47C336.85,286.52,334.67,287.79,332,286.23Z"/><path class="cls-3" d="M334.15,287.59a5.11,5.11,0,0,1-2.53-.77h0a11.39,11.39,0,0,1-5.24-9.06,3.65,3.65,0,0,1,5.92-3.42,11.39,11.39,0,0,1,5.24,9.06,4.11,4.11,0,0,1-1.77,3.77A3.23,3.23,0,0,1,334.15,287.59Zm-1.84-2a2.32,2.32,0,0,0,3.86-2.23,10.12,10.12,0,0,0-4.55-7.87,2.32,2.32,0,0,0-3.86,2.23,10,10,0,0,0,4.55,7.87Z"/><rect class="cls-3" x="333.43" y="269.22" width="46.23" height="1.38" transform="translate(-87.67 218.46) rotate(-30.52)"/><path class="cls-2" d="M555.69,37.87H438.51V139.26h0c0,8.65,5.72,17.31,17.16,23.91,22.88,13.21,60,13.21,82.86,0,11.44-6.6,17.16-15.26,17.16-23.91h0Z"/><path class="cls-3" d="M497.1,173.74c-15.13,0-30.25-3.32-41.77-10-11.29-6.52-17.51-15.22-17.51-24.51V37.18H556.37V139.26c0,9.29-6.21,18-17.5,24.51C527.35,170.42,512.23,173.74,497.1,173.74ZM439.2,38.56v100.7c0,8.77,6,17.06,16.82,23.32,22.65,13.08,59.51,13.08,82.16,0C549,156.32,555,148,555,139.26V38.56Z"/><rect class="cls-3" x="445.33" y="54.48" width="1.38" height="101.28"/><rect class="cls-3" x="542.93" y="58.42" width="1.38" height="101.4"/><rect class="cls-3" x="537.13" y="62.15" width="1.38" height="101.4"/><rect class="cls-3" x="523.49" y="68.06" width="1.38" height="101.4"/><path class="cls-3" d="M468.07,132.47a38.32,38.32,0,0,1-20.85-6.21c-11-7.11-18.57-24-17.56-37a128.36,128.36,0,0,1,7.73-33.89.45.45,0,0,1,.56-.26h0a1.65,1.65,0,0,1,1,2.1,124.19,124.19,0,0,0-7.28,33.25,37.53,37.53,0,0,0,16.14,33.72,36.09,36.09,0,0,0,35.78,2.75C512.7,113.23,532.76,75.4,533,75l1.83,1c-.21.39-20.57,38.82-50.35,52.8A38.38,38.38,0,0,1,468.07,132.47Z"/><ellipse class="cls-2" cx="533.87" cy="76.08" rx="4.29" ry="2.48" transform="translate(201.05 500.39) rotate(-60)"/><path class="cls-3" d="M532.52,80.69a2.22,2.22,0,0,1-1.14-.29,2.8,2.8,0,0,1-1.23-2.57A7.36,7.36,0,0,1,533.53,72a2.53,2.53,0,0,1,4.07,2.35,7.37,7.37,0,0,1-3.38,5.85A3.45,3.45,0,0,1,532.52,80.69Zm2.71-7.84a2.07,2.07,0,0,0-1,.32,6,6,0,0,0-2.69,4.66,1.19,1.19,0,0,0,2,1.16,6,6,0,0,0,2.69-4.66,1.52,1.52,0,0,0-.55-1.37A.87.87,0,0,0,535.23,72.85Z"/><path class="cls-16" d="M460.4,64.24a10.32,10.32,0,0,0,6.8,9.07c6.73,2.59,5.1,28,3.52,33-1.75,5.59-.69,9.92,3.21,9.91s4.25-5.38,2.37-9.95c-2.37-5.78-.48-27.91,2.53-30.74s9.95-.21,7.35,7.82-.56,10,2.15,10c4,0,4.14-5.8,2-10.53s5.2-10.48,10-4.34,7-4.6,15.43-8.57c5.18-2.43-44.48-11.51-44.48-11.51Z"/><path class="cls-15" d="M473.53,105.88c1.58-5,3.2-30.42-3.53-33a10.34,10.34,0,0,1-6.8-9.07l9.51-5.06-1.61-.3-10.93,5.82a10.34,10.34,0,0,0,6.8,9.07c6.73,2.6,5.11,28,3.53,33-1.76,5.6-.7,9.92,3.2,9.92a3.22,3.22,0,0,0,2-.6C472.66,114.91,472,110.92,473.53,105.88Z"/><path class="cls-15" d="M489,82.93c2.4-7.42-3.32-10.22-6.58-8.37,2.76.52,5.29,3.46,3.55,8.83-2.6,8-.56,10,2.16,10a2.93,2.93,0,0,0,1.88-.62C487.92,92.2,486.77,89.77,489,82.93Z"/><path class="cls-15" d="M503.18,78.05c-2.25-2.85-5-3.12-7.15-2.13a6.41,6.41,0,0,1,4.12,2.6c1.79,2.27,3.21,2.23,4.72,1.08A5.83,5.83,0,0,1,503.18,78.05Z"/><path class="cls-3" d="M473.92,116.93a4.24,4.24,0,0,1-3.58-1.71c-1.4-1.89-1.49-5.21-.28-9.1C471.61,101.19,473,76.28,467,74a11.12,11.12,0,0,1-7.24-9.71v-.42l11.51-6.12.23,0c16.8,3.07,45,8.67,45.42,11.65a1.1,1.1,0,0,1-.76,1.16c-3.37,1.58-5.75,4.34-7.66,6.55S505,81,503.21,81h-.07c-1.12,0-2.2-.71-3.3-2.11-2.29-2.91-5-2.78-6.83-1.69s-3,3.24-2,5.32c1.4,3.11,2.1,7.36.51,9.83a3.59,3.59,0,0,1-3.15,1.67,3.69,3.69,0,0,1-3.19-1.43c-1.25-1.72-1.12-4.81.38-9.47,1.08-3.32.5-6.08-1.55-7.38a3.87,3.87,0,0,0-4.67.27c-2.58,2.44-4.8,24-2.36,30,1.48,3.62,1.58,7.24.25,9.23a3.74,3.74,0,0,1-3.26,1.67ZM461.11,64.64a9.58,9.58,0,0,0,6.33,8c7.45,2.88,5.39,29.24,3.94,33.88-1.07,3.41-1.05,6.35.07,7.87a2.89,2.89,0,0,0,2.47,1.15h0a2.37,2.37,0,0,0,2.12-1.06c1.05-1.57.89-4.84-.39-8-2.48-6-.57-28.43,2.7-31.5a5.27,5.27,0,0,1,6.35-.43c2.61,1.65,3.41,5,2.12,9-1.67,5.17-1.24,7.33-.58,8.23a2.36,2.36,0,0,0,2.08.87,2.19,2.19,0,0,0,2-1c1.1-1.71.85-5.29-.61-8.52a5.71,5.71,0,0,1,2.59-7.06c2.2-1.33,5.77-1.6,8.62,2,.83,1,1.57,1.57,2.25,1.59,1.26,0,2.62-1.59,4.23-3.47,2-2.25,4.37-5,7.86-6.77-2.93-2-24.23-6.7-43.82-10.29Z"/><ellipse class="cls-6" cx="497.1" cy="37.87" rx="58.59" ry="33.82"/><path class="cls-3" d="M497.1,72.7c-15.19,0-30.38-3.34-41.94-10-11.4-6.58-17.68-15.39-17.68-24.81s6.28-18.23,17.68-24.81C478.28-.3,515.92-.3,539,13.06c11.4,6.58,17.68,15.39,17.68,24.81S550.44,56.1,539,62.68C527.48,69.36,512.29,72.7,497.1,72.7Zm0-67.62c-14.82,0-29.63,3.26-40.91,9.77-10.73,6.19-16.64,14.37-16.64,23s5.91,16.83,16.64,23c22.56,13,59.26,13,81.82,0,10.73-6.19,16.64-14.37,16.64-23S548.74,21,538,14.85C526.73,8.34,511.92,5.08,497.1,5.08Z"/><ellipse class="cls-7" cx="496.03" cy="37.87" rx="50.43" ry="29.12"/><path class="cls-1" d="M471.14,28.84c-13,7.5-17.4,18.06-13.27,27.65,1.11.79,2.29,1.55,3.56,2.28,19.7,11.38,51.63,11.38,71.33,0,13-7.49,17.4-18.06,13.27-27.65-1.11-.78-2.29-1.55-3.56-2.28C522.77,17.47,490.84,17.47,471.14,28.84Z"/><path class="cls-3" d="M497.1,67.65c-13,0-26.08-2.86-36-8.59C451.35,53.43,446,45.9,446,37.87s5.37-15.56,15.11-21.19c19.86-11.46,52.16-11.46,72,0h0c9.74,5.63,15.11,13.16,15.11,21.19s-5.37,15.56-15.11,21.19C523.18,64.79,510.14,67.65,497.1,67.65Zm0-58.21c-12.79,0-25.58,2.81-35.32,8.44-9.3,5.37-14.43,12.47-14.43,20s5.13,14.62,14.43,20c19.48,11.25,51.16,11.25,70.64,0,9.3-5.37,14.42-12.47,14.42-20s-5.12-14.62-14.42-20C522.68,12.26,509.89,9.44,497.1,9.44Z"/><path class="cls-20" d="M532.76,39.77c-19.69-11.37-51.63-11.37-71.32,0a34.45,34.45,0,0,0-10.86,9.34,34.47,34.47,0,0,0,10.86,9.35c19.69,11.37,51.63,11.37,71.32,0a34.47,34.47,0,0,0,10.86-9.35A34.45,34.45,0,0,0,532.76,39.77Z"/><path class="cls-21" d="M540.71,47.31c-19.7-11.37-51.63-11.37-71.33,0a34.57,34.57,0,0,0-10.84,9.33c.91.62,1.86,1.23,2.88,1.82,19.7,11.37,51.63,11.37,71.32,0a34.61,34.61,0,0,0,10.85-9.32Q542.22,48.19,540.71,47.31Z"/><path class="cls-3" d="M497.1,67.65c-13,0-26.08-2.86-36-8.59A35.19,35.19,0,0,1,450,49.52l-.29-.41.29-.4a35.19,35.19,0,0,1,11.07-9.54c19.85-11.46,52.16-11.46,72,0h0a35.19,35.19,0,0,1,11.07,9.54l.29.4-.29.41a35.19,35.19,0,0,1-11.07,9.54C523.18,64.79,510.14,67.65,497.1,67.65ZM451.43,49.11a34.19,34.19,0,0,0,10.35,8.75c19.47,11.25,51.16,11.25,70.64,0a34.19,34.19,0,0,0,10.35-8.75,34.3,34.3,0,0,0-10.35-8.74h0c-19.48-11.25-51.17-11.25-70.64,0A34.3,34.3,0,0,0,451.43,49.11Z"/><path class="cls-13" d="M461.44,23.47c19.69-11.37,51.63-11.37,71.32,0,8.36,4.83,13.16,10.92,14.42,17.21a.06.06,0,0,0,.11,0c1.39-8.36-3.44-17-14.53-23.4-19.69-11.37-51.63-11.37-71.32,0-11.09,6.4-15.92,15-14.53,23.4a.06.06,0,0,0,.11,0C448.28,34.39,453.08,28.3,461.44,23.47Z"/><path class="cls-3" d="M546.68,41.42l-.17-.6c-1.29-6.38-6.16-12.17-14.09-16.75-19.48-11.24-51.16-11.24-70.64,0l-.34-.6.34.6c-7.93,4.58-12.8,10.37-14.09,16.75l-.11.56-.63,0h-.58l-.14-.61c-1.5-9,3.92-17.79,14.86-24.11,19.86-11.46,52.16-11.46,72,0C544.05,23,549.47,31.79,548,40.79l-.1.56Zm-49.58-32c-12.79,0-25.58,2.81-35.32,8.44-9,5.18-14.06,12-14.4,19.21,2.19-5.39,6.86-10.26,13.71-14.21h0c19.86-11.47,52.16-11.47,72,0,6.85,3.95,11.52,8.82,13.71,14.21-.34-7.18-5.43-14-14.4-19.21C522.68,12.26,509.89,9.44,497.1,9.44Z"/><path class="cls-2" d="M599.53,142.24H511.84v75.88h0c0,6.48,4.28,13,12.84,17.9,17.12,9.89,44.89,9.89,62,0,8.56-4.94,12.84-11.42,12.84-17.9h0Z"/><path class="cls-3" d="M555.69,244.1c-11.36,0-22.71-2.49-31.35-7.48s-13.19-11.48-13.19-18.5V141.56h89.07v76.56c0,7-4.68,13.59-13.19,18.5S567,244.1,555.69,244.1ZM512.53,142.93v75.19c0,6.51,4.44,12.65,12.5,17.3,16.9,9.76,44.41,9.76,61.31,0,8.06-4.65,12.5-10.79,12.5-17.3V142.93Z"/><rect class="cls-3" x="516.77" y="154.68" width="1.38" height="75.8"/><rect class="cls-3" x="589.81" y="157.62" width="1.38" height="75.88"/><rect class="cls-3" x="585.47" y="160.42" width="1.38" height="75.88"/><rect class="cls-3" x="575.26" y="164.84" width="1.38" height="75.88"/><path class="cls-4" d="M526.89,158.94a22,22,0,0,0,5.59,8.35,35.22,35.22,0,0,0,5.73,4.33c2.66,1.6,5.3,4.08,4.22,7.32-2,6,5.85,6.68,4.37,0-1.33-6,1.25-8,4.87-7.67s4.93,6.72,3.16,13.93-.25,10.61,3.47,10.49,4.21-7.07,2.55-11.55-.68-14.38,5.32-12.7c3.2.9,8.27,4.85,11.45-2.42a22.51,22.51,0,0,1,7.44-8.79l-58.75-2.8Z"/><path class="cls-22" d="M545.36,177.65c1.08-3.25-1.56-5.73-4.22-7.32a36.4,36.4,0,0,1-5.73-4.33,22.11,22.11,0,0,1-5.59-8.35v0l-3.5-.17.58,1.51a22.11,22.11,0,0,0,5.59,8.35,36.4,36.4,0,0,0,5.73,4.33c2.66,1.59,5.3,4.07,4.22,7.32-1.58,4.73,2.93,6.13,4.21,3.27C545.42,181.76,544.51,180.18,545.36,177.65Z"/><path class="cls-22" d="M569.1,170.15a3.71,3.71,0,0,0-4.08,1.14,4.48,4.48,0,0,1,1.15.18c2.61.73,6.46,3.49,9.52.54C573.35,172.15,570.92,170.66,569.1,170.15Z"/><path class="cls-22" d="M557.76,183.9c1.77-7.2.46-13.64-3.16-13.93a4.8,4.8,0,0,0-4.14,1.32,8.14,8.14,0,0,1,1.21,0c3.62.29,4.93,6.73,3.16,13.93s-.25,10.62,3.47,10.5a2.81,2.81,0,0,0,2.28-1.34C557.34,194.09,556.1,190.67,557.76,183.9Z"/><path class="cls-3" d="M558.13,196.39a4.29,4.29,0,0,1-3.48-1.53c-1.48-1.82-1.64-5.13-.49-9.83,1.21-4.91,1-9.69-.64-11.9a2.62,2.62,0,0,0-1.9-1.18A4.26,4.26,0,0,0,548,173c-1,1.1-1.15,3.09-.56,5.75.75,3.39-.73,4.74-1.4,5.16a2.92,2.92,0,0,1-3.36-.19c-1.3-1-1.65-2.9-.93-5,.76-2.3-.56-4.49-3.92-6.51A36.62,36.62,0,0,1,532,167.8a23,23,0,0,1-5.76-8.61l-1-2.5,61.92,2.95-1.77,1.17a22,22,0,0,0-7.19,8.48c-2.87,6.58-7.43,4.72-10.46,3.48a19.07,19.07,0,0,0-1.81-.67,3,3,0,0,0-3.29.83c-2.07,2.24-2.35,7.83-1.19,11s1.42,8.23-.33,10.82a3.5,3.5,0,0,1-2.84,1.66ZM551,170.55l.7,0a3.91,3.91,0,0,1,2.91,1.75c1.85,2.55,2.19,7.67.87,13s-.6,7.62.22,8.64a2.9,2.9,0,0,0,2.56,1A2.1,2.1,0,0,0,560,194c1.32-2,1.4-6.26.18-9.58S559,174.89,561.67,172a4.4,4.4,0,0,1,4.68-1.21,18.36,18.36,0,0,1,2,.72c3.12,1.28,6.34,2.59,8.68-2.76a22.35,22.35,0,0,1,6.15-7.91l-55.81-2.66.2.53a21.61,21.61,0,0,0,5.42,8.08,34.69,34.69,0,0,0,5.61,4.25c4,2.36,5.51,5.17,4.52,8.13-.52,1.56-.34,2.87.48,3.51a1.52,1.52,0,0,0,1.78.11c.88-.55,1.18-1.93.79-3.69-.7-3.15-.41-5.49.86-7A5.1,5.1,0,0,1,551,170.55Z"/><path class="cls-23" d="M586.69,124.35c17.12,9.88,17.12,25.91,0,35.79s-44.89,9.89-62,0-17.12-25.91,0-35.79S569.57,114.46,586.69,124.35Z"/><path class="cls-3" d="M555.69,168.56c-11.42,0-22.83-2.5-31.52-7.52s-13.36-11.65-13.36-18.79,4.74-13.83,13.36-18.8c17.38-10,45.66-10,63,0h0c8.62,5,13.36,11.65,13.36,18.8S595.82,156.07,587.2,161,567.1,168.56,555.69,168.56Zm0-50.6c-11,0-22.09,2.43-30.49,7.28-8,4.59-12.33,10.63-12.33,17s4.38,12.41,12.33,17c16.81,9.7,44.16,9.7,61,0,8-4.59,12.33-10.63,12.33-17s-4.38-12.42-12.33-17C577.77,120.39,566.73,118,555.69,118Z"/><path class="cls-13" d="M581.47,127.36c14.24,8.22,14.24,21.55,0,29.77s-37.33,8.22-51.57,0-14.24-21.55,0-29.77S567.23,119.14,581.47,127.36Z"/><path class="cls-2" d="M537.88,138.68c-8.22,4.74-11.68,11.19-10.41,17.38.75.52,1.54,1,2.39,1.52,14.24,8.22,37.32,8.22,51.56,0,8.22-4.75,11.69-11.2,10.42-17.38-.75-.53-1.54-1-2.39-1.52C575.21,130.46,552.12,130.46,537.88,138.68Z"/><path class="cls-3" d="M555.69,164c-9.47,0-18.93-2.07-26.13-6.23s-11-9.61-11-15.48,3.92-11.38,11-15.49c14.4-8.31,37.85-8.31,52.25,0,7.11,4.11,11,9.61,11,15.49s-3.92,11.37-11,15.48S565.15,164,555.69,164Zm0-42.08c-9.22,0-18.43,2-25.44,6.08-6.67,3.84-10.34,8.92-10.34,14.29s3.67,10.44,10.34,14.28c14,8.1,36.85,8.1,50.87,0,6.67-3.84,10.34-8.92,10.34-14.28S587.79,131.8,581.12,128C574.11,123.91,564.9,121.88,555.69,121.88Z"/><path class="cls-5" d="M581.47,143.62c-14.24-8.22-37.33-8.22-51.57,0a25,25,0,0,0-7.85,6.75,24.91,24.91,0,0,0,7.85,6.76c14.24,8.22,37.33,8.22,51.57,0a24.91,24.91,0,0,0,7.85-6.76A25,25,0,0,0,581.47,143.62Z"/><path class="cls-4" d="M533.83,148.56a25.4,25.4,0,0,0-7.52,6.32,30.45,30.45,0,0,0,3.55,2.38c14.24,8.22,37.33,8.22,51.57,0a25.35,25.35,0,0,0,7.51-6.32,29.62,29.62,0,0,0-3.55-2.38C571.15,140.34,548.07,140.34,533.83,148.56Z"/><path class="cls-3" d="M555.69,164c-9.47,0-18.93-2.07-26.13-6.23a25.74,25.74,0,0,1-8.07-6.95l-.29-.41.29-.4a25.74,25.74,0,0,1,8.07-6.95c14.4-8.32,37.85-8.32,52.25,0a25.63,25.63,0,0,1,8.07,6.95l.29.4-.29.41a25.63,25.63,0,0,1-8.07,6.95C574.61,161.88,565.15,164,555.69,164Zm-32.78-13.59a24.48,24.48,0,0,0,7.34,6.16c14,8.1,36.85,8.1,50.87,0a24.48,24.48,0,0,0,7.34-6.16,24.61,24.61,0,0,0-7.34-6.15c-14-8.1-36.85-8.1-50.87,0A24.61,24.61,0,0,0,522.91,150.37Z"/><path class="cls-13" d="M529.9,131.84c14.24-8.22,37.33-8.22,51.57,0,6,3.48,9.51,7.89,10.42,12.44a0,0,0,0,0,.08,0c1-6-2.49-12.28-10.5-16.91-14.24-8.22-37.33-8.22-51.57,0-8,4.63-11.51,10.87-10.5,16.91a0,0,0,0,0,.08,0C520.39,139.73,523.86,135.32,529.9,131.84Z"/><path class="cls-3" d="M591.36,145l-.14-.59c-.92-4.55-4.41-8.69-10.1-12-14-8.09-36.84-8.1-50.87,0-5.69,3.29-9.18,7.43-10.1,12L520,145l-.61,0h-.58l-.13-.61c-1.1-6.58,2.85-13,10.84-17.62,14.4-8.31,37.85-8.31,52.25,0,8,4.61,11.94,11,10.84,17.63l-.09.56Zm-35.67-23.12c-9.22,0-18.43,2-25.44,6.08-6,3.43-9.52,7.89-10.21,12.59,1.75-3.52,5-6.69,9.52-9.31h0c14.4-8.32,37.85-8.32,52.25,0,4.54,2.62,7.77,5.79,9.52,9.31-.69-4.71-4.26-9.16-10.21-12.59C574.11,123.91,564.9,121.88,555.69,121.88Z"/><path class="cls-1" d="M367.79,230.42v-9.94a.13.13,0,0,0-.13-.13l-18.38-.27h0a42.16,42.16,0,0,0-17.52-.26h0l-9.3-.14h-8.64a.13.13,0,0,0-.13.13v10.06c-.13,1.12.63,2.33,2.24,3.26l19.87,11.47c2.74,1.58,6.88,1.75,9.25.38l21.2-12.23A2.74,2.74,0,0,0,367.79,230.42Z"/><path class="cls-24" d="M343.1,234.92l-10.77-15.54-.62.11h0l-9.3-.14h-8.64a.13.13,0,0,0-.14.13v10.06c-.12,1.12.64,2.33,2.25,3.26l19.87,11.47a10.87,10.87,0,0,0,7.53,1c0-.1,0-.21,0-.31v-9.86A.21.21,0,0,0,343.1,234.92Z"/><path class="cls-3" d="M341,246.6a11.44,11.44,0,0,1-5.57-1.41l-19.86-11.47c-1.81-1-2.75-2.48-2.59-3.93v-10a.82.82,0,0,1,.82-.82h8.64l9.31.14a42.63,42.63,0,0,1,17.68.28l18.28.26a.83.83,0,0,1,.8.82v9.94a3.43,3.43,0,0,1-1.94,2.92l-21.19,12.23A8.86,8.86,0,0,1,341,246.6Zm-26.65-26.24v9.5c-.1.95.62,1.92,1.91,2.67L336.09,244c2.5,1.44,6.43,1.62,8.57.38l21.19-12.24a2.14,2.14,0,0,0,1.25-1.72V221l-18-.28a41.26,41.26,0,0,0-17.22-.27l-.17,0-9.31-.14Z"/><path class="cls-16" d="M366.2,222.56,345,234.79c-2.37,1.37-6.51,1.2-9.25-.38l-19.87-11.47c-2.74-1.58-3-4-.66-5.34l9.08-5.25c9.06-5.23,24.89-4.57,35.36,1.47l5.87,3.39C368.27,218.79,368.57,221.19,366.2,222.56Z"/><path class="cls-3" d="M341,236.42A11.44,11.44,0,0,1,335.4,235l-19.86-11.47c-1.66-1-2.61-2.28-2.61-3.62a3.43,3.43,0,0,1,1.94-2.92l9.08-5.24c9.24-5.34,25.41-4.68,36.05,1.46l5.88,3.4c1.66.95,2.61,2.27,2.61,3.62a3.41,3.41,0,0,1-1.95,2.91l-21.19,12.24A8.86,8.86,0,0,1,341,236.42Zm-1.32-26.91c-5.63,0-11,1.13-15,3.44l-9.08,5.24a2.16,2.16,0,0,0-1.26,1.73c0,.84.7,1.72,1.93,2.43l19.86,11.46c2.5,1.45,6.43,1.62,8.57.39L365.85,222a2.14,2.14,0,0,0,1.26-1.72c0-.84-.7-1.72-1.92-2.43l-5.88-3.39A40.35,40.35,0,0,0,339.65,209.51Z"/><path class="cls-19" d="M350.48,215c5.39,3.11,5.39,8.16,0,11.28s-14.15,3.11-19.54,0-5.4-8.17,0-11.28S345.08,211.92,350.48,215Z"/><path class="cls-3" d="M340.71,229.33a20.69,20.69,0,0,1-10.12-2.42c-2.83-1.63-4.39-3.85-4.39-6.23s1.56-4.61,4.39-6.24c5.58-3.22,14.65-3.22,20.23,0h0c2.83,1.63,4.39,3.85,4.39,6.24s-1.56,4.6-4.39,6.23A20.68,20.68,0,0,1,340.71,229.33Zm0-16a19.28,19.28,0,0,0-9.43,2.25c-2.38,1.38-3.7,3.17-3.7,5.05s1.32,3.66,3.7,5c5.2,3,13.65,3,18.85,0,2.39-1.38,3.7-3.17,3.7-5s-1.31-3.67-3.7-5.05h0A19.24,19.24,0,0,0,340.71,213.38Z"/><path class="cls-18" d="M334.88,216.53a21.35,21.35,0,0,1,11.65,0c4.22,1.21,6.76,3.25,7.64,5.47a.09.09,0,0,0,.17,0c.94-3.28-1.67-6.83-7.85-8.59a21.22,21.22,0,0,0-11.56,0c-6.18,1.76-8.79,5.31-7.84,8.59a.08.08,0,0,0,.16,0C328.13,219.78,330.67,217.74,334.88,216.53Z"/><path class="cls-3" d="M354.25,222.74a.78.78,0,0,1-.72-.48c-.86-2.16-3.48-4-7.19-5.06a20.37,20.37,0,0,0-11.27,0c-3.71,1.06-6.32,2.9-7.18,5.06l-.18.45-.58,0a.79.79,0,0,1-.71-.56,5.48,5.48,0,0,1,.54-4.28c1.25-2.26,4-4.09,7.78-5.16a21.82,21.82,0,0,1,11.94,0c3.77,1.07,6.53,2.9,7.79,5.16a5.52,5.52,0,0,1,.53,4.28l-.14.48-.57.08ZM340.71,215a21.91,21.91,0,0,1,6,.84,13.74,13.74,0,0,1,7.06,4.13,4.5,4.5,0,0,0-.52-1.43c-1.07-1.94-3.54-3.54-7-4.51a20.52,20.52,0,0,0-11.18,0c-3.42,1-5.89,2.57-7,4.51a4.5,4.5,0,0,0-.52,1.43,13.82,13.82,0,0,1,7.05-4.13h0A22,22,0,0,1,340.71,215Z"/><path class="cls-25" d="M338.6,236.24l-.7-.41a1,1,0,0,0-.6-.05l-4.7,0a.16.16,0,0,0-.15.21l4.2,11a.16.16,0,0,0,.23.09l2.29-1.27a1.05,1.05,0,0,0,.39-.84v-6.83A2.29,2.29,0,0,0,338.6,236.24Z"/><path class="cls-3" d="M337,247.77l-.43-.1a.82.82,0,0,1-.51-.5l-4.2-11a.85.85,0,0,1,.1-.79.92.92,0,0,1,.7-.36l4.63,0a1.6,1.6,0,0,1,1,.15l.7.4a3,3,0,0,1,1.31,2.43v6.83a1.72,1.72,0,0,1-.64,1.36l0,0c-.29.22-.91.56-2.21,1.29Zm-3.57-11.33,3.7,9.68,1.69-.94a.4.4,0,0,0,.1-.28v-6.83a1.66,1.66,0,0,0-.62-1.24l-.69-.4s-.08,0-.13,0l-.14,0Z"/><path class="cls-19" d="M335.84,247.23l-3-1.94a2.29,2.29,0,0,1-1-1.83v-6.89c0-.71.43-1,1-.72l3,1.93a2.31,2.31,0,0,1,1,1.84v6.89C336.8,247.21,336.37,247.54,335.84,247.23Z"/><path class="cls-3" d="M336.22,248a1.39,1.39,0,0,1-.72-.21l0,0-3-1.94a3,3,0,0,1-1.28-2.41v-6.89a1.51,1.51,0,0,1,.67-1.37,1.28,1.28,0,0,1,1.32.05l3.07,1.95a3,3,0,0,1,1.28,2.42v6.89a1.52,1.52,0,0,1-.68,1.37A1.21,1.21,0,0,1,336.22,248Zm-3.69-11.55a.19.19,0,0,0,0,.08v6.89a1.69,1.69,0,0,0,.62,1.24l3,1.89v-7a1.67,1.67,0,0,0-.61-1.24Z"/><path class="cls-2" d="M366,228.8a3.16,3.16,0,0,1-1.44,2.49c-.79.45-1.43.08-1.43-.83a3.18,3.18,0,0,1,1.43-2.49C365.32,227.51,366,227.88,366,228.8Z"/><path class="cls-3" d="M363.88,232.17a1.39,1.39,0,0,1-.72-.19,1.68,1.68,0,0,1-.76-1.52,3.9,3.9,0,0,1,1.78-3.09,1.55,1.55,0,0,1,2.47,1.43,3.89,3.89,0,0,1-1.78,3.08A1.91,1.91,0,0,1,363.88,232.17Zm1.29-3.71a.63.63,0,0,0-.3.11,2.46,2.46,0,0,0-1.09,1.89.55.55,0,0,0,.07.33s.13,0,.33-.1a2.5,2.5,0,0,0,1.09-1.89c0-.23-.06-.32-.08-.33Z"/><path class="cls-3" d="M375.26,240.24a13.26,13.26,0,0,1-6.28-1.51,9.54,9.54,0,0,1-5.36-9.19l1.52.09a7.88,7.88,0,0,0,4.5,7.89c4,2.18,9.18,1.29,10.65.08.38-.32,1.24-1.15,1-2-.15-.46-1.06-2-6.58-2.47-3.31-.26-5.5-1-6.75-2.59a3.61,3.61,0,0,1-.83-2.78l1.15.09a2.55,2.55,0,0,0,.66,1.72c.7.84,2.29,1.9,5.88,2.19,5.68.46,7.37,2.12,7.78,3.43.37,1.15-.15,2.41-1.41,3.46A10,10,0,0,1,375.26,240.24Z"/><rect class="cls-3" x="348.72" y="214.48" width="1.38" height="3.12"/><rect class="cls-3" x="328.36" y="216.4" width="1.38" height="3.12"/><path class="cls-19" d="M420.44,123.64v-9.93a.34.34,0,0,0-.21-.31L387.31,99l0,0-6.34-3.66a5.65,5.65,0,0,0-3.23-.58.3.3,0,0,1-.16,0l-8-3.52a.31.31,0,0,0-.13,0h-2.63a.35.35,0,0,0-.35.34v10.17l0,.13c.06.51.39.88,1.06,1.26l35.24,20.35a13.23,13.23,0,0,0,5.1,1.55l8.09.88c2.19.23,4.14-.66,4.44-1.84Z"/><path class="cls-3" d="M416.66,126.52a7.26,7.26,0,0,1-.8,0l-8.09-.87a13.78,13.78,0,0,1-5.36-1.64l-35.25-20.35a2.46,2.46,0,0,1-1.4-1.77l0-.22V91.46a1,1,0,0,1,1-1h2.63a1,1,0,0,1,.42.09L377.74,94a6.25,6.25,0,0,1,3.54.68l6.34,3.66,32.89,14.43a1,1,0,0,1,.62.94v10l-.07.38C420.69,125.54,418.83,126.52,416.66,126.52Zm-49.56-25v0c0,.27.12.49.74.85l35.24,20.34a12.46,12.46,0,0,0,4.83,1.47l8.09.87c2,.22,3.53-.62,3.7-1.32l0-.22v-9.63L387,99.58l-6.44-3.71a5,5,0,0,0-2.83-.49,1.12,1.12,0,0,1-.49-.08l-8-3.49H367.1Z"/><path class="cls-17" d="M420.23,113.25l-15.94-7v17.67a14.39,14.39,0,0,0,3.56.85l8.09.87c2.19.24,4.14-.65,4.44-1.84l.06-.31v-9.93A.33.33,0,0,0,420.23,113.25Z"/><path class="cls-3" d="M416.65,126.37a7.21,7.21,0,0,1-.79,0l-8.09-.88a15.38,15.38,0,0,1-3.73-.88l-.44-.17V105.19l16.91,7.42a1.06,1.06,0,0,1,.62,1v9.93l-.07.45C420.69,125.39,418.83,126.37,416.65,126.37ZM405,123.44a13.71,13.71,0,0,0,2.95.64L416,125c2,.22,3.53-.63,3.7-1.33l.06-.27,0-9.57L405,107.3Z"/><path class="cls-17" d="M369.9,91.32l-.39-.17a.35.35,0,0,0-.14,0h-2.63a.35.35,0,0,0-.35.34v10.17l0,.13c.07.51.39.88,1.06,1.26l2.41,1.39Z"/><path class="cls-3" d="M370.59,105.61l-3.44-2a2.44,2.44,0,0,1-1.4-1.77l0-.22V91.46a1,1,0,0,1,1-1h2.63a1,1,0,0,1,.41.09l.81.35Zm-3.51-4.07,0,0c0,.27.11.49.74.85l1.37.79V91.81h-2.13Z"/><path class="cls-18" d="M416.17,105.22,380.93,84.88a5.93,5.93,0,0,0-5.38,0l-8,4.64c-1.49.86-1.49,2.25,0,3.11L402.75,113a13.23,13.23,0,0,0,5.1,1.55l8.09.87c2.63.29,4.93-1,4.44-2.56l-1.52-4.67A5.62,5.62,0,0,0,416.17,105.22Z"/><path class="cls-19" d="M420.74,113.8l-.11-.35a5.6,5.6,0,0,0-2.69-2.94L382.7,90.17a5.93,5.93,0,0,0-5.38,0L370.5,94.1,403.19,113a13.23,13.23,0,0,0,5.1,1.55l8.09.87C418.43,115.62,420.25,114.86,420.74,113.8Z"/><path class="cls-3" d="M416.65,116.13c-.26,0-.52,0-.79,0l-8.09-.88a13.78,13.78,0,0,1-5.36-1.64L367.16,93.23a2.55,2.55,0,0,1-1.45-2.16,2.52,2.52,0,0,1,1.45-2.14l8-4.65a6.63,6.63,0,0,1,6.07,0l35.24,20.35a6.26,6.26,0,0,1,3,3.33l1.51,4.67a2,2,0,0,1-.41,2A5.17,5.17,0,0,1,416.65,116.13ZM378.24,84.92a4.87,4.87,0,0,0-2.34.55l-8,4.65c-.49.28-.77.63-.77.95s.28.68.77,1l35.24,20.35a12.41,12.41,0,0,0,4.83,1.46l8.09.88a4.27,4.27,0,0,0,3.54-1,.68.68,0,0,0,.17-.69l-1.51-4.67a5,5,0,0,0-2.38-2.56L380.59,85.47A4.91,4.91,0,0,0,378.24,84.92Z"/><path class="cls-7" d="M391.49,112.81a5.6,5.6,0,0,0-2.34-4.46l-5.88-3.4a1.5,1.5,0,0,0-1.5-.12l-.39.21-82.53,47.59a.1.1,0,0,0,0,.16l9.12,9.48a.13.13,0,0,0,.13,0l81.29-46.85,1.25-.72A2,2,0,0,0,391.49,112.81Z"/><path class="cls-2" d="M386.61,113.73l1.25-.72c.54-.31,2.94-1.5,2.94-2.52,0-1.29-2.66-2.13-3.5-3.09L383.21,105a1.5,1.5,0,0,0-1.5-.12l-.39.21-82.53,47.59a.1.1,0,0,0,0,.16l7.1,7.38Z"/><path class="cls-3" d="M308,163.15l-.49-.4L298.1,153l0-.41a.8.8,0,0,1,.38-.58l82.94-47.82a2.16,2.16,0,0,1,2.17.14l5.89,3.39a6.27,6.27,0,0,1,2.67,5.06,2.64,2.64,0,0,1-1.22,2.51l-1.24.72Zm-8.1-10.3,8.28,8.61,82.14-47.34c.15-.08.53-.29.53-1.31a4.9,4.9,0,0,0-2-3.86l-5.89-3.4a.86.86,0,0,0-.82-.11l-.39.21Z"/><path class="cls-2" d="M306.32,162.32l-5.89-3.4a5.57,5.57,0,0,1-2.33-4.45h0c0-1.72,1-2.51,2.33-1.77l5.89,3.4a5.58,5.58,0,0,1,2.33,4.46h0C308.65,162.28,307.61,163.07,306.32,162.32Z"/><path class="cls-3" d="M307.25,163.29a2.56,2.56,0,0,1-1.28-.37l-5.88-3.4a6.27,6.27,0,0,1-2.68-5.05,2.74,2.74,0,0,1,1.15-2.49,2.16,2.16,0,0,1,2.22.13l5.88,3.39a6.28,6.28,0,0,1,2.68,5.06,2.73,2.73,0,0,1-1.15,2.48A1.84,1.84,0,0,1,307.25,163.29Zm-.59-1.56a1,1,0,0,0,.84.12,1.53,1.53,0,0,0,.46-1.29,4.9,4.9,0,0,0-2-3.86l-5.88-3.4c-.2-.11-.57-.28-.84-.12a1.49,1.49,0,0,0-.46,1.29,4.92,4.92,0,0,0,2,3.86Z"/><rect class="cls-3" x="301.8" y="134.03" width="95.59" height="1.38" transform="translate(-20.4 193.62) rotate(-30.12)"/></g></svg>